<?xml version="1.0" encoding="utf-8" standalone="no"?>
<!DOCTYPE svg PUBLIC "-//W3C//DTD SVG 1.1//EN"
  "http://www.w3.org/Graphics/SVG/1.1/DTD/svg11.dtd">
<!-- Created with matplotlib (http://matplotlib.org/) -->
<svg height="288pt" version="1.1" viewBox="0 0 432 288" width="432pt" xmlns="http://www.w3.org/2000/svg" xmlns:xlink="http://www.w3.org/1999/xlink">
 <defs>
  <style type="text/css">
*{stroke-linecap:butt;stroke-linejoin:round;}
  </style>
 </defs>
 <g id="figure_1">
  <g id="patch_1">
   <path d="M 0 288 
L 432 288 
L 432 0 
L 0 0 
z
" style="fill:#ffffff;"/>
  </g>
  <g id="axes_1">
   <g id="patch_2">
    <path d="M 54 252 
L 388.8 252 
L 388.8 34.56 
L 54 34.56 
z
" style="fill:#ffffff;"/>
   </g>
   <g id="matplotlib.axis_1">
    <g id="xtick_1">
     <g id="line2d_1">
      <defs>
       <path d="M 0 0 
L 0 3.5 
" id="m6d2d581c2a" style="stroke:#000000;stroke-width:0.8;"/>
      </defs>
      <g>
       <use style="stroke:#000000;stroke-width:0.8;" x="54" xlink:href="#m6d2d581c2a" y="252"/>
      </g>
     </g>
     <g id="text_1">
      <!-- 0.0 -->
      <defs>
       <path d="M 31.78125 66.40625 
Q 24.171875 66.40625 20.328125 58.90625 
Q 16.5 51.421875 16.5 36.375 
Q 16.5 21.390625 20.328125 13.890625 
Q 24.171875 6.390625 31.78125 6.390625 
Q 39.453125 6.390625 43.28125 13.890625 
Q 47.125 21.390625 47.125 36.375 
Q 47.125 51.421875 43.28125 58.90625 
Q 39.453125 66.40625 31.78125 66.40625 
z
M 31.78125 74.21875 
Q 44.046875 74.21875 50.515625 64.515625 
Q 56.984375 54.828125 56.984375 36.375 
Q 56.984375 17.96875 50.515625 8.265625 
Q 44.046875 -1.421875 31.78125 -1.421875 
Q 19.53125 -1.421875 13.0625 8.265625 
Q 6.59375 17.96875 6.59375 36.375 
Q 6.59375 54.828125 13.0625 64.515625 
Q 19.53125 74.21875 31.78125 74.21875 
z
" id="DejaVuSans-30"/>
       <path d="M 10.6875 12.40625 
L 21 12.40625 
L 21 0 
L 10.6875 0 
z
" id="DejaVuSans-2e"/>
      </defs>
      <g transform="translate(46.048437 266.598437)scale(0.1 -0.1)">
       <use xlink:href="#DejaVuSans-30"/>
       <use x="63.623047" xlink:href="#DejaVuSans-2e"/>
       <use x="95.410156" xlink:href="#DejaVuSans-30"/>
      </g>
     </g>
    </g>
    <g id="xtick_2">
     <g id="line2d_2">
      <g>
       <use style="stroke:#000000;stroke-width:0.8;" x="120.96" xlink:href="#m6d2d581c2a" y="252"/>
      </g>
     </g>
     <g id="text_2">
      <!-- 0.2 -->
      <defs>
       <path d="M 19.1875 8.296875 
L 53.609375 8.296875 
L 53.609375 0 
L 7.328125 0 
L 7.328125 8.296875 
Q 12.9375 14.109375 22.625 23.890625 
Q 32.328125 33.6875 34.8125 36.53125 
Q 39.546875 41.84375 41.421875 45.53125 
Q 43.3125 49.21875 43.3125 52.78125 
Q 43.3125 58.59375 39.234375 62.25 
Q 35.15625 65.921875 28.609375 65.921875 
Q 23.96875 65.921875 18.8125 64.3125 
Q 13.671875 62.703125 7.8125 59.421875 
L 7.8125 69.390625 
Q 13.765625 71.78125 18.9375 73 
Q 24.125 74.21875 28.421875 74.21875 
Q 39.75 74.21875 46.484375 68.546875 
Q 53.21875 62.890625 53.21875 53.421875 
Q 53.21875 48.921875 51.53125 44.890625 
Q 49.859375 40.875 45.40625 35.40625 
Q 44.1875 33.984375 37.640625 27.21875 
Q 31.109375 20.453125 19.1875 8.296875 
z
" id="DejaVuSans-32"/>
      </defs>
      <g transform="translate(113.008438 266.598437)scale(0.1 -0.1)">
       <use xlink:href="#DejaVuSans-30"/>
       <use x="63.623047" xlink:href="#DejaVuSans-2e"/>
       <use x="95.410156" xlink:href="#DejaVuSans-32"/>
      </g>
     </g>
    </g>
    <g id="xtick_3">
     <g id="line2d_3">
      <g>
       <use style="stroke:#000000;stroke-width:0.8;" x="187.92" xlink:href="#m6d2d581c2a" y="252"/>
      </g>
     </g>
     <g id="text_3">
      <!-- 0.4 -->
      <defs>
       <path d="M 37.796875 64.3125 
L 12.890625 25.390625 
L 37.796875 25.390625 
z
M 35.203125 72.90625 
L 47.609375 72.90625 
L 47.609375 25.390625 
L 58.015625 25.390625 
L 58.015625 17.1875 
L 47.609375 17.1875 
L 47.609375 0 
L 37.796875 0 
L 37.796875 17.1875 
L 4.890625 17.1875 
L 4.890625 26.703125 
z
" id="DejaVuSans-34"/>
      </defs>
      <g transform="translate(179.968438 266.598437)scale(0.1 -0.1)">
       <use xlink:href="#DejaVuSans-30"/>
       <use x="63.623047" xlink:href="#DejaVuSans-2e"/>
       <use x="95.410156" xlink:href="#DejaVuSans-34"/>
      </g>
     </g>
    </g>
    <g id="xtick_4">
     <g id="line2d_4">
      <g>
       <use style="stroke:#000000;stroke-width:0.8;" x="254.88" xlink:href="#m6d2d581c2a" y="252"/>
      </g>
     </g>
     <g id="text_4">
      <!-- 0.6 -->
      <defs>
       <path d="M 33.015625 40.375 
Q 26.375 40.375 22.484375 35.828125 
Q 18.609375 31.296875 18.609375 23.390625 
Q 18.609375 15.53125 22.484375 10.953125 
Q 26.375 6.390625 33.015625 6.390625 
Q 39.65625 6.390625 43.53125 10.953125 
Q 47.40625 15.53125 47.40625 23.390625 
Q 47.40625 31.296875 43.53125 35.828125 
Q 39.65625 40.375 33.015625 40.375 
z
M 52.59375 71.296875 
L 52.59375 62.3125 
Q 48.875 64.0625 45.09375 64.984375 
Q 41.3125 65.921875 37.59375 65.921875 
Q 27.828125 65.921875 22.671875 59.328125 
Q 17.53125 52.734375 16.796875 39.40625 
Q 19.671875 43.65625 24.015625 45.921875 
Q 28.375 48.1875 33.59375 48.1875 
Q 44.578125 48.1875 50.953125 41.515625 
Q 57.328125 34.859375 57.328125 23.390625 
Q 57.328125 12.15625 50.6875 5.359375 
Q 44.046875 -1.421875 33.015625 -1.421875 
Q 20.359375 -1.421875 13.671875 8.265625 
Q 6.984375 17.96875 6.984375 36.375 
Q 6.984375 53.65625 15.1875 63.9375 
Q 23.390625 74.21875 37.203125 74.21875 
Q 40.921875 74.21875 44.703125 73.484375 
Q 48.484375 72.75 52.59375 71.296875 
z
" id="DejaVuSans-36"/>
      </defs>
      <g transform="translate(246.928438 266.598437)scale(0.1 -0.1)">
       <use xlink:href="#DejaVuSans-30"/>
       <use x="63.623047" xlink:href="#DejaVuSans-2e"/>
       <use x="95.410156" xlink:href="#DejaVuSans-36"/>
      </g>
     </g>
    </g>
    <g id="xtick_5">
     <g id="line2d_5">
      <g>
       <use style="stroke:#000000;stroke-width:0.8;" x="321.84" xlink:href="#m6d2d581c2a" y="252"/>
      </g>
     </g>
     <g id="text_5">
      <!-- 0.8 -->
      <defs>
       <path d="M 31.78125 34.625 
Q 24.75 34.625 20.71875 30.859375 
Q 16.703125 27.09375 16.703125 20.515625 
Q 16.703125 13.921875 20.71875 10.15625 
Q 24.75 6.390625 31.78125 6.390625 
Q 38.8125 6.390625 42.859375 10.171875 
Q 46.921875 13.96875 46.921875 20.515625 
Q 46.921875 27.09375 42.890625 30.859375 
Q 38.875 34.625 31.78125 34.625 
z
M 21.921875 38.8125 
Q 15.578125 40.375 12.03125 44.71875 
Q 8.5 49.078125 8.5 55.328125 
Q 8.5 64.0625 14.71875 69.140625 
Q 20.953125 74.21875 31.78125 74.21875 
Q 42.671875 74.21875 48.875 69.140625 
Q 55.078125 64.0625 55.078125 55.328125 
Q 55.078125 49.078125 51.53125 44.71875 
Q 48 40.375 41.703125 38.8125 
Q 48.828125 37.15625 52.796875 32.3125 
Q 56.78125 27.484375 56.78125 20.515625 
Q 56.78125 9.90625 50.3125 4.234375 
Q 43.84375 -1.421875 31.78125 -1.421875 
Q 19.734375 -1.421875 13.25 4.234375 
Q 6.78125 9.90625 6.78125 20.515625 
Q 6.78125 27.484375 10.78125 32.3125 
Q 14.796875 37.15625 21.921875 38.8125 
z
M 18.3125 54.390625 
Q 18.3125 48.734375 21.84375 45.5625 
Q 25.390625 42.390625 31.78125 42.390625 
Q 38.140625 42.390625 41.71875 45.5625 
Q 45.3125 48.734375 45.3125 54.390625 
Q 45.3125 60.0625 41.71875 63.234375 
Q 38.140625 66.40625 31.78125 66.40625 
Q 25.390625 66.40625 21.84375 63.234375 
Q 18.3125 60.0625 18.3125 54.390625 
z
" id="DejaVuSans-38"/>
      </defs>
      <g transform="translate(313.888438 266.598437)scale(0.1 -0.1)">
       <use xlink:href="#DejaVuSans-30"/>
       <use x="63.623047" xlink:href="#DejaVuSans-2e"/>
       <use x="95.410156" xlink:href="#DejaVuSans-38"/>
      </g>
     </g>
    </g>
    <g id="xtick_6">
     <g id="line2d_6">
      <g>
       <use style="stroke:#000000;stroke-width:0.8;" x="388.8" xlink:href="#m6d2d581c2a" y="252"/>
      </g>
     </g>
     <g id="text_6">
      <!-- 1.0 -->
      <defs>
       <path d="M 12.40625 8.296875 
L 28.515625 8.296875 
L 28.515625 63.921875 
L 10.984375 60.40625 
L 10.984375 69.390625 
L 28.421875 72.90625 
L 38.28125 72.90625 
L 38.28125 8.296875 
L 54.390625 8.296875 
L 54.390625 0 
L 12.40625 0 
z
" id="DejaVuSans-31"/>
      </defs>
      <g transform="translate(380.848437 266.598437)scale(0.1 -0.1)">
       <use xlink:href="#DejaVuSans-31"/>
       <use x="63.623047" xlink:href="#DejaVuSans-2e"/>
       <use x="95.410156" xlink:href="#DejaVuSans-30"/>
      </g>
     </g>
    </g>
    <g id="text_7">
     <!-- False Positive Rate -->
     <defs>
      <path d="M 9.8125 72.90625 
L 51.703125 72.90625 
L 51.703125 64.59375 
L 19.671875 64.59375 
L 19.671875 43.109375 
L 48.578125 43.109375 
L 48.578125 34.8125 
L 19.671875 34.8125 
L 19.671875 0 
L 9.8125 0 
z
" id="DejaVuSans-46"/>
      <path d="M 34.28125 27.484375 
Q 23.390625 27.484375 19.1875 25 
Q 14.984375 22.515625 14.984375 16.5 
Q 14.984375 11.71875 18.140625 8.90625 
Q 21.296875 6.109375 26.703125 6.109375 
Q 34.1875 6.109375 38.703125 11.40625 
Q 43.21875 16.703125 43.21875 25.484375 
L 43.21875 27.484375 
z
M 52.203125 31.203125 
L 52.203125 0 
L 43.21875 0 
L 43.21875 8.296875 
Q 40.140625 3.328125 35.546875 0.953125 
Q 30.953125 -1.421875 24.3125 -1.421875 
Q 15.921875 -1.421875 10.953125 3.296875 
Q 6 8.015625 6 15.921875 
Q 6 25.140625 12.171875 29.828125 
Q 18.359375 34.515625 30.609375 34.515625 
L 43.21875 34.515625 
L 43.21875 35.40625 
Q 43.21875 41.609375 39.140625 45 
Q 35.0625 48.390625 27.6875 48.390625 
Q 23 48.390625 18.546875 47.265625 
Q 14.109375 46.140625 10.015625 43.890625 
L 10.015625 52.203125 
Q 14.9375 54.109375 19.578125 55.046875 
Q 24.21875 56 28.609375 56 
Q 40.484375 56 46.34375 49.84375 
Q 52.203125 43.703125 52.203125 31.203125 
z
" id="DejaVuSans-61"/>
      <path d="M 9.421875 75.984375 
L 18.40625 75.984375 
L 18.40625 0 
L 9.421875 0 
z
" id="DejaVuSans-6c"/>
      <path d="M 44.28125 53.078125 
L 44.28125 44.578125 
Q 40.484375 46.53125 36.375 47.5 
Q 32.28125 48.484375 27.875 48.484375 
Q 21.1875 48.484375 17.84375 46.4375 
Q 14.5 44.390625 14.5 40.28125 
Q 14.5 37.15625 16.890625 35.375 
Q 19.28125 33.59375 26.515625 31.984375 
L 29.59375 31.296875 
Q 39.15625 29.25 43.1875 25.515625 
Q 47.21875 21.78125 47.21875 15.09375 
Q 47.21875 7.46875 41.1875 3.015625 
Q 35.15625 -1.421875 24.609375 -1.421875 
Q 20.21875 -1.421875 15.453125 -0.5625 
Q 10.6875 0.296875 5.421875 2 
L 5.421875 11.28125 
Q 10.40625 8.6875 15.234375 7.390625 
Q 20.0625 6.109375 24.8125 6.109375 
Q 31.15625 6.109375 34.5625 8.28125 
Q 37.984375 10.453125 37.984375 14.40625 
Q 37.984375 18.0625 35.515625 20.015625 
Q 33.0625 21.96875 24.703125 23.78125 
L 21.578125 24.515625 
Q 13.234375 26.265625 9.515625 29.90625 
Q 5.8125 33.546875 5.8125 39.890625 
Q 5.8125 47.609375 11.28125 51.796875 
Q 16.75 56 26.8125 56 
Q 31.78125 56 36.171875 55.265625 
Q 40.578125 54.546875 44.28125 53.078125 
z
" id="DejaVuSans-73"/>
      <path d="M 56.203125 29.59375 
L 56.203125 25.203125 
L 14.890625 25.203125 
Q 15.484375 15.921875 20.484375 11.0625 
Q 25.484375 6.203125 34.421875 6.203125 
Q 39.59375 6.203125 44.453125 7.46875 
Q 49.3125 8.734375 54.109375 11.28125 
L 54.109375 2.78125 
Q 49.265625 0.734375 44.1875 -0.34375 
Q 39.109375 -1.421875 33.890625 -1.421875 
Q 20.796875 -1.421875 13.15625 6.1875 
Q 5.515625 13.8125 5.515625 26.8125 
Q 5.515625 40.234375 12.765625 48.109375 
Q 20.015625 56 32.328125 56 
Q 43.359375 56 49.78125 48.890625 
Q 56.203125 41.796875 56.203125 29.59375 
z
M 47.21875 32.234375 
Q 47.125 39.59375 43.09375 43.984375 
Q 39.0625 48.390625 32.421875 48.390625 
Q 24.90625 48.390625 20.390625 44.140625 
Q 15.875 39.890625 15.1875 32.171875 
z
" id="DejaVuSans-65"/>
      <path id="DejaVuSans-20"/>
      <path d="M 19.671875 64.796875 
L 19.671875 37.40625 
L 32.078125 37.40625 
Q 38.96875 37.40625 42.71875 40.96875 
Q 46.484375 44.53125 46.484375 51.125 
Q 46.484375 57.671875 42.71875 61.234375 
Q 38.96875 64.796875 32.078125 64.796875 
z
M 9.8125 72.90625 
L 32.078125 72.90625 
Q 44.34375 72.90625 50.609375 67.359375 
Q 56.890625 61.8125 56.890625 51.125 
Q 56.890625 40.328125 50.609375 34.8125 
Q 44.34375 29.296875 32.078125 29.296875 
L 19.671875 29.296875 
L 19.671875 0 
L 9.8125 0 
z
" id="DejaVuSans-50"/>
      <path d="M 30.609375 48.390625 
Q 23.390625 48.390625 19.1875 42.75 
Q 14.984375 37.109375 14.984375 27.296875 
Q 14.984375 17.484375 19.15625 11.84375 
Q 23.34375 6.203125 30.609375 6.203125 
Q 37.796875 6.203125 41.984375 11.859375 
Q 46.1875 17.53125 46.1875 27.296875 
Q 46.1875 37.015625 41.984375 42.703125 
Q 37.796875 48.390625 30.609375 48.390625 
z
M 30.609375 56 
Q 42.328125 56 49.015625 48.375 
Q 55.71875 40.765625 55.71875 27.296875 
Q 55.71875 13.875 49.015625 6.21875 
Q 42.328125 -1.421875 30.609375 -1.421875 
Q 18.84375 -1.421875 12.171875 6.21875 
Q 5.515625 13.875 5.515625 27.296875 
Q 5.515625 40.765625 12.171875 48.375 
Q 18.84375 56 30.609375 56 
z
" id="DejaVuSans-6f"/>
      <path d="M 9.421875 54.6875 
L 18.40625 54.6875 
L 18.40625 0 
L 9.421875 0 
z
M 9.421875 75.984375 
L 18.40625 75.984375 
L 18.40625 64.59375 
L 9.421875 64.59375 
z
" id="DejaVuSans-69"/>
      <path d="M 18.3125 70.21875 
L 18.3125 54.6875 
L 36.8125 54.6875 
L 36.8125 47.703125 
L 18.3125 47.703125 
L 18.3125 18.015625 
Q 18.3125 11.328125 20.140625 9.421875 
Q 21.96875 7.515625 27.59375 7.515625 
L 36.8125 7.515625 
L 36.8125 0 
L 27.59375 0 
Q 17.1875 0 13.234375 3.875 
Q 9.28125 7.765625 9.28125 18.015625 
L 9.28125 47.703125 
L 2.6875 47.703125 
L 2.6875 54.6875 
L 9.28125 54.6875 
L 9.28125 70.21875 
z
" id="DejaVuSans-74"/>
      <path d="M 2.984375 54.6875 
L 12.5 54.6875 
L 29.59375 8.796875 
L 46.6875 54.6875 
L 56.203125 54.6875 
L 35.6875 0 
L 23.484375 0 
z
" id="DejaVuSans-76"/>
      <path d="M 44.390625 34.1875 
Q 47.5625 33.109375 50.5625 29.59375 
Q 53.5625 26.078125 56.59375 19.921875 
L 66.609375 0 
L 56 0 
L 46.6875 18.703125 
Q 43.0625 26.03125 39.671875 28.421875 
Q 36.28125 30.8125 30.421875 30.8125 
L 19.671875 30.8125 
L 19.671875 0 
L 9.8125 0 
L 9.8125 72.90625 
L 32.078125 72.90625 
Q 44.578125 72.90625 50.734375 67.671875 
Q 56.890625 62.453125 56.890625 51.90625 
Q 56.890625 45.015625 53.6875 40.46875 
Q 50.484375 35.9375 44.390625 34.1875 
z
M 19.671875 64.796875 
L 19.671875 38.921875 
L 32.078125 38.921875 
Q 39.203125 38.921875 42.84375 42.21875 
Q 46.484375 45.515625 46.484375 51.90625 
Q 46.484375 58.296875 42.84375 61.546875 
Q 39.203125 64.796875 32.078125 64.796875 
z
" id="DejaVuSans-52"/>
     </defs>
     <g transform="translate(174.194531 280.276563)scale(0.1 -0.1)">
      <use xlink:href="#DejaVuSans-46"/>
      <use x="57.378906" xlink:href="#DejaVuSans-61"/>
      <use x="118.658203" xlink:href="#DejaVuSans-6c"/>
      <use x="146.441406" xlink:href="#DejaVuSans-73"/>
      <use x="198.541016" xlink:href="#DejaVuSans-65"/>
      <use x="260.064453" xlink:href="#DejaVuSans-20"/>
      <use x="291.851562" xlink:href="#DejaVuSans-50"/>
      <use x="352.107422" xlink:href="#DejaVuSans-6f"/>
      <use x="413.289062" xlink:href="#DejaVuSans-73"/>
      <use x="465.388672" xlink:href="#DejaVuSans-69"/>
      <use x="493.171875" xlink:href="#DejaVuSans-74"/>
      <use x="532.380859" xlink:href="#DejaVuSans-69"/>
      <use x="560.164062" xlink:href="#DejaVuSans-76"/>
      <use x="619.34375" xlink:href="#DejaVuSans-65"/>
      <use x="680.867188" xlink:href="#DejaVuSans-20"/>
      <use x="712.654297" xlink:href="#DejaVuSans-52"/>
      <use x="782.105469" xlink:href="#DejaVuSans-61"/>
      <use x="843.384766" xlink:href="#DejaVuSans-74"/>
      <use x="882.59375" xlink:href="#DejaVuSans-65"/>
     </g>
    </g>
   </g>
   <g id="matplotlib.axis_2">
    <g id="ytick_1">
     <g id="line2d_7">
      <defs>
       <path d="M 0 0 
L -3.5 0 
" id="mb1bba4fb83" style="stroke:#000000;stroke-width:0.8;"/>
      </defs>
      <g>
       <use style="stroke:#000000;stroke-width:0.8;" x="54" xlink:href="#mb1bba4fb83" y="252"/>
      </g>
     </g>
     <g id="text_8">
      <!-- 0.0 -->
      <g transform="translate(31.096875 255.799219)scale(0.1 -0.1)">
       <use xlink:href="#DejaVuSans-30"/>
       <use x="63.623047" xlink:href="#DejaVuSans-2e"/>
       <use x="95.410156" xlink:href="#DejaVuSans-30"/>
      </g>
     </g>
    </g>
    <g id="ytick_2">
     <g id="line2d_8">
      <g>
       <use style="stroke:#000000;stroke-width:0.8;" x="54" xlink:href="#mb1bba4fb83" y="210.582857"/>
      </g>
     </g>
     <g id="text_9">
      <!-- 0.2 -->
      <g transform="translate(31.096875 214.382076)scale(0.1 -0.1)">
       <use xlink:href="#DejaVuSans-30"/>
       <use x="63.623047" xlink:href="#DejaVuSans-2e"/>
       <use x="95.410156" xlink:href="#DejaVuSans-32"/>
      </g>
     </g>
    </g>
    <g id="ytick_3">
     <g id="line2d_9">
      <g>
       <use style="stroke:#000000;stroke-width:0.8;" x="54" xlink:href="#mb1bba4fb83" y="169.165714"/>
      </g>
     </g>
     <g id="text_10">
      <!-- 0.4 -->
      <g transform="translate(31.096875 172.964933)scale(0.1 -0.1)">
       <use xlink:href="#DejaVuSans-30"/>
       <use x="63.623047" xlink:href="#DejaVuSans-2e"/>
       <use x="95.410156" xlink:href="#DejaVuSans-34"/>
      </g>
     </g>
    </g>
    <g id="ytick_4">
     <g id="line2d_10">
      <g>
       <use style="stroke:#000000;stroke-width:0.8;" x="54" xlink:href="#mb1bba4fb83" y="127.748571"/>
      </g>
     </g>
     <g id="text_11">
      <!-- 0.6 -->
      <g transform="translate(31.096875 131.54779)scale(0.1 -0.1)">
       <use xlink:href="#DejaVuSans-30"/>
       <use x="63.623047" xlink:href="#DejaVuSans-2e"/>
       <use x="95.410156" xlink:href="#DejaVuSans-36"/>
      </g>
     </g>
    </g>
    <g id="ytick_5">
     <g id="line2d_11">
      <g>
       <use style="stroke:#000000;stroke-width:0.8;" x="54" xlink:href="#mb1bba4fb83" y="86.331429"/>
      </g>
     </g>
     <g id="text_12">
      <!-- 0.8 -->
      <g transform="translate(31.096875 90.130647)scale(0.1 -0.1)">
       <use xlink:href="#DejaVuSans-30"/>
       <use x="63.623047" xlink:href="#DejaVuSans-2e"/>
       <use x="95.410156" xlink:href="#DejaVuSans-38"/>
      </g>
     </g>
    </g>
    <g id="ytick_6">
     <g id="line2d_12">
      <g>
       <use style="stroke:#000000;stroke-width:0.8;" x="54" xlink:href="#mb1bba4fb83" y="44.914286"/>
      </g>
     </g>
     <g id="text_13">
      <!-- 1.0 -->
      <g transform="translate(31.096875 48.713504)scale(0.1 -0.1)">
       <use xlink:href="#DejaVuSans-31"/>
       <use x="63.623047" xlink:href="#DejaVuSans-2e"/>
       <use x="95.410156" xlink:href="#DejaVuSans-30"/>
      </g>
     </g>
    </g>
    <g id="text_14">
     <!-- True Positive Rate -->
     <defs>
      <path d="M -0.296875 72.90625 
L 61.375 72.90625 
L 61.375 64.59375 
L 35.5 64.59375 
L 35.5 0 
L 25.59375 0 
L 25.59375 64.59375 
L -0.296875 64.59375 
z
" id="DejaVuSans-54"/>
      <path d="M 41.109375 46.296875 
Q 39.59375 47.171875 37.8125 47.578125 
Q 36.03125 48 33.890625 48 
Q 26.265625 48 22.1875 43.046875 
Q 18.109375 38.09375 18.109375 28.8125 
L 18.109375 0 
L 9.078125 0 
L 9.078125 54.6875 
L 18.109375 54.6875 
L 18.109375 46.1875 
Q 20.953125 51.171875 25.484375 53.578125 
Q 30.03125 56 36.53125 56 
Q 37.453125 56 38.578125 55.875 
Q 39.703125 55.765625 41.0625 55.515625 
z
" id="DejaVuSans-72"/>
      <path d="M 8.5 21.578125 
L 8.5 54.6875 
L 17.484375 54.6875 
L 17.484375 21.921875 
Q 17.484375 14.15625 20.5 10.265625 
Q 23.53125 6.390625 29.59375 6.390625 
Q 36.859375 6.390625 41.078125 11.03125 
Q 45.3125 15.671875 45.3125 23.6875 
L 45.3125 54.6875 
L 54.296875 54.6875 
L 54.296875 0 
L 45.3125 0 
L 45.3125 8.40625 
Q 42.046875 3.421875 37.71875 1 
Q 33.40625 -1.421875 27.6875 -1.421875 
Q 18.265625 -1.421875 13.375 4.4375 
Q 8.5 10.296875 8.5 21.578125 
z
M 31.109375 56 
z
" id="DejaVuSans-75"/>
     </defs>
     <g transform="translate(25.017187 188.826094)rotate(-90)scale(0.1 -0.1)">
      <use xlink:href="#DejaVuSans-54"/>
      <use x="60.865234" xlink:href="#DejaVuSans-72"/>
      <use x="101.978516" xlink:href="#DejaVuSans-75"/>
      <use x="165.357422" xlink:href="#DejaVuSans-65"/>
      <use x="226.880859" xlink:href="#DejaVuSans-20"/>
      <use x="258.667969" xlink:href="#DejaVuSans-50"/>
      <use x="318.923828" xlink:href="#DejaVuSans-6f"/>
      <use x="380.105469" xlink:href="#DejaVuSans-73"/>
      <use x="432.205078" xlink:href="#DejaVuSans-69"/>
      <use x="459.988281" xlink:href="#DejaVuSans-74"/>
      <use x="499.197266" xlink:href="#DejaVuSans-69"/>
      <use x="526.980469" xlink:href="#DejaVuSans-76"/>
      <use x="586.160156" xlink:href="#DejaVuSans-65"/>
      <use x="647.683594" xlink:href="#DejaVuSans-20"/>
      <use x="679.470703" xlink:href="#DejaVuSans-52"/>
      <use x="748.921875" xlink:href="#DejaVuSans-61"/>
      <use x="810.201172" xlink:href="#DejaVuSans-74"/>
      <use x="849.410156" xlink:href="#DejaVuSans-65"/>
     </g>
    </g>
   </g>
   <g id="line2d_13">
    <path clip-path="url(#pb2c1662d02)" d="M 54 251.984837 
L 54 251.924183 
L 54 251.924183 
L 54 251.924183 
L 54.046448 251.833203 
L 54.139345 251.105363 
L 54.162569 251.105363 
L 54.255466 249.543539 
L 54.27869 249.543539 
L 54.348363 249.179619 
L 54.394811 249.179619 
L 54.464484 248.785372 
L 54.510932 248.785372 
L 54.580605 248.163675 
L 54.603829 248.163675 
L 54.673502 248.072695 
L 54.766398 247.708775 
L 54.789623 247.708775 
L 54.882519 247.087078 
L 54.905744 247.087078 
L 54.99864 246.677668 
L 55.021865 246.677668 
L 55.114761 245.843685 
L 55.207658 245.737541 
L 55.300555 245.085518 
L 55.323779 245.085518 
L 55.323779 244.979374 
L 55.416676 244.448657 
L 55.486349 244.388004 
L 55.579245 243.645 
L 55.625694 243.55402 
L 55.71859 243.09912 
L 55.788263 243.023304 
L 55.857936 242.340953 
L 55.927608 242.310627 
L 56.020505 241.91638 
L 56.066953 241.901217 
L 56.066953 241.840563 
L 56.15985 240.854946 
L 56.183074 240.854946 
L 56.275971 240.202923 
L 56.32242 240.187759 
L 56.392092 239.899656 
L 56.484989 239.839003 
L 56.577886 239.186979 
L 56.624334 239.171816 
L 56.717231 238.701752 
L 56.810128 238.625935 
L 56.903024 238.080055 
L 56.972697 238.004239 
L 57.065594 237.640318 
L 57.088818 237.640318 
L 57.181715 236.836661 
L 57.274612 236.563721 
L 57.367508 236.093658 
L 57.390733 236.093658 
L 57.483629 235.411308 
L 57.530078 235.396144 
L 57.622974 234.728957 
L 57.669423 234.668304 
L 57.76232 234.198241 
L 57.831992 234.137587 
L 57.901665 233.622034 
L 57.971337 233.531054 
L 58.064234 232.985173 
L 58.087458 232.985173 
L 58.157131 232.42413 
L 58.226804 232.42413 
L 58.3197 231.984393 
L 58.366149 231.96923 
L 58.366149 231.893413 
L 58.459046 231.590146 
L 58.48227 231.590146 
L 58.575166 231.317206 
L 58.644839 231.256553 
L 58.737736 230.771326 
L 58.784184 230.665183 
L 58.877081 229.982832 
L 58.900305 229.982832 
L 58.993202 229.452116 
L 59.03965 229.391462 
L 59.132547 228.739439 
L 59.20222 228.648459 
L 59.295117 228.132905 
L 59.341565 228.117742 
L 59.434462 227.632515 
L 59.48091 227.541535 
L 59.573807 226.995655 
L 59.620255 226.965328 
L 59.713152 226.753041 
L 59.7596 226.753041 
L 59.852497 226.464938 
L 59.945394 226.358795 
L 60.038291 226.055528 
L 60.084739 226.025201 
L 60.177636 225.570301 
L 60.293757 225.494484 
L 60.386654 225.054747 
L 60.433102 225.039584 
L 60.433102 225.009257 
L 60.525999 224.266254 
L 60.618896 224.220764 
L 60.688568 223.735537 
L 60.804689 223.629394 
L 60.897586 222.93188 
L 61.060155 222.446653 
L 61.153052 222.128223 
L 61.245949 222.06757 
L 61.315622 221.597506 
L 61.431743 221.491363 
L 61.431743 221.445873 
L 61.594312 221.415546 
L 61.687209 220.915156 
L 61.80333 220.809013 
L 61.896226 220.475419 
L 61.919451 220.475419 
L 61.989123 220.278296 
L 62.012347 220.278296 
L 62.058796 220.172152 
L 62.151693 219.686926 
L 62.198141 219.671762 
L 62.291038 219.489802 
L 62.383935 219.383659 
L 62.476831 218.761962 
L 62.616176 218.670982 
L 62.685849 218.473859 
L 62.80197 218.413205 
L 62.894867 217.685365 
L 62.987764 217.594385 
L 63.08066 217.427588 
L 63.150333 217.382098 
L 63.150333 217.351771 
L 63.24323 217.109158 
L 63.312902 217.063668 
L 63.405799 216.487461 
L 63.452248 216.426808 
L 63.545144 216.017398 
L 63.614817 215.911254 
L 63.684489 215.714131 
L 63.754162 215.653478 
L 63.847059 215.289557 
L 63.939956 215.198577 
L 64.032852 214.955964 
L 64.079301 214.895311 
L 64.172198 214.743677 
L 64.24187 214.667861 
L 64.334767 214.410084 
L 64.40444 214.319104 
L 64.497336 213.697407 
L 64.52056 213.697407 
L 64.613457 213.34865 
L 64.776027 213.242507 
L 64.868923 213.03022 
L 64.938596 212.954403 
L 65.008269 212.71179 
L 65.054717 212.71179 
L 65.147614 211.953623 
L 65.194062 211.84748 
L 65.286959 211.392579 
L 65.379856 211.301599 
L 65.449528 211.043823 
L 65.542425 211.013496 
L 65.635322 210.770883 
L 65.658546 210.770883 
L 65.751443 210.240166 
L 65.797891 210.209839 
L 65.84434 210.027879 
L 65.960461 209.997552 
L 66.030133 209.800429 
L 66.169478 209.694286 
L 66.262375 209.254549 
L 66.308824 209.209059 
L 66.40172 208.829975 
L 66.494617 208.799649 
L 66.56429 208.511545 
L 66.587514 208.511545 
L 66.657186 208.375075 
L 66.750083 208.026318 
L 66.84298 207.950502 
L 66.912653 207.450111 
L 67.028774 207.359131 
L 67.12167 206.964885 
L 67.144895 206.964885 
L 67.237791 206.525148 
L 67.353912 206.434168 
L 67.446809 206.146064 
L 67.539706 206.085411 
L 67.632603 205.691164 
L 67.655827 205.691164 
L 67.748724 205.387897 
L 67.818396 205.296917 
L 67.911293 205.160447 
L 67.957741 205.114957 
L 68.050638 204.690384 
L 68.073862 204.690384 
L 68.166759 203.99287 
L 68.213208 203.90189 
L 68.28288 203.644113 
L 68.352553 203.644113 
L 68.44545 203.31052 
L 68.515122 203.280193 
L 68.608019 202.703986 
L 68.654467 202.613006 
L 68.72414 202.40072 
L 68.817037 202.30974 
L 68.909933 202.0368 
L 68.956382 201.930656 
L 69.049279 201.824513 
L 69.072503 201.824513 
L 69.072503 201.763859 
L 69.1654 201.445429 
L 69.188624 201.445429 
L 69.188624 201.354449 
L 69.281521 201.172489 
L 69.304745 201.172489 
L 69.397642 200.869222 
L 69.490538 200.763079 
L 69.583435 200.581119 
L 69.676332 200.505302 
L 69.769229 200.277852 
L 69.88535 200.171709 
L 69.978246 199.868442 
L 70.047919 199.762299 
L 70.140816 199.428705 
L 70.233713 199.322562 
L 70.326609 198.731192 
L 70.44273 198.655375 
L 70.535627 198.534068 
L 70.651748 198.473415 
L 70.744645 198.094332 
L 70.814317 197.988188 
L 70.88399 197.427145 
L 70.953663 197.366491 
L 71.023335 197.078388 
L 71.209129 196.972244 
L 71.302026 196.653814 
L 71.32525 196.653814 
L 71.371698 196.487018 
L 71.464595 196.441528 
L 71.534267 196.077608 
L 71.696837 195.971464 
L 71.766509 195.850157 
L 71.88263 195.774341 
L 71.975527 195.531727 
L 72.0452 195.425584 
L 72.138097 195.319441 
L 72.230993 195.213297 
L 72.32389 195.0465 
L 72.370339 194.970684 
L 72.463235 194.743234 
L 72.509684 194.68258 
L 72.60258 194.333824 
L 72.672253 194.258007 
L 72.76515 194.030557 
L 72.881271 193.969903 
L 72.974168 193.393697 
L 73.04384 193.287553 
L 73.136737 192.938796 
L 73.20641 192.923633 
L 73.299306 192.54455 
L 73.368979 192.49906 
L 73.438651 192.3171 
L 73.508324 192.210956 
L 73.577997 191.953179 
L 73.670893 191.892526 
L 73.717342 191.528606 
L 73.833463 191.498279 
L 73.879911 191.255666 
L 73.972808 191.225339 
L 74.065705 190.876582 
L 74.20505 190.785602 
L 74.297947 190.497499 
L 74.437292 190.406519 
L 74.530189 189.936455 
L 74.576637 189.906129 
L 74.669534 189.496719 
L 74.808879 189.390575 
L 74.901776 189.223778 
L 74.948224 189.193452 
L 75.017897 188.829532 
L 75.180466 188.723388 
L 75.250139 188.495938 
L 75.343036 188.420122 
L 75.435932 187.828751 
L 75.459156 187.828751 
L 75.552053 187.616465 
L 75.598502 187.601301 
L 75.691398 187.373851 
L 75.830744 187.313198 
L 75.92364 186.949278 
L 76.248779 186.843134 
L 76.341676 186.615684 
L 76.3649 186.615684 
L 76.434573 186.221437 
L 76.481021 186.221437 
L 76.573918 185.978824 
L 76.666815 185.903007 
L 76.736487 185.645231 
L 76.968729 185.554251 
L 76.968729 185.463271 
L 77.108074 185.448107 
L 77.200971 185.084187 
L 77.317092 184.993207 
L 77.409989 184.856737 
L 77.665455 184.750594 
L 77.758352 184.64445 
L 77.944145 184.568634 
L 78.037042 184.265367 
L 78.176387 184.159223 
L 78.269284 183.91661 
L 78.362181 183.87112 
L 78.455078 183.5072 
L 78.547974 183.431383 
L 78.640871 183.037136 
L 78.68732 183.037136 
L 78.780216 182.55191 
L 78.989234 182.445766 
L 79.082131 182.248643 
L 79.198252 182.248643 
L 79.267925 181.945376 
L 79.476942 181.869559 
L 79.569839 181.672436 
L 79.593063 181.672436 
L 79.68596 181.414659 
L 79.848529 181.308516 
L 79.871754 181.278189 
L 80.080771 181.172046 
L 80.173668 181.020412 
L 80.266565 180.990086 
L 80.359462 180.838452 
L 80.382686 180.838452 
L 80.452358 180.550349 
L 80.568479 180.444205 
L 80.661376 180.171265 
L 80.6846 180.171265 
L 80.754273 179.943815 
L 80.84717 179.883162 
L 80.940067 179.670875 
L 81.032963 179.564732 
L 81.12586 179.397935 
L 81.28843 179.306955 
L 81.358102 179.200812 
L 81.427775 179.140158 
L 81.520671 178.988525 
L 81.56712 178.988525 
L 81.660017 178.685258 
L 81.729689 178.609442 
L 81.822586 178.366828 
L 81.915483 178.260685 
L 82.00838 177.957418 
L 82.170949 177.866438 
L 82.263846 177.775458 
L 82.356743 177.669315 
L 82.426415 177.532844 
L 82.496088 177.532844 
L 82.56576 177.290231 
L 82.681881 177.229578 
L 82.774778 176.941474 
L 82.798002 176.941474 
L 82.890899 176.486574 
L 82.937347 176.486574 
L 83.030244 176.319777 
L 83.099917 176.274287 
L 83.192814 175.971021 
L 83.239262 175.940694 
L 83.332159 175.667754 
L 83.355383 175.667754 
L 83.44828 175.318997 
L 83.564401 175.212854 
L 83.657297 174.97024 
L 83.773418 174.87926 
L 83.866315 174.575993 
L 84.121781 173.96946 
L 84.191454 173.635866 
L 84.400472 173.544886 
L 84.493368 173.211293 
L 84.609489 173.10515 
L 84.679162 172.908026 
L 84.795283 172.8777 
L 84.88818 172.604759 
L 84.934628 172.559269 
L 85.027525 172.392473 
L 85.16687 172.286329 
L 85.259767 172.074043 
L 85.44556 171.983063 
L 85.538457 171.755613 
L 85.654578 171.679796 
L 85.747475 171.422019 
L 85.88682 171.331039 
L 85.979717 171.149079 
L 86.026165 171.073262 
L 86.119062 170.830649 
L 86.211959 170.724505 
L 86.304856 170.648689 
L 86.32808 170.648689 
L 86.420977 170.436402 
L 86.513873 170.360585 
L 86.60677 170.224115 
L 86.839012 170.117972 
L 86.931909 169.981502 
L 87.071254 169.890522 
L 87.164151 169.496275 
L 87.233824 169.420458 
L 87.280272 169.283988 
L 87.396393 169.208172 
L 87.442841 169.117192 
L 87.675083 169.026212 
L 87.76798 168.768435 
L 87.976998 168.586475 
L 88.04667 168.389351 
L 88.278912 168.283208 
L 88.371809 167.964778 
L 88.418257 167.919288 
L 88.511154 167.737328 
L 88.627275 167.646348 
L 88.696948 167.540204 
L 88.859517 167.479551 
L 88.92919 167.373408 
L 88.975638 167.373408 
L 89.068535 167.191448 
L 89.184656 167.085304 
L 89.254329 166.857854 
L 89.347225 166.751711 
L 89.440122 166.645567 
L 89.509795 166.554587 
L 89.602691 166.311974 
L 89.742037 166.114851 
L 89.834933 165.993544 
L 90.136848 165.902564 
L 90.229745 165.675114 
L 90.299417 165.56897 
L 90.392314 165.220214 
L 90.461987 165.20505 
L 90.554883 164.810803 
L 90.717453 164.70466 
L 90.81035 164.628843 
L 90.903246 164.553027 
L 90.996143 164.280087 
L 91.08904 164.20427 
L 91.181937 164.082963 
L 91.251609 163.991983 
L 91.298058 163.901003 
L 91.414179 163.84035 
L 91.507075 163.56741 
L 91.599972 163.47643 
L 91.669645 163.173163 
L 91.785766 163.06702 
L 91.878663 162.763753 
L 91.901887 162.763753 
L 91.994784 162.430159 
L 92.227026 162.324016 
L 92.319922 162.096566 
L 92.459267 161.990422 
L 92.552164 161.793299 
L 92.668285 161.717482 
L 92.737958 161.414216 
L 92.877303 161.353562 
L 92.9702 161.050296 
L 93.063097 160.959315 
L 93.155993 160.792519 
L 93.225666 160.716702 
L 93.318563 160.565069 
L 93.388235 160.504415 
L 93.457908 160.367945 
L 93.620477 160.261802 
L 93.69015 160.201149 
L 93.852719 160.095005 
L 93.945616 160.019188 
L 94.038513 159.973698 
L 94.13141 159.594615 
L 94.177858 159.579452 
L 94.270755 159.261022 
L 94.433324 159.170042 
L 94.526221 159.048735 
L 94.712014 158.972918 
L 94.804911 158.760631 
L 94.967481 158.669651 
L 95.037153 158.563508 
L 95.13005 158.487691 
L 95.222947 158.336058 
L 95.455189 158.245078 
L 95.548085 158.047954 
L 95.57131 158.047954 
L 95.640982 157.881158 
L 95.780327 157.790178 
L 95.803552 157.653708 
L 96.012569 157.547564 
L 96.105466 157.380768 
L 96.151915 157.380768 
L 96.244811 157.138154 
L 96.56995 156.850051 
L 96.662847 156.607437 
L 96.84864 156.501294 
L 96.941537 156.395151 
L 97.034434 156.289007 
L 97.057658 156.228354 
L 97.197003 156.1677 
L 97.197003 156.12221 
L 97.266676 155.970577 
L 97.359573 155.94025 
L 97.452469 155.727964 
L 97.545366 155.62182 
L 97.638263 155.53084 
L 97.73116 155.43986 
L 97.800832 155.227574 
L 97.963402 155.12143 
L 98.056299 155.03045 
L 98.195644 154.93947 
L 98.288541 154.742347 
L 98.497558 154.66653 
L 98.567231 154.469407 
L 98.660128 154.39359 
L 98.7298 154.30261 
L 98.845921 154.196466 
L 98.938818 154.07516 
L 99.031715 153.98418 
L 99.124612 153.75673 
L 99.217508 153.66575 
L 99.310405 153.57477 
L 99.426526 153.498953 
L 99.496199 153.25634 
L 99.681992 153.180523 
L 99.681992 153.165359 
L 99.751665 153.089543 
L 99.937458 153.028889 
L 100.030355 152.877256 
L 100.146476 152.816603 
L 100.239373 152.528499 
L 100.378718 152.452683 
L 100.471615 152.316213 
L 100.541287 152.225232 
L 100.61096 152.119089 
L 100.727081 152.012946 
L 100.819978 151.846149 
L 100.912875 151.846149 
L 101.005771 151.527719 
L 101.191565 151.421576 
L 101.261238 151.315432 
L 101.423807 151.224452 
L 101.493479 151.103145 
L 101.702497 151.012165 
L 101.795394 150.845369 
L 101.818618 150.845369 
L 101.841842 150.693735 
L 102.027636 150.602755 
L 102.074084 150.526939 
L 102.259878 150.481449 
L 102.32955 150.299488 
L 102.515344 150.208508 
L 102.608241 150.132692 
L 102.724362 150.026548 
L 102.817259 149.920405 
L 102.93338 149.814262 
L 103.026276 149.738445 
L 103.258518 149.632302 
L 103.304967 149.556485 
L 103.49076 149.450342 
L 103.583657 149.313871 
L 103.723002 149.222891 
L 103.815899 148.965115 
L 103.93202 148.858971 
L 104.024917 148.722501 
L 104.350055 148.616358 
L 104.396504 148.525378 
L 104.65197 148.449561 
L 104.721643 148.282764 
L 104.884212 148.191784 
L 104.977109 148.009824 
L 105.116454 147.918844 
L 105.162902 147.645904 
L 105.395144 147.554924 
L 105.441593 147.463944 
L 105.604162 147.357801 
L 105.673835 147.145514 
L 105.836404 147.084861 
L 105.929301 146.902901 
L 106.115094 146.842247 
L 106.207991 146.614797 
L 106.300888 146.569307 
L 106.393785 146.341857 
L 106.486681 146.235714 
L 106.509906 146.099244 
L 106.695699 146.008264 
L 106.788596 145.90212 
L 106.835044 145.795977 
L 106.927941 145.76565 
L 107.044062 145.659507 
L 107.136959 145.49271 
L 107.322752 145.386567 
L 107.415649 145.26526 
L 107.53177 145.21977 
L 107.624667 145.052973 
L 107.880133 144.94683 
L 107.97303 144.840687 
L 108.065927 144.780033 
L 108.158824 144.643563 
L 108.182048 144.643563 
L 108.274945 144.461603 
L 108.41429 144.40095 
L 108.507186 144.249316 
L 108.669756 144.1735 
L 108.762653 144.03703 
L 108.878774 143.930886 
L 108.948446 143.839906 
L 109.366482 143.733763 
L 109.459378 143.642783 
L 109.668396 143.53664 
L 109.761293 143.400169 
L 109.970311 143.294026 
L 110.063208 143.142393 
L 110.388346 143.051413 
L 110.481243 142.960433 
L 110.643812 142.899779 
L 110.667037 142.748146 
L 110.806382 142.657166 
L 110.899279 142.535859 
L 110.992175 142.460042 
L 111.061848 142.384226 
L 111.154745 142.369062 
L 111.247642 142.232592 
L 111.363762 142.141612 
L 111.456659 142.050632 
L 111.596004 141.959652 
L 111.688901 141.732202 
L 111.874695 141.626059 
L 111.967592 141.428935 
L 112.176609 141.322792 
L 112.269506 141.216649 
L 112.524972 141.110505 
L 112.571421 141.019525 
L 112.850111 140.913382 
L 112.919784 140.822402 
L 113.082353 140.716259 
L 113.17525 140.458482 
L 113.337819 140.367502 
L 113.384267 140.291685 
L 113.523613 140.200705 
L 113.570061 140.124888 
L 113.871976 140.064235 
L 113.964872 139.882275 
L 114.057769 139.806458 
L 114.127442 139.624498 
L 114.243563 139.533518 
L 114.336459 139.366721 
L 114.45258 139.260578 
L 114.545477 139.230251 
L 114.661598 139.169598 
L 114.754495 138.926985 
L 114.940289 138.820841 
L 115.033185 138.699535 
L 115.195755 138.593391 
L 115.265427 138.411431 
L 115.358324 138.350778 
L 115.451221 138.214308 
L 115.61379 138.123328 
L 115.683463 137.956531 
L 115.869256 137.850388 
L 115.892481 137.774571 
L 116.124723 137.668427 
L 116.124723 137.653264 
L 116.380189 137.562284 
L 116.473085 137.319671 
L 116.798224 137.259017 
L 116.891121 137.031567 
L 117.05369 136.940587 
L 117.146587 136.834444 
L 117.285932 136.728301 
L 117.355605 136.50085 
L 117.518174 136.394707 
L 117.611071 136.22791 
L 117.750416 136.13693 
L 117.843313 136.015624 
L 118.261349 135.90948 
L 118.354245 135.742684 
L 118.609711 135.651703 
L 118.679384 135.40909 
L 118.841953 135.302947 
L 118.911626 135.13615 
L 119.027747 135.030007 
L 119.120644 134.923863 
L 119.608352 134.86321 
L 119.701249 134.650923 
L 119.863818 134.559943 
L 119.933491 134.423473 
L 120.049612 134.31733 
L 120.142508 134.211186 
L 120.235405 134.105043 
L 120.328302 133.923083 
L 120.514095 133.847266 
L 120.560544 133.771449 
L 120.839234 133.665306 
L 120.908907 133.559163 
L 121.141149 133.453019 
L 121.187597 133.362039 
L 121.350166 133.255896 
L 121.396615 133.164916 
L 121.698529 133.058773 
L 121.791426 132.967793 
L 122.046892 132.861649 
L 122.116565 132.740342 
L 122.279134 132.664526 
L 122.348807 132.528056 
L 122.511376 132.467402 
L 122.604273 132.270279 
L 122.906188 132.194462 
L 122.97586 132.088319 
L 123.208102 131.982176 
L 123.277775 131.906359 
L 123.486792 131.830542 
L 123.556465 131.709235 
L 123.69581 131.603092 
L 123.765483 131.451459 
L 123.974501 131.345315 
L 123.997725 131.284662 
L 124.299639 131.208845 
L 124.392536 131.102702 
L 124.57833 130.996559 
L 124.671226 130.844925 
L 124.764123 130.753945 
L 124.85702 130.617475 
L 125.089262 130.511332 
L 125.158935 130.420352 
L 125.321504 130.314208 
L 125.414401 130.192902 
L 125.623418 130.117085 
L 125.623418 130.056432 
L 125.971781 129.950288 
L 126.064678 129.813818 
L 126.250472 129.753165 
L 126.343368 129.647021 
L 126.57561 129.540878 
L 126.668507 129.434735 
L 126.854301 129.343755 
L 126.947198 129.298265 
L 127.086543 129.192121 
L 127.17944 128.858528 
L 127.272336 128.782711 
L 127.365233 128.646241 
L 127.690372 128.540098 
L 127.713596 128.449118 
L 127.852941 128.342974 
L 127.922614 128.236831 
L 128.131632 128.130688 
L 128.201304 128.070034 
L 128.410322 127.963891 
L 128.503219 127.857747 
L 128.89803 127.797094 
L 128.990927 127.599971 
L 129.17672 127.493827 
L 129.246393 127.418011 
L 129.571532 127.311867 
L 129.664428 127.114744 
L 129.826998 127.008601 
L 129.873446 126.902457 
L 130.05924 126.82664 
L 130.152137 126.675007 
L 130.314706 126.568864 
L 130.407603 126.46272 
L 130.686293 126.356577 
L 130.755966 126.28076 
L 130.941759 126.204944 
L 131.011432 126.05331 
L 131.266898 125.947167 
L 131.33657 125.901677 
L 131.545588 125.82586 
L 131.638485 125.68939 
L 131.824279 125.583247 
L 131.893951 125.446777 
L 132.079745 125.355797 
L 132.172642 125.189 
L 132.590677 125.082857 
L 132.66035 124.976713 
L 133.055161 124.87057 
L 133.101609 124.840243 
L 133.264179 124.7341 
L 133.333851 124.673446 
L 133.496421 124.59763 
L 133.566093 124.491486 
L 133.751887 124.385343 
L 133.821559 124.339853 
L 133.960905 124.23371 
L 134.007353 124.173056 
L 134.471837 124.082076 
L 134.471837 124.051749 
L 134.727303 123.960769 
L 134.796976 123.839463 
L 135.029218 123.733319 
L 135.09889 123.581686 
L 135.191787 123.490706 
L 135.238235 123.414889 
L 135.516926 123.323909 
L 135.609822 123.187439 
L 135.772392 123.096459 
L 135.865289 122.929662 
L 136.027858 122.869009 
L 136.097531 122.747702 
L 136.352997 122.641559 
L 136.422669 122.565742 
L 136.515566 122.505089 
L 136.608463 122.368619 
L 136.771032 122.277639 
L 136.817481 122.141169 
L 137.119395 122.035025 
L 137.165844 121.928882 
L 137.328413 121.853065 
L 137.328413 121.837902 
L 137.398085 121.731759 
L 137.630327 121.625615 
L 137.7 121.580125 
L 137.862569 121.489145 
L 137.955466 121.292022 
L 138.118036 121.201042 
L 138.210932 121.049408 
L 138.257381 121.034245 
L 138.350277 120.837122 
L 140.463679 119.517911 
L 140.74237 119.442095 
L 140.835266 119.335951 
L 141.067508 119.260135 
L 141.160405 119.108501 
L 141.253302 119.002358 
L 141.322974 118.956868 
L 141.531992 118.881051 
L 141.578441 118.774908 
L 141.926804 118.668764 
L 141.973252 118.592948 
L 142.368063 118.517131 
L 142.46096 118.289681 
L 142.669978 118.183537 
L 142.693202 118.138047 
L 142.809323 118.092557 
L 142.855771 117.940924 
L 143.366704 117.849944 
L 143.4596 117.774127 
L 143.598946 117.667984 
L 143.691842 117.561841 
L 143.784739 117.486024 
L 143.854412 117.364717 
L 143.993757 117.304064 
L 144.086654 117.182757 
L 144.249223 117.122104 
L 144.272447 116.97047 
L 144.574362 116.864327 
L 144.667259 116.818837 
L 144.876276 116.727857 
L 144.922725 116.682367 
L 145.224639 116.591387 
L 145.224639 116.530734 
L 145.410433 116.439754 
L 145.410433 116.409427 
L 145.78202 116.303284 
L 145.828468 116.272957 
L 146.014262 116.166813 
L 146.083935 116.01518 
L 146.385849 115.909037 
L 146.385849 115.893873 
L 146.687764 115.78773 
L 146.78066 115.757403 
L 146.94323 115.681587 
L 147.036127 115.438973 
L 147.268368 115.33283 
L 147.361265 115.15087 
L 147.523835 115.044726 
L 147.616731 114.908256 
L 147.988319 114.83244 
L 148.081215 114.65048 
L 148.290233 114.5595 
L 148.359906 114.498846 
L 148.499251 114.407866 
L 148.568923 114.256233 
L 148.847614 114.150089 
L 148.940511 114.028783 
L 149.242425 113.922639 
L 149.312098 113.816496 
L 149.497891 113.710353 
L 149.521115 113.680026 
L 149.892703 113.573883 
L 149.985599 113.498066 
L 150.171393 113.391923 
L 150.26429 113.270616 
L 150.54298 113.179636 
L 150.635877 113.088656 
L 150.775222 113.012839 
L 150.844895 112.921859 
L 151.123585 112.830879 
L 151.193257 112.724736 
L 151.355827 112.694409 
L 151.448724 112.451796 
L 151.657741 112.345652 
L 151.750638 112.194019 
L 152.052553 112.118202 
L 152.122225 111.966569 
L 152.331243 111.860425 
L 152.354467 111.799772 
L 152.563485 111.754282 
L 152.563485 111.678465 
L 152.8654 111.572322 
L 152.888624 111.511669 
L 153.027969 111.451015 
L 153.120866 111.269055 
L 153.446004 111.162912 
L 153.492453 111.102258 
L 153.817592 110.996115 
L 153.86404 110.905135 
L 154.14273 110.798992 
L 154.189179 110.768665 
L 154.769784 110.677685 
L 154.839456 110.495725 
L 155.257492 110.389581 
L 155.350388 110.283438 
L 155.954218 110.177295 
L 155.954218 110.162131 
L 156.349029 110.055988 
L 156.418701 110.025661 
L 156.697392 109.919518 
L 156.74384 109.889191 
L 156.929634 109.828538 
L 156.999306 109.722395 
L 157.161876 109.616251 
L 157.208324 109.585925 
L 157.579911 109.479781 
L 157.649584 109.373638 
L 157.835377 109.267494 
L 157.928274 109.206841 
L 158.18374 109.146188 
L 158.253413 108.933901 
L 158.462431 108.842921 
L 158.555327 108.706451 
L 158.625 108.645798 
L 158.694673 108.479001 
L 159.019811 108.372857 
L 159.112708 108.297041 
L 159.391398 108.206061 
L 159.437847 108.130244 
L 159.78621 108.024101 
L 159.78621 108.008937 
L 160.204245 107.902794 
L 160.297142 107.826977 
L 160.50616 107.735997 
L 160.575832 107.675344 
L 160.78485 107.569201 
L 160.877747 107.508547 
L 160.993868 107.43273 
L 161.086765 107.265934 
L 161.202886 107.190117 
L 161.249334 107.099137 
L 161.481576 106.992994 
L 161.574473 106.856524 
L 161.899612 106.780707 
L 161.969284 106.689727 
L 162.178302 106.583584 
L 162.271199 106.52293 
L 162.456992 106.416787 
L 162.549889 106.325807 
L 162.758907 106.219663 
L 162.828579 106.174173 
L 162.9447 106.11352 
L 162.991149 105.97705 
L 163.246615 105.870907 
L 163.293063 105.84058 
L 163.641426 105.734437 
L 163.734323 105.688947 
L 163.966565 105.597967 
L 164.059462 105.491823 
L 164.291704 105.400843 
L 164.361376 105.234046 
L 164.570394 105.173393 
L 164.640067 105.006596 
L 164.849084 104.900453 
L 164.941981 104.79431 
L 165.313568 104.688166 
L 165.383241 104.627513 
L 165.615483 104.521369 
L 165.685155 104.369736 
L 165.894173 104.263593 
L 165.98707 104.172613 
L 166.26576 104.066469 
L 166.358657 103.960326 
L 166.846365 103.854183 
L 166.939262 103.778366 
L 167.334073 103.672223 
L 167.403746 103.611569 
L 167.612764 103.550916 
L 167.70566 103.459936 
L 167.86823 103.353792 
L 167.961127 103.217322 
L 168.402386 103.111179 
L 168.495283 103.020199 
L 168.797198 102.929219 
L 168.797198 102.883729 
L 169.168785 102.792749 
L 169.192009 102.716932 
L 169.610044 102.610789 
L 169.702941 102.489482 
L 169.935183 102.398502 
L 170.02808 102.277195 
L 170.074528 102.246869 
L 170.167425 102.004255 
L 170.283546 101.898112 
L 170.329994 101.807132 
L 170.701582 101.716152 
L 170.794478 101.610008 
L 170.957048 101.503865 
L 171.02672 101.428048 
L 171.444756 101.321905 
L 171.514428 101.185435 
L 171.769895 101.079292 
L 171.839567 100.988312 
L 172.350499 100.882168 
L 172.420172 100.851842 
L 172.745311 100.776025 
L 172.768535 100.715371 
L 173.024001 100.609228 
L 173.116898 100.472758 
L 173.674279 100.366615 
L 173.743951 100.321125 
L 174.022642 100.214981 
L 174.115538 100.078511 
L 174.254883 100.002695 
L 174.278108 99.926878 
L 174.78904 99.820735 
L 174.881937 99.729754 
L 175.114179 99.638774 
L 175.207075 99.471978 
L 175.462542 99.380998 
L 175.485766 99.274854 
L 175.834129 99.168711 
L 175.880577 99.108058 
L 176.112819 99.001914 
L 176.112819 98.986751 
L 176.414734 98.880608 
L 176.461182 98.819954 
L 176.623751 98.728974 
L 176.646976 98.607667 
L 177.018563 98.501524 
L 177.111459 98.410544 
L 177.297253 98.319564 
L 177.39015 98.243747 
L 177.738513 98.137604 
L 177.808185 98.046624 
L 178.1101 97.955644 
L 178.133324 97.910154 
L 178.435239 97.819174 
L 178.435239 97.743357 
L 178.528135 97.743357 
L 178.876498 97.606887 
L 179.085516 97.515907 
L 179.178413 97.455254 
L 179.317758 97.34911 
L 179.387431 97.273294 
L 179.782242 97.16715 
L 179.851915 97.136824 
L 180.084156 97.03068 
L 180.177053 96.954864 
L 180.339623 96.863884 
L 180.386071 96.75774 
L 180.780882 96.651597 
L 180.873779 96.590943 
L 181.26859 96.499963 
L 181.338263 96.454473 
L 181.593729 96.34833 
L 181.616953 96.318003 
L 181.918868 96.21186 
L 182.011765 96.181533 
L 182.336903 96.07539 
L 182.336903 96.045063 
L 182.754939 95.954083 
L 182.824612 95.878267 
L 183.265871 95.787286 
L 183.358768 95.696306 
L 183.753579 95.590163 
L 183.800028 95.52951 
L 183.985821 95.423366 
L 184.078718 95.39304 
L 184.450305 95.30206 
L 184.519978 95.135263 
L 184.612875 95.02912 
L 184.705771 94.98363 
L 184.845117 94.93814 
L 184.914789 94.786506 
L 185.239928 94.680363 
L 185.332825 94.650036 
L 185.588291 94.543893 
L 185.681188 94.468076 
L 186.02955 94.377096 
L 186.122447 94.270953 
L 186.285017 94.164809 
L 186.354689 94.088993 
L 186.610155 93.982849 
L 186.63338 93.952523 
L 186.935294 93.861542 
L 186.981743 93.785726 
L 187.213984 93.679582 
L 187.306881 93.649256 
L 187.562347 93.543112 
L 187.585572 93.436969 
L 187.887486 93.330826 
L 187.933935 93.285336 
L 188.328746 93.179192 
L 188.398418 93.088212 
L 188.63066 93.012396 
L 188.63066 92.951742 
L 188.909351 92.891089 
L 188.979023 92.754619 
L 189.420283 92.663639 
L 189.466731 92.602985 
L 189.95444 92.512005 
L 190.047336 92.299719 
L 190.209906 92.223902 
L 190.302802 92.148085 
L 190.488596 92.057105 
L 190.581493 91.981289 
L 191.045977 91.875145 
L 191.138873 91.708348 
L 191.440788 91.602205 
L 191.510461 91.541552 
L 191.765927 91.435408 
L 191.858824 91.329265 
L 191.998169 91.298938 
L 192.091065 91.132142 
L 192.578774 90.859201 
L 192.950361 90.753058 
L 193.043257 90.707568 
L 193.205827 90.616588 
L 193.229051 90.555935 
L 193.507741 90.449791 
L 193.600638 90.358811 
L 193.972225 90.252668 
L 194.065122 90.222341 
L 194.367037 90.116198 
L 194.436709 90.040381 
L 194.738624 89.934238 
L 194.831521 89.888748 
L 195.226332 89.782604 
L 195.226332 89.752278 
L 195.505022 89.661298 
L 195.574695 89.570318 
L 195.99273 89.464174 
L 196.085627 89.418684 
L 196.317869 89.327704 
L 196.387542 89.236724 
L 196.921698 89.145744 
L 196.991371 89.009274 
L 197.711321 88.903131 
L 197.780993 88.857641 
L 198.059684 88.781824 
L 198.059684 88.736334 
L 198.524168 88.630191 
L 198.59384 88.599864 
L 199.011876 88.493721 
L 199.058324 88.448231 
L 199.360239 88.342087 
L 199.429911 88.281434 
L 200.010516 88.175291 
L 200.103413 88.008494 
L 200.405327 87.932677 
L 200.405327 87.872024 
L 200.730466 87.76588 
L 200.823363 87.705227 
L 201.032381 87.62941 
L 201.078829 87.553594 
L 201.63621 87.462614 
L 201.682658 87.40196 
L 201.752331 87.40196 
L 201.845228 87.22 
L 202.100694 87.12902 
L 202.19359 87.03804 
L 202.79742 86.962223 
L 202.867092 86.871243 
L 203.308352 86.7651 
L 203.3548 86.734773 
L 203.610266 86.62863 
L 203.703163 86.507323 
L 204.005078 86.416343 
L 204.005078 86.386017 
L 204.492786 86.279873 
L 204.492786 86.26471 
L 204.7947 86.158567 
L 204.817925 86.12824 
L 205.003718 86.03726 
L 205.073391 85.931116 
L 205.328857 85.840136 
L 205.421754 85.703666 
L 205.630771 85.597523 
L 205.653996 85.567196 
L 206.048807 85.476216 
L 206.095255 85.415563 
L 206.606188 85.30942 
L 206.652636 85.26393 
L 207.024223 85.157786 
L 207.047447 85.112296 
L 207.604828 85.006153 
L 207.697725 84.915173 
L 207.906743 84.824193 
L 207.999639 84.718049 
L 208.324778 84.611906 
L 208.371226 84.566416 
L 208.928607 84.460273 
L 209.021504 84.414783 
L 209.369867 84.308639 
L 209.462764 84.247986 
L 209.741454 84.172169 
L 209.811127 84.111516 
L 210.182714 84.020536 
L 210.205938 83.899229 
L 210.71687 83.793086 
L 210.740094 83.747596 
L 210.949112 83.641452 
L 211.018785 83.565636 
L 211.367148 83.474656 
L 211.43682 83.353349 
L 211.645838 83.277532 
L 211.692286 83.186552 
L 212.365788 83.080409 
L 212.412236 82.959102 
L 212.644478 82.868122 
L 212.737375 82.701325 
L 213.03929 82.595182 
L 213.03929 82.534529 
L 213.31798 82.428385 
L 213.341204 82.382895 
L 213.805688 82.291915 
L 213.898585 82.231262 
L 214.363069 82.125118 
L 214.455966 82.034138 
L 214.711432 81.943158 
L 214.804329 81.867342 
L 215.361709 81.761198 
L 215.454606 81.715708 
L 215.942314 81.609565 
L 216.035211 81.564075 
L 216.174556 81.457932 
L 216.174556 81.412442 
L 216.755161 81.321462 
L 216.801609 81.275972 
L 217.0803 81.200155 
L 217.149972 81.109175 
L 217.521559 81.003031 
L 217.568008 80.942378 
L 217.823474 80.896888 
L 217.893147 80.745255 
L 218.125388 80.684601 
L 218.195061 80.593621 
L 218.427303 80.532968 
L 218.450527 80.457151 
L 218.682769 80.396498 
L 218.682769 80.335845 
L 219.054356 80.229701 
L 219.147253 80.138721 
L 219.356271 80.032578 
L 219.449168 79.941598 
L 219.565289 79.835454 
L 219.658185 79.744474 
L 220.145893 79.638331 
L 220.192342 79.562514 
L 220.354911 79.486698 
L 220.40136 79.410881 
L 220.819395 79.304737 
L 220.912292 79.198594 
L 221.330327 79.107614 
L 221.4 78.986307 
L 221.701915 78.880164 
L 221.794811 78.743694 
L 222.143174 78.637551 
L 222.143174 78.622387 
L 222.491537 78.531407 
L 222.584434 78.455591 
L 222.909573 78.349447 
L 222.979245 78.31912 
L 223.536626 78.212977 
L 223.583074 78.152324 
L 224.094007 78.061344 
L 224.186903 77.970364 
L 224.372697 77.86422 
L 224.465594 77.788404 
L 224.837181 77.68226 
L 224.883629 77.63677 
L 225.16232 77.530627 
L 225.16232 77.515464 
L 225.696476 77.439647 
L 225.789373 77.348667 
L 225.951942 77.31834 
L 225.951942 77.22736 
L 226.462875 77.121217 
L 226.555771 77.075727 
L 226.834462 76.969583 
L 226.834462 76.95442 
L 227.902775 76.848277 
L 227.995671 76.757297 
L 228.32081 76.666317 
L 228.32081 76.63599 
L 228.808518 76.560173 
L 228.831743 76.49952 
L 229.412347 76.393376 
L 229.412347 76.378213 
L 229.691038 76.332723 
L 229.76071 76.18109 
L 230.620006 76.074946 
L 230.64323 76.04462 
L 230.968368 75.938476 
L 231.061265 75.877823 
L 231.20061 75.802006 
L 231.20061 75.756516 
L 231.432852 75.665536 
L 231.502525 75.58972 
L 231.80444 75.483576 
L 231.897336 75.45325 
L 232.315372 75.347106 
L 232.315372 75.331943 
L 232.640511 75.225799 
L 232.710183 75.119656 
L 233.267564 75.013513 
L 233.360461 74.922533 
L 233.592703 74.831553 
L 233.592703 74.801226 
L 234.126859 74.695083 
L 234.126859 74.679919 
L 234.777137 74.588939 
L 234.870033 74.528286 
L 235.473862 74.422142 
L 235.520311 74.346326 
L 236.077691 74.240182 
L 236.12414 74.179529 
L 236.797642 74.073386 
L 236.84409 74.012732 
L 237.12278 73.906589 
L 237.192453 73.845936 
L 237.656937 73.754956 
L 237.749834 73.648812 
L 238.214317 73.542669 
L 238.307214 73.482016 
L 238.516232 73.375872 
L 238.609129 73.315219 
L 238.794922 73.269729 
L 238.864595 73.163585 
L 239.212958 73.057442 
L 239.212958 73.027115 
L 239.72389 72.920972 
L 239.747114 72.890645 
L 240.211598 72.784502 
L 240.258047 72.663195 
L 240.722531 72.557052 
L 240.792203 72.481235 
L 241.094118 72.390255 
L 241.094118 72.359928 
L 241.60505 72.253785 
L 241.674723 72.193132 
L 242.185655 72.117315 
L 242.232103 72.041498 
L 243.04495 71.935355 
L 243.04495 71.920192 
L 243.48621 71.814048 
L 243.509434 71.783722 
L 243.997142 71.677578 
L 244.090039 71.616925 
L 244.368729 71.510781 
L 244.461626 71.450128 
L 244.786765 71.389475 
L 244.833213 71.298495 
L 245.622836 71.192351 
L 245.692508 71.116535 
L 246.08732 71.010391 
L 246.133768 70.980065 
L 246.714373 70.889085 
L 246.784046 70.828431 
L 247.457547 70.737451 
L 247.503996 70.676798 
L 247.829134 70.600981 
L 247.922031 70.510001 
L 248.432963 70.403858 
L 248.502636 70.358368 
L 248.711654 70.312878 
L 248.781326 70.146081 
L 249.152913 70.039938 
L 249.199362 69.948958 
L 249.663846 69.842814 
L 249.68707 69.766998 
L 249.849639 69.660854 
L 249.872863 69.630528 
L 250.523141 69.524384 
L 250.523141 69.509221 
L 250.941176 69.403077 
L 250.964401 69.327261 
L 251.382436 69.281771 
L 251.452109 69.114974 
L 251.963041 69.008831 
L 252.055938 68.978504 
L 252.264956 68.887524 
L 252.334628 68.826871 
L 252.822336 68.735891 
L 252.915233 68.675237 
L 253.170699 68.569094 
L 253.170699 68.55393 
L 253.72808 68.46295 
L 253.820977 68.402297 
L 254.424806 68.296154 
L 254.471254 68.250664 
L 255.051859 68.14452 
L 255.098307 68.083867 
L 255.586016 67.977724 
L 255.678912 67.886744 
L 256.259517 67.7806 
L 256.352414 67.719947 
L 256.979467 67.613803 
L 257.002691 67.583477 
L 257.4904 67.477333 
L 257.560072 67.41668 
L 257.908435 67.3257 
L 257.908435 67.295373 
L 258.535488 67.18923 
L 258.581937 67.158903 
L 259.185766 67.05276 
L 259.278663 67.00727 
L 259.48768 66.901127 
L 259.510905 66.8708 
L 260.161182 66.77982 
L 260.184406 66.68884 
L 260.92758 66.582696 
L 260.950805 66.522043 
L 261.717203 66.4159 
L 261.8101 66.385573 
L 262.181687 66.294593 
L 262.181687 66.23394 
L 263.25 66.127796 
L 263.319673 66.09747 
L 263.621587 65.991326 
L 263.714484 65.87002 
L 264.504107 65.763876 
L 264.550555 65.718386 
L 265.13116 65.612243 
L 265.13116 65.566753 
L 265.618868 65.460609 
L 265.688541 65.430283 
L 266.199473 65.324139 
L 266.199473 65.308976 
L 266.687181 65.217996 
L 266.780078 65.127016 
L 267.523252 65.020873 
L 267.616149 64.990546 
L 268.103857 64.884403 
L 268.196754 64.823749 
L 268.45222 64.717606 
L 268.45222 64.702442 
L 269.683102 64.596299 
L 269.775999 64.550809 
L 270.774639 64.444666 
L 270.867536 64.384012 
L 271.424917 64.277869 
L 271.424917 64.262706 
L 271.842952 64.156562 
L 271.935849 64.095909 
L 272.795144 63.989766 
L 272.795144 63.974602 
L 273.422198 63.868459 
L 273.468646 63.822969 
L 274.095699 63.731989 
L 274.142148 63.671335 
L 274.722752 63.595519 
L 274.769201 63.519702 
L 275.117564 63.413559 
L 275.187236 63.368069 
L 275.698169 63.261925 
L 275.698169 63.231599 
L 276.255549 63.125455 
L 276.278774 63.034475 
L 276.859378 62.958659 
L 276.905827 62.852515 
L 277.347087 62.746372 
L 277.439983 62.716045 
L 278.183158 62.625065 
L 278.183158 62.594738 
L 279.205022 62.488595 
L 279.205022 62.458268 
L 279.785627 62.352125 
L 279.8553 62.276308 
L 280.389456 62.170165 
L 280.459129 62.139838 
L 280.598474 62.033695 
L 280.691371 61.988205 
L 281.457769 61.882062 
L 281.457769 61.866898 
L 282.224168 61.760755 
L 282.317064 61.700101 
L 282.758324 61.593958 
L 282.781548 61.563631 
L 283.547947 61.472651 
L 283.594395 61.427161 
L 284.151776 61.336181 
L 284.221448 61.275528 
L 284.802053 61.184548 
L 284.802053 61.154221 
L 285.382658 61.048078 
L 285.382658 61.032915 
L 285.940039 60.926771 
L 286.032936 60.896445 
L 286.706437 60.790301 
L 286.799334 60.729648 
L 287.031576 60.638668 
L 287.101249 60.578014 
L 287.728302 60.471871 
L 287.821199 60.411218 
L 288.471476 60.305074 
L 288.471476 60.289911 
L 289.563013 60.183768 
L 289.632686 60.107951 
L 290.282963 60.001808 
L 290.352636 59.956318 
L 291.211931 59.850174 
L 291.211931 59.835011 
L 291.792536 59.759194 
L 291.792536 59.713704 
L 292.373141 59.622724 
L 292.466038 59.546907 
L 292.930522 59.440764 
L 293.000194 59.364947 
L 293.720144 59.258804 
L 293.813041 59.213314 
L 294.347198 59.107171 
L 294.347198 59.092007 
L 295.438735 58.985864 
L 295.438735 58.970701 
L 296.089012 58.864557 
L 296.135461 58.83423 
L 296.57672 58.728087 
L 296.669617 58.621944 
L 296.971532 58.530964 
L 296.971532 58.500637 
L 297.645033 58.409657 
L 297.691482 58.303514 
L 298.01662 58.19737 
L 298.01662 58.182207 
L 298.666898 58.076064 
L 298.666898 58.01541 
L 299.17783 57.909267 
L 299.201054 57.87894 
L 300.037125 57.772797 
L 300.037125 57.757633 
L 300.292592 57.65149 
L 300.385488 57.590837 
L 301.291232 57.484693 
L 301.33768 57.454367 
L 301.848613 57.348223 
L 301.941509 57.302733 
L 302.615011 57.19659 
L 302.707908 57.1511 
L 303.520755 57.044957 
L 303.613651 56.96914 
L 304.194256 56.87816 
L 304.287153 56.83267 
L 305.309018 56.726526 
L 305.355466 56.681036 
L 306.168313 56.574893 
L 306.26121 56.46875 
L 307.097281 56.362606 
L 307.120505 56.33228 
L 307.654661 56.226136 
L 307.654661 56.19581 
L 308.328163 56.10483 
L 308.374612 56.029013 
L 309.280355 55.922869 
L 309.280355 55.907706 
L 310.418341 55.816726 
L 310.418341 55.786399 
L 311.324084 55.680256 
L 311.347309 55.589276 
L 312.090483 55.483133 
L 312.160155 55.422479 
L 312.671088 55.316336 
L 312.694312 55.286009 
L 313.878746 55.179866 
L 313.948418 55.134376 
L 314.482575 55.028233 
L 314.482575 55.013069 
L 314.923835 54.906926 
L 314.923835 54.891762 
L 315.388319 54.785619 
L 315.434767 54.740129 
L 316.177941 54.633986 
L 316.177941 54.618822 
L 316.990788 54.512679 
L 317.083685 54.467189 
L 317.687514 54.361046 
L 317.780411 54.330719 
L 318.105549 54.224576 
L 318.128774 54.194249 
L 318.570033 54.088106 
L 318.570033 54.072942 
L 319.220311 53.981962 
L 319.289983 53.936472 
L 320.218951 53.830329 
L 320.311848 53.800002 
L 320.613762 53.709022 
L 320.683435 53.633205 
L 321.728524 53.527062 
L 321.751748 53.496735 
L 322.820061 53.390592 
L 322.889734 53.329939 
L 323.586459 53.223795 
L 323.586459 53.208632 
L 324.376082 53.102489 
L 324.376082 53.056999 
L 325.119256 52.966018 
L 325.165705 52.890202 
L 325.815982 52.784058 
L 325.815982 52.768895 
L 326.512708 52.662752 
L 326.512708 52.617262 
L 327.604245 52.526282 
L 327.604245 52.480792 
L 328.324195 52.374648 
L 328.324195 52.359485 
L 329.020921 52.253342 
L 329.020921 52.238178 
L 329.973113 52.132035 
L 330.06601 52.010728 
L 330.50727 51.904585 
L 330.50727 51.889421 
L 331.22722 51.783278 
L 331.320117 51.752951 
L 332.318757 51.646808 
L 332.38843 51.601318 
L 332.94581 51.510338 
L 332.94581 51.480011 
L 333.456743 51.373868 
L 333.456743 51.358705 
L 334.664401 51.252561 
L 334.734073 51.222235 
L 335.152109 51.116091 
L 335.221781 51.085764 
L 336.104301 50.979621 
L 336.104301 50.964458 
L 336.847475 50.858314 
L 336.870699 50.827988 
L 337.939012 50.721844 
L 338.031909 50.661191 
L 339.14667 50.555048 
L 339.14667 50.539884 
L 339.959517 50.433741 
L 339.959517 50.418578 
L 340.842037 50.312434 
L 340.911709 50.282108 
L 341.445866 50.175964 
L 341.445866 50.160801 
L 342.049695 50.054657 
L 342.049695 50.039494 
L 342.676748 49.933351 
L 342.676748 49.918187 
L 342.978663 49.812044 
L 343.025111 49.751391 
L 343.721837 49.660411 
L 343.791509 49.614921 
L 344.650805 49.508777 
L 344.674029 49.478451 
L 345.556548 49.387471 
L 345.556548 49.357144 
L 346.299723 49.251001 
L 346.346171 49.190347 
L 347.089345 49.084204 
L 347.089345 49.06904 
L 348.3899 48.962897 
L 348.436349 48.93257 
L 349.527886 48.826427 
L 349.527886 48.811264 
L 350.480078 48.70512 
L 350.503302 48.674794 
L 351.641287 48.56865 
L 351.641287 48.553487 
L 353.15086 48.447344 
L 353.220533 48.417017 
L 354.776554 48.310874 
L 354.823002 48.280547 
L 355.682297 48.189567 
L 355.75197 48.128913 
L 356.727386 48.02277 
L 356.727386 48.007607 
L 358.051165 47.93179 
L 358.051165 47.8863 
L 358.956909 47.780157 
L 358.956909 47.764993 
L 360.536154 47.65885 
L 360.536154 47.643687 
L 361.976054 47.537543 
L 362.022503 47.507217 
L 363.5553 47.416237 
L 363.648196 47.34042 
L 364.577164 47.234277 
L 364.577164 47.219113 
L 365.27389 47.11297 
L 365.320339 47.082643 
L 365.99384 46.9765 
L 366.063513 46.93101 
L 367.410516 46.824866 
L 367.410516 46.809703 
L 367.967897 46.70356 
L 367.967897 46.688396 
L 368.827192 46.582253 
L 368.896865 46.536763 
L 370.452886 46.43062 
L 370.499334 46.400293 
L 371.683768 46.29415 
L 371.730216 46.263823 
L 372.63596 46.157679 
L 372.63596 46.142516 
L 374.726138 46.036373 
L 374.819034 45.975719 
L 375.980244 45.869576 
L 375.980244 45.839249 
L 377.629162 45.733106 
L 377.629162 45.702779 
L 378.349112 45.596636 
L 378.349112 45.581473 
L 379.905133 45.475329 
L 379.905133 45.460166 
L 381.739845 45.354023 
L 381.739845 45.323696 
L 381.786293 45.323696 
L 382.87783 45.217552 
L 382.87783 45.202389 
L 386.152442 45.096246 
L 386.152442 45.081082 
L 387.894256 44.974939 
L 387.894256 44.959776 
L 388.8 44.914286 
L 388.8 44.914286 
" style="fill:none;stroke:#ff0000;stroke-linecap:square;stroke-width:2;"/>
   </g>
   <g id="line2d_14">
    <path clip-path="url(#pb2c1662d02)" d="M 54 252 
L 388.8 44.914286 
" style="fill:none;stroke:#000000;stroke-dasharray:7.4,3.2;stroke-dashoffset:0;stroke-width:2;"/>
   </g>
   <g id="patch_3">
    <path d="M 54 252 
L 54 34.56 
" style="fill:none;stroke:#000000;stroke-linecap:square;stroke-linejoin:miter;stroke-width:0.8;"/>
   </g>
   <g id="patch_4">
    <path d="M 388.8 252 
L 388.8 34.56 
" style="fill:none;stroke:#000000;stroke-linecap:square;stroke-linejoin:miter;stroke-width:0.8;"/>
   </g>
   <g id="patch_5">
    <path d="M 54 252 
L 388.8 252 
" style="fill:none;stroke:#000000;stroke-linecap:square;stroke-linejoin:miter;stroke-width:0.8;"/>
   </g>
   <g id="patch_6">
    <path d="M 54 34.56 
L 388.8 34.56 
" style="fill:none;stroke:#000000;stroke-linecap:square;stroke-linejoin:miter;stroke-width:0.8;"/>
   </g>
   <g id="text_15">
    <!-- Receiver Operating Characteristic Curve -->
    <defs>
     <path d="M 48.78125 52.59375 
L 48.78125 44.1875 
Q 44.96875 46.296875 41.140625 47.34375 
Q 37.3125 48.390625 33.40625 48.390625 
Q 24.65625 48.390625 19.8125 42.84375 
Q 14.984375 37.3125 14.984375 27.296875 
Q 14.984375 17.28125 19.8125 11.734375 
Q 24.65625 6.203125 33.40625 6.203125 
Q 37.3125 6.203125 41.140625 7.25 
Q 44.96875 8.296875 48.78125 10.40625 
L 48.78125 2.09375 
Q 45.015625 0.34375 40.984375 -0.53125 
Q 36.96875 -1.421875 32.421875 -1.421875 
Q 20.0625 -1.421875 12.78125 6.34375 
Q 5.515625 14.109375 5.515625 27.296875 
Q 5.515625 40.671875 12.859375 48.328125 
Q 20.21875 56 33.015625 56 
Q 37.15625 56 41.109375 55.140625 
Q 45.0625 54.296875 48.78125 52.59375 
z
" id="DejaVuSans-63"/>
     <path d="M 39.40625 66.21875 
Q 28.65625 66.21875 22.328125 58.203125 
Q 16.015625 50.203125 16.015625 36.375 
Q 16.015625 22.609375 22.328125 14.59375 
Q 28.65625 6.59375 39.40625 6.59375 
Q 50.140625 6.59375 56.421875 14.59375 
Q 62.703125 22.609375 62.703125 36.375 
Q 62.703125 50.203125 56.421875 58.203125 
Q 50.140625 66.21875 39.40625 66.21875 
z
M 39.40625 74.21875 
Q 54.734375 74.21875 63.90625 63.9375 
Q 73.09375 53.65625 73.09375 36.375 
Q 73.09375 19.140625 63.90625 8.859375 
Q 54.734375 -1.421875 39.40625 -1.421875 
Q 24.03125 -1.421875 14.8125 8.828125 
Q 5.609375 19.09375 5.609375 36.375 
Q 5.609375 53.65625 14.8125 63.9375 
Q 24.03125 74.21875 39.40625 74.21875 
z
" id="DejaVuSans-4f"/>
     <path d="M 18.109375 8.203125 
L 18.109375 -20.796875 
L 9.078125 -20.796875 
L 9.078125 54.6875 
L 18.109375 54.6875 
L 18.109375 46.390625 
Q 20.953125 51.265625 25.265625 53.625 
Q 29.59375 56 35.59375 56 
Q 45.5625 56 51.78125 48.09375 
Q 58.015625 40.1875 58.015625 27.296875 
Q 58.015625 14.40625 51.78125 6.484375 
Q 45.5625 -1.421875 35.59375 -1.421875 
Q 29.59375 -1.421875 25.265625 0.953125 
Q 20.953125 3.328125 18.109375 8.203125 
z
M 48.6875 27.296875 
Q 48.6875 37.203125 44.609375 42.84375 
Q 40.53125 48.484375 33.40625 48.484375 
Q 26.265625 48.484375 22.1875 42.84375 
Q 18.109375 37.203125 18.109375 27.296875 
Q 18.109375 17.390625 22.1875 11.75 
Q 26.265625 6.109375 33.40625 6.109375 
Q 40.53125 6.109375 44.609375 11.75 
Q 48.6875 17.390625 48.6875 27.296875 
z
" id="DejaVuSans-70"/>
     <path d="M 54.890625 33.015625 
L 54.890625 0 
L 45.90625 0 
L 45.90625 32.71875 
Q 45.90625 40.484375 42.875 44.328125 
Q 39.84375 48.1875 33.796875 48.1875 
Q 26.515625 48.1875 22.3125 43.546875 
Q 18.109375 38.921875 18.109375 30.90625 
L 18.109375 0 
L 9.078125 0 
L 9.078125 54.6875 
L 18.109375 54.6875 
L 18.109375 46.1875 
Q 21.34375 51.125 25.703125 53.5625 
Q 30.078125 56 35.796875 56 
Q 45.21875 56 50.046875 50.171875 
Q 54.890625 44.34375 54.890625 33.015625 
z
" id="DejaVuSans-6e"/>
     <path d="M 45.40625 27.984375 
Q 45.40625 37.75 41.375 43.109375 
Q 37.359375 48.484375 30.078125 48.484375 
Q 22.859375 48.484375 18.828125 43.109375 
Q 14.796875 37.75 14.796875 27.984375 
Q 14.796875 18.265625 18.828125 12.890625 
Q 22.859375 7.515625 30.078125 7.515625 
Q 37.359375 7.515625 41.375 12.890625 
Q 45.40625 18.265625 45.40625 27.984375 
z
M 54.390625 6.78125 
Q 54.390625 -7.171875 48.1875 -13.984375 
Q 42 -20.796875 29.203125 -20.796875 
Q 24.46875 -20.796875 20.265625 -20.09375 
Q 16.0625 -19.390625 12.109375 -17.921875 
L 12.109375 -9.1875 
Q 16.0625 -11.328125 19.921875 -12.34375 
Q 23.78125 -13.375 27.78125 -13.375 
Q 36.625 -13.375 41.015625 -8.765625 
Q 45.40625 -4.15625 45.40625 5.171875 
L 45.40625 9.625 
Q 42.625 4.78125 38.28125 2.390625 
Q 33.9375 0 27.875 0 
Q 17.828125 0 11.671875 7.65625 
Q 5.515625 15.328125 5.515625 27.984375 
Q 5.515625 40.671875 11.671875 48.328125 
Q 17.828125 56 27.875 56 
Q 33.9375 56 38.28125 53.609375 
Q 42.625 51.21875 45.40625 46.390625 
L 45.40625 54.6875 
L 54.390625 54.6875 
z
" id="DejaVuSans-67"/>
     <path d="M 64.40625 67.28125 
L 64.40625 56.890625 
Q 59.421875 61.53125 53.78125 63.8125 
Q 48.140625 66.109375 41.796875 66.109375 
Q 29.296875 66.109375 22.65625 58.46875 
Q 16.015625 50.828125 16.015625 36.375 
Q 16.015625 21.96875 22.65625 14.328125 
Q 29.296875 6.6875 41.796875 6.6875 
Q 48.140625 6.6875 53.78125 8.984375 
Q 59.421875 11.28125 64.40625 15.921875 
L 64.40625 5.609375 
Q 59.234375 2.09375 53.4375 0.328125 
Q 47.65625 -1.421875 41.21875 -1.421875 
Q 24.65625 -1.421875 15.125 8.703125 
Q 5.609375 18.84375 5.609375 36.375 
Q 5.609375 53.953125 15.125 64.078125 
Q 24.65625 74.21875 41.21875 74.21875 
Q 47.75 74.21875 53.53125 72.484375 
Q 59.328125 70.75 64.40625 67.28125 
z
" id="DejaVuSans-43"/>
     <path d="M 54.890625 33.015625 
L 54.890625 0 
L 45.90625 0 
L 45.90625 32.71875 
Q 45.90625 40.484375 42.875 44.328125 
Q 39.84375 48.1875 33.796875 48.1875 
Q 26.515625 48.1875 22.3125 43.546875 
Q 18.109375 38.921875 18.109375 30.90625 
L 18.109375 0 
L 9.078125 0 
L 9.078125 75.984375 
L 18.109375 75.984375 
L 18.109375 46.1875 
Q 21.34375 51.125 25.703125 53.5625 
Q 30.078125 56 35.796875 56 
Q 45.21875 56 50.046875 50.171875 
Q 54.890625 44.34375 54.890625 33.015625 
z
" id="DejaVuSans-68"/>
    </defs>
    <g transform="translate(100.021875 28.56)scale(0.12 -0.12)">
     <use xlink:href="#DejaVuSans-52"/>
     <use x="69.419922" xlink:href="#DejaVuSans-65"/>
     <use x="130.943359" xlink:href="#DejaVuSans-63"/>
     <use x="185.923828" xlink:href="#DejaVuSans-65"/>
     <use x="247.447266" xlink:href="#DejaVuSans-69"/>
     <use x="275.230469" xlink:href="#DejaVuSans-76"/>
     <use x="334.410156" xlink:href="#DejaVuSans-65"/>
     <use x="395.933594" xlink:href="#DejaVuSans-72"/>
     <use x="437.046875" xlink:href="#DejaVuSans-20"/>
     <use x="468.833984" xlink:href="#DejaVuSans-4f"/>
     <use x="547.544922" xlink:href="#DejaVuSans-70"/>
     <use x="611.021484" xlink:href="#DejaVuSans-65"/>
     <use x="672.544922" xlink:href="#DejaVuSans-72"/>
     <use x="713.658203" xlink:href="#DejaVuSans-61"/>
     <use x="774.9375" xlink:href="#DejaVuSans-74"/>
     <use x="814.146484" xlink:href="#DejaVuSans-69"/>
     <use x="841.929688" xlink:href="#DejaVuSans-6e"/>
     <use x="905.308594" xlink:href="#DejaVuSans-67"/>
     <use x="968.785156" xlink:href="#DejaVuSans-20"/>
     <use x="1000.572266" xlink:href="#DejaVuSans-43"/>
     <use x="1070.396484" xlink:href="#DejaVuSans-68"/>
     <use x="1133.775391" xlink:href="#DejaVuSans-61"/>
     <use x="1195.054688" xlink:href="#DejaVuSans-72"/>
     <use x="1236.167969" xlink:href="#DejaVuSans-61"/>
     <use x="1297.447266" xlink:href="#DejaVuSans-63"/>
     <use x="1352.427734" xlink:href="#DejaVuSans-74"/>
     <use x="1391.636719" xlink:href="#DejaVuSans-65"/>
     <use x="1453.160156" xlink:href="#DejaVuSans-72"/>
     <use x="1494.273438" xlink:href="#DejaVuSans-69"/>
     <use x="1522.056641" xlink:href="#DejaVuSans-73"/>
     <use x="1574.15625" xlink:href="#DejaVuSans-74"/>
     <use x="1613.365234" xlink:href="#DejaVuSans-69"/>
     <use x="1641.148438" xlink:href="#DejaVuSans-63"/>
     <use x="1696.128906" xlink:href="#DejaVuSans-20"/>
     <use x="1727.916016" xlink:href="#DejaVuSans-43"/>
     <use x="1797.740234" xlink:href="#DejaVuSans-75"/>
     <use x="1861.119141" xlink:href="#DejaVuSans-72"/>
     <use x="1902.232422" xlink:href="#DejaVuSans-76"/>
     <use x="1961.412109" xlink:href="#DejaVuSans-65"/>
    </g>
   </g>
   <g id="legend_1">
    <g id="patch_7">
     <path d="M 146.476562 247 
L 381.8 247 
Q 383.8 247 383.8 245 
L 383.8 231.321875 
Q 383.8 229.321875 381.8 229.321875 
L 146.476562 229.321875 
Q 144.476562 229.321875 144.476562 231.321875 
L 144.476562 245 
Q 144.476562 247 146.476562 247 
z
" style="fill:#ffffff;opacity:0.8;stroke:#cccccc;stroke-linejoin:miter;"/>
    </g>
    <g id="line2d_15">
     <path d="M 148.476562 237.420312 
L 168.476562 237.420312 
" style="fill:none;stroke:#ff0000;stroke-linecap:square;stroke-width:2;"/>
    </g>
    <g id="line2d_16"/>
    <g id="text_16">
     <!-- ROC curve for nn model (area = 0.7569) -->
     <defs>
      <path d="M 37.109375 75.984375 
L 37.109375 68.5 
L 28.515625 68.5 
Q 23.6875 68.5 21.796875 66.546875 
Q 19.921875 64.59375 19.921875 59.515625 
L 19.921875 54.6875 
L 34.71875 54.6875 
L 34.71875 47.703125 
L 19.921875 47.703125 
L 19.921875 0 
L 10.890625 0 
L 10.890625 47.703125 
L 2.296875 47.703125 
L 2.296875 54.6875 
L 10.890625 54.6875 
L 10.890625 58.5 
Q 10.890625 67.625 15.140625 71.796875 
Q 19.390625 75.984375 28.609375 75.984375 
z
" id="DejaVuSans-66"/>
      <path d="M 52 44.1875 
Q 55.375 50.25 60.0625 53.125 
Q 64.75 56 71.09375 56 
Q 79.640625 56 84.28125 50.015625 
Q 88.921875 44.046875 88.921875 33.015625 
L 88.921875 0 
L 79.890625 0 
L 79.890625 32.71875 
Q 79.890625 40.578125 77.09375 44.375 
Q 74.3125 48.1875 68.609375 48.1875 
Q 61.625 48.1875 57.5625 43.546875 
Q 53.515625 38.921875 53.515625 30.90625 
L 53.515625 0 
L 44.484375 0 
L 44.484375 32.71875 
Q 44.484375 40.625 41.703125 44.40625 
Q 38.921875 48.1875 33.109375 48.1875 
Q 26.21875 48.1875 22.15625 43.53125 
Q 18.109375 38.875 18.109375 30.90625 
L 18.109375 0 
L 9.078125 0 
L 9.078125 54.6875 
L 18.109375 54.6875 
L 18.109375 46.1875 
Q 21.1875 51.21875 25.484375 53.609375 
Q 29.78125 56 35.6875 56 
Q 41.65625 56 45.828125 52.96875 
Q 50 49.953125 52 44.1875 
z
" id="DejaVuSans-6d"/>
      <path d="M 45.40625 46.390625 
L 45.40625 75.984375 
L 54.390625 75.984375 
L 54.390625 0 
L 45.40625 0 
L 45.40625 8.203125 
Q 42.578125 3.328125 38.25 0.953125 
Q 33.9375 -1.421875 27.875 -1.421875 
Q 17.96875 -1.421875 11.734375 6.484375 
Q 5.515625 14.40625 5.515625 27.296875 
Q 5.515625 40.1875 11.734375 48.09375 
Q 17.96875 56 27.875 56 
Q 33.9375 56 38.25 53.625 
Q 42.578125 51.265625 45.40625 46.390625 
z
M 14.796875 27.296875 
Q 14.796875 17.390625 18.875 11.75 
Q 22.953125 6.109375 30.078125 6.109375 
Q 37.203125 6.109375 41.296875 11.75 
Q 45.40625 17.390625 45.40625 27.296875 
Q 45.40625 37.203125 41.296875 42.84375 
Q 37.203125 48.484375 30.078125 48.484375 
Q 22.953125 48.484375 18.875 42.84375 
Q 14.796875 37.203125 14.796875 27.296875 
z
" id="DejaVuSans-64"/>
      <path d="M 31 75.875 
Q 24.46875 64.65625 21.28125 53.65625 
Q 18.109375 42.671875 18.109375 31.390625 
Q 18.109375 20.125 21.3125 9.0625 
Q 24.515625 -2 31 -13.1875 
L 23.1875 -13.1875 
Q 15.875 -1.703125 12.234375 9.375 
Q 8.59375 20.453125 8.59375 31.390625 
Q 8.59375 42.28125 12.203125 53.3125 
Q 15.828125 64.359375 23.1875 75.875 
z
" id="DejaVuSans-28"/>
      <path d="M 10.59375 45.40625 
L 73.1875 45.40625 
L 73.1875 37.203125 
L 10.59375 37.203125 
z
M 10.59375 25.484375 
L 73.1875 25.484375 
L 73.1875 17.1875 
L 10.59375 17.1875 
z
" id="DejaVuSans-3d"/>
      <path d="M 8.203125 72.90625 
L 55.078125 72.90625 
L 55.078125 68.703125 
L 28.609375 0 
L 18.3125 0 
L 43.21875 64.59375 
L 8.203125 64.59375 
z
" id="DejaVuSans-37"/>
      <path d="M 10.796875 72.90625 
L 49.515625 72.90625 
L 49.515625 64.59375 
L 19.828125 64.59375 
L 19.828125 46.734375 
Q 21.96875 47.46875 24.109375 47.828125 
Q 26.265625 48.1875 28.421875 48.1875 
Q 40.625 48.1875 47.75 41.5 
Q 54.890625 34.8125 54.890625 23.390625 
Q 54.890625 11.625 47.5625 5.09375 
Q 40.234375 -1.421875 26.90625 -1.421875 
Q 22.3125 -1.421875 17.546875 -0.640625 
Q 12.796875 0.140625 7.71875 1.703125 
L 7.71875 11.625 
Q 12.109375 9.234375 16.796875 8.0625 
Q 21.484375 6.890625 26.703125 6.890625 
Q 35.15625 6.890625 40.078125 11.328125 
Q 45.015625 15.765625 45.015625 23.390625 
Q 45.015625 31 40.078125 35.4375 
Q 35.15625 39.890625 26.703125 39.890625 
Q 22.75 39.890625 18.8125 39.015625 
Q 14.890625 38.140625 10.796875 36.28125 
z
" id="DejaVuSans-35"/>
      <path d="M 10.984375 1.515625 
L 10.984375 10.5 
Q 14.703125 8.734375 18.5 7.8125 
Q 22.3125 6.890625 25.984375 6.890625 
Q 35.75 6.890625 40.890625 13.453125 
Q 46.046875 20.015625 46.78125 33.40625 
Q 43.953125 29.203125 39.59375 26.953125 
Q 35.25 24.703125 29.984375 24.703125 
Q 19.046875 24.703125 12.671875 31.3125 
Q 6.296875 37.9375 6.296875 49.421875 
Q 6.296875 60.640625 12.9375 67.421875 
Q 19.578125 74.21875 30.609375 74.21875 
Q 43.265625 74.21875 49.921875 64.515625 
Q 56.59375 54.828125 56.59375 36.375 
Q 56.59375 19.140625 48.40625 8.859375 
Q 40.234375 -1.421875 26.421875 -1.421875 
Q 22.703125 -1.421875 18.890625 -0.6875 
Q 15.09375 0.046875 10.984375 1.515625 
z
M 30.609375 32.421875 
Q 37.25 32.421875 41.125 36.953125 
Q 45.015625 41.5 45.015625 49.421875 
Q 45.015625 57.28125 41.125 61.84375 
Q 37.25 66.40625 30.609375 66.40625 
Q 23.96875 66.40625 20.09375 61.84375 
Q 16.21875 57.28125 16.21875 49.421875 
Q 16.21875 41.5 20.09375 36.953125 
Q 23.96875 32.421875 30.609375 32.421875 
z
" id="DejaVuSans-39"/>
      <path d="M 8.015625 75.875 
L 15.828125 75.875 
Q 23.140625 64.359375 26.78125 53.3125 
Q 30.421875 42.28125 30.421875 31.390625 
Q 30.421875 20.453125 26.78125 9.375 
Q 23.140625 -1.703125 15.828125 -13.1875 
L 8.015625 -13.1875 
Q 14.5 -2 17.703125 9.0625 
Q 20.90625 20.125 20.90625 31.390625 
Q 20.90625 42.671875 17.703125 53.65625 
Q 14.5 64.65625 8.015625 75.875 
z
" id="DejaVuSans-29"/>
     </defs>
     <g transform="translate(176.476562 240.920312)scale(0.1 -0.1)">
      <use xlink:href="#DejaVuSans-52"/>
      <use x="69.482422" xlink:href="#DejaVuSans-4f"/>
      <use x="148.193359" xlink:href="#DejaVuSans-43"/>
      <use x="218.017578" xlink:href="#DejaVuSans-20"/>
      <use x="249.804688" xlink:href="#DejaVuSans-63"/>
      <use x="304.785156" xlink:href="#DejaVuSans-75"/>
      <use x="368.164062" xlink:href="#DejaVuSans-72"/>
      <use x="409.277344" xlink:href="#DejaVuSans-76"/>
      <use x="468.457031" xlink:href="#DejaVuSans-65"/>
      <use x="529.980469" xlink:href="#DejaVuSans-20"/>
      <use x="561.767578" xlink:href="#DejaVuSans-66"/>
      <use x="596.972656" xlink:href="#DejaVuSans-6f"/>
      <use x="658.154297" xlink:href="#DejaVuSans-72"/>
      <use x="699.267578" xlink:href="#DejaVuSans-20"/>
      <use x="731.054688" xlink:href="#DejaVuSans-6e"/>
      <use x="794.433594" xlink:href="#DejaVuSans-6e"/>
      <use x="857.8125" xlink:href="#DejaVuSans-20"/>
      <use x="889.599609" xlink:href="#DejaVuSans-6d"/>
      <use x="987.011719" xlink:href="#DejaVuSans-6f"/>
      <use x="1048.193359" xlink:href="#DejaVuSans-64"/>
      <use x="1111.669922" xlink:href="#DejaVuSans-65"/>
      <use x="1173.193359" xlink:href="#DejaVuSans-6c"/>
      <use x="1200.976562" xlink:href="#DejaVuSans-20"/>
      <use x="1232.763672" xlink:href="#DejaVuSans-28"/>
      <use x="1271.777344" xlink:href="#DejaVuSans-61"/>
      <use x="1333.056641" xlink:href="#DejaVuSans-72"/>
      <use x="1374.138672" xlink:href="#DejaVuSans-65"/>
      <use x="1435.662109" xlink:href="#DejaVuSans-61"/>
      <use x="1496.941406" xlink:href="#DejaVuSans-20"/>
      <use x="1528.728516" xlink:href="#DejaVuSans-3d"/>
      <use x="1612.517578" xlink:href="#DejaVuSans-20"/>
      <use x="1644.304688" xlink:href="#DejaVuSans-30"/>
      <use x="1707.927734" xlink:href="#DejaVuSans-2e"/>
      <use x="1739.714844" xlink:href="#DejaVuSans-37"/>
      <use x="1803.337891" xlink:href="#DejaVuSans-35"/>
      <use x="1866.960938" xlink:href="#DejaVuSans-36"/>
      <use x="1930.583984" xlink:href="#DejaVuSans-39"/>
      <use x="1994.207031" xlink:href="#DejaVuSans-29"/>
     </g>
    </g>
   </g>
  </g>
 </g>
 <defs>
  <clipPath id="pb2c1662d02">
   <rect height="217.44" width="334.8" x="54" y="34.56"/>
  </clipPath>
 </defs>
</svg>
