<?xml version="1.0" encoding="utf-8" standalone="no"?>
<!DOCTYPE svg PUBLIC "-//W3C//DTD SVG 1.1//EN"
  "http://www.w3.org/Graphics/SVG/1.1/DTD/svg11.dtd">
<!-- Created with matplotlib (http://matplotlib.org/) -->
<svg height="288pt" version="1.1" viewBox="0 0 432 288" width="432pt" xmlns="http://www.w3.org/2000/svg" xmlns:xlink="http://www.w3.org/1999/xlink">
 <defs>
  <style type="text/css">
*{stroke-linecap:butt;stroke-linejoin:round;}
  </style>
 </defs>
 <g id="figure_1">
  <g id="patch_1">
   <path d="M 0 288 
L 432 288 
L 432 0 
L 0 0 
z
" style="fill:#ffffff;"/>
  </g>
  <g id="axes_1">
   <g id="patch_2">
    <path d="M 54 252 
L 388.8 252 
L 388.8 34.56 
L 54 34.56 
z
" style="fill:#ffffff;"/>
   </g>
   <g id="matplotlib.axis_1">
    <g id="xtick_1">
     <g id="line2d_1">
      <defs>
       <path d="M 0 0 
L 0 3.5 
" id="ma4d89c9db4" style="stroke:#000000;stroke-width:0.8;"/>
      </defs>
      <g>
       <use style="stroke:#000000;stroke-width:0.8;" x="54" xlink:href="#ma4d89c9db4" y="252"/>
      </g>
     </g>
     <g id="text_1">
      <!-- 0.0 -->
      <defs>
       <path d="M 31.78125 66.40625 
Q 24.171875 66.40625 20.328125 58.90625 
Q 16.5 51.421875 16.5 36.375 
Q 16.5 21.390625 20.328125 13.890625 
Q 24.171875 6.390625 31.78125 6.390625 
Q 39.453125 6.390625 43.28125 13.890625 
Q 47.125 21.390625 47.125 36.375 
Q 47.125 51.421875 43.28125 58.90625 
Q 39.453125 66.40625 31.78125 66.40625 
z
M 31.78125 74.21875 
Q 44.046875 74.21875 50.515625 64.515625 
Q 56.984375 54.828125 56.984375 36.375 
Q 56.984375 17.96875 50.515625 8.265625 
Q 44.046875 -1.421875 31.78125 -1.421875 
Q 19.53125 -1.421875 13.0625 8.265625 
Q 6.59375 17.96875 6.59375 36.375 
Q 6.59375 54.828125 13.0625 64.515625 
Q 19.53125 74.21875 31.78125 74.21875 
z
" id="DejaVuSans-30"/>
       <path d="M 10.6875 12.40625 
L 21 12.40625 
L 21 0 
L 10.6875 0 
z
" id="DejaVuSans-2e"/>
      </defs>
      <g transform="translate(46.048437 266.598437)scale(0.1 -0.1)">
       <use xlink:href="#DejaVuSans-30"/>
       <use x="63.623047" xlink:href="#DejaVuSans-2e"/>
       <use x="95.410156" xlink:href="#DejaVuSans-30"/>
      </g>
     </g>
    </g>
    <g id="xtick_2">
     <g id="line2d_2">
      <g>
       <use style="stroke:#000000;stroke-width:0.8;" x="120.96" xlink:href="#ma4d89c9db4" y="252"/>
      </g>
     </g>
     <g id="text_2">
      <!-- 0.2 -->
      <defs>
       <path d="M 19.1875 8.296875 
L 53.609375 8.296875 
L 53.609375 0 
L 7.328125 0 
L 7.328125 8.296875 
Q 12.9375 14.109375 22.625 23.890625 
Q 32.328125 33.6875 34.8125 36.53125 
Q 39.546875 41.84375 41.421875 45.53125 
Q 43.3125 49.21875 43.3125 52.78125 
Q 43.3125 58.59375 39.234375 62.25 
Q 35.15625 65.921875 28.609375 65.921875 
Q 23.96875 65.921875 18.8125 64.3125 
Q 13.671875 62.703125 7.8125 59.421875 
L 7.8125 69.390625 
Q 13.765625 71.78125 18.9375 73 
Q 24.125 74.21875 28.421875 74.21875 
Q 39.75 74.21875 46.484375 68.546875 
Q 53.21875 62.890625 53.21875 53.421875 
Q 53.21875 48.921875 51.53125 44.890625 
Q 49.859375 40.875 45.40625 35.40625 
Q 44.1875 33.984375 37.640625 27.21875 
Q 31.109375 20.453125 19.1875 8.296875 
z
" id="DejaVuSans-32"/>
      </defs>
      <g transform="translate(113.008438 266.598437)scale(0.1 -0.1)">
       <use xlink:href="#DejaVuSans-30"/>
       <use x="63.623047" xlink:href="#DejaVuSans-2e"/>
       <use x="95.410156" xlink:href="#DejaVuSans-32"/>
      </g>
     </g>
    </g>
    <g id="xtick_3">
     <g id="line2d_3">
      <g>
       <use style="stroke:#000000;stroke-width:0.8;" x="187.92" xlink:href="#ma4d89c9db4" y="252"/>
      </g>
     </g>
     <g id="text_3">
      <!-- 0.4 -->
      <defs>
       <path d="M 37.796875 64.3125 
L 12.890625 25.390625 
L 37.796875 25.390625 
z
M 35.203125 72.90625 
L 47.609375 72.90625 
L 47.609375 25.390625 
L 58.015625 25.390625 
L 58.015625 17.1875 
L 47.609375 17.1875 
L 47.609375 0 
L 37.796875 0 
L 37.796875 17.1875 
L 4.890625 17.1875 
L 4.890625 26.703125 
z
" id="DejaVuSans-34"/>
      </defs>
      <g transform="translate(179.968438 266.598437)scale(0.1 -0.1)">
       <use xlink:href="#DejaVuSans-30"/>
       <use x="63.623047" xlink:href="#DejaVuSans-2e"/>
       <use x="95.410156" xlink:href="#DejaVuSans-34"/>
      </g>
     </g>
    </g>
    <g id="xtick_4">
     <g id="line2d_4">
      <g>
       <use style="stroke:#000000;stroke-width:0.8;" x="254.88" xlink:href="#ma4d89c9db4" y="252"/>
      </g>
     </g>
     <g id="text_4">
      <!-- 0.6 -->
      <defs>
       <path d="M 33.015625 40.375 
Q 26.375 40.375 22.484375 35.828125 
Q 18.609375 31.296875 18.609375 23.390625 
Q 18.609375 15.53125 22.484375 10.953125 
Q 26.375 6.390625 33.015625 6.390625 
Q 39.65625 6.390625 43.53125 10.953125 
Q 47.40625 15.53125 47.40625 23.390625 
Q 47.40625 31.296875 43.53125 35.828125 
Q 39.65625 40.375 33.015625 40.375 
z
M 52.59375 71.296875 
L 52.59375 62.3125 
Q 48.875 64.0625 45.09375 64.984375 
Q 41.3125 65.921875 37.59375 65.921875 
Q 27.828125 65.921875 22.671875 59.328125 
Q 17.53125 52.734375 16.796875 39.40625 
Q 19.671875 43.65625 24.015625 45.921875 
Q 28.375 48.1875 33.59375 48.1875 
Q 44.578125 48.1875 50.953125 41.515625 
Q 57.328125 34.859375 57.328125 23.390625 
Q 57.328125 12.15625 50.6875 5.359375 
Q 44.046875 -1.421875 33.015625 -1.421875 
Q 20.359375 -1.421875 13.671875 8.265625 
Q 6.984375 17.96875 6.984375 36.375 
Q 6.984375 53.65625 15.1875 63.9375 
Q 23.390625 74.21875 37.203125 74.21875 
Q 40.921875 74.21875 44.703125 73.484375 
Q 48.484375 72.75 52.59375 71.296875 
z
" id="DejaVuSans-36"/>
      </defs>
      <g transform="translate(246.928438 266.598437)scale(0.1 -0.1)">
       <use xlink:href="#DejaVuSans-30"/>
       <use x="63.623047" xlink:href="#DejaVuSans-2e"/>
       <use x="95.410156" xlink:href="#DejaVuSans-36"/>
      </g>
     </g>
    </g>
    <g id="xtick_5">
     <g id="line2d_5">
      <g>
       <use style="stroke:#000000;stroke-width:0.8;" x="321.84" xlink:href="#ma4d89c9db4" y="252"/>
      </g>
     </g>
     <g id="text_5">
      <!-- 0.8 -->
      <defs>
       <path d="M 31.78125 34.625 
Q 24.75 34.625 20.71875 30.859375 
Q 16.703125 27.09375 16.703125 20.515625 
Q 16.703125 13.921875 20.71875 10.15625 
Q 24.75 6.390625 31.78125 6.390625 
Q 38.8125 6.390625 42.859375 10.171875 
Q 46.921875 13.96875 46.921875 20.515625 
Q 46.921875 27.09375 42.890625 30.859375 
Q 38.875 34.625 31.78125 34.625 
z
M 21.921875 38.8125 
Q 15.578125 40.375 12.03125 44.71875 
Q 8.5 49.078125 8.5 55.328125 
Q 8.5 64.0625 14.71875 69.140625 
Q 20.953125 74.21875 31.78125 74.21875 
Q 42.671875 74.21875 48.875 69.140625 
Q 55.078125 64.0625 55.078125 55.328125 
Q 55.078125 49.078125 51.53125 44.71875 
Q 48 40.375 41.703125 38.8125 
Q 48.828125 37.15625 52.796875 32.3125 
Q 56.78125 27.484375 56.78125 20.515625 
Q 56.78125 9.90625 50.3125 4.234375 
Q 43.84375 -1.421875 31.78125 -1.421875 
Q 19.734375 -1.421875 13.25 4.234375 
Q 6.78125 9.90625 6.78125 20.515625 
Q 6.78125 27.484375 10.78125 32.3125 
Q 14.796875 37.15625 21.921875 38.8125 
z
M 18.3125 54.390625 
Q 18.3125 48.734375 21.84375 45.5625 
Q 25.390625 42.390625 31.78125 42.390625 
Q 38.140625 42.390625 41.71875 45.5625 
Q 45.3125 48.734375 45.3125 54.390625 
Q 45.3125 60.0625 41.71875 63.234375 
Q 38.140625 66.40625 31.78125 66.40625 
Q 25.390625 66.40625 21.84375 63.234375 
Q 18.3125 60.0625 18.3125 54.390625 
z
" id="DejaVuSans-38"/>
      </defs>
      <g transform="translate(313.888438 266.598437)scale(0.1 -0.1)">
       <use xlink:href="#DejaVuSans-30"/>
       <use x="63.623047" xlink:href="#DejaVuSans-2e"/>
       <use x="95.410156" xlink:href="#DejaVuSans-38"/>
      </g>
     </g>
    </g>
    <g id="xtick_6">
     <g id="line2d_6">
      <g>
       <use style="stroke:#000000;stroke-width:0.8;" x="388.8" xlink:href="#ma4d89c9db4" y="252"/>
      </g>
     </g>
     <g id="text_6">
      <!-- 1.0 -->
      <defs>
       <path d="M 12.40625 8.296875 
L 28.515625 8.296875 
L 28.515625 63.921875 
L 10.984375 60.40625 
L 10.984375 69.390625 
L 28.421875 72.90625 
L 38.28125 72.90625 
L 38.28125 8.296875 
L 54.390625 8.296875 
L 54.390625 0 
L 12.40625 0 
z
" id="DejaVuSans-31"/>
      </defs>
      <g transform="translate(380.848437 266.598437)scale(0.1 -0.1)">
       <use xlink:href="#DejaVuSans-31"/>
       <use x="63.623047" xlink:href="#DejaVuSans-2e"/>
       <use x="95.410156" xlink:href="#DejaVuSans-30"/>
      </g>
     </g>
    </g>
    <g id="text_7">
     <!-- False Positive Rate -->
     <defs>
      <path d="M 9.8125 72.90625 
L 51.703125 72.90625 
L 51.703125 64.59375 
L 19.671875 64.59375 
L 19.671875 43.109375 
L 48.578125 43.109375 
L 48.578125 34.8125 
L 19.671875 34.8125 
L 19.671875 0 
L 9.8125 0 
z
" id="DejaVuSans-46"/>
      <path d="M 34.28125 27.484375 
Q 23.390625 27.484375 19.1875 25 
Q 14.984375 22.515625 14.984375 16.5 
Q 14.984375 11.71875 18.140625 8.90625 
Q 21.296875 6.109375 26.703125 6.109375 
Q 34.1875 6.109375 38.703125 11.40625 
Q 43.21875 16.703125 43.21875 25.484375 
L 43.21875 27.484375 
z
M 52.203125 31.203125 
L 52.203125 0 
L 43.21875 0 
L 43.21875 8.296875 
Q 40.140625 3.328125 35.546875 0.953125 
Q 30.953125 -1.421875 24.3125 -1.421875 
Q 15.921875 -1.421875 10.953125 3.296875 
Q 6 8.015625 6 15.921875 
Q 6 25.140625 12.171875 29.828125 
Q 18.359375 34.515625 30.609375 34.515625 
L 43.21875 34.515625 
L 43.21875 35.40625 
Q 43.21875 41.609375 39.140625 45 
Q 35.0625 48.390625 27.6875 48.390625 
Q 23 48.390625 18.546875 47.265625 
Q 14.109375 46.140625 10.015625 43.890625 
L 10.015625 52.203125 
Q 14.9375 54.109375 19.578125 55.046875 
Q 24.21875 56 28.609375 56 
Q 40.484375 56 46.34375 49.84375 
Q 52.203125 43.703125 52.203125 31.203125 
z
" id="DejaVuSans-61"/>
      <path d="M 9.421875 75.984375 
L 18.40625 75.984375 
L 18.40625 0 
L 9.421875 0 
z
" id="DejaVuSans-6c"/>
      <path d="M 44.28125 53.078125 
L 44.28125 44.578125 
Q 40.484375 46.53125 36.375 47.5 
Q 32.28125 48.484375 27.875 48.484375 
Q 21.1875 48.484375 17.84375 46.4375 
Q 14.5 44.390625 14.5 40.28125 
Q 14.5 37.15625 16.890625 35.375 
Q 19.28125 33.59375 26.515625 31.984375 
L 29.59375 31.296875 
Q 39.15625 29.25 43.1875 25.515625 
Q 47.21875 21.78125 47.21875 15.09375 
Q 47.21875 7.46875 41.1875 3.015625 
Q 35.15625 -1.421875 24.609375 -1.421875 
Q 20.21875 -1.421875 15.453125 -0.5625 
Q 10.6875 0.296875 5.421875 2 
L 5.421875 11.28125 
Q 10.40625 8.6875 15.234375 7.390625 
Q 20.0625 6.109375 24.8125 6.109375 
Q 31.15625 6.109375 34.5625 8.28125 
Q 37.984375 10.453125 37.984375 14.40625 
Q 37.984375 18.0625 35.515625 20.015625 
Q 33.0625 21.96875 24.703125 23.78125 
L 21.578125 24.515625 
Q 13.234375 26.265625 9.515625 29.90625 
Q 5.8125 33.546875 5.8125 39.890625 
Q 5.8125 47.609375 11.28125 51.796875 
Q 16.75 56 26.8125 56 
Q 31.78125 56 36.171875 55.265625 
Q 40.578125 54.546875 44.28125 53.078125 
z
" id="DejaVuSans-73"/>
      <path d="M 56.203125 29.59375 
L 56.203125 25.203125 
L 14.890625 25.203125 
Q 15.484375 15.921875 20.484375 11.0625 
Q 25.484375 6.203125 34.421875 6.203125 
Q 39.59375 6.203125 44.453125 7.46875 
Q 49.3125 8.734375 54.109375 11.28125 
L 54.109375 2.78125 
Q 49.265625 0.734375 44.1875 -0.34375 
Q 39.109375 -1.421875 33.890625 -1.421875 
Q 20.796875 -1.421875 13.15625 6.1875 
Q 5.515625 13.8125 5.515625 26.8125 
Q 5.515625 40.234375 12.765625 48.109375 
Q 20.015625 56 32.328125 56 
Q 43.359375 56 49.78125 48.890625 
Q 56.203125 41.796875 56.203125 29.59375 
z
M 47.21875 32.234375 
Q 47.125 39.59375 43.09375 43.984375 
Q 39.0625 48.390625 32.421875 48.390625 
Q 24.90625 48.390625 20.390625 44.140625 
Q 15.875 39.890625 15.1875 32.171875 
z
" id="DejaVuSans-65"/>
      <path id="DejaVuSans-20"/>
      <path d="M 19.671875 64.796875 
L 19.671875 37.40625 
L 32.078125 37.40625 
Q 38.96875 37.40625 42.71875 40.96875 
Q 46.484375 44.53125 46.484375 51.125 
Q 46.484375 57.671875 42.71875 61.234375 
Q 38.96875 64.796875 32.078125 64.796875 
z
M 9.8125 72.90625 
L 32.078125 72.90625 
Q 44.34375 72.90625 50.609375 67.359375 
Q 56.890625 61.8125 56.890625 51.125 
Q 56.890625 40.328125 50.609375 34.8125 
Q 44.34375 29.296875 32.078125 29.296875 
L 19.671875 29.296875 
L 19.671875 0 
L 9.8125 0 
z
" id="DejaVuSans-50"/>
      <path d="M 30.609375 48.390625 
Q 23.390625 48.390625 19.1875 42.75 
Q 14.984375 37.109375 14.984375 27.296875 
Q 14.984375 17.484375 19.15625 11.84375 
Q 23.34375 6.203125 30.609375 6.203125 
Q 37.796875 6.203125 41.984375 11.859375 
Q 46.1875 17.53125 46.1875 27.296875 
Q 46.1875 37.015625 41.984375 42.703125 
Q 37.796875 48.390625 30.609375 48.390625 
z
M 30.609375 56 
Q 42.328125 56 49.015625 48.375 
Q 55.71875 40.765625 55.71875 27.296875 
Q 55.71875 13.875 49.015625 6.21875 
Q 42.328125 -1.421875 30.609375 -1.421875 
Q 18.84375 -1.421875 12.171875 6.21875 
Q 5.515625 13.875 5.515625 27.296875 
Q 5.515625 40.765625 12.171875 48.375 
Q 18.84375 56 30.609375 56 
z
" id="DejaVuSans-6f"/>
      <path d="M 9.421875 54.6875 
L 18.40625 54.6875 
L 18.40625 0 
L 9.421875 0 
z
M 9.421875 75.984375 
L 18.40625 75.984375 
L 18.40625 64.59375 
L 9.421875 64.59375 
z
" id="DejaVuSans-69"/>
      <path d="M 18.3125 70.21875 
L 18.3125 54.6875 
L 36.8125 54.6875 
L 36.8125 47.703125 
L 18.3125 47.703125 
L 18.3125 18.015625 
Q 18.3125 11.328125 20.140625 9.421875 
Q 21.96875 7.515625 27.59375 7.515625 
L 36.8125 7.515625 
L 36.8125 0 
L 27.59375 0 
Q 17.1875 0 13.234375 3.875 
Q 9.28125 7.765625 9.28125 18.015625 
L 9.28125 47.703125 
L 2.6875 47.703125 
L 2.6875 54.6875 
L 9.28125 54.6875 
L 9.28125 70.21875 
z
" id="DejaVuSans-74"/>
      <path d="M 2.984375 54.6875 
L 12.5 54.6875 
L 29.59375 8.796875 
L 46.6875 54.6875 
L 56.203125 54.6875 
L 35.6875 0 
L 23.484375 0 
z
" id="DejaVuSans-76"/>
      <path d="M 44.390625 34.1875 
Q 47.5625 33.109375 50.5625 29.59375 
Q 53.5625 26.078125 56.59375 19.921875 
L 66.609375 0 
L 56 0 
L 46.6875 18.703125 
Q 43.0625 26.03125 39.671875 28.421875 
Q 36.28125 30.8125 30.421875 30.8125 
L 19.671875 30.8125 
L 19.671875 0 
L 9.8125 0 
L 9.8125 72.90625 
L 32.078125 72.90625 
Q 44.578125 72.90625 50.734375 67.671875 
Q 56.890625 62.453125 56.890625 51.90625 
Q 56.890625 45.015625 53.6875 40.46875 
Q 50.484375 35.9375 44.390625 34.1875 
z
M 19.671875 64.796875 
L 19.671875 38.921875 
L 32.078125 38.921875 
Q 39.203125 38.921875 42.84375 42.21875 
Q 46.484375 45.515625 46.484375 51.90625 
Q 46.484375 58.296875 42.84375 61.546875 
Q 39.203125 64.796875 32.078125 64.796875 
z
" id="DejaVuSans-52"/>
     </defs>
     <g transform="translate(174.194531 280.276563)scale(0.1 -0.1)">
      <use xlink:href="#DejaVuSans-46"/>
      <use x="57.378906" xlink:href="#DejaVuSans-61"/>
      <use x="118.658203" xlink:href="#DejaVuSans-6c"/>
      <use x="146.441406" xlink:href="#DejaVuSans-73"/>
      <use x="198.541016" xlink:href="#DejaVuSans-65"/>
      <use x="260.064453" xlink:href="#DejaVuSans-20"/>
      <use x="291.851562" xlink:href="#DejaVuSans-50"/>
      <use x="352.107422" xlink:href="#DejaVuSans-6f"/>
      <use x="413.289062" xlink:href="#DejaVuSans-73"/>
      <use x="465.388672" xlink:href="#DejaVuSans-69"/>
      <use x="493.171875" xlink:href="#DejaVuSans-74"/>
      <use x="532.380859" xlink:href="#DejaVuSans-69"/>
      <use x="560.164062" xlink:href="#DejaVuSans-76"/>
      <use x="619.34375" xlink:href="#DejaVuSans-65"/>
      <use x="680.867188" xlink:href="#DejaVuSans-20"/>
      <use x="712.654297" xlink:href="#DejaVuSans-52"/>
      <use x="782.105469" xlink:href="#DejaVuSans-61"/>
      <use x="843.384766" xlink:href="#DejaVuSans-74"/>
      <use x="882.59375" xlink:href="#DejaVuSans-65"/>
     </g>
    </g>
   </g>
   <g id="matplotlib.axis_2">
    <g id="ytick_1">
     <g id="line2d_7">
      <defs>
       <path d="M 0 0 
L -3.5 0 
" id="mfda0d7841b" style="stroke:#000000;stroke-width:0.8;"/>
      </defs>
      <g>
       <use style="stroke:#000000;stroke-width:0.8;" x="54" xlink:href="#mfda0d7841b" y="252"/>
      </g>
     </g>
     <g id="text_8">
      <!-- 0.0 -->
      <g transform="translate(31.096875 255.799219)scale(0.1 -0.1)">
       <use xlink:href="#DejaVuSans-30"/>
       <use x="63.623047" xlink:href="#DejaVuSans-2e"/>
       <use x="95.410156" xlink:href="#DejaVuSans-30"/>
      </g>
     </g>
    </g>
    <g id="ytick_2">
     <g id="line2d_8">
      <g>
       <use style="stroke:#000000;stroke-width:0.8;" x="54" xlink:href="#mfda0d7841b" y="210.582857"/>
      </g>
     </g>
     <g id="text_9">
      <!-- 0.2 -->
      <g transform="translate(31.096875 214.382076)scale(0.1 -0.1)">
       <use xlink:href="#DejaVuSans-30"/>
       <use x="63.623047" xlink:href="#DejaVuSans-2e"/>
       <use x="95.410156" xlink:href="#DejaVuSans-32"/>
      </g>
     </g>
    </g>
    <g id="ytick_3">
     <g id="line2d_9">
      <g>
       <use style="stroke:#000000;stroke-width:0.8;" x="54" xlink:href="#mfda0d7841b" y="169.165714"/>
      </g>
     </g>
     <g id="text_10">
      <!-- 0.4 -->
      <g transform="translate(31.096875 172.964933)scale(0.1 -0.1)">
       <use xlink:href="#DejaVuSans-30"/>
       <use x="63.623047" xlink:href="#DejaVuSans-2e"/>
       <use x="95.410156" xlink:href="#DejaVuSans-34"/>
      </g>
     </g>
    </g>
    <g id="ytick_4">
     <g id="line2d_10">
      <g>
       <use style="stroke:#000000;stroke-width:0.8;" x="54" xlink:href="#mfda0d7841b" y="127.748571"/>
      </g>
     </g>
     <g id="text_11">
      <!-- 0.6 -->
      <g transform="translate(31.096875 131.54779)scale(0.1 -0.1)">
       <use xlink:href="#DejaVuSans-30"/>
       <use x="63.623047" xlink:href="#DejaVuSans-2e"/>
       <use x="95.410156" xlink:href="#DejaVuSans-36"/>
      </g>
     </g>
    </g>
    <g id="ytick_5">
     <g id="line2d_11">
      <g>
       <use style="stroke:#000000;stroke-width:0.8;" x="54" xlink:href="#mfda0d7841b" y="86.331429"/>
      </g>
     </g>
     <g id="text_12">
      <!-- 0.8 -->
      <g transform="translate(31.096875 90.130647)scale(0.1 -0.1)">
       <use xlink:href="#DejaVuSans-30"/>
       <use x="63.623047" xlink:href="#DejaVuSans-2e"/>
       <use x="95.410156" xlink:href="#DejaVuSans-38"/>
      </g>
     </g>
    </g>
    <g id="ytick_6">
     <g id="line2d_12">
      <g>
       <use style="stroke:#000000;stroke-width:0.8;" x="54" xlink:href="#mfda0d7841b" y="44.914286"/>
      </g>
     </g>
     <g id="text_13">
      <!-- 1.0 -->
      <g transform="translate(31.096875 48.713504)scale(0.1 -0.1)">
       <use xlink:href="#DejaVuSans-31"/>
       <use x="63.623047" xlink:href="#DejaVuSans-2e"/>
       <use x="95.410156" xlink:href="#DejaVuSans-30"/>
      </g>
     </g>
    </g>
    <g id="text_14">
     <!-- True Positive Rate -->
     <defs>
      <path d="M -0.296875 72.90625 
L 61.375 72.90625 
L 61.375 64.59375 
L 35.5 64.59375 
L 35.5 0 
L 25.59375 0 
L 25.59375 64.59375 
L -0.296875 64.59375 
z
" id="DejaVuSans-54"/>
      <path d="M 41.109375 46.296875 
Q 39.59375 47.171875 37.8125 47.578125 
Q 36.03125 48 33.890625 48 
Q 26.265625 48 22.1875 43.046875 
Q 18.109375 38.09375 18.109375 28.8125 
L 18.109375 0 
L 9.078125 0 
L 9.078125 54.6875 
L 18.109375 54.6875 
L 18.109375 46.1875 
Q 20.953125 51.171875 25.484375 53.578125 
Q 30.03125 56 36.53125 56 
Q 37.453125 56 38.578125 55.875 
Q 39.703125 55.765625 41.0625 55.515625 
z
" id="DejaVuSans-72"/>
      <path d="M 8.5 21.578125 
L 8.5 54.6875 
L 17.484375 54.6875 
L 17.484375 21.921875 
Q 17.484375 14.15625 20.5 10.265625 
Q 23.53125 6.390625 29.59375 6.390625 
Q 36.859375 6.390625 41.078125 11.03125 
Q 45.3125 15.671875 45.3125 23.6875 
L 45.3125 54.6875 
L 54.296875 54.6875 
L 54.296875 0 
L 45.3125 0 
L 45.3125 8.40625 
Q 42.046875 3.421875 37.71875 1 
Q 33.40625 -1.421875 27.6875 -1.421875 
Q 18.265625 -1.421875 13.375 4.4375 
Q 8.5 10.296875 8.5 21.578125 
z
M 31.109375 56 
z
" id="DejaVuSans-75"/>
     </defs>
     <g transform="translate(25.017187 188.826094)rotate(-90)scale(0.1 -0.1)">
      <use xlink:href="#DejaVuSans-54"/>
      <use x="60.865234" xlink:href="#DejaVuSans-72"/>
      <use x="101.978516" xlink:href="#DejaVuSans-75"/>
      <use x="165.357422" xlink:href="#DejaVuSans-65"/>
      <use x="226.880859" xlink:href="#DejaVuSans-20"/>
      <use x="258.667969" xlink:href="#DejaVuSans-50"/>
      <use x="318.923828" xlink:href="#DejaVuSans-6f"/>
      <use x="380.105469" xlink:href="#DejaVuSans-73"/>
      <use x="432.205078" xlink:href="#DejaVuSans-69"/>
      <use x="459.988281" xlink:href="#DejaVuSans-74"/>
      <use x="499.197266" xlink:href="#DejaVuSans-69"/>
      <use x="526.980469" xlink:href="#DejaVuSans-76"/>
      <use x="586.160156" xlink:href="#DejaVuSans-65"/>
      <use x="647.683594" xlink:href="#DejaVuSans-20"/>
      <use x="679.470703" xlink:href="#DejaVuSans-52"/>
      <use x="748.921875" xlink:href="#DejaVuSans-61"/>
      <use x="810.201172" xlink:href="#DejaVuSans-74"/>
      <use x="849.410156" xlink:href="#DejaVuSans-65"/>
     </g>
    </g>
   </g>
   <g id="line2d_13">
    <path clip-path="url(#pee5d393f18)" d="M 54 251.984837 
L 54 251.893857 
L 54 251.893857 
L 54 251.893857 
L 54.046448 251.893857 
L 54.139345 250.90824 
L 54.185794 250.802096 
L 54.255466 250.407849 
L 54.348363 250.347196 
L 54.44126 249.695173 
L 54.464484 249.695173 
L 54.557381 249.118966 
L 54.580605 249.118966 
L 54.673502 248.300145 
L 54.71995 248.284982 
L 54.812847 247.375182 
L 54.859295 247.269038 
L 54.952192 246.753485 
L 54.975416 246.753485 
L 54.975416 246.662505 
L 55.068313 245.570744 
L 55.091537 245.570744 
L 55.184434 245.040028 
L 55.230882 245.040028 
L 55.323779 244.175717 
L 55.370228 244.084737 
L 55.463124 243.69049 
L 55.532797 243.59951 
L 55.625694 243.250754 
L 55.672142 243.1901 
L 55.765039 242.538077 
L 55.811487 242.46226 
L 55.88116 242.037687 
L 55.950832 242.022523 
L 56.043729 241.77991 
L 56.15985 241.73442 
L 56.229523 241.567623 
L 56.299195 241.567623 
L 56.392092 240.612333 
L 56.438541 240.612333 
L 56.531437 240.278739 
L 56.577886 240.263576 
L 56.670782 239.368939 
L 56.763679 239.262796 
L 56.856576 238.580445 
L 56.903024 238.519792 
L 56.995921 237.731298 
L 57.019145 237.731298 
L 57.112042 236.927642 
L 57.228163 236.866988 
L 57.32106 236.503068 
L 57.413957 236.396925 
L 57.506853 236.033005 
L 57.553302 235.987515 
L 57.59975 235.593268 
L 57.692647 235.547778 
L 57.785544 235.199021 
L 57.855216 235.138368 
L 57.948113 234.637977 
L 57.971337 234.637977 
L 58.064234 233.622034 
L 58.157131 233.56138 
L 58.157131 233.51589 
L 58.366149 233.10648 
L 58.435821 232.575763 
L 58.528718 232.499947 
L 58.621615 232.272497 
L 58.691287 232.227007 
L 58.784184 231.999556 
L 58.853857 231.938903 
L 58.923529 231.51433 
L 58.969978 231.51433 
L 59.062875 231.135246 
L 59.086099 231.135246 
L 59.155771 230.801653 
L 59.20222 230.801653 
L 59.20222 230.695509 
L 59.295117 230.377079 
L 59.318341 230.377079 
L 59.411238 229.785709 
L 59.48091 229.679566 
L 59.573807 228.860745 
L 59.597031 228.860745 
L 59.689928 228.345192 
L 59.7596 228.314865 
L 59.852497 227.829638 
L 59.898946 227.829638 
L 59.898946 227.738658 
L 59.991842 227.238268 
L 60.038291 227.207942 
L 60.131188 226.449775 
L 60.154412 226.449775 
L 60.247309 226.101018 
L 60.316981 226.025201 
L 60.409878 225.767424 
L 60.456326 225.721934 
L 60.549223 225.145727 
L 60.572447 225.145727 
L 60.665344 224.584684 
L 60.688568 224.584684 
L 60.781465 223.720374 
L 60.874362 223.65972 
L 60.944034 223.492924 
L 61.036931 223.447434 
L 61.129828 223.2958 
L 61.222725 223.20482 
L 61.315622 222.916717 
L 61.385294 222.810573 
L 61.478191 222.264693 
L 61.524639 222.24953 
L 61.617536 221.824956 
L 61.687209 221.779466 
L 61.780105 221.400383 
L 61.826554 221.370056 
L 61.919451 220.990973 
L 62.012347 220.884829 
L 62.105244 220.657379 
L 62.128468 220.657379 
L 62.221365 220.126662 
L 62.267814 220.096336 
L 62.36071 219.702089 
L 62.430383 219.702089 
L 62.52328 219.141045 
L 62.569728 219.050065 
L 62.639401 218.655819 
L 62.755522 218.580002 
L 62.825194 218.367715 
L 62.894867 218.337388 
L 62.894867 218.276735 
L 62.987764 217.867325 
L 63.545144 216.699748 
L 63.638041 216.441971 
L 63.707714 216.381318 
L 63.80061 216.078051 
L 63.823835 216.078051 
L 63.916731 215.517008 
L 63.96318 215.410864 
L 64.056077 215.001454 
L 64.079301 215.001454 
L 64.172198 214.637534 
L 64.311543 214.607207 
L 64.381215 214.21296 
L 64.40444 214.21296 
L 64.52056 214.061327 
L 64.613457 213.879367 
L 64.706354 213.773224 
L 64.799251 213.515447 
L 64.822475 213.515447 
L 64.915372 213.106037 
L 64.96182 213.07571 
L 65.031493 212.833097 
L 65.101165 212.75728 
L 65.194062 212.544993 
L 65.263735 212.43885 
L 65.356632 212.332706 
L 65.379856 212.332706 
L 65.472752 211.923296 
L 65.519201 211.817153 
L 65.612098 211.66552 
L 65.68177 211.620029 
L 65.728219 211.377416 
L 65.774667 211.377416 
L 65.914012 211.180293 
L 66.006909 210.983169 
L 66.12303 210.877026 
L 66.215927 210.588922 
L 66.332048 210.497942 
L 66.424945 209.997552 
L 66.517841 209.921736 
L 66.610738 209.785266 
L 66.633962 209.785266 
L 66.726859 209.239385 
L 66.819756 209.178732 
L 66.866204 208.981609 
L 66.982325 208.920955 
L 67.075222 208.466055 
L 67.168119 208.390238 
L 67.261016 208.056645 
L 67.423585 207.950502 
L 67.516482 207.495601 
L 67.586154 207.389458 
L 67.679051 207.237825 
L 67.748724 207.177171 
L 67.84162 206.737434 
L 67.911293 206.707108 
L 68.00419 206.555474 
L 68.097087 206.449331 
L 68.166759 206.161228 
L 68.329329 206.055084 
L 68.422225 205.736654 
L 68.44545 205.736654 
L 68.515122 205.539531 
L 68.608019 205.448551 
L 68.654467 205.130121 
L 68.770588 205.114957 
L 68.863485 204.67522 
L 68.956382 204.599404 
L 69.049279 204.023197 
L 69.118951 203.932217 
L 69.188624 203.750257 
L 69.351193 203.659277 
L 69.44409 203.35601 
L 69.467314 203.35601 
L 69.536987 202.90111 
L 69.583435 202.90111 
L 69.676332 202.67366 
L 69.72278 202.58268 
L 69.792453 202.097453 
L 69.955022 202.097453 
L 70.047919 201.460593 
L 70.117592 201.384776 
L 70.187264 201.020856 
L 70.233713 201.020856 
L 70.326609 200.778242 
L 70.396282 200.732752 
L 70.489179 200.399159 
L 70.582075 200.293016 
L 70.628524 200.232362 
L 70.744645 200.202036 
L 70.837542 199.610665 
L 70.907214 199.550012 
L 71.000111 199.413542 
L 71.093008 199.322562 
L 71.185905 199.064785 
L 71.232353 199.049622 
L 71.32525 198.655375 
L 71.348474 198.655375 
L 71.441371 198.245965 
L 71.487819 198.170148 
L 71.580716 197.624268 
L 71.673613 197.548451 
L 71.766509 197.169368 
L 71.812958 197.078388 
L 71.905855 196.896428 
L 71.952303 196.790284 
L 72.0452 196.487018 
L 72.114872 196.456691 
L 72.207769 195.986627 
L 72.370339 195.941137 
L 72.463235 195.380094 
L 72.532908 195.289114 
L 72.625805 194.940357 
L 72.76515 194.834214 
L 72.811598 194.5916 
L 72.974168 194.515784 
L 73.04384 194.242844 
L 73.113513 194.242844 
L 73.20641 193.742453 
L 73.252858 193.696963 
L 73.345755 193.393697 
L 73.368979 193.393697 
L 73.461876 193.13592 
L 73.577997 193.04494 
L 73.670893 192.832653 
L 73.856687 192.756836 
L 73.949584 192.210956 
L 74.042481 192.104813 
L 74.135377 191.831873 
L 74.158602 191.831873 
L 74.228274 191.498279 
L 74.344395 191.392136 
L 74.437292 191.179849 
L 74.64631 191.088869 
L 74.739206 190.755276 
L 74.808879 190.724949 
L 74.901776 190.209395 
L 75.017897 190.133579 
L 75.110794 189.860639 
L 75.250139 189.754495 
L 75.343036 189.451229 
L 75.36626 189.451229 
L 75.459156 188.935675 
L 75.575277 188.844695 
L 75.668174 188.677898 
L 75.784295 188.571755 
L 75.853968 188.511102 
L 75.970089 188.465612 
L 76.062986 188.192671 
L 76.155882 188.086528 
L 76.248779 187.859078 
L 76.341676 187.798425 
L 76.411349 187.601301 
L 76.504245 187.540648 
L 76.597142 187.191891 
L 76.690039 187.085748 
L 76.759711 186.949278 
L 76.875832 186.934114 
L 76.875832 186.843134 
L 77.061626 186.630848 
L 77.154523 186.373071 
L 77.24742 186.282091 
L 77.317092 186.115294 
L 77.456437 186.009151 
L 77.549334 185.872681 
L 77.619007 185.812027 
L 77.665455 185.675557 
L 77.758352 185.569414 
L 77.851249 185.3268 
L 77.920921 185.220657 
L 77.990594 185.00837 
L 78.129939 184.91739 
L 78.222836 184.68994 
L 78.269284 184.59896 
L 78.362181 184.401837 
L 78.431853 184.32602 
L 78.501526 183.9621 
L 78.617647 183.855957 
L 78.710544 183.583017 
L 78.780216 183.567853 
L 78.849889 183.219096 
L 78.96601 183.18877 
L 79.058907 182.809686 
L 79.105355 182.73387 
L 79.151804 182.627726 
L 79.430494 182.521583 
L 79.523391 182.309296 
L 79.569839 182.233479 
L 79.662736 182.081846 
L 79.709184 181.975703 
L 79.802081 181.793743 
L 79.918202 181.702763 
L 79.987875 181.626946 
L 80.196892 181.520803 
L 80.289789 181.354006 
L 80.40591 181.308516 
L 80.498807 181.111392 
L 80.591704 181.005249 
L 80.6846 180.883942 
L 80.754273 180.868779 
L 80.84717 180.489695 
L 80.870394 180.489695 
L 80.963291 180.049959 
L 81.056188 179.974142 
L 81.149084 179.716365 
L 81.334878 179.625385 
L 81.427775 179.549569 
L 81.56712 179.443425 
L 81.636792 179.170485 
L 81.776138 179.079505 
L 81.869034 178.852055 
L 82.031604 178.745912 
L 82.101276 178.518461 
L 82.194173 178.488135 
L 82.263846 178.230358 
L 82.28707 178.230358 
L 82.449639 178.109051 
L 82.542536 177.638988 
L 82.681881 177.548008 
L 82.774778 177.320558 
L 82.937347 177.229578 
L 83.030244 176.941474 
L 83.146365 176.880821 
L 83.169589 176.744351 
L 83.28571 176.744351 
L 83.378607 176.471411 
L 83.564401 176.410757 
L 83.657297 176.243961 
L 83.773418 176.198471 
L 83.866315 176.077164 
L 83.982436 176.001347 
L 84.075333 175.880041 
L 84.191454 175.789061 
L 84.261127 175.576774 
L 84.377248 175.485794 
L 84.470144 175.228017 
L 84.563041 175.1522 
L 84.655938 174.909587 
L 84.702386 174.83377 
L 84.795283 174.51534 
L 84.818507 174.51534 
L 84.911404 174.257563 
L 85.027525 174.166583 
L 85.120422 174.045277 
L 85.213319 173.939133 
L 85.282991 173.60554 
L 85.515233 173.51456 
L 85.60813 173.256783 
L 85.747475 173.226456 
L 85.840372 172.695739 
L 85.933269 172.619923 
L 86.026165 172.498616 
L 86.119062 172.453126 
L 86.211959 172.134696 
L 86.304856 172.089206 
L 86.397752 171.755613 
L 86.513873 171.710122 
L 86.60677 171.391692 
L 86.722891 171.300712 
L 86.76934 171.194569 
L 86.885461 171.103589 
L 86.978357 170.876139 
L 87.024806 170.785159 
L 87.094478 170.648689 
L 87.210599 170.557709 
L 87.280272 170.375749 
L 87.396393 170.299932 
L 87.48929 170.026992 
L 87.535738 169.920849 
L 87.628635 169.738888 
L 87.675083 169.678235 
L 87.76798 169.496275 
L 87.837653 169.465948 
L 87.837653 169.420458 
L 88.325361 168.586475 
L 88.48793 168.495495 
L 88.580827 168.374188 
L 88.627275 168.268045 
L 88.720172 168.025431 
L 89.022087 167.919288 
L 89.114983 167.767654 
L 89.231104 167.722164 
L 89.300777 167.388571 
L 89.393674 167.282428 
L 89.463346 167.176284 
L 89.695588 167.070141 
L 89.765261 166.918508 
L 89.881382 166.857854 
L 89.951054 166.645567 
L 90.020727 166.539424 
L 90.113624 166.418117 
L 90.252969 166.402954 
L 90.322642 166.114851 
L 90.392314 166.099687 
L 90.461987 165.8874 
L 90.508435 165.8874 
L 90.601332 165.52348 
L 90.64778 165.447664 
L 90.694229 165.29603 
L 90.81035 165.235377 
L 90.880022 165.083744 
L 90.949695 165.06858 
L 91.019367 164.79564 
L 91.135488 164.719823 
L 91.228385 164.553027 
L 91.251609 164.553027 
L 91.344506 164.371067 
L 91.414179 164.34074 
L 91.507075 164.11329 
L 91.646421 164.0678 
L 91.692869 163.825186 
L 91.80899 163.734206 
L 91.901887 163.628063 
L 91.994784 163.52192 
L 92.064456 163.400613 
L 92.157353 163.38545 
L 92.25025 163.158 
L 92.412819 163.051856 
L 92.505716 162.960876 
L 92.645061 162.854733 
L 92.714734 162.657609 
L 92.877303 162.551466 
L 92.9702 162.308853 
L 93.132769 162.233036 
L 93.225666 161.990422 
L 93.318563 161.914606 
L 93.411459 161.687156 
L 93.574029 161.611339 
L 93.666926 161.459706 
L 93.783047 161.399052 
L 93.806271 161.308072 
L 93.945616 161.201929 
L 94.038513 160.913825 
L 94.108185 160.838009 
L 94.201082 160.747029 
L 94.363651 160.656049 
L 94.456548 160.610559 
L 94.502997 160.580232 
L 94.572669 160.292129 
L 94.758463 160.185985 
L 94.85136 159.943372 
L 95.013929 159.761412 
L 95.106826 159.549125 
L 95.176498 159.442982 
L 95.199723 159.412655 
L 95.501637 159.321675 
L 95.594534 159.139715 
L 95.710655 159.033571 
L 95.803552 158.912265 
L 95.942897 158.806121 
L 96.035794 158.593835 
L 96.244811 158.563508 
L 96.337708 158.290568 
L 96.546726 158.184425 
L 96.639623 158.108608 
L 96.732519 158.017628 
L 96.825416 157.881158 
L 96.895089 157.775014 
L 96.987986 157.623381 
L 97.150555 157.517238 
L 97.243452 157.304951 
L 97.336349 157.244298 
L 97.429245 157.092664 
L 97.638263 157.001684 
L 97.707936 156.819724 
L 97.777608 156.804561 
L 97.870505 156.592274 
L 97.986626 156.486131 
L 98.033074 156.440641 
L 98.17242 156.349661 
L 98.265316 156.1677 
L 98.358213 156.091884 
L 98.45111 156.000904 
L 98.590455 155.909924 
L 98.683352 155.727964 
L 98.799473 155.62182 
L 98.89237 155.364044 
L 99.054939 155.288227 
L 99.124612 155.12143 
L 99.333629 155.060777 
L 99.380078 154.909143 
L 99.658768 154.818163 
L 99.751665 154.651367 
L 99.844562 154.545223 
L 99.937458 154.43908 
L 100.192925 154.21163 
L 100.285821 154.059996 
L 100.33227 153.98418 
L 100.401942 153.84771 
L 100.587736 153.741566 
L 100.680633 153.696076 
L 100.819978 153.589933 
L 100.88965 153.468626 
L 101.028996 153.39281 
L 101.121892 153.195686 
L 101.261238 153.104706 
L 101.354134 152.877256 
L 101.516704 152.771113 
L 101.586376 152.558826 
L 101.841842 152.467846 
L 101.934739 152.285886 
L 102.120533 152.179742 
L 102.190205 152.149416 
L 102.399223 152.073599 
L 102.468896 151.997782 
L 102.654689 151.891639 
L 102.747586 151.830986 
L 102.840483 151.755169 
L 102.93338 151.421576 
L 103.049501 151.330596 
L 103.142397 151.103145 
L 103.21207 151.027329 
L 103.281743 150.890859 
L 103.397863 150.815042 
L 103.397863 150.784715 
L 103.444312 150.693735 
L 103.606881 150.587592 
L 103.676554 150.496612 
L 103.908796 150.390469 
L 104.001693 150.223672 
L 104.048141 150.147855 
L 104.117814 149.981058 
L 104.233935 149.920405 
L 104.303607 149.677792 
L 104.419728 149.586812 
L 104.512625 149.435178 
L 104.721643 149.359361 
L 104.791315 149.131911 
L 104.953885 149.025768 
L 105.046781 148.858971 
L 105.162902 148.767991 
L 105.255799 148.570868 
L 105.418368 148.479888 
L 105.464817 148.373744 
L 105.65061 148.313091 
L 105.743507 148.131131 
L 105.929301 148.024988 
L 106.022198 147.721721 
L 106.207991 147.615578 
L 106.300888 147.372964 
L 106.37056 147.281984 
L 106.463457 147.145514 
L 106.626027 147.054534 
L 106.718923 146.827084 
L 107.113735 146.720941 
L 107.136959 146.660287 
L 107.276304 146.599634 
L 107.369201 146.372184 
L 107.462098 146.281204 
L 107.554994 146.159897 
L 107.764012 146.068917 
L 107.856909 145.962774 
L 108.019478 145.85663 
L 108.112375 145.72016 
L 108.158824 145.704997 
L 108.25172 145.462383 
L 108.298169 145.416893 
L 108.391065 145.234933 
L 108.623307 145.12879 
L 108.716204 144.780033 
L 108.855549 144.67389 
L 108.948446 144.613237 
L 109.041343 144.522257 
L 109.13424 144.476766 
L 109.250361 144.40095 
L 109.273585 144.30997 
L 109.598724 144.21899 
L 109.69162 144.052193 
L 109.807741 143.94605 
L 109.877414 143.885396 
L 109.947087 143.794416 
L 110.039983 143.506313 
L 110.109656 143.430496 
L 110.202553 143.294026 
L 110.249001 143.218209 
L 110.341898 143.005923 
L 110.481243 142.914943 
L 110.57414 142.839126 
L 110.667037 142.778473 
L 110.713485 142.657166 
L 110.945727 142.581349 
L 111.038624 142.505532 
L 111.131521 142.444879 
L 111.177969 142.323572 
L 111.363762 142.262919 
L 111.456659 142.065796 
L 111.526332 141.959652 
L 111.526332 141.914162 
L 111.805022 141.808019 
L 111.874695 141.610896 
L 111.990816 141.535079 
L 112.060488 141.413772 
L 112.246282 141.322792 
L 112.269506 141.201485 
L 112.478524 141.095342 
L 112.548196 140.928545 
L 112.780438 140.822402 
L 112.850111 140.701095 
L 112.989456 140.640442 
L 113.059129 140.503972 
L 113.314595 140.397828 
L 113.361043 140.352338 
L 113.570061 140.246195 
L 113.570061 140.215868 
L 113.825527 140.109725 
L 113.918424 140.049072 
L 114.057769 139.942928 
L 114.150666 139.745805 
L 114.382908 139.654825 
L 114.429356 139.594171 
L 114.684822 139.503191 
L 114.777719 139.427375 
L 114.986737 139.336395 
L 115.079634 139.245415 
L 115.265427 139.139271 
L 115.3351 139.093781 
L 115.451221 139.048291 
L 115.520893 138.745025 
L 115.590566 138.714698 
L 115.683463 138.502411 
L 115.822808 138.426594 
L 115.915705 138.274961 
L 116.031826 138.229471 
L 116.05505 138.138491 
L 116.240844 138.077838 
L 116.310516 137.895878 
L 116.658879 137.789734 
L 116.751776 137.653264 
L 116.821448 137.607774 
L 116.914345 137.471304 
L 117.169811 137.425814 
L 117.239484 137.304507 
L 117.378829 137.259017 
L 117.448502 137.137711 
L 117.657519 137.031567 
L 117.703968 136.910261 
L 118.029107 136.804117 
L 118.075555 136.667647 
L 118.377469 136.561504 
L 118.447142 136.50085 
L 118.702608 136.394707 
L 118.725832 136.349217 
L 119.050971 136.258237 
L 119.143868 135.985297 
L 119.399334 135.894317 
L 119.492231 135.72752 
L 119.561903 135.651703 
L 119.631576 135.54556 
L 119.770921 135.469743 
L 119.863818 135.378763 
L 120.119284 135.27262 
L 120.212181 135.09066 
L 120.351526 134.984517 
L 120.397974 134.86321 
L 120.699889 134.787393 
L 120.792786 134.605433 
L 120.978579 134.529616 
L 121.071476 134.36282 
L 121.187597 134.27184 
L 121.280494 134.18086 
L 121.396615 134.105043 
L 121.466287 133.9989 
L 121.652081 133.892756 
L 121.744978 133.741123 
L 121.907547 133.665306 
L 121.97722 133.513673 
L 122.186238 133.407529 
L 122.232686 133.331713 
L 122.441704 133.225569 
L 122.5346 133.149753 
L 122.673946 133.043609 
L 122.766842 132.816159 
L 122.952636 132.755506 
L 123.045533 132.558382 
L 123.231326 132.452239 
L 123.324223 132.376422 
L 123.510017 132.270279 
L 123.533241 132.194462 
L 123.69581 132.133809 
L 123.788707 131.997339 
L 123.881604 131.891196 
L 123.974501 131.815379 
L 124.183518 131.709235 
L 124.253191 131.603092 
L 124.438984 131.527275 
L 124.531881 131.299825 
L 124.671226 131.224009 
L 124.764123 131.057212 
L 124.903468 130.951069 
L 124.926693 130.890415 
L 125.251831 130.799435 
L 125.344728 130.602312 
L 125.530522 130.496168 
L 125.623418 130.420352 
L 125.669867 130.405188 
L 125.762764 130.223228 
L 125.878885 130.132248 
L 125.948557 130.026105 
L 126.204023 129.919962 
L 126.250472 129.798655 
L 126.505938 129.692511 
L 126.598835 129.601531 
L 126.900749 129.495388 
L 126.993646 129.343755 
L 127.29556 129.252775 
L 127.342009 129.161795 
L 127.597475 129.055651 
L 127.667148 129.025325 
L 127.922614 128.919181 
L 127.992286 128.828201 
L 128.108407 128.722058 
L 128.201304 128.676568 
L 128.270977 128.585588 
L 128.317425 128.479444 
L 128.479994 128.449118 
L 128.572891 128.236831 
L 128.758685 128.130688 
L 128.828357 128.054871 
L 129.130272 127.948727 
L 129.223169 127.736441 
L 129.525083 127.630297 
L 129.571532 127.599971 
L 129.734101 127.524154 
L 129.826998 127.448337 
L 129.989567 127.372521 
L 130.082464 127.281541 
L 130.175361 127.190561 
L 130.268257 127.069254 
L 130.361154 127.023764 
L 130.454051 126.856967 
L 130.755966 126.750824 
L 130.755966 126.720497 
L 130.964983 126.64468 
L 131.05788 126.477884 
L 131.197225 126.402067 
L 131.290122 126.23527 
L 131.452691 126.14429 
L 131.545588 125.947167 
L 131.708158 125.841023 
L 131.801054 125.68939 
L 131.9404 125.659063 
L 132.033296 125.50743 
L 132.242314 125.401287 
L 132.335211 125.295143 
L 132.451332 125.249653 
L 132.544229 125.082857 
L 132.66035 124.976713 
L 132.753246 124.885733 
L 133.031937 124.794753 
L 133.101609 124.658283 
L 133.287403 124.567303 
L 133.357075 124.46116 
L 133.589317 124.37018 
L 133.682214 124.2792 
L 133.798335 124.18822 
L 133.891232 124.036586 
L 134.123474 123.960769 
L 134.123474 123.915279 
L 134.402164 123.809136 
L 134.402164 123.793973 
L 134.587958 123.748483 
L 134.680855 123.581686 
L 135.029218 123.475543 
L 135.122114 123.369399 
L 135.354356 123.263256 
L 135.447253 123.187439 
L 135.725943 123.081296 
L 135.795616 122.990316 
L 136.027858 122.884172 
L 136.097531 122.808356 
L 136.283324 122.702212 
L 136.352997 122.580906 
L 136.585239 122.474762 
L 136.654911 122.338292 
L 136.840705 122.232149 
L 136.933602 122.126006 
L 137.072947 122.065352 
L 137.165844 121.837902 
L 137.281964 121.731759 
L 137.351637 121.671105 
L 137.816121 121.580125 
L 137.885794 121.534635 
L 138.094811 121.428492 
L 138.187708 121.352675 
L 138.373502 121.337512 
L 138.41995 121.201042 
L 138.652192 121.094898 
L 138.745089 120.912938 
L 138.907658 120.837122 
L 138.954107 120.776468 
L 139.093452 120.776468 
L 139.093452 120.655162 
L 139.41859 120.549018 
L 139.441815 120.518692 
L 139.720505 120.427712 
L 139.790178 120.367058 
L 140.092092 120.260915 
L 140.184989 120.109281 
L 140.5798 120.018301 
L 140.672697 119.942485 
L 140.788818 119.866668 
L 140.788818 119.821178 
L 141.067508 119.715035 
L 141.160405 119.563401 
L 141.508768 119.457258 
L 141.508768 119.442095 
L 141.648113 119.442095 
L 141.717786 119.290461 
L 141.880355 119.184318 
L 141.950028 119.017521 
L 142.135821 118.911378 
L 142.159046 118.835561 
L 142.530633 118.729418 
L 142.577081 118.653601 
L 142.878996 118.547458 
L 142.948668 118.501968 
L 143.088013 118.410988 
L 143.111238 118.335171 
L 143.506049 118.229028 
L 143.552497 118.153211 
L 143.668618 118.092557 
L 143.738291 117.971251 
L 143.854412 117.880271 
L 143.924084 117.804454 
L 144.156326 117.698311 
L 144.202775 117.637657 
L 144.388568 117.546677 
L 144.435017 117.455697 
L 144.62081 117.349554 
L 144.713707 117.167594 
L 145.015622 117.076614 
L 145.108518 116.97047 
L 145.247863 116.909817 
L 145.34076 116.78851 
L 145.642675 116.682367 
L 145.735572 116.485244 
L 145.991038 116.3791 
L 146.083935 116.257793 
L 146.269728 116.15165 
L 146.339401 116.075833 
L 146.50197 115.984853 
L 146.594867 115.87871 
L 146.966454 115.772567 
L 147.012902 115.711913 
L 147.129023 115.69675 
L 147.152248 115.56028 
L 147.407714 115.454137 
L 147.454162 115.363157 
L 147.66318 115.257013 
L 147.686404 115.211523 
L 147.94187 115.135706 
L 147.94187 115.090216 
L 148.081215 115.075053 
L 148.174112 114.802113 
L 148.499251 114.69597 
L 148.545699 114.589826 
L 148.66182 114.498846 
L 148.731493 114.453356 
L 149.010183 114.347213 
L 149.056632 114.286559 
L 149.521115 114.180416 
L 149.614012 114.119763 
L 149.776582 114.043946 
L 149.869478 113.846823 
L 150.008824 113.755843 
L 150.10172 113.649699 
L 150.194617 113.543556 
L 150.287514 113.407086 
L 150.589428 113.300942 
L 150.682325 113.255452 
L 150.844895 113.149309 
L 150.914567 113.012839 
L 151.100361 112.906696 
L 151.193257 112.815716 
L 151.54162 112.709572 
L 151.611293 112.557939 
L 151.843535 112.451796 
L 151.889983 112.421469 
L 152.215122 112.330489 
L 152.308019 112.163692 
L 152.470588 112.072712 
L 152.540261 111.981732 
L 152.818951 111.890752 
L 152.911848 111.754282 
L 153.167314 111.648139 
L 153.260211 111.511669 
L 153.446004 111.420689 
L 153.515677 111.329708 
L 153.86404 111.223565 
L 153.887264 111.162912 
L 154.421421 111.071932 
L 154.491093 110.980952 
L 154.653663 110.874808 
L 154.746559 110.723175 
L 154.955577 110.617032 
L 155.420061 110.404745 
L 155.605855 110.344091 
L 155.698751 110.177295 
L 155.861321 110.071151 
L 155.907769 110.010498 
L 156.186459 109.919518 
L 156.279356 109.737558 
L 156.511598 109.646578 
L 156.604495 109.494945 
L 156.929634 109.419128 
L 156.976082 109.358474 
L 157.301221 109.252331 
L 157.324445 109.222004 
L 157.603135 109.176514 
L 157.696032 109.024881 
L 157.812153 108.918738 
L 157.90505 108.858084 
L 158.044395 108.751941 
L 158.137292 108.721614 
L 158.508879 108.615471 
L 158.601776 108.554818 
L 158.671448 108.463837 
L 158.764345 108.372857 
L 159.019811 108.266714 
L 159.112708 108.221224 
L 159.368174 108.115081 
L 159.461071 107.978611 
L 159.809434 107.872467 
L 159.879107 107.826977 
L 160.227469 107.720834 
L 160.320366 107.690507 
L 160.529384 107.599527 
L 160.622281 107.538874 
L 160.831299 107.43273 
L 160.900971 107.326587 
L 161.086765 107.220444 
L 161.179661 107.099137 
L 161.295782 106.992994 
L 161.342231 106.871687 
L 161.853163 106.765544 
L 161.899612 106.735217 
L 162.201526 106.629074 
L 162.294423 106.56842 
L 162.433768 106.462277 
L 162.433768 106.401623 
L 162.828579 106.310643 
L 162.875028 106.265153 
L 163.409184 106.15901 
L 163.502081 106.098357 
L 163.757547 106.007377 
L 163.850444 105.88607 
L 164.198807 105.779927 
L 164.268479 105.7496 
L 164.593618 105.643457 
L 164.686515 105.597967 
L 164.895533 105.52215 
L 164.941981 105.461496 
L 165.243896 105.370516 
L 165.336792 105.279536 
L 165.476138 105.173393 
L 165.569034 105.052086 
L 165.824501 104.961106 
L 165.917397 104.8398 
L 166.103191 104.763983 
L 166.103191 104.718493 
L 166.149639 104.718493 
L 166.474778 104.673003 
L 166.544451 104.566859 
L 166.776693 104.475879 
L 166.869589 104.384899 
L 166.962486 104.278756 
L 167.008935 104.218103 
L 167.357297 104.111959 
L 167.357297 104.096796 
L 167.589539 103.990653 
L 167.635988 103.899673 
L 167.961127 103.793529 
L 168.054023 103.702549 
L 168.309489 103.596406 
L 168.309489 103.566079 
L 168.657852 103.459936 
L 168.704301 103.217322 
L 168.982991 103.126342 
L 169.075888 103.020199 
L 169.447475 102.914056 
L 169.517148 102.883729 
L 169.865511 102.792749 
L 169.865511 102.762422 
L 170.237098 102.656279 
L 170.283546 102.610789 
L 170.585461 102.519809 
L 170.678357 102.474319 
L 171.02672 102.368175 
L 171.073169 102.292359 
L 171.444756 102.186215 
L 171.537653 102.125562 
L 171.816343 102.019419 
L 171.839567 101.973929 
L 172.18793 101.867785 
L 172.234378 101.746479 
L 172.698862 101.640335 
L 172.791759 101.594845 
L 172.861432 101.503865 
L 172.954329 101.382558 
L 173.372364 101.276415 
L 173.465261 101.200598 
L 173.767175 101.094455 
L 173.860072 101.033802 
L 174.115538 100.942822 
L 174.138762 100.882168 
L 174.34778 100.791188 
L 174.440677 100.624391 
L 174.533574 100.594065 
L 174.626471 100.457595 
L 174.812264 100.351451 
L 174.858713 100.305961 
L 175.090954 100.214981 
L 175.183851 100.154328 
L 175.323196 100.063348 
L 175.416093 99.987531 
L 175.671559 99.881388 
L 175.764456 99.790408 
L 176.089595 99.684264 
L 176.136043 99.562958 
L 176.646976 99.456814 
L 176.739872 99.350671 
L 177.088235 99.244528 
L 177.088235 99.229364 
L 177.575943 99.153548 
L 177.575943 99.108058 
L 178.202997 99.001914 
L 178.226221 98.910934 
L 178.574584 98.835118 
L 178.644256 98.713811 
L 178.899723 98.607667 
L 178.992619 98.531851 
L 179.642897 98.425707 
L 179.735794 98.289237 
L 179.968036 98.183094 
L 180.037708 98.152767 
L 180.177053 98.092114 
L 180.26995 98.016297 
L 180.641537 97.910154 
L 180.734434 97.879827 
L 180.873779 97.773684 
L 180.966676 97.71303 
L 181.106021 97.606887 
L 181.106021 97.57656 
L 181.454384 97.48558 
L 181.524057 97.364274 
L 181.895644 97.273294 
L 181.895644 97.21264 
L 182.058213 97.136824 
L 182.15111 97.03068 
L 182.336903 96.924537 
L 182.336903 96.909374 
L 182.638818 96.80323 
L 182.731715 96.697087 
L 182.963957 96.590943 
L 183.056853 96.515127 
L 183.31232 96.408983 
L 183.381992 96.333167 
L 183.614234 96.227023 
L 183.683907 96.12088 
L 183.800028 96.045063 
L 183.8697 95.954083 
L 184.241287 95.84794 
L 184.334184 95.80245 
L 184.612875 95.696306 
L 184.705771 95.62049 
L 184.984462 95.514346 
L 185.077358 95.332386 
L 185.286376 95.241406 
L 185.379273 95.089773 
L 185.797309 94.98363 
L 185.797309 94.968466 
L 186.401138 94.862323 
L 186.47081 94.816833 
L 186.749501 94.710689 
L 186.819173 94.650036 
L 187.121088 94.559056 
L 187.213984 94.498403 
L 187.608796 94.392259 
L 187.608796 94.377096 
L 187.957159 94.270953 
L 188.050055 94.225463 
L 188.375194 94.164809 
L 188.421643 94.028339 
L 188.653885 93.922196 
L 188.723557 93.861542 
L 189.002248 93.755399 
L 189.07192 93.725072 
L 189.35061 93.634092 
L 189.420283 93.558276 
L 189.559628 93.452132 
L 189.652525 93.391479 
L 189.884767 93.285336 
L 189.977664 93.194356 
L 190.326027 93.088212 
L 190.326027 93.073049 
L 190.418923 93.073049 
L 191.324667 92.375535 
L 191.39434 92.314882 
L 191.649806 92.208739 
L 191.649806 92.193575 
L 192.044617 92.087432 
L 192.137514 91.950962 
L 192.300083 91.844818 
L 192.300083 91.829655 
L 192.648446 91.738675 
L 192.718119 91.678022 
L 193.345172 91.587042 
L 193.438069 91.526388 
L 193.763208 91.435408 
L 193.786432 91.359592 
L 193.972225 91.253448 
L 193.972225 91.238285 
L 194.436709 91.147305 
L 194.529606 91.101815 
L 194.831521 90.995672 
L 194.924417 90.889528 
L 195.226332 90.783385 
L 195.296004 90.737895 
L 195.783713 90.646915 
L 195.806937 90.601425 
L 196.294645 90.495281 
L 196.387542 90.373975 
L 196.735905 90.267831 
L 196.828801 90.192015 
L 197.130716 90.085871 
L 197.223613 89.934238 
L 197.479079 89.828094 
L 197.548751 89.797768 
L 197.897114 89.706788 
L 197.897114 89.676461 
L 198.338374 89.570318 
L 198.431271 89.494501 
L 198.918979 89.403521 
L 198.965427 89.342868 
L 199.244118 89.251888 
L 199.267342 89.176071 
L 199.685377 89.115418 
L 199.685377 89.024437 
L 199.917619 88.918294 
L 199.987292 88.872804 
L 200.358879 88.766661 
L 200.451776 88.736334 
L 200.614345 88.645354 
L 200.637569 88.569537 
L 201.055605 88.478557 
L 201.125277 88.417904 
L 201.311071 88.357251 
L 201.311071 88.296597 
L 201.612986 88.266271 
L 201.63621 88.144964 
L 202.147142 88.053984 
L 202.240039 87.978167 
L 202.588402 87.872024 
L 202.681299 87.72039 
L 203.006437 87.614247 
L 203.029661 87.568757 
L 203.285128 87.462614 
L 203.378024 87.31098 
L 203.819284 87.235164 
L 203.865733 87.12902 
L 204.121199 87.03804 
L 204.167647 86.962223 
L 204.306992 86.85608 
L 204.399889 86.825753 
L 204.632131 86.734773 
L 204.678579 86.689283 
L 205.096615 86.58314 
L 205.189512 86.461833 
L 205.723668 86.204057 
L 205.979134 86.113076 
L 206.002358 86.067586 
L 206.420394 85.99177 
L 206.443618 85.90079 
L 206.722309 85.794646 
L 206.768757 85.688503 
L 207.093896 85.58236 
L 207.163568 85.552033 
L 207.604828 85.44589 
L 207.674501 85.324583 
L 208.162209 85.21844 
L 208.255105 85.127459 
L 208.533796 85.021316 
L 208.626693 84.975826 
L 209.230522 84.869683 
L 209.230522 84.839356 
L 209.532436 84.733213 
L 209.578885 84.702886 
L 209.857575 84.657396 
L 209.927248 84.536089 
L 210.391731 84.445109 
L 210.484628 84.369293 
L 210.71687 84.293476 
L 210.740094 84.202496 
L 210.99556 84.111516 
L 211.018785 84.005372 
L 211.320699 83.959882 
L 211.320699 83.884066 
L 211.761959 83.777922 
L 211.854856 83.717269 
L 212.063873 83.656616 
L 212.110322 83.550472 
L 212.458685 83.444329 
L 212.551582 83.353349 
L 213.573446 83.262369 
L 213.666343 83.171389 
L 213.968257 83.065245 
L 214.061154 82.959102 
L 214.246948 82.868122 
L 214.339845 82.746815 
L 214.641759 82.640672 
L 214.734656 82.549692 
L 214.897225 82.458712 
L 214.897225 82.367732 
L 215.663624 82.261589 
L 215.710072 82.216098 
L 215.942314 82.125118 
L 216.011987 82.034138 
L 216.383574 81.927995 
L 216.453246 81.897668 
L 216.685488 81.806688 
L 216.708713 81.761198 
L 217.0803 81.655055 
L 217.173196 81.488258 
L 217.614456 81.382115 
L 217.614456 81.366952 
L 218.055716 81.260808 
L 218.055716 81.245645 
L 218.822114 81.139501 
L 218.915011 81.078848 
L 219.100805 80.972705 
L 219.124029 80.927215 
L 219.402719 80.821071 
L 219.495616 80.775581 
L 219.9601 80.669438 
L 220.052997 80.578458 
L 220.540705 80.472315 
L 220.587153 80.381335 
L 221.005189 80.275191 
L 221.005189 80.244864 
L 221.307103 80.138721 
L 221.376776 80.108394 
L 221.632242 80.002251 
L 221.632242 79.956761 
L 222.166398 79.865781 
L 222.236071 79.820291 
L 222.468313 79.714148 
L 222.514761 79.623168 
L 222.793452 79.517024 
L 222.816676 79.486698 
L 222.863124 79.486698 
L 223.420505 79.380554 
L 223.513402 79.289574 
L 223.699195 79.183431 
L 223.792092 79.092451 
L 224.488818 78.986307 
L 224.535266 78.955981 
L 224.883629 78.849837 
L 224.906853 78.743694 
L 225.278441 78.637551 
L 225.371337 78.576897 
L 225.650028 78.516244 
L 225.650028 78.455591 
L 225.975166 78.394937 
L 226.044839 78.31912 
L 226.253857 78.212977 
L 226.346754 78.09167 
L 227.298946 77.985527 
L 227.298946 77.970364 
L 227.925999 77.86422 
L 227.949223 77.833894 
L 228.251138 77.72775 
L 228.344034 77.667097 
L 228.576276 77.576117 
L 228.599501 77.530627 
L 228.854967 77.424484 
L 228.947863 77.31834 
L 229.319451 77.212197 
L 229.412347 77.18187 
L 229.737486 77.075727 
L 229.830383 77.015073 
L 230.341315 76.939257 
L 230.434212 76.848277 
L 231.061265 76.742133 
L 231.154162 76.711807 
L 231.316731 76.620827 
L 231.386404 76.560173 
L 231.827664 76.45403 
L 231.874112 76.423703 
L 232.176027 76.347886 
L 232.199251 76.27207 
L 232.663735 76.165926 
L 232.756632 76.120436 
L 233.221115 76.029456 
L 233.221115 75.95364 
L 233.685599 75.877823 
L 233.685599 75.81717 
L 234.219756 75.72619 
L 234.312653 75.650373 
L 234.568119 75.54423 
L 234.591343 75.513903 
L 234.707464 75.422923 
L 234.800361 75.347106 
L 235.032603 75.240963 
L 235.102275 75.195473 
L 235.497087 75.089329 
L 235.589983 75.028676 
L 236.12414 74.937696 
L 236.147364 74.861879 
L 236.449279 74.770899 
L 236.449279 74.740573 
L 236.820866 74.634429 
L 236.913762 74.528286 
L 237.494367 74.422142 
L 237.587264 74.376652 
L 238.237542 74.270509 
L 238.330438 74.225019 
L 238.446559 74.118876 
L 238.493008 74.073386 
L 238.841371 73.967242 
L 238.887819 73.921752 
L 239.28263 73.815609 
L 239.352303 73.633649 
L 239.630993 73.527506 
L 239.677442 73.466852 
L 240.188374 73.406199 
L 240.281271 73.284892 
L 240.536737 73.178749 
L 240.536737 73.163585 
L 241.187014 73.057442 
L 241.279911 72.981625 
L 241.465705 72.875482 
L 241.535377 72.784502 
L 242.371448 72.678359 
L 242.441121 72.648032 
L 243.04495 72.541889 
L 243.137847 72.450908 
L 243.718452 72.344765 
L 243.788124 72.268948 
L 244.20616 72.162805 
L 244.299057 72.071825 
L 244.600971 71.965682 
L 244.64742 71.935355 
L 245.297697 71.829212 
L 245.297697 71.814048 
L 245.64606 71.707905 
L 245.692508 71.647252 
L 246.482131 71.541108 
L 246.575028 71.374311 
L 246.784046 71.268168 
L 246.876942 71.131698 
L 247.387875 71.040718 
L 247.387875 71.010391 
L 248.24717 70.919411 
L 248.24717 70.873921 
L 248.943896 70.767778 
L 249.013568 70.722288 
L 249.570949 70.631308 
L 249.640622 70.540328 
L 250.081881 70.464511 
L 250.151554 70.388694 
L 250.592814 70.282551 
L 250.68571 70.206734 
L 251.034073 70.100591 
L 251.12697 70.024774 
L 251.452109 69.933794 
L 251.521781 69.857978 
L 252.009489 69.751834 
L 252.102386 69.660854 
L 252.497198 69.585038 
L 252.497198 69.539547 
L 253.217148 69.433404 
L 253.310044 69.357587 
L 253.44939 69.251444 
L 253.44939 69.236281 
L 254.122891 69.130137 
L 254.215788 69.023994 
L 254.401582 68.917851 
L 254.424806 68.887524 
L 254.680272 68.781381 
L 254.773169 68.735891 
L 255.191204 68.675237 
L 255.191204 68.584257 
L 255.562791 68.478114 
L 255.60924 68.41746 
L 256.004051 68.32648 
L 256.004051 68.296154 
L 256.677553 68.19001 
L 256.677553 68.159684 
L 257.606521 68.05354 
L 257.652969 67.992887 
L 258.04778 67.886744 
L 258.140677 67.841254 
L 258.48904 67.73511 
L 258.558713 67.704784 
L 259.20899 67.628967 
L 259.20899 67.583477 
L 259.836043 67.477333 
L 259.905716 67.447007 
L 260.323751 67.340863 
L 260.323751 67.310537 
L 260.950805 67.204393 
L 260.974029 67.14374 
L 261.392064 67.083087 
L 261.438513 67.00727 
L 261.763651 66.901127 
L 261.763651 66.885963 
L 262.437153 66.77982 
L 262.506826 66.73433 
L 262.901637 66.64335 
L 262.994534 66.567533 
L 263.505466 66.476553 
L 263.505466 66.4159 
L 264.039623 66.309756 
L 264.132519 66.27943 
L 265.061487 66.173286 
L 265.061487 66.14296 
L 265.781437 66.036816 
L 265.827886 65.991326 
L 266.036903 65.885183 
L 266.036903 65.854856 
L 266.687181 65.748713 
L 266.780078 65.657733 
L 267.174889 65.597079 
L 267.174889 65.536426 
L 267.871615 65.430283 
L 267.894839 65.384793 
L 268.382547 65.278649 
L 268.475444 65.187669 
L 268.73091 65.081526 
L 268.800583 65.020873 
L 269.427636 64.929893 
L 269.497309 64.854076 
L 270.240483 64.747933 
L 270.240483 64.732769 
L 270.867536 64.626626 
L 270.913984 64.565972 
L 271.33202 64.459829 
L 271.378468 64.414339 
L 271.819728 64.353686 
L 271.819728 64.293032 
L 272.353885 64.186889 
L 272.377109 64.095909 
L 273.004162 63.989766 
L 273.073835 63.959439 
L 273.724112 63.868459 
L 273.817009 63.822969 
L 274.397614 63.747152 
L 274.397614 63.686499 
L 274.908546 63.580355 
L 274.93177 63.550029 
L 275.953635 63.443885 
L 276.023307 63.413559 
L 276.487791 63.307415 
L 276.53424 63.277089 
L 277.021948 63.170945 
L 277.114845 63.095129 
L 277.625777 62.988985 
L 277.625777 62.973822 
L 278.276054 62.867679 
L 278.276054 62.852515 
L 278.69409 62.746372 
L 278.740538 62.716045 
L 279.13535 62.609902 
L 279.13535 62.579575 
L 279.669506 62.488595 
L 279.739179 62.412778 
L 280.435905 62.306635 
L 280.505577 62.276308 
L 281.016509 62.185328 
L 281.062958 62.139838 
L 281.341648 62.033695 
L 281.434545 61.973042 
L 282.177719 61.866898 
L 282.177719 61.836572 
L 283.129911 61.730428 
L 283.153135 61.684938 
L 283.826637 61.578795 
L 283.873085 61.548468 
L 284.825277 61.457488 
L 284.89495 61.351345 
L 285.243313 61.245201 
L 285.243313 61.230038 
L 285.777469 61.123895 
L 285.847142 61.093568 
L 286.33485 60.987425 
L 286.381299 60.957098 
L 286.729661 60.850955 
L 286.77611 60.805464 
L 287.21737 60.714484 
L 287.240594 60.653831 
L 287.867647 60.547688 
L 287.93732 60.487034 
L 288.889512 60.380891 
L 288.982408 60.350564 
L 289.632686 60.244421 
L 289.65591 60.198931 
L 290.956465 60.092788 
L 290.956465 60.077624 
L 291.328052 59.971481 
L 291.374501 59.880501 
L 291.746088 59.789521 
L 291.746088 59.744031 
L 292.558935 59.637887 
L 292.558935 59.622724 
L 293.348557 59.516581 
L 293.441454 59.440764 
L 294.231077 59.334621 
L 294.231077 59.319457 
L 294.881354 59.213314 
L 294.974251 59.167824 
L 295.694201 59.076844 
L 295.694201 59.016191 
L 296.344478 58.910047 
L 296.367703 58.864557 
L 297.29667 58.758414 
L 297.389567 58.69776 
L 298.202414 58.591617 
L 298.248862 58.530964 
L 298.643674 58.42482 
L 298.73657 58.19737 
L 299.89778 58.091227 
L 299.990677 58.045737 
L 300.431937 57.939594 
L 300.431937 57.92443 
L 301.360905 57.818287 
L 301.360905 57.803123 
L 301.802164 57.69698 
L 301.895061 57.65149 
L 302.893701 57.545347 
L 302.94015 57.499857 
L 303.543979 57.393713 
L 303.613651 57.363387 
L 304.054911 57.272407 
L 304.078135 57.226917 
L 304.844534 57.120773 
L 304.844534 57.10561 
L 305.262569 56.999467 
L 305.332242 56.953977 
L 305.843174 56.847833 
L 305.912847 56.802343 
L 306.81859 56.6962 
L 306.888263 56.635546 
L 307.863679 56.529403 
L 307.886903 56.499076 
L 308.235266 56.408096 
L 308.235266 56.37777 
L 309.024889 56.271626 
L 309.071337 56.226136 
L 310.046754 56.135156 
L 310.116426 56.05934 
L 311.138291 55.953196 
L 311.138291 55.938033 
L 312.113707 55.831889 
L 312.113707 55.801563 
L 312.810433 55.695419 
L 312.90333 55.634766 
L 313.762625 55.528623 
L 313.785849 55.498296 
L 314.203885 55.392153 
L 314.296781 55.316336 
L 315.597336 55.210193 
L 315.643785 55.149539 
L 316.688873 55.043396 
L 316.758546 54.982742 
L 317.408824 54.876599 
L 317.478496 54.846272 
L 318.361016 54.740129 
L 318.38424 54.709802 
L 318.94162 54.603659 
L 318.94162 54.588496 
L 319.754467 54.512679 
L 319.754467 54.467189 
L 320.729883 54.361046 
L 320.82278 54.315556 
L 321.496282 54.209412 
L 321.496282 54.194249 
L 322.402026 54.088106 
L 322.494922 54.027452 
L 323.447114 53.921309 
L 323.516787 53.860655 
L 324.074168 53.769675 
L 324.14384 53.693859 
L 324.608324 53.587715 
L 324.654772 53.542225 
L 325.02636 53.436082 
L 325.096032 53.375429 
L 325.885655 53.269285 
L 325.955327 53.223795 
L 326.582381 53.132815 
L 326.582381 53.087325 
L 327.766815 52.996345 
L 327.766815 52.966018 
L 328.672558 52.859875 
L 328.719007 52.799222 
L 329.044145 52.693078 
L 329.113818 52.632425 
L 329.740871 52.541445 
L 329.78732 52.480792 
L 330.205355 52.374648 
L 330.205355 52.359485 
L 330.298252 52.359485 
L 330.878857 52.268505 
L 330.971754 52.223015 
L 331.877497 52.116872 
L 331.877497 52.101708 
L 332.992259 51.995565 
L 332.992259 51.980401 
L 333.898002 51.874258 
L 333.898002 51.843931 
L 334.292814 51.752951 
L 334.362486 51.707461 
L 334.989539 51.601318 
L 335.059212 51.540665 
L 336.011404 51.434521 
L 336.011404 51.419358 
L 336.54556 51.313215 
L 336.54556 51.282888 
L 337.335183 51.176745 
L 337.335183 51.131255 
L 338.658962 51.025111 
L 338.728635 50.964458 
L 339.913069 50.858314 
L 339.982741 50.812824 
L 340.888485 50.706681 
L 340.888485 50.691518 
L 341.863901 50.585374 
L 341.863901 50.570211 
L 342.607075 50.464068 
L 342.607075 50.418578 
L 343.280577 50.312434 
L 343.280577 50.297271 
L 346.346171 49.796881 
L 346.346171 49.781717 
L 347.530605 49.675574 
L 347.623502 49.645247 
L 347.971865 49.539104 
L 347.995089 49.508777 
L 348.924057 49.402634 
L 348.947281 49.372307 
L 350.038818 49.266164 
L 350.131715 49.220674 
L 351.060683 49.11453 
L 351.153579 49.084204 
L 352.686376 48.993224 
L 352.779273 48.947734 
L 353.801138 48.84159 
L 353.801138 48.826427 
L 354.962347 48.720284 
L 354.985572 48.674794 
L 355.798418 48.598977 
L 355.798418 48.553487 
L 356.657714 48.447344 
L 356.680938 48.38669 
L 357.331215 48.280547 
L 357.377664 48.25022 
L 358.910461 48.15924 
L 359.003357 48.11375 
L 359.421393 48.007607 
L 359.467841 47.97728 
L 359.909101 47.916627 
L 359.909101 47.855973 
L 361.139983 47.74983 
L 361.139983 47.734667 
L 362.696004 47.643687 
L 362.765677 47.598197 
L 363.578524 47.507217 
L 363.648196 47.461727 
L 364.437819 47.355583 
L 364.437819 47.34042 
L 366.411876 47.234277 
L 366.4351 47.20395 
L 367.735655 47.097806 
L 367.782103 47.037153 
L 368.409156 46.93101 
L 368.409156 46.915846 
L 369.523918 46.809703 
L 369.523918 46.79454 
L 370.801249 46.688396 
L 370.824473 46.65807 
L 371.497974 46.551926 
L 371.567647 46.506436 
L 372.241149 46.400293 
L 372.310821 46.354803 
L 373.820394 46.24866 
L 373.866842 46.203169 
L 375.538984 46.097026 
L 375.585433 46.066699 
L 376.375055 45.960556 
L 376.375055 45.945393 
L 377.304023 45.839249 
L 377.304023 45.824086 
L 378.627802 45.733106 
L 378.627802 45.702779 
L 379.812236 45.596636 
L 379.812236 45.581473 
L 380.741204 45.475329 
L 380.741204 45.460166 
L 382.32045 45.354023 
L 382.390122 45.323696 
L 384.4803 45.217552 
L 384.4803 45.187226 
L 386.663374 45.081082 
L 386.663374 45.065919 
L 388.149723 44.959776 
L 388.219395 44.929449 
L 388.8 44.914286 
L 388.8 44.914286 
" style="fill:none;stroke:#ff0000;stroke-linecap:square;stroke-width:2;"/>
   </g>
   <g id="line2d_14">
    <path clip-path="url(#pee5d393f18)" d="M 54 252 
L 388.8 44.914286 
" style="fill:none;stroke:#000000;stroke-dasharray:7.4,3.2;stroke-dashoffset:0;stroke-width:2;"/>
   </g>
   <g id="patch_3">
    <path d="M 54 252 
L 54 34.56 
" style="fill:none;stroke:#000000;stroke-linecap:square;stroke-linejoin:miter;stroke-width:0.8;"/>
   </g>
   <g id="patch_4">
    <path d="M 388.8 252 
L 388.8 34.56 
" style="fill:none;stroke:#000000;stroke-linecap:square;stroke-linejoin:miter;stroke-width:0.8;"/>
   </g>
   <g id="patch_5">
    <path d="M 54 252 
L 388.8 252 
" style="fill:none;stroke:#000000;stroke-linecap:square;stroke-linejoin:miter;stroke-width:0.8;"/>
   </g>
   <g id="patch_6">
    <path d="M 54 34.56 
L 388.8 34.56 
" style="fill:none;stroke:#000000;stroke-linecap:square;stroke-linejoin:miter;stroke-width:0.8;"/>
   </g>
   <g id="text_15">
    <!-- Receiver Operating Characteristic Curve -->
    <defs>
     <path d="M 48.78125 52.59375 
L 48.78125 44.1875 
Q 44.96875 46.296875 41.140625 47.34375 
Q 37.3125 48.390625 33.40625 48.390625 
Q 24.65625 48.390625 19.8125 42.84375 
Q 14.984375 37.3125 14.984375 27.296875 
Q 14.984375 17.28125 19.8125 11.734375 
Q 24.65625 6.203125 33.40625 6.203125 
Q 37.3125 6.203125 41.140625 7.25 
Q 44.96875 8.296875 48.78125 10.40625 
L 48.78125 2.09375 
Q 45.015625 0.34375 40.984375 -0.53125 
Q 36.96875 -1.421875 32.421875 -1.421875 
Q 20.0625 -1.421875 12.78125 6.34375 
Q 5.515625 14.109375 5.515625 27.296875 
Q 5.515625 40.671875 12.859375 48.328125 
Q 20.21875 56 33.015625 56 
Q 37.15625 56 41.109375 55.140625 
Q 45.0625 54.296875 48.78125 52.59375 
z
" id="DejaVuSans-63"/>
     <path d="M 39.40625 66.21875 
Q 28.65625 66.21875 22.328125 58.203125 
Q 16.015625 50.203125 16.015625 36.375 
Q 16.015625 22.609375 22.328125 14.59375 
Q 28.65625 6.59375 39.40625 6.59375 
Q 50.140625 6.59375 56.421875 14.59375 
Q 62.703125 22.609375 62.703125 36.375 
Q 62.703125 50.203125 56.421875 58.203125 
Q 50.140625 66.21875 39.40625 66.21875 
z
M 39.40625 74.21875 
Q 54.734375 74.21875 63.90625 63.9375 
Q 73.09375 53.65625 73.09375 36.375 
Q 73.09375 19.140625 63.90625 8.859375 
Q 54.734375 -1.421875 39.40625 -1.421875 
Q 24.03125 -1.421875 14.8125 8.828125 
Q 5.609375 19.09375 5.609375 36.375 
Q 5.609375 53.65625 14.8125 63.9375 
Q 24.03125 74.21875 39.40625 74.21875 
z
" id="DejaVuSans-4f"/>
     <path d="M 18.109375 8.203125 
L 18.109375 -20.796875 
L 9.078125 -20.796875 
L 9.078125 54.6875 
L 18.109375 54.6875 
L 18.109375 46.390625 
Q 20.953125 51.265625 25.265625 53.625 
Q 29.59375 56 35.59375 56 
Q 45.5625 56 51.78125 48.09375 
Q 58.015625 40.1875 58.015625 27.296875 
Q 58.015625 14.40625 51.78125 6.484375 
Q 45.5625 -1.421875 35.59375 -1.421875 
Q 29.59375 -1.421875 25.265625 0.953125 
Q 20.953125 3.328125 18.109375 8.203125 
z
M 48.6875 27.296875 
Q 48.6875 37.203125 44.609375 42.84375 
Q 40.53125 48.484375 33.40625 48.484375 
Q 26.265625 48.484375 22.1875 42.84375 
Q 18.109375 37.203125 18.109375 27.296875 
Q 18.109375 17.390625 22.1875 11.75 
Q 26.265625 6.109375 33.40625 6.109375 
Q 40.53125 6.109375 44.609375 11.75 
Q 48.6875 17.390625 48.6875 27.296875 
z
" id="DejaVuSans-70"/>
     <path d="M 54.890625 33.015625 
L 54.890625 0 
L 45.90625 0 
L 45.90625 32.71875 
Q 45.90625 40.484375 42.875 44.328125 
Q 39.84375 48.1875 33.796875 48.1875 
Q 26.515625 48.1875 22.3125 43.546875 
Q 18.109375 38.921875 18.109375 30.90625 
L 18.109375 0 
L 9.078125 0 
L 9.078125 54.6875 
L 18.109375 54.6875 
L 18.109375 46.1875 
Q 21.34375 51.125 25.703125 53.5625 
Q 30.078125 56 35.796875 56 
Q 45.21875 56 50.046875 50.171875 
Q 54.890625 44.34375 54.890625 33.015625 
z
" id="DejaVuSans-6e"/>
     <path d="M 45.40625 27.984375 
Q 45.40625 37.75 41.375 43.109375 
Q 37.359375 48.484375 30.078125 48.484375 
Q 22.859375 48.484375 18.828125 43.109375 
Q 14.796875 37.75 14.796875 27.984375 
Q 14.796875 18.265625 18.828125 12.890625 
Q 22.859375 7.515625 30.078125 7.515625 
Q 37.359375 7.515625 41.375 12.890625 
Q 45.40625 18.265625 45.40625 27.984375 
z
M 54.390625 6.78125 
Q 54.390625 -7.171875 48.1875 -13.984375 
Q 42 -20.796875 29.203125 -20.796875 
Q 24.46875 -20.796875 20.265625 -20.09375 
Q 16.0625 -19.390625 12.109375 -17.921875 
L 12.109375 -9.1875 
Q 16.0625 -11.328125 19.921875 -12.34375 
Q 23.78125 -13.375 27.78125 -13.375 
Q 36.625 -13.375 41.015625 -8.765625 
Q 45.40625 -4.15625 45.40625 5.171875 
L 45.40625 9.625 
Q 42.625 4.78125 38.28125 2.390625 
Q 33.9375 0 27.875 0 
Q 17.828125 0 11.671875 7.65625 
Q 5.515625 15.328125 5.515625 27.984375 
Q 5.515625 40.671875 11.671875 48.328125 
Q 17.828125 56 27.875 56 
Q 33.9375 56 38.28125 53.609375 
Q 42.625 51.21875 45.40625 46.390625 
L 45.40625 54.6875 
L 54.390625 54.6875 
z
" id="DejaVuSans-67"/>
     <path d="M 64.40625 67.28125 
L 64.40625 56.890625 
Q 59.421875 61.53125 53.78125 63.8125 
Q 48.140625 66.109375 41.796875 66.109375 
Q 29.296875 66.109375 22.65625 58.46875 
Q 16.015625 50.828125 16.015625 36.375 
Q 16.015625 21.96875 22.65625 14.328125 
Q 29.296875 6.6875 41.796875 6.6875 
Q 48.140625 6.6875 53.78125 8.984375 
Q 59.421875 11.28125 64.40625 15.921875 
L 64.40625 5.609375 
Q 59.234375 2.09375 53.4375 0.328125 
Q 47.65625 -1.421875 41.21875 -1.421875 
Q 24.65625 -1.421875 15.125 8.703125 
Q 5.609375 18.84375 5.609375 36.375 
Q 5.609375 53.953125 15.125 64.078125 
Q 24.65625 74.21875 41.21875 74.21875 
Q 47.75 74.21875 53.53125 72.484375 
Q 59.328125 70.75 64.40625 67.28125 
z
" id="DejaVuSans-43"/>
     <path d="M 54.890625 33.015625 
L 54.890625 0 
L 45.90625 0 
L 45.90625 32.71875 
Q 45.90625 40.484375 42.875 44.328125 
Q 39.84375 48.1875 33.796875 48.1875 
Q 26.515625 48.1875 22.3125 43.546875 
Q 18.109375 38.921875 18.109375 30.90625 
L 18.109375 0 
L 9.078125 0 
L 9.078125 75.984375 
L 18.109375 75.984375 
L 18.109375 46.1875 
Q 21.34375 51.125 25.703125 53.5625 
Q 30.078125 56 35.796875 56 
Q 45.21875 56 50.046875 50.171875 
Q 54.890625 44.34375 54.890625 33.015625 
z
" id="DejaVuSans-68"/>
    </defs>
    <g transform="translate(100.021875 28.56)scale(0.12 -0.12)">
     <use xlink:href="#DejaVuSans-52"/>
     <use x="69.419922" xlink:href="#DejaVuSans-65"/>
     <use x="130.943359" xlink:href="#DejaVuSans-63"/>
     <use x="185.923828" xlink:href="#DejaVuSans-65"/>
     <use x="247.447266" xlink:href="#DejaVuSans-69"/>
     <use x="275.230469" xlink:href="#DejaVuSans-76"/>
     <use x="334.410156" xlink:href="#DejaVuSans-65"/>
     <use x="395.933594" xlink:href="#DejaVuSans-72"/>
     <use x="437.046875" xlink:href="#DejaVuSans-20"/>
     <use x="468.833984" xlink:href="#DejaVuSans-4f"/>
     <use x="547.544922" xlink:href="#DejaVuSans-70"/>
     <use x="611.021484" xlink:href="#DejaVuSans-65"/>
     <use x="672.544922" xlink:href="#DejaVuSans-72"/>
     <use x="713.658203" xlink:href="#DejaVuSans-61"/>
     <use x="774.9375" xlink:href="#DejaVuSans-74"/>
     <use x="814.146484" xlink:href="#DejaVuSans-69"/>
     <use x="841.929688" xlink:href="#DejaVuSans-6e"/>
     <use x="905.308594" xlink:href="#DejaVuSans-67"/>
     <use x="968.785156" xlink:href="#DejaVuSans-20"/>
     <use x="1000.572266" xlink:href="#DejaVuSans-43"/>
     <use x="1070.396484" xlink:href="#DejaVuSans-68"/>
     <use x="1133.775391" xlink:href="#DejaVuSans-61"/>
     <use x="1195.054688" xlink:href="#DejaVuSans-72"/>
     <use x="1236.167969" xlink:href="#DejaVuSans-61"/>
     <use x="1297.447266" xlink:href="#DejaVuSans-63"/>
     <use x="1352.427734" xlink:href="#DejaVuSans-74"/>
     <use x="1391.636719" xlink:href="#DejaVuSans-65"/>
     <use x="1453.160156" xlink:href="#DejaVuSans-72"/>
     <use x="1494.273438" xlink:href="#DejaVuSans-69"/>
     <use x="1522.056641" xlink:href="#DejaVuSans-73"/>
     <use x="1574.15625" xlink:href="#DejaVuSans-74"/>
     <use x="1613.365234" xlink:href="#DejaVuSans-69"/>
     <use x="1641.148438" xlink:href="#DejaVuSans-63"/>
     <use x="1696.128906" xlink:href="#DejaVuSans-20"/>
     <use x="1727.916016" xlink:href="#DejaVuSans-43"/>
     <use x="1797.740234" xlink:href="#DejaVuSans-75"/>
     <use x="1861.119141" xlink:href="#DejaVuSans-72"/>
     <use x="1902.232422" xlink:href="#DejaVuSans-76"/>
     <use x="1961.412109" xlink:href="#DejaVuSans-65"/>
    </g>
   </g>
   <g id="legend_1">
    <g id="patch_7">
     <path d="M 146.476562 247 
L 381.8 247 
Q 383.8 247 383.8 245 
L 383.8 231.321875 
Q 383.8 229.321875 381.8 229.321875 
L 146.476562 229.321875 
Q 144.476562 229.321875 144.476562 231.321875 
L 144.476562 245 
Q 144.476562 247 146.476562 247 
z
" style="fill:#ffffff;opacity:0.8;stroke:#cccccc;stroke-linejoin:miter;"/>
    </g>
    <g id="line2d_15">
     <path d="M 148.476562 237.420312 
L 168.476562 237.420312 
" style="fill:none;stroke:#ff0000;stroke-linecap:square;stroke-width:2;"/>
    </g>
    <g id="line2d_16"/>
    <g id="text_16">
     <!-- ROC curve for nn model (area = 0.7542) -->
     <defs>
      <path d="M 37.109375 75.984375 
L 37.109375 68.5 
L 28.515625 68.5 
Q 23.6875 68.5 21.796875 66.546875 
Q 19.921875 64.59375 19.921875 59.515625 
L 19.921875 54.6875 
L 34.71875 54.6875 
L 34.71875 47.703125 
L 19.921875 47.703125 
L 19.921875 0 
L 10.890625 0 
L 10.890625 47.703125 
L 2.296875 47.703125 
L 2.296875 54.6875 
L 10.890625 54.6875 
L 10.890625 58.5 
Q 10.890625 67.625 15.140625 71.796875 
Q 19.390625 75.984375 28.609375 75.984375 
z
" id="DejaVuSans-66"/>
      <path d="M 52 44.1875 
Q 55.375 50.25 60.0625 53.125 
Q 64.75 56 71.09375 56 
Q 79.640625 56 84.28125 50.015625 
Q 88.921875 44.046875 88.921875 33.015625 
L 88.921875 0 
L 79.890625 0 
L 79.890625 32.71875 
Q 79.890625 40.578125 77.09375 44.375 
Q 74.3125 48.1875 68.609375 48.1875 
Q 61.625 48.1875 57.5625 43.546875 
Q 53.515625 38.921875 53.515625 30.90625 
L 53.515625 0 
L 44.484375 0 
L 44.484375 32.71875 
Q 44.484375 40.625 41.703125 44.40625 
Q 38.921875 48.1875 33.109375 48.1875 
Q 26.21875 48.1875 22.15625 43.53125 
Q 18.109375 38.875 18.109375 30.90625 
L 18.109375 0 
L 9.078125 0 
L 9.078125 54.6875 
L 18.109375 54.6875 
L 18.109375 46.1875 
Q 21.1875 51.21875 25.484375 53.609375 
Q 29.78125 56 35.6875 56 
Q 41.65625 56 45.828125 52.96875 
Q 50 49.953125 52 44.1875 
z
" id="DejaVuSans-6d"/>
      <path d="M 45.40625 46.390625 
L 45.40625 75.984375 
L 54.390625 75.984375 
L 54.390625 0 
L 45.40625 0 
L 45.40625 8.203125 
Q 42.578125 3.328125 38.25 0.953125 
Q 33.9375 -1.421875 27.875 -1.421875 
Q 17.96875 -1.421875 11.734375 6.484375 
Q 5.515625 14.40625 5.515625 27.296875 
Q 5.515625 40.1875 11.734375 48.09375 
Q 17.96875 56 27.875 56 
Q 33.9375 56 38.25 53.625 
Q 42.578125 51.265625 45.40625 46.390625 
z
M 14.796875 27.296875 
Q 14.796875 17.390625 18.875 11.75 
Q 22.953125 6.109375 30.078125 6.109375 
Q 37.203125 6.109375 41.296875 11.75 
Q 45.40625 17.390625 45.40625 27.296875 
Q 45.40625 37.203125 41.296875 42.84375 
Q 37.203125 48.484375 30.078125 48.484375 
Q 22.953125 48.484375 18.875 42.84375 
Q 14.796875 37.203125 14.796875 27.296875 
z
" id="DejaVuSans-64"/>
      <path d="M 31 75.875 
Q 24.46875 64.65625 21.28125 53.65625 
Q 18.109375 42.671875 18.109375 31.390625 
Q 18.109375 20.125 21.3125 9.0625 
Q 24.515625 -2 31 -13.1875 
L 23.1875 -13.1875 
Q 15.875 -1.703125 12.234375 9.375 
Q 8.59375 20.453125 8.59375 31.390625 
Q 8.59375 42.28125 12.203125 53.3125 
Q 15.828125 64.359375 23.1875 75.875 
z
" id="DejaVuSans-28"/>
      <path d="M 10.59375 45.40625 
L 73.1875 45.40625 
L 73.1875 37.203125 
L 10.59375 37.203125 
z
M 10.59375 25.484375 
L 73.1875 25.484375 
L 73.1875 17.1875 
L 10.59375 17.1875 
z
" id="DejaVuSans-3d"/>
      <path d="M 8.203125 72.90625 
L 55.078125 72.90625 
L 55.078125 68.703125 
L 28.609375 0 
L 18.3125 0 
L 43.21875 64.59375 
L 8.203125 64.59375 
z
" id="DejaVuSans-37"/>
      <path d="M 10.796875 72.90625 
L 49.515625 72.90625 
L 49.515625 64.59375 
L 19.828125 64.59375 
L 19.828125 46.734375 
Q 21.96875 47.46875 24.109375 47.828125 
Q 26.265625 48.1875 28.421875 48.1875 
Q 40.625 48.1875 47.75 41.5 
Q 54.890625 34.8125 54.890625 23.390625 
Q 54.890625 11.625 47.5625 5.09375 
Q 40.234375 -1.421875 26.90625 -1.421875 
Q 22.3125 -1.421875 17.546875 -0.640625 
Q 12.796875 0.140625 7.71875 1.703125 
L 7.71875 11.625 
Q 12.109375 9.234375 16.796875 8.0625 
Q 21.484375 6.890625 26.703125 6.890625 
Q 35.15625 6.890625 40.078125 11.328125 
Q 45.015625 15.765625 45.015625 23.390625 
Q 45.015625 31 40.078125 35.4375 
Q 35.15625 39.890625 26.703125 39.890625 
Q 22.75 39.890625 18.8125 39.015625 
Q 14.890625 38.140625 10.796875 36.28125 
z
" id="DejaVuSans-35"/>
      <path d="M 8.015625 75.875 
L 15.828125 75.875 
Q 23.140625 64.359375 26.78125 53.3125 
Q 30.421875 42.28125 30.421875 31.390625 
Q 30.421875 20.453125 26.78125 9.375 
Q 23.140625 -1.703125 15.828125 -13.1875 
L 8.015625 -13.1875 
Q 14.5 -2 17.703125 9.0625 
Q 20.90625 20.125 20.90625 31.390625 
Q 20.90625 42.671875 17.703125 53.65625 
Q 14.5 64.65625 8.015625 75.875 
z
" id="DejaVuSans-29"/>
     </defs>
     <g transform="translate(176.476562 240.920312)scale(0.1 -0.1)">
      <use xlink:href="#DejaVuSans-52"/>
      <use x="69.482422" xlink:href="#DejaVuSans-4f"/>
      <use x="148.193359" xlink:href="#DejaVuSans-43"/>
      <use x="218.017578" xlink:href="#DejaVuSans-20"/>
      <use x="249.804688" xlink:href="#DejaVuSans-63"/>
      <use x="304.785156" xlink:href="#DejaVuSans-75"/>
      <use x="368.164062" xlink:href="#DejaVuSans-72"/>
      <use x="409.277344" xlink:href="#DejaVuSans-76"/>
      <use x="468.457031" xlink:href="#DejaVuSans-65"/>
      <use x="529.980469" xlink:href="#DejaVuSans-20"/>
      <use x="561.767578" xlink:href="#DejaVuSans-66"/>
      <use x="596.972656" xlink:href="#DejaVuSans-6f"/>
      <use x="658.154297" xlink:href="#DejaVuSans-72"/>
      <use x="699.267578" xlink:href="#DejaVuSans-20"/>
      <use x="731.054688" xlink:href="#DejaVuSans-6e"/>
      <use x="794.433594" xlink:href="#DejaVuSans-6e"/>
      <use x="857.8125" xlink:href="#DejaVuSans-20"/>
      <use x="889.599609" xlink:href="#DejaVuSans-6d"/>
      <use x="987.011719" xlink:href="#DejaVuSans-6f"/>
      <use x="1048.193359" xlink:href="#DejaVuSans-64"/>
      <use x="1111.669922" xlink:href="#DejaVuSans-65"/>
      <use x="1173.193359" xlink:href="#DejaVuSans-6c"/>
      <use x="1200.976562" xlink:href="#DejaVuSans-20"/>
      <use x="1232.763672" xlink:href="#DejaVuSans-28"/>
      <use x="1271.777344" xlink:href="#DejaVuSans-61"/>
      <use x="1333.056641" xlink:href="#DejaVuSans-72"/>
      <use x="1374.138672" xlink:href="#DejaVuSans-65"/>
      <use x="1435.662109" xlink:href="#DejaVuSans-61"/>
      <use x="1496.941406" xlink:href="#DejaVuSans-20"/>
      <use x="1528.728516" xlink:href="#DejaVuSans-3d"/>
      <use x="1612.517578" xlink:href="#DejaVuSans-20"/>
      <use x="1644.304688" xlink:href="#DejaVuSans-30"/>
      <use x="1707.927734" xlink:href="#DejaVuSans-2e"/>
      <use x="1739.714844" xlink:href="#DejaVuSans-37"/>
      <use x="1803.337891" xlink:href="#DejaVuSans-35"/>
      <use x="1866.960938" xlink:href="#DejaVuSans-34"/>
      <use x="1930.583984" xlink:href="#DejaVuSans-32"/>
      <use x="1994.207031" xlink:href="#DejaVuSans-29"/>
     </g>
    </g>
   </g>
  </g>
 </g>
 <defs>
  <clipPath id="pee5d393f18">
   <rect height="217.44" width="334.8" x="54" y="34.56"/>
  </clipPath>
 </defs>
</svg>
