<?xml version="1.0" encoding="utf-8" standalone="no"?>
<!DOCTYPE svg PUBLIC "-//W3C//DTD SVG 1.1//EN"
  "http://www.w3.org/Graphics/SVG/1.1/DTD/svg11.dtd">
<!-- Created with matplotlib (http://matplotlib.org/) -->
<svg height="288pt" version="1.1" viewBox="0 0 432 288" width="432pt" xmlns="http://www.w3.org/2000/svg" xmlns:xlink="http://www.w3.org/1999/xlink">
 <defs>
  <style type="text/css">
*{stroke-linecap:butt;stroke-linejoin:round;}
  </style>
 </defs>
 <g id="figure_1">
  <g id="patch_1">
   <path d="M 0 288 
L 432 288 
L 432 0 
L 0 0 
z
" style="fill:#ffffff;"/>
  </g>
  <g id="axes_1">
   <g id="patch_2">
    <path d="M 54 252 
L 388.8 252 
L 388.8 34.56 
L 54 34.56 
z
" style="fill:#ffffff;"/>
   </g>
   <g id="matplotlib.axis_1">
    <g id="xtick_1">
     <g id="line2d_1">
      <defs>
       <path d="M 0 0 
L 0 3.5 
" id="m2af8e94735" style="stroke:#000000;stroke-width:0.8;"/>
      </defs>
      <g>
       <use style="stroke:#000000;stroke-width:0.8;" x="54" xlink:href="#m2af8e94735" y="252"/>
      </g>
     </g>
     <g id="text_1">
      <!-- 0.0 -->
      <defs>
       <path d="M 31.78125 66.40625 
Q 24.171875 66.40625 20.328125 58.90625 
Q 16.5 51.421875 16.5 36.375 
Q 16.5 21.390625 20.328125 13.890625 
Q 24.171875 6.390625 31.78125 6.390625 
Q 39.453125 6.390625 43.28125 13.890625 
Q 47.125 21.390625 47.125 36.375 
Q 47.125 51.421875 43.28125 58.90625 
Q 39.453125 66.40625 31.78125 66.40625 
z
M 31.78125 74.21875 
Q 44.046875 74.21875 50.515625 64.515625 
Q 56.984375 54.828125 56.984375 36.375 
Q 56.984375 17.96875 50.515625 8.265625 
Q 44.046875 -1.421875 31.78125 -1.421875 
Q 19.53125 -1.421875 13.0625 8.265625 
Q 6.59375 17.96875 6.59375 36.375 
Q 6.59375 54.828125 13.0625 64.515625 
Q 19.53125 74.21875 31.78125 74.21875 
z
" id="DejaVuSans-30"/>
       <path d="M 10.6875 12.40625 
L 21 12.40625 
L 21 0 
L 10.6875 0 
z
" id="DejaVuSans-2e"/>
      </defs>
      <g transform="translate(46.048437 266.598437)scale(0.1 -0.1)">
       <use xlink:href="#DejaVuSans-30"/>
       <use x="63.623047" xlink:href="#DejaVuSans-2e"/>
       <use x="95.410156" xlink:href="#DejaVuSans-30"/>
      </g>
     </g>
    </g>
    <g id="xtick_2">
     <g id="line2d_2">
      <g>
       <use style="stroke:#000000;stroke-width:0.8;" x="120.96" xlink:href="#m2af8e94735" y="252"/>
      </g>
     </g>
     <g id="text_2">
      <!-- 0.2 -->
      <defs>
       <path d="M 19.1875 8.296875 
L 53.609375 8.296875 
L 53.609375 0 
L 7.328125 0 
L 7.328125 8.296875 
Q 12.9375 14.109375 22.625 23.890625 
Q 32.328125 33.6875 34.8125 36.53125 
Q 39.546875 41.84375 41.421875 45.53125 
Q 43.3125 49.21875 43.3125 52.78125 
Q 43.3125 58.59375 39.234375 62.25 
Q 35.15625 65.921875 28.609375 65.921875 
Q 23.96875 65.921875 18.8125 64.3125 
Q 13.671875 62.703125 7.8125 59.421875 
L 7.8125 69.390625 
Q 13.765625 71.78125 18.9375 73 
Q 24.125 74.21875 28.421875 74.21875 
Q 39.75 74.21875 46.484375 68.546875 
Q 53.21875 62.890625 53.21875 53.421875 
Q 53.21875 48.921875 51.53125 44.890625 
Q 49.859375 40.875 45.40625 35.40625 
Q 44.1875 33.984375 37.640625 27.21875 
Q 31.109375 20.453125 19.1875 8.296875 
z
" id="DejaVuSans-32"/>
      </defs>
      <g transform="translate(113.008438 266.598437)scale(0.1 -0.1)">
       <use xlink:href="#DejaVuSans-30"/>
       <use x="63.623047" xlink:href="#DejaVuSans-2e"/>
       <use x="95.410156" xlink:href="#DejaVuSans-32"/>
      </g>
     </g>
    </g>
    <g id="xtick_3">
     <g id="line2d_3">
      <g>
       <use style="stroke:#000000;stroke-width:0.8;" x="187.92" xlink:href="#m2af8e94735" y="252"/>
      </g>
     </g>
     <g id="text_3">
      <!-- 0.4 -->
      <defs>
       <path d="M 37.796875 64.3125 
L 12.890625 25.390625 
L 37.796875 25.390625 
z
M 35.203125 72.90625 
L 47.609375 72.90625 
L 47.609375 25.390625 
L 58.015625 25.390625 
L 58.015625 17.1875 
L 47.609375 17.1875 
L 47.609375 0 
L 37.796875 0 
L 37.796875 17.1875 
L 4.890625 17.1875 
L 4.890625 26.703125 
z
" id="DejaVuSans-34"/>
      </defs>
      <g transform="translate(179.968438 266.598437)scale(0.1 -0.1)">
       <use xlink:href="#DejaVuSans-30"/>
       <use x="63.623047" xlink:href="#DejaVuSans-2e"/>
       <use x="95.410156" xlink:href="#DejaVuSans-34"/>
      </g>
     </g>
    </g>
    <g id="xtick_4">
     <g id="line2d_4">
      <g>
       <use style="stroke:#000000;stroke-width:0.8;" x="254.88" xlink:href="#m2af8e94735" y="252"/>
      </g>
     </g>
     <g id="text_4">
      <!-- 0.6 -->
      <defs>
       <path d="M 33.015625 40.375 
Q 26.375 40.375 22.484375 35.828125 
Q 18.609375 31.296875 18.609375 23.390625 
Q 18.609375 15.53125 22.484375 10.953125 
Q 26.375 6.390625 33.015625 6.390625 
Q 39.65625 6.390625 43.53125 10.953125 
Q 47.40625 15.53125 47.40625 23.390625 
Q 47.40625 31.296875 43.53125 35.828125 
Q 39.65625 40.375 33.015625 40.375 
z
M 52.59375 71.296875 
L 52.59375 62.3125 
Q 48.875 64.0625 45.09375 64.984375 
Q 41.3125 65.921875 37.59375 65.921875 
Q 27.828125 65.921875 22.671875 59.328125 
Q 17.53125 52.734375 16.796875 39.40625 
Q 19.671875 43.65625 24.015625 45.921875 
Q 28.375 48.1875 33.59375 48.1875 
Q 44.578125 48.1875 50.953125 41.515625 
Q 57.328125 34.859375 57.328125 23.390625 
Q 57.328125 12.15625 50.6875 5.359375 
Q 44.046875 -1.421875 33.015625 -1.421875 
Q 20.359375 -1.421875 13.671875 8.265625 
Q 6.984375 17.96875 6.984375 36.375 
Q 6.984375 53.65625 15.1875 63.9375 
Q 23.390625 74.21875 37.203125 74.21875 
Q 40.921875 74.21875 44.703125 73.484375 
Q 48.484375 72.75 52.59375 71.296875 
z
" id="DejaVuSans-36"/>
      </defs>
      <g transform="translate(246.928438 266.598437)scale(0.1 -0.1)">
       <use xlink:href="#DejaVuSans-30"/>
       <use x="63.623047" xlink:href="#DejaVuSans-2e"/>
       <use x="95.410156" xlink:href="#DejaVuSans-36"/>
      </g>
     </g>
    </g>
    <g id="xtick_5">
     <g id="line2d_5">
      <g>
       <use style="stroke:#000000;stroke-width:0.8;" x="321.84" xlink:href="#m2af8e94735" y="252"/>
      </g>
     </g>
     <g id="text_5">
      <!-- 0.8 -->
      <defs>
       <path d="M 31.78125 34.625 
Q 24.75 34.625 20.71875 30.859375 
Q 16.703125 27.09375 16.703125 20.515625 
Q 16.703125 13.921875 20.71875 10.15625 
Q 24.75 6.390625 31.78125 6.390625 
Q 38.8125 6.390625 42.859375 10.171875 
Q 46.921875 13.96875 46.921875 20.515625 
Q 46.921875 27.09375 42.890625 30.859375 
Q 38.875 34.625 31.78125 34.625 
z
M 21.921875 38.8125 
Q 15.578125 40.375 12.03125 44.71875 
Q 8.5 49.078125 8.5 55.328125 
Q 8.5 64.0625 14.71875 69.140625 
Q 20.953125 74.21875 31.78125 74.21875 
Q 42.671875 74.21875 48.875 69.140625 
Q 55.078125 64.0625 55.078125 55.328125 
Q 55.078125 49.078125 51.53125 44.71875 
Q 48 40.375 41.703125 38.8125 
Q 48.828125 37.15625 52.796875 32.3125 
Q 56.78125 27.484375 56.78125 20.515625 
Q 56.78125 9.90625 50.3125 4.234375 
Q 43.84375 -1.421875 31.78125 -1.421875 
Q 19.734375 -1.421875 13.25 4.234375 
Q 6.78125 9.90625 6.78125 20.515625 
Q 6.78125 27.484375 10.78125 32.3125 
Q 14.796875 37.15625 21.921875 38.8125 
z
M 18.3125 54.390625 
Q 18.3125 48.734375 21.84375 45.5625 
Q 25.390625 42.390625 31.78125 42.390625 
Q 38.140625 42.390625 41.71875 45.5625 
Q 45.3125 48.734375 45.3125 54.390625 
Q 45.3125 60.0625 41.71875 63.234375 
Q 38.140625 66.40625 31.78125 66.40625 
Q 25.390625 66.40625 21.84375 63.234375 
Q 18.3125 60.0625 18.3125 54.390625 
z
" id="DejaVuSans-38"/>
      </defs>
      <g transform="translate(313.888438 266.598437)scale(0.1 -0.1)">
       <use xlink:href="#DejaVuSans-30"/>
       <use x="63.623047" xlink:href="#DejaVuSans-2e"/>
       <use x="95.410156" xlink:href="#DejaVuSans-38"/>
      </g>
     </g>
    </g>
    <g id="xtick_6">
     <g id="line2d_6">
      <g>
       <use style="stroke:#000000;stroke-width:0.8;" x="388.8" xlink:href="#m2af8e94735" y="252"/>
      </g>
     </g>
     <g id="text_6">
      <!-- 1.0 -->
      <defs>
       <path d="M 12.40625 8.296875 
L 28.515625 8.296875 
L 28.515625 63.921875 
L 10.984375 60.40625 
L 10.984375 69.390625 
L 28.421875 72.90625 
L 38.28125 72.90625 
L 38.28125 8.296875 
L 54.390625 8.296875 
L 54.390625 0 
L 12.40625 0 
z
" id="DejaVuSans-31"/>
      </defs>
      <g transform="translate(380.848437 266.598437)scale(0.1 -0.1)">
       <use xlink:href="#DejaVuSans-31"/>
       <use x="63.623047" xlink:href="#DejaVuSans-2e"/>
       <use x="95.410156" xlink:href="#DejaVuSans-30"/>
      </g>
     </g>
    </g>
    <g id="text_7">
     <!-- False Positive Rate -->
     <defs>
      <path d="M 9.8125 72.90625 
L 51.703125 72.90625 
L 51.703125 64.59375 
L 19.671875 64.59375 
L 19.671875 43.109375 
L 48.578125 43.109375 
L 48.578125 34.8125 
L 19.671875 34.8125 
L 19.671875 0 
L 9.8125 0 
z
" id="DejaVuSans-46"/>
      <path d="M 34.28125 27.484375 
Q 23.390625 27.484375 19.1875 25 
Q 14.984375 22.515625 14.984375 16.5 
Q 14.984375 11.71875 18.140625 8.90625 
Q 21.296875 6.109375 26.703125 6.109375 
Q 34.1875 6.109375 38.703125 11.40625 
Q 43.21875 16.703125 43.21875 25.484375 
L 43.21875 27.484375 
z
M 52.203125 31.203125 
L 52.203125 0 
L 43.21875 0 
L 43.21875 8.296875 
Q 40.140625 3.328125 35.546875 0.953125 
Q 30.953125 -1.421875 24.3125 -1.421875 
Q 15.921875 -1.421875 10.953125 3.296875 
Q 6 8.015625 6 15.921875 
Q 6 25.140625 12.171875 29.828125 
Q 18.359375 34.515625 30.609375 34.515625 
L 43.21875 34.515625 
L 43.21875 35.40625 
Q 43.21875 41.609375 39.140625 45 
Q 35.0625 48.390625 27.6875 48.390625 
Q 23 48.390625 18.546875 47.265625 
Q 14.109375 46.140625 10.015625 43.890625 
L 10.015625 52.203125 
Q 14.9375 54.109375 19.578125 55.046875 
Q 24.21875 56 28.609375 56 
Q 40.484375 56 46.34375 49.84375 
Q 52.203125 43.703125 52.203125 31.203125 
z
" id="DejaVuSans-61"/>
      <path d="M 9.421875 75.984375 
L 18.40625 75.984375 
L 18.40625 0 
L 9.421875 0 
z
" id="DejaVuSans-6c"/>
      <path d="M 44.28125 53.078125 
L 44.28125 44.578125 
Q 40.484375 46.53125 36.375 47.5 
Q 32.28125 48.484375 27.875 48.484375 
Q 21.1875 48.484375 17.84375 46.4375 
Q 14.5 44.390625 14.5 40.28125 
Q 14.5 37.15625 16.890625 35.375 
Q 19.28125 33.59375 26.515625 31.984375 
L 29.59375 31.296875 
Q 39.15625 29.25 43.1875 25.515625 
Q 47.21875 21.78125 47.21875 15.09375 
Q 47.21875 7.46875 41.1875 3.015625 
Q 35.15625 -1.421875 24.609375 -1.421875 
Q 20.21875 -1.421875 15.453125 -0.5625 
Q 10.6875 0.296875 5.421875 2 
L 5.421875 11.28125 
Q 10.40625 8.6875 15.234375 7.390625 
Q 20.0625 6.109375 24.8125 6.109375 
Q 31.15625 6.109375 34.5625 8.28125 
Q 37.984375 10.453125 37.984375 14.40625 
Q 37.984375 18.0625 35.515625 20.015625 
Q 33.0625 21.96875 24.703125 23.78125 
L 21.578125 24.515625 
Q 13.234375 26.265625 9.515625 29.90625 
Q 5.8125 33.546875 5.8125 39.890625 
Q 5.8125 47.609375 11.28125 51.796875 
Q 16.75 56 26.8125 56 
Q 31.78125 56 36.171875 55.265625 
Q 40.578125 54.546875 44.28125 53.078125 
z
" id="DejaVuSans-73"/>
      <path d="M 56.203125 29.59375 
L 56.203125 25.203125 
L 14.890625 25.203125 
Q 15.484375 15.921875 20.484375 11.0625 
Q 25.484375 6.203125 34.421875 6.203125 
Q 39.59375 6.203125 44.453125 7.46875 
Q 49.3125 8.734375 54.109375 11.28125 
L 54.109375 2.78125 
Q 49.265625 0.734375 44.1875 -0.34375 
Q 39.109375 -1.421875 33.890625 -1.421875 
Q 20.796875 -1.421875 13.15625 6.1875 
Q 5.515625 13.8125 5.515625 26.8125 
Q 5.515625 40.234375 12.765625 48.109375 
Q 20.015625 56 32.328125 56 
Q 43.359375 56 49.78125 48.890625 
Q 56.203125 41.796875 56.203125 29.59375 
z
M 47.21875 32.234375 
Q 47.125 39.59375 43.09375 43.984375 
Q 39.0625 48.390625 32.421875 48.390625 
Q 24.90625 48.390625 20.390625 44.140625 
Q 15.875 39.890625 15.1875 32.171875 
z
" id="DejaVuSans-65"/>
      <path id="DejaVuSans-20"/>
      <path d="M 19.671875 64.796875 
L 19.671875 37.40625 
L 32.078125 37.40625 
Q 38.96875 37.40625 42.71875 40.96875 
Q 46.484375 44.53125 46.484375 51.125 
Q 46.484375 57.671875 42.71875 61.234375 
Q 38.96875 64.796875 32.078125 64.796875 
z
M 9.8125 72.90625 
L 32.078125 72.90625 
Q 44.34375 72.90625 50.609375 67.359375 
Q 56.890625 61.8125 56.890625 51.125 
Q 56.890625 40.328125 50.609375 34.8125 
Q 44.34375 29.296875 32.078125 29.296875 
L 19.671875 29.296875 
L 19.671875 0 
L 9.8125 0 
z
" id="DejaVuSans-50"/>
      <path d="M 30.609375 48.390625 
Q 23.390625 48.390625 19.1875 42.75 
Q 14.984375 37.109375 14.984375 27.296875 
Q 14.984375 17.484375 19.15625 11.84375 
Q 23.34375 6.203125 30.609375 6.203125 
Q 37.796875 6.203125 41.984375 11.859375 
Q 46.1875 17.53125 46.1875 27.296875 
Q 46.1875 37.015625 41.984375 42.703125 
Q 37.796875 48.390625 30.609375 48.390625 
z
M 30.609375 56 
Q 42.328125 56 49.015625 48.375 
Q 55.71875 40.765625 55.71875 27.296875 
Q 55.71875 13.875 49.015625 6.21875 
Q 42.328125 -1.421875 30.609375 -1.421875 
Q 18.84375 -1.421875 12.171875 6.21875 
Q 5.515625 13.875 5.515625 27.296875 
Q 5.515625 40.765625 12.171875 48.375 
Q 18.84375 56 30.609375 56 
z
" id="DejaVuSans-6f"/>
      <path d="M 9.421875 54.6875 
L 18.40625 54.6875 
L 18.40625 0 
L 9.421875 0 
z
M 9.421875 75.984375 
L 18.40625 75.984375 
L 18.40625 64.59375 
L 9.421875 64.59375 
z
" id="DejaVuSans-69"/>
      <path d="M 18.3125 70.21875 
L 18.3125 54.6875 
L 36.8125 54.6875 
L 36.8125 47.703125 
L 18.3125 47.703125 
L 18.3125 18.015625 
Q 18.3125 11.328125 20.140625 9.421875 
Q 21.96875 7.515625 27.59375 7.515625 
L 36.8125 7.515625 
L 36.8125 0 
L 27.59375 0 
Q 17.1875 0 13.234375 3.875 
Q 9.28125 7.765625 9.28125 18.015625 
L 9.28125 47.703125 
L 2.6875 47.703125 
L 2.6875 54.6875 
L 9.28125 54.6875 
L 9.28125 70.21875 
z
" id="DejaVuSans-74"/>
      <path d="M 2.984375 54.6875 
L 12.5 54.6875 
L 29.59375 8.796875 
L 46.6875 54.6875 
L 56.203125 54.6875 
L 35.6875 0 
L 23.484375 0 
z
" id="DejaVuSans-76"/>
      <path d="M 44.390625 34.1875 
Q 47.5625 33.109375 50.5625 29.59375 
Q 53.5625 26.078125 56.59375 19.921875 
L 66.609375 0 
L 56 0 
L 46.6875 18.703125 
Q 43.0625 26.03125 39.671875 28.421875 
Q 36.28125 30.8125 30.421875 30.8125 
L 19.671875 30.8125 
L 19.671875 0 
L 9.8125 0 
L 9.8125 72.90625 
L 32.078125 72.90625 
Q 44.578125 72.90625 50.734375 67.671875 
Q 56.890625 62.453125 56.890625 51.90625 
Q 56.890625 45.015625 53.6875 40.46875 
Q 50.484375 35.9375 44.390625 34.1875 
z
M 19.671875 64.796875 
L 19.671875 38.921875 
L 32.078125 38.921875 
Q 39.203125 38.921875 42.84375 42.21875 
Q 46.484375 45.515625 46.484375 51.90625 
Q 46.484375 58.296875 42.84375 61.546875 
Q 39.203125 64.796875 32.078125 64.796875 
z
" id="DejaVuSans-52"/>
     </defs>
     <g transform="translate(174.194531 280.276563)scale(0.1 -0.1)">
      <use xlink:href="#DejaVuSans-46"/>
      <use x="57.378906" xlink:href="#DejaVuSans-61"/>
      <use x="118.658203" xlink:href="#DejaVuSans-6c"/>
      <use x="146.441406" xlink:href="#DejaVuSans-73"/>
      <use x="198.541016" xlink:href="#DejaVuSans-65"/>
      <use x="260.064453" xlink:href="#DejaVuSans-20"/>
      <use x="291.851562" xlink:href="#DejaVuSans-50"/>
      <use x="352.107422" xlink:href="#DejaVuSans-6f"/>
      <use x="413.289062" xlink:href="#DejaVuSans-73"/>
      <use x="465.388672" xlink:href="#DejaVuSans-69"/>
      <use x="493.171875" xlink:href="#DejaVuSans-74"/>
      <use x="532.380859" xlink:href="#DejaVuSans-69"/>
      <use x="560.164062" xlink:href="#DejaVuSans-76"/>
      <use x="619.34375" xlink:href="#DejaVuSans-65"/>
      <use x="680.867188" xlink:href="#DejaVuSans-20"/>
      <use x="712.654297" xlink:href="#DejaVuSans-52"/>
      <use x="782.105469" xlink:href="#DejaVuSans-61"/>
      <use x="843.384766" xlink:href="#DejaVuSans-74"/>
      <use x="882.59375" xlink:href="#DejaVuSans-65"/>
     </g>
    </g>
   </g>
   <g id="matplotlib.axis_2">
    <g id="ytick_1">
     <g id="line2d_7">
      <defs>
       <path d="M 0 0 
L -3.5 0 
" id="m592b911881" style="stroke:#000000;stroke-width:0.8;"/>
      </defs>
      <g>
       <use style="stroke:#000000;stroke-width:0.8;" x="54" xlink:href="#m592b911881" y="252"/>
      </g>
     </g>
     <g id="text_8">
      <!-- 0.0 -->
      <g transform="translate(31.096875 255.799219)scale(0.1 -0.1)">
       <use xlink:href="#DejaVuSans-30"/>
       <use x="63.623047" xlink:href="#DejaVuSans-2e"/>
       <use x="95.410156" xlink:href="#DejaVuSans-30"/>
      </g>
     </g>
    </g>
    <g id="ytick_2">
     <g id="line2d_8">
      <g>
       <use style="stroke:#000000;stroke-width:0.8;" x="54" xlink:href="#m592b911881" y="210.582857"/>
      </g>
     </g>
     <g id="text_9">
      <!-- 0.2 -->
      <g transform="translate(31.096875 214.382076)scale(0.1 -0.1)">
       <use xlink:href="#DejaVuSans-30"/>
       <use x="63.623047" xlink:href="#DejaVuSans-2e"/>
       <use x="95.410156" xlink:href="#DejaVuSans-32"/>
      </g>
     </g>
    </g>
    <g id="ytick_3">
     <g id="line2d_9">
      <g>
       <use style="stroke:#000000;stroke-width:0.8;" x="54" xlink:href="#m592b911881" y="169.165714"/>
      </g>
     </g>
     <g id="text_10">
      <!-- 0.4 -->
      <g transform="translate(31.096875 172.964933)scale(0.1 -0.1)">
       <use xlink:href="#DejaVuSans-30"/>
       <use x="63.623047" xlink:href="#DejaVuSans-2e"/>
       <use x="95.410156" xlink:href="#DejaVuSans-34"/>
      </g>
     </g>
    </g>
    <g id="ytick_4">
     <g id="line2d_10">
      <g>
       <use style="stroke:#000000;stroke-width:0.8;" x="54" xlink:href="#m592b911881" y="127.748571"/>
      </g>
     </g>
     <g id="text_11">
      <!-- 0.6 -->
      <g transform="translate(31.096875 131.54779)scale(0.1 -0.1)">
       <use xlink:href="#DejaVuSans-30"/>
       <use x="63.623047" xlink:href="#DejaVuSans-2e"/>
       <use x="95.410156" xlink:href="#DejaVuSans-36"/>
      </g>
     </g>
    </g>
    <g id="ytick_5">
     <g id="line2d_11">
      <g>
       <use style="stroke:#000000;stroke-width:0.8;" x="54" xlink:href="#m592b911881" y="86.331429"/>
      </g>
     </g>
     <g id="text_12">
      <!-- 0.8 -->
      <g transform="translate(31.096875 90.130647)scale(0.1 -0.1)">
       <use xlink:href="#DejaVuSans-30"/>
       <use x="63.623047" xlink:href="#DejaVuSans-2e"/>
       <use x="95.410156" xlink:href="#DejaVuSans-38"/>
      </g>
     </g>
    </g>
    <g id="ytick_6">
     <g id="line2d_12">
      <g>
       <use style="stroke:#000000;stroke-width:0.8;" x="54" xlink:href="#m592b911881" y="44.914286"/>
      </g>
     </g>
     <g id="text_13">
      <!-- 1.0 -->
      <g transform="translate(31.096875 48.713504)scale(0.1 -0.1)">
       <use xlink:href="#DejaVuSans-31"/>
       <use x="63.623047" xlink:href="#DejaVuSans-2e"/>
       <use x="95.410156" xlink:href="#DejaVuSans-30"/>
      </g>
     </g>
    </g>
    <g id="text_14">
     <!-- True Positive Rate -->
     <defs>
      <path d="M -0.296875 72.90625 
L 61.375 72.90625 
L 61.375 64.59375 
L 35.5 64.59375 
L 35.5 0 
L 25.59375 0 
L 25.59375 64.59375 
L -0.296875 64.59375 
z
" id="DejaVuSans-54"/>
      <path d="M 41.109375 46.296875 
Q 39.59375 47.171875 37.8125 47.578125 
Q 36.03125 48 33.890625 48 
Q 26.265625 48 22.1875 43.046875 
Q 18.109375 38.09375 18.109375 28.8125 
L 18.109375 0 
L 9.078125 0 
L 9.078125 54.6875 
L 18.109375 54.6875 
L 18.109375 46.1875 
Q 20.953125 51.171875 25.484375 53.578125 
Q 30.03125 56 36.53125 56 
Q 37.453125 56 38.578125 55.875 
Q 39.703125 55.765625 41.0625 55.515625 
z
" id="DejaVuSans-72"/>
      <path d="M 8.5 21.578125 
L 8.5 54.6875 
L 17.484375 54.6875 
L 17.484375 21.921875 
Q 17.484375 14.15625 20.5 10.265625 
Q 23.53125 6.390625 29.59375 6.390625 
Q 36.859375 6.390625 41.078125 11.03125 
Q 45.3125 15.671875 45.3125 23.6875 
L 45.3125 54.6875 
L 54.296875 54.6875 
L 54.296875 0 
L 45.3125 0 
L 45.3125 8.40625 
Q 42.046875 3.421875 37.71875 1 
Q 33.40625 -1.421875 27.6875 -1.421875 
Q 18.265625 -1.421875 13.375 4.4375 
Q 8.5 10.296875 8.5 21.578125 
z
M 31.109375 56 
z
" id="DejaVuSans-75"/>
     </defs>
     <g transform="translate(25.017187 188.826094)rotate(-90)scale(0.1 -0.1)">
      <use xlink:href="#DejaVuSans-54"/>
      <use x="60.865234" xlink:href="#DejaVuSans-72"/>
      <use x="101.978516" xlink:href="#DejaVuSans-75"/>
      <use x="165.357422" xlink:href="#DejaVuSans-65"/>
      <use x="226.880859" xlink:href="#DejaVuSans-20"/>
      <use x="258.667969" xlink:href="#DejaVuSans-50"/>
      <use x="318.923828" xlink:href="#DejaVuSans-6f"/>
      <use x="380.105469" xlink:href="#DejaVuSans-73"/>
      <use x="432.205078" xlink:href="#DejaVuSans-69"/>
      <use x="459.988281" xlink:href="#DejaVuSans-74"/>
      <use x="499.197266" xlink:href="#DejaVuSans-69"/>
      <use x="526.980469" xlink:href="#DejaVuSans-76"/>
      <use x="586.160156" xlink:href="#DejaVuSans-65"/>
      <use x="647.683594" xlink:href="#DejaVuSans-20"/>
      <use x="679.470703" xlink:href="#DejaVuSans-52"/>
      <use x="748.921875" xlink:href="#DejaVuSans-61"/>
      <use x="810.201172" xlink:href="#DejaVuSans-74"/>
      <use x="849.410156" xlink:href="#DejaVuSans-65"/>
     </g>
    </g>
   </g>
   <g id="line2d_13">
    <path clip-path="url(#p25f295c49f)" d="M 54 251.984837 
L 54 251.924183 
L 54 251.924183 
L 54 251.924183 
L 54.023224 251.924183 
L 54.116121 250.58981 
L 54.139345 250.58981 
L 54.232242 250.165236 
L 54.301915 250.089419 
L 54.394811 249.604193 
L 54.418036 249.604193 
L 54.510932 249.164456 
L 54.580605 249.149292 
L 54.673502 248.679229 
L 54.71995 248.679229 
L 54.789623 247.966552 
L 54.836071 247.966552 
L 54.836071 247.890735 
L 54.928968 247.253875 
L 54.952192 247.253875 
L 55.045089 246.268258 
L 55.068313 246.268258 
L 55.16121 245.767868 
L 55.207658 245.676888 
L 55.300555 245.434274 
L 55.323779 245.434274 
L 55.323779 245.343294 
L 55.416676 244.190881 
L 55.4399 244.190881 
L 55.532797 243.14461 
L 55.556021 243.14461 
L 55.648918 242.447097 
L 55.71859 242.37128 
L 55.765039 242.174157 
L 55.834711 242.174157 
L 55.927608 241.522133 
L 55.974057 241.522133 
L 56.043729 241.127886 
L 56.090178 241.127886 
L 56.090178 241.036906 
L 56.183074 240.339393 
L 56.206299 240.339393 
L 56.299195 240.142269 
L 56.368868 240.036126 
L 56.461765 239.520572 
L 56.508213 239.429592 
L 56.577886 238.838222 
L 56.647558 238.807895 
L 56.740455 238.095219 
L 56.786903 238.064892 
L 56.856576 237.458358 
L 56.903024 237.458358 
L 56.972697 236.973132 
L 57.019145 236.973132 
L 57.112042 236.578885 
L 57.158491 236.533395 
L 57.228163 235.851044 
L 57.367508 235.638758 
L 57.460405 234.941244 
L 57.506853 234.926081 
L 57.506853 234.850264 
L 57.59975 234.243731 
L 57.622974 234.243731 
L 57.622974 234.183077 
L 57.692647 233.78883 
L 57.76232 233.682687 
L 57.855216 233.60687 
L 57.948113 233.56138 
L 58.04101 233.318767 
L 58.064234 233.318767 
L 58.157131 232.985173 
L 58.250028 232.894193 
L 58.342925 232.211843 
L 58.389373 232.181517 
L 58.48227 231.756943 
L 58.575166 231.681126 
L 58.668063 231.28688 
L 58.714512 231.211063 
L 58.807408 230.847143 
L 58.946754 230.740999 
L 59.03965 230.225446 
L 59.086099 230.119303 
L 59.178996 229.846362 
L 59.225444 229.831199 
L 59.318341 229.164012 
L 59.341565 229.164012 
L 59.411238 228.618132 
L 59.527358 228.542315 
L 59.620255 227.950945 
L 59.666704 227.935782 
L 59.7596 227.223105 
L 59.806049 227.147288 
L 59.898946 226.828858 
L 59.991842 226.737878 
L 60.084739 226.328468 
L 60.154412 226.237488 
L 60.247309 225.737098 
L 60.293757 225.691608 
L 60.386654 225.388341 
L 60.47955 225.312524 
L 60.572447 224.766644 
L 60.64212 224.660501 
L 60.735017 224.372397 
L 60.851138 224.266254 
L 60.92081 224.008477 
L 61.036931 223.917497 
L 61.129828 223.52325 
L 61.176276 223.492924 
L 61.269173 223.174493 
L 61.36207 223.174493 
L 61.454967 222.901553 
L 61.524639 222.825737 
L 61.617536 222.416327 
L 61.64076 222.416327 
L 61.733657 222.097896 
L 61.826554 221.991753 
L 61.896226 221.673323 
L 61.989123 221.582343 
L 62.08202 221.445873 
L 62.221365 221.339729 
L 62.314262 220.778686 
L 62.36071 220.702869 
L 62.453607 220.278296 
L 62.52328 220.202479 
L 62.616176 220.020519 
L 62.732297 219.944702 
L 62.825194 219.626272 
L 62.918091 219.580782 
L 63.010988 219.171372 
L 63.103885 219.110719 
L 63.196781 218.868105 
L 63.220006 218.868105 
L 63.312902 218.428368 
L 63.382575 218.367715 
L 63.475472 217.852162 
L 63.545144 217.776345 
L 63.638041 217.518568 
L 63.684489 217.488242 
L 63.777386 217.169811 
L 63.823835 217.109158 
L 63.916731 216.457134 
L 63.939956 216.441971 
L 64.032852 215.896091 
L 64.148973 215.789948 
L 64.24187 214.39492 
L 64.311543 214.364594 
L 64.40444 213.98551 
L 64.450888 213.94002 
L 64.543785 213.43963 
L 64.590233 213.378977 
L 64.68313 213.242507 
L 64.752802 213.136363 
L 64.845699 212.39336 
L 64.938596 212.332706 
L 65.031493 212.07493 
L 65.147614 212.014276 
L 65.194062 211.817153 
L 65.310183 211.771663 
L 65.40308 211.392579 
L 65.449528 211.286436 
L 65.519201 210.968006 
L 65.612098 210.922516 
L 65.704994 210.755719 
L 65.728219 210.755719 
L 65.728219 210.664739 
L 65.821115 210.164349 
L 65.867564 210.164349 
L 65.960461 209.921736 
L 66.030133 209.891409 
L 66.076582 209.633632 
L 66.169478 209.527489 
L 66.262375 209.436509 
L 66.308824 209.360692 
L 66.40172 209.087752 
L 66.517841 208.981609 
L 66.610738 208.678342 
L 66.633962 208.678342 
L 66.657186 208.375075 
L 66.750083 208.375075 
L 66.819756 208.056645 
L 66.84298 208.056645 
L 66.935877 207.980828 
L 66.982325 207.692725 
L 67.12167 207.601745 
L 67.214567 207.268151 
L 67.261016 207.252988 
L 67.353912 206.691944 
L 67.377137 206.691944 
L 67.470033 206.282534 
L 67.539706 206.237044 
L 67.632603 205.888288 
L 67.702275 205.873124 
L 67.795172 205.615347 
L 67.818396 205.615347 
L 67.911293 205.221101 
L 68.00419 205.130121 
L 68.097087 204.72071 
L 68.166759 204.690384 
L 68.259656 204.508424 
L 68.28288 204.508424 
L 68.375777 203.99287 
L 68.44545 203.99287 
L 68.538346 203.689603 
L 68.654467 203.522807 
L 68.747364 202.825293 
L 68.817037 202.76464 
L 68.909933 202.370393 
L 69.049279 202.26425 
L 69.142175 202.17327 
L 69.258296 202.08229 
L 69.351193 201.824513 
L 69.397642 201.779023 
L 69.490538 201.399939 
L 69.560211 201.369613 
L 69.653108 201.172489 
L 69.699556 201.172489 
L 69.792453 200.747916 
L 69.862125 200.672099 
L 69.955022 200.338506 
L 70.024695 200.308179 
L 70.117592 200.050402 
L 70.140816 200.050402 
L 70.233713 199.640992 
L 70.326609 199.625829 
L 70.396282 199.428705 
L 70.512403 199.322562 
L 70.582075 199.125439 
L 70.674972 199.079949 
L 70.767869 198.609885 
L 70.860766 198.503742 
L 70.953663 198.397598 
L 71.023335 198.306618 
L 71.116232 198.154985 
L 71.16268 198.154985 
L 71.232353 197.942698 
L 71.278801 197.942698 
L 71.371698 197.487798 
L 71.487819 197.396818 
L 71.580716 197.230021 
L 71.673613 197.184531 
L 71.766509 196.911591 
L 71.88263 196.805448 
L 71.975527 196.668978 
L 72.021976 196.593161 
L 72.114872 196.138261 
L 72.230993 196.032117 
L 72.32389 195.728851 
L 72.393563 195.683361 
L 72.393563 195.653034 
L 72.486459 195.258787 
L 72.556132 195.182971 
L 72.625805 194.91003 
L 72.811598 194.86454 
L 72.904495 194.530947 
L 72.950943 194.439967 
L 73.04384 194.00023 
L 73.113513 193.924413 
L 73.20641 193.560493 
L 73.392203 193.45435 
L 73.438651 193.36337 
L 73.670893 193.257227 
L 73.694118 193.075266 
L 73.810239 192.969123 
L 73.903135 192.49906 
L 73.996032 192.40808 
L 74.065705 192.119976 
L 74.135377 192.089649 
L 74.228274 191.680239 
L 74.344395 191.574096 
L 74.437292 191.331483 
L 74.623085 191.240503 
L 74.692758 190.770439 
L 74.785655 190.724949 
L 74.785655 190.664296 
L 74.878552 190.436846 
L 74.971448 190.376192 
L 74.971448 190.345866 
L 75.064345 189.845475 
L 75.319811 189.769659 
L 75.412708 189.390575 
L 75.505605 189.299595 
L 75.575277 189.178288 
L 75.691398 189.072145 
L 75.784295 188.935675 
L 75.900416 188.829532 
L 75.993313 188.192671 
L 76.08621 188.101691 
L 76.179107 187.768098 
L 76.272003 187.661955 
L 76.3649 187.222218 
L 76.527469 187.116074 
L 76.620366 186.949278 
L 76.736487 186.873461 
L 76.829384 186.630848 
L 76.945505 186.555031 
L 77.015178 186.327581 
L 77.131299 186.282091 
L 77.224195 185.493597 
L 77.270644 185.402617 
L 77.363541 185.09935 
L 77.409989 185.05386 
L 77.502886 184.887064 
L 77.595782 184.78092 
L 77.688679 184.55347 
L 77.851249 184.447327 
L 77.920921 184.174387 
L 78.060266 184.068243 
L 78.153163 183.977263 
L 78.269284 183.901447 
L 78.362181 183.704323 
L 78.455078 183.658833 
L 78.547974 183.537527 
L 78.664095 183.431383 
L 78.756992 183.128116 
L 78.780216 183.128116 
L 78.873113 182.73387 
L 78.942786 182.64289 
L 79.035683 182.445766 
L 79.2447 182.339623 
L 79.337597 182.218316 
L 79.500166 182.112173 
L 79.569839 181.975703 
L 79.662736 181.899886 
L 79.755633 181.611783 
L 79.778857 181.611783 
L 79.871754 181.399496 
L 79.918202 181.369169 
L 80.011099 181.035576 
L 80.057547 180.944596 
L 80.150444 180.762636 
L 80.243341 180.671656 
L 80.336238 180.489695 
L 80.429134 180.398715 
L 80.522031 180.171265 
L 80.638152 180.065122 
L 80.731049 179.913489 
L 80.800721 179.822509 
L 80.84717 179.610222 
L 81.056188 179.504078 
L 81.149084 179.337282 
L 81.195533 179.246302 
L 81.265205 178.897545 
L 81.358102 178.791402 
L 81.450999 178.548788 
L 81.474223 178.548788 
L 81.56712 178.306175 
L 81.636792 178.260685 
L 81.729689 178.078725 
L 81.869034 177.972581 
L 81.961931 177.669315 
L 82.124501 177.578335 
L 82.217397 177.335721 
L 82.333518 177.229578 
L 82.403191 177.047618 
L 82.449639 177.047618 
L 82.542536 176.547227 
L 82.681881 176.456247 
L 82.751554 176.228797 
L 82.798002 176.228797 
L 82.890899 175.864877 
L 83.146365 175.758734 
L 83.239262 175.6071 
L 83.401831 175.500957 
L 83.471504 175.318997 
L 83.610849 175.24318 
L 83.703746 175.10671 
L 83.72697 175.10671 
L 83.819867 174.83377 
L 83.959212 174.727627 
L 84.052109 174.51534 
L 84.191454 174.348543 
L 84.284351 174.181747 
L 84.330799 174.090767 
L 84.423696 173.65103 
L 84.44692 173.65103 
L 85.538457 171.710122 
L 85.654578 171.634306 
L 85.747475 171.406856 
L 85.793923 171.406856 
L 85.88682 171.058099 
L 85.933269 171.012609 
L 86.002941 170.891302 
L 86.04939 170.891302 
L 86.142286 170.603199 
L 86.304856 170.527382 
L 86.397752 170.148299 
L 86.490649 170.072482 
L 86.583546 169.678235 
L 86.629994 169.632745 
L 86.722891 169.374968 
L 86.815788 169.299152 
L 86.862236 169.193008 
L 86.908685 169.193008 
L 88.162791 167.418898 
L 88.255688 167.297591 
L 88.348585 167.191448 
L 88.441482 167.024651 
L 88.604051 167.024651 
L 88.627275 166.812364 
L 88.859517 166.721384 
L 88.952414 166.539424 
L 89.045311 166.509097 
L 89.045311 166.448444 
L 89.114983 166.311974 
L 89.20788 166.251321 
L 89.300777 166.039034 
L 89.463346 165.963217 
L 89.533019 165.826747 
L 89.811709 165.735767 
L 89.881382 165.629624 
L 90.020727 165.584134 
L 90.067175 165.280867 
L 90.206521 165.189887 
L 90.299417 165.02309 
L 90.36909 164.916947 
L 90.461987 164.628843 
L 90.64778 164.537863 
L 90.740677 164.371067 
L 90.972919 164.280087 
L 91.065816 164.15878 
L 91.158713 164.098127 
L 91.251609 163.870676 
L 91.321282 163.779696 
L 91.390954 163.688716 
L 91.5303 163.6129 
L 91.623196 163.33996 
L 91.692869 163.279306 
L 91.739317 163.02153 
L 91.901887 162.915386 
L 91.901887 162.885059 
L 92.064456 162.824406 
L 92.157353 162.657609 
L 92.436043 162.551466 
L 92.482492 162.430159 
L 92.668285 162.324016 
L 92.761182 162.172383 
L 92.784406 162.172383 
L 92.877303 161.778136 
L 92.993424 161.671992 
L 93.086321 161.535522 
L 93.272114 161.444542 
L 93.365011 161.141276 
L 93.52758 161.065459 
L 93.620477 160.883499 
L 93.666926 160.883499 
L 93.759822 160.656049 
L 93.875943 160.580232 
L 93.945616 160.367945 
L 94.061737 160.261802 
L 94.154634 160.185985 
L 94.293979 160.110169 
L 94.386876 160.004025 
L 94.595893 159.928208 
L 94.642342 159.822065 
L 94.85136 159.715922 
L 94.944256 159.533962 
L 95.060377 159.427818 
L 95.153274 159.276185 
L 95.292619 159.200368 
L 95.385516 159.018408 
L 95.548085 158.912265 
L 95.640982 158.821285 
L 95.826776 158.730305 
L 95.919673 158.548345 
L 96.059018 158.472528 
L 96.151915 158.063118 
L 96.407381 157.972138 
L 96.500277 157.805341 
L 96.662847 157.714361 
L 96.732519 157.638544 
L 96.755744 157.638544 
L 96.964761 157.395931 
L 97.057658 157.229134 
L 97.266676 157.122991 
L 97.359573 156.850051 
L 97.429245 156.759071 
L 97.522142 156.668091 
L 97.707936 156.592274 
L 97.800832 156.470967 
L 97.986626 156.364824 
L 98.079523 156.12221 
L 98.149195 156.07672 
L 98.242092 155.925087 
L 98.427886 155.84927 
L 98.520782 155.591494 
L 98.636903 155.515677 
L 98.706576 155.379207 
L 98.89237 155.30339 
L 98.938818 155.182083 
L 99.263957 155.07594 
L 99.356853 154.863653 
L 99.519423 154.75751 
L 99.61232 154.57555 
L 99.681992 154.499733 
L 99.774889 154.30261 
L 99.867786 154.21163 
L 99.960683 154.090323 
L 100.146476 153.98418 
L 100.239373 153.741566 
L 100.401942 153.696076 
L 100.494839 153.423136 
L 100.541287 153.34732 
L 100.634184 153.165359 
L 100.819978 153.059216 
L 100.843202 152.998563 
L 101.028996 152.892419 
L 101.121892 152.801439 
L 101.168341 152.755949 
L 101.168341 152.710459 
L 101.238013 152.513336 
L 101.354134 152.407193 
L 101.423807 152.194906 
L 101.586376 152.134252 
L 101.679273 151.679352 
L 101.818618 151.573209 
L 101.888291 151.285105 
L 102.027636 151.194125 
L 102.120533 151.027329 
L 102.375999 150.921185 
L 102.468896 150.845369 
L 102.608241 150.739225 
L 102.701138 150.526939 
L 102.863707 150.435959 
L 102.93338 150.284325 
L 103.049501 150.208508 
L 103.119173 150.072038 
L 103.258518 149.965895 
L 103.351415 149.844588 
L 103.537209 149.768772 
L 103.630105 149.541322 
L 103.676554 149.465505 
L 103.769451 149.207728 
L 104.001693 149.101585 
L 104.048141 149.010605 
L 104.280383 148.919625 
L 104.326831 148.767991 
L 104.419728 148.752828 
L 104.512625 148.510215 
L 104.768091 148.404071 
L 104.791315 148.328254 
L 105.046781 148.222111 
L 105.720283 147.676231 
L 105.81318 147.570088 
L 105.952525 147.463944 
L 106.045422 147.372964 
L 106.25444 147.266821 
L 106.347336 147.115187 
L 106.579578 147.009044 
L 106.626027 146.857411 
L 106.81182 146.781594 
L 106.858269 146.478327 
L 107.067286 146.40251 
L 107.136959 146.26604 
L 107.25308 146.159897 
L 107.322752 146.053754 
L 107.438873 145.94761 
L 107.53177 145.917284 
L 107.833685 145.81114 
L 107.903357 145.735324 
L 107.97303 145.659507 
L 108.042703 145.568527 
L 108.228496 145.477547 
L 108.298169 145.31075 
L 108.41429 145.26526 
L 108.41429 145.21977 
L 108.483962 145.113627 
L 108.739428 145.007483 
L 108.832325 144.76487 
L 109.041343 144.658727 
L 109.13424 144.598073 
L 109.343257 144.49193 
L 109.436154 144.12801 
L 109.552275 144.03703 
L 109.645172 143.930886 
L 109.807741 143.824743 
L 109.900638 143.597293 
L 109.993535 143.566966 
L 110.086432 143.385006 
L 110.202553 143.339516 
L 110.29545 143.142393 
L 110.41157 143.036249 
L 110.504467 142.914943 
L 110.759933 142.823963 
L 110.85283 142.717819 
L 111.0154 142.657166 
L 111.108296 142.414552 
L 111.29409 142.369062 
L 111.363762 142.247756 
L 111.433435 142.217429 
L 111.526332 142.080959 
L 111.688901 141.974816 
L 111.781798 141.868672 
L 111.990816 141.792856 
L 112.083713 141.686712 
L 112.223058 141.626059 
L 112.269506 141.550242 
L 112.571421 141.444099 
L 112.641093 141.383445 
L 112.803663 141.277302 
L 112.803663 141.216649 
L 112.966232 141.125669 
L 113.035905 141.019525 
L 113.198474 140.913382 
L 113.291371 140.685932 
L 113.361043 140.655605 
L 113.430716 140.488808 
L 113.639734 140.382665 
L 113.709406 140.352338 
L 113.802303 140.322012 
L 113.8952 140.079398 
L 114.034545 140.018745 
L 114.127442 139.745805 
L 114.197114 139.685152 
L 114.290011 139.609335 
L 114.45258 139.533518 
L 114.545477 139.275741 
L 114.638374 139.215088 
L 114.731271 139.093781 
L 114.917064 138.987638 
L 115.009961 138.790515 
L 115.195755 138.684371 
L 115.288651 138.517574 
L 115.637014 138.411431 
L 115.706687 138.244634 
L 115.985377 138.138491 
L 116.031826 138.108164 
L 116.240844 138.032348 
L 116.33374 137.926204 
L 116.542758 137.835224 
L 116.612431 137.668427 
L 116.798224 137.577447 
L 116.844673 137.486467 
L 117.030466 137.395487 
L 117.100139 137.334834 
L 117.471726 137.243854 
L 117.564623 137.061894 
L 117.680744 137.001241 
L 117.727192 136.864771 
L 117.959434 136.773791 
L 118.029107 136.728301 
L 118.2149 136.652484 
L 118.2149 136.59183 
L 118.284573 136.59183 
L 118.49359 136.485687 
L 118.586487 136.334054 
L 118.725832 136.303727 
L 118.795505 136.061114 
L 118.958074 135.985297 
L 119.050971 135.848827 
L 119.143868 135.803337 
L 119.213541 135.575887 
L 119.445782 135.469743 
L 119.515455 135.393927 
L 119.6548 135.302947 
L 119.724473 135.22713 
L 119.910266 135.13615 
L 120.003163 134.878373 
L 120.188957 134.77223 
L 120.281853 134.650923 
L 120.397974 134.559943 
L 120.490871 134.40831 
L 120.676665 134.302166 
L 120.769562 134.165696 
L 121.001804 134.059553 
L 121.0947 133.847266 
L 121.210821 133.741123 
L 121.303718 133.574326 
L 121.628857 133.468183 
L 121.698529 133.301386 
L 121.907547 133.225569 
L 122.000444 133.104263 
L 122.070117 132.998119 
L 122.163013 132.891976 
L 122.488152 132.785832 
L 122.581049 132.710016 
L 122.882963 132.619036 
L 122.97586 132.497729 
L 123.115205 132.467402 
L 123.208102 132.164136 
L 123.440344 132.057992 
L 123.510017 131.982176 
L 123.928052 131.876032 
L 124.020949 131.724399 
L 124.13707 131.648582 
L 124.183518 131.466622 
L 124.41576 131.360479 
L 124.485433 131.254335 
L 124.601554 131.148192 
L 124.694451 131.087539 
L 124.810572 131.087539 
L 124.880244 130.875252 
L 125.042814 130.784272 
L 125.112486 130.708455 
L 125.251831 130.602312 
L 125.275055 130.556822 
L 125.530522 130.450678 
L 125.600194 130.374862 
L 125.785988 130.268718 
L 125.878885 130.177738 
L 126.180799 130.071595 
L 126.273696 129.859308 
L 126.389817 129.768328 
L 126.459489 129.586368 
L 126.57561 129.495388 
L 126.622059 129.267938 
L 126.947198 129.176958 
L 126.970422 129.131468 
L 127.527802 129.025325 
L 127.620699 128.979835 
L 127.783269 128.904018 
L 127.876165 128.782711 
L 128.038735 128.691731 
L 128.061959 128.570424 
L 128.247752 128.479444 
L 128.247752 128.418791 
L 128.572891 128.327811 
L 128.665788 128.176178 
L 128.781909 128.085198 
L 128.851582 127.979054 
L 129.199945 127.933564 
L 129.269617 127.797094 
L 129.501859 127.690951 
L 129.594756 127.478664 
L 129.780549 127.372521 
L 129.873446 127.160234 
L 130.082464 127.054091 
L 130.175361 126.96311 
L 130.407603 126.87213 
L 130.454051 126.78115 
L 130.61662 126.675007 
L 130.663069 126.568864 
L 130.941759 126.50821 
L 131.034656 126.341414 
L 131.197225 126.23527 
L 131.266898 126.14429 
L 131.475916 126.038147 
L 131.49914 125.96233 
L 131.986848 125.856187 
L 132.079745 125.78037 
L 132.21909 125.674227 
L 132.288762 125.59841 
L 132.49778 125.492267 
L 132.590677 125.46194 
L 132.915816 125.37096 
L 132.962264 125.219327 
L 133.101609 125.113183 
L 133.194506 124.991876 
L 133.3803 124.900896 
L 133.3803 124.840243 
L 133.635766 124.749263 
L 133.728663 124.612793 
L 133.914456 124.521813 
L 134.007353 124.248873 
L 134.193147 124.14273 
L 134.286043 123.991096 
L 134.425388 123.884953 
L 134.495061 123.793973 
L 134.704079 123.718156 
L 134.796976 123.612013 
L 134.982769 123.536196 
L 135.029218 123.445216 
L 135.400805 123.339073 
L 135.470477 123.232929 
L 135.679495 123.126786 
L 135.702719 123.081296 
L 135.98141 122.975152 
L 136.074306 122.884172 
L 136.167203 122.823519 
L 136.2601 122.671886 
L 136.422669 122.565742 
L 136.422669 122.489926 
L 136.654911 122.414109 
L 136.747808 122.247312 
L 137.003274 122.171496 
L 137.096171 122.004699 
L 137.305189 121.898555 
L 137.398085 121.792412 
L 137.676776 121.716595 
L 137.723224 121.610452 
L 137.909018 121.519472 
L 138.001915 121.428492 
L 138.164484 121.322349 
L 138.257381 121.185879 
L 138.489623 121.079735 
L 138.489623 120.973592 
L 138.837986 120.882612 
L 138.930882 120.639998 
L 139.1399 120.549018 
L 139.232797 120.412548 
L 139.348918 120.321568 
L 139.441815 120.200262 
L 139.720505 120.094118 
L 139.790178 120.048628 
L 140.184989 119.942485 
L 140.208213 119.912158 
L 140.486903 119.821178 
L 140.533352 119.775688 
L 140.74237 119.699871 
L 140.835266 119.502748 
L 141.206853 119.411768 
L 141.29975 119.275298 
L 141.439095 119.184318 
L 141.508768 119.093338 
L 141.810683 119.002358 
L 141.903579 118.941704 
L 142.228718 118.835561 
L 142.298391 118.759744 
L 142.716426 118.653601 
L 142.762875 118.562621 
L 143.273807 118.456478 
L 143.320255 118.320008 
L 143.761515 118.229028 
L 143.854412 118.107721 
L 144.272447 118.001577 
L 144.365344 117.880271 
L 144.527913 117.774127 
L 144.62081 117.713474 
L 144.760155 117.607331 
L 144.806604 117.501187 
L 144.922725 117.470861 
L 145.015622 117.349554 
L 145.247863 117.273737 
L 145.271088 117.137267 
L 145.596226 117.031124 
L 145.642675 116.985634 
L 145.78202 116.87949 
L 145.828468 116.74302 
L 145.991038 116.636877 
L 146.083935 116.56106 
L 146.246504 116.485244 
L 146.339401 116.28812 
L 146.594867 116.227467 
L 146.664539 116.121323 
L 147.082575 116.030343 
L 147.175472 115.893873 
L 147.454162 115.78773 
L 147.547059 115.69675 
L 147.66318 115.620933 
L 147.756077 115.545117 
L 147.918646 115.438973 
L 148.011543 115.347993 
L 148.429578 115.24185 
L 148.522475 115.166033 
L 148.708269 115.05989 
L 148.708269 115.044726 
L 149.056632 114.938583 
L 149.149528 114.83244 
L 149.358546 114.74146 
L 149.428219 114.620153 
L 149.637236 114.51401 
L 149.730133 114.438193 
L 149.962375 114.332049 
L 150.032048 114.256233 
L 150.426859 114.165253 
L 150.473307 114.089436 
L 150.705549 113.998456 
L 150.798446 113.846823 
L 150.961016 113.801333 
L 151.053912 113.680026 
L 151.355827 113.589046 
L 151.425499 113.482903 
L 151.564845 113.407086 
L 151.657741 113.285779 
L 151.843535 113.194799 
L 151.866759 113.134146 
L 152.122225 113.028002 
L 152.215122 112.937022 
L 152.540261 112.830879 
L 152.563485 112.785389 
L 152.958296 112.679246 
L 153.051193 112.618592 
L 153.446004 112.512449 
L 153.446004 112.497286 
L 153.701471 112.436632 
L 153.771143 112.300162 
L 153.980161 112.224345 
L 154.073058 112.042385 
L 154.212403 111.981732 
L 154.3053 111.845262 
L 154.58399 111.739119 
L 154.676887 111.678465 
L 154.86268 111.572322 
L 154.909129 111.451015 
L 155.094922 111.344872 
L 155.187819 111.284218 
L 155.489734 111.178075 
L 155.58263 111.056768 
L 155.698751 110.965788 
L 155.768424 110.844482 
L 156.02389 110.738338 
L 156.116787 110.662522 
L 156.441926 110.556378 
L 156.511598 110.404745 
L 156.813513 110.298601 
L 156.90641 110.253111 
L 157.440566 110.162131 
L 157.510239 110.040825 
L 157.649584 109.934681 
L 157.672808 109.889191 
L 157.928274 109.783048 
L 158.021171 109.646578 
L 158.206964 109.555598 
L 158.276637 109.494945 
L 158.601776 109.403964 
L 158.694673 109.267494 
L 158.926915 109.161351 
L 159.019811 109.055208 
L 159.298502 108.964228 
L 159.368174 108.782268 
L 159.670089 108.676124 
L 159.716537 108.554818 
L 160.018452 108.448674 
L 160.088124 108.403184 
L 160.297142 108.327367 
L 160.390039 108.160571 
L 160.552608 108.054427 
L 160.552608 108.024101 
L 160.970644 107.933121 
L 161.063541 107.872467 
L 161.22611 107.826977 
L 161.295782 107.705671 
L 161.435128 107.629854 
L 161.435128 107.569201 
L 161.853163 107.493384 
L 161.899612 107.417567 
L 161.992508 107.356914 
L 162.085405 107.281097 
L 162.201526 107.174954 
L 162.271199 107.083974 
L 162.549889 107.008157 
L 162.642786 106.88685 
L 162.921476 106.780707 
L 162.991149 106.735217 
L 163.153718 106.629074 
L 163.246615 106.598747 
L 163.66465 106.507767 
L 163.757547 106.416787 
L 164.10591 106.310643 
L 164.175583 106.219663 
L 164.314928 106.143847 
L 164.361376 105.992213 
L 164.709739 105.88607 
L 164.779412 105.779927 
L 164.872309 105.734437 
L 164.918757 105.628293 
L 165.26712 105.52215 
L 165.290344 105.43117 
L 165.592259 105.355353 
L 165.685155 105.2947 
L 165.824501 105.218883 
L 165.824501 105.15823 
L 166.126415 105.06725 
L 166.172863 105.02176 
L 166.405105 104.991433 
L 166.474778 104.88529 
L 166.614123 104.79431 
L 166.70702 104.70333 
L 166.916038 104.597186 
L 166.98571 104.445553 
L 167.217952 104.354573 
L 167.310849 104.263593 
L 167.589539 104.172613 
L 167.682436 104.020979 
L 167.798557 103.929999 
L 167.891454 103.839019 
L 168.14692 103.732876 
L 168.216593 103.672223 
L 168.518507 103.566079 
L 168.58818 103.505426 
L 168.86687 103.459936 
L 168.959767 103.262812 
L 169.02944 103.186996 
L 169.02944 103.141506 
L 169.58682 103.035362 
L 169.679717 102.944382 
L 169.935183 102.838239 
L 170.02808 102.732096 
L 170.167425 102.625952 
L 170.260322 102.580462 
L 170.631909 102.474319 
L 170.724806 102.428829 
L 170.887375 102.322685 
L 170.957048 102.216542 
L 171.351859 102.110399 
L 171.421532 102.019419 
L 171.584101 101.958765 
L 171.676998 101.867785 
L 171.793119 101.776805 
L 171.793119 101.700989 
L 172.025361 101.610008 
L 172.118257 101.503865 
L 172.536293 101.412885 
L 172.605966 101.337068 
L 172.931104 101.230925 
L 172.931104 101.200598 
L 173.302691 101.094455 
L 173.395588 100.897332 
L 173.581382 100.821515 
L 173.651054 100.715371 
L 173.813624 100.624391 
L 173.906521 100.518248 
L 174.371004 100.412105 
L 174.463901 100.351451 
L 174.835488 100.260471 
L 174.928385 100.184655 
L 175.160627 100.078511 
L 175.253524 100.002695 
L 175.50899 99.896551 
L 175.601887 99.866225 
L 175.694784 99.790408 
L 175.764456 99.729754 
L 176.043147 99.623611 
L 176.136043 99.578121 
L 176.391509 99.487141 
L 176.484406 99.380998 
L 176.739872 99.274854 
L 176.832769 99.244528 
L 177.111459 99.138384 
L 177.204356 99.108058 
L 177.320477 99.032241 
L 177.413374 98.910934 
L 177.784961 98.819954 
L 177.877858 98.668321 
L 178.133324 98.577341 
L 178.179772 98.471197 
L 178.458463 98.365054 
L 178.458463 98.349891 
L 178.899723 98.243747 
L 178.992619 98.122441 
L 179.201637 98.016297 
L 179.294534 97.955644 
L 179.596448 97.849501 
L 179.689345 97.75852 
L 179.99126 97.652377 
L 180.084156 97.53107 
L 180.246726 97.424927 
L 180.293174 97.318784 
L 180.687986 97.21264 
L 180.780882 97.136824 
L 181.198918 97.03068 
L 181.245366 96.879047 
L 181.477608 96.80323 
L 181.570505 96.681923 
L 181.756299 96.62127 
L 181.779523 96.545453 
L 182.127886 96.454473 
L 182.220782 96.333167 
L 182.615594 96.227023 
L 182.638818 96.181533 
L 182.917508 96.07539 
L 182.987181 96.014737 
L 183.126526 95.969247 
L 183.196199 95.832776 
L 183.358768 95.741796 
L 183.358768 95.696306 
L 183.962597 95.590163 
L 184.055494 95.514346 
L 184.334184 95.408203 
L 184.427081 95.362713 
L 184.636099 95.271733 
L 184.728996 95.16559 
L 184.914789 95.089773 
L 184.984462 94.998793 
L 185.170255 94.922976 
L 185.263152 94.816833 
L 185.541842 94.725853 
L 185.634739 94.604546 
L 185.866981 94.513566 
L 185.959878 94.407423 
L 186.19212 94.301279 
L 186.261792 94.210299 
L 186.610155 94.104156 
L 186.703052 94.073829 
L 186.772725 93.998013 
L 186.865622 93.891869 
L 186.981743 93.816052 
L 187.028191 93.725072 
L 187.376554 93.618929 
L 187.423002 93.452132 
L 187.701693 93.391479 
L 187.701693 93.330826 
L 188.07328 93.239846 
L 188.096504 93.194356 
L 188.584212 93.088212 
L 188.677109 93.027559 
L 188.932575 92.936579 
L 188.979023 92.845599 
L 189.234489 92.769782 
L 189.327386 92.693965 
L 189.606077 92.587822 
L 189.652525 92.527169 
L 190.117009 92.421025 
L 190.163457 92.360372 
L 190.488596 92.269392 
L 190.558269 92.163249 
L 190.67439 92.072269 
L 190.67439 92.041942 
L 191.23177 91.935798 
L 191.301443 91.859982 
L 191.789151 91.769002 
L 191.882048 91.678022 
L 192.137514 91.571878 
L 192.160738 91.480898 
L 192.648446 91.389918 
L 192.741343 91.329265 
L 193.368396 91.223122 
L 193.461293 91.147305 
L 193.716759 91.041162 
L 193.786432 90.935018 
L 194.134795 90.828875 
L 194.158019 90.798548 
L 194.483158 90.722731 
L 194.576054 90.616588 
L 194.970866 90.510445 
L 194.970866 90.495281 
L 195.388901 90.404301 
L 195.388901 90.373975 
L 195.783713 90.298158 
L 195.853385 90.176851 
L 196.132075 90.070708 
L 196.132075 90.055545 
L 196.271421 89.994891 
L 196.364317 89.797768 
L 196.805577 89.706788 
L 196.828801 89.630971 
L 197.177164 89.524828 
L 197.200388 89.418684 
L 197.571976 89.342868 
L 197.664872 89.236724 
L 198.082908 89.130581 
L 198.15258 89.039601 
L 198.408047 88.933457 
L 198.431271 88.903131 
L 198.826082 88.796987 
L 198.918979 88.766661 
L 199.267342 88.660517 
L 199.337014 88.615027 
L 199.801498 88.508884 
L 199.894395 88.478557 
L 200.242758 88.372414 
L 200.289206 88.342087 
L 200.893036 88.235944 
L 200.985932 88.190454 
L 201.334295 88.084311 
L 201.334295 88.069147 
L 201.961349 87.978167 
L 201.961349 87.932677 
L 202.19359 87.841697 
L 202.263263 87.690064 
L 202.704523 87.58392 
L 202.79742 87.53843 
L 202.959989 87.44745 
L 203.029661 87.386797 
L 203.610266 87.280654 
L 203.703163 87.159347 
L 203.935405 87.08353 
L 204.005078 86.977387 
L 204.23732 86.871243 
L 204.330216 86.840917 
L 204.51601 86.7651 
L 204.539234 86.658957 
L 205.073391 86.552813 
L 205.119839 86.522487 
L 205.816565 86.416343 
L 205.886238 86.325363 
L 206.072031 86.234383 
L 206.141704 86.143403 
L 206.373946 86.067586 
L 206.466842 85.976606 
L 206.861654 85.870463 
L 206.861654 85.8553 
L 207.210017 85.76432 
L 207.256465 85.71883 
L 207.720949 85.612686 
L 207.790622 85.53687 
L 208.138984 85.430726 
L 208.162209 85.4004 
L 208.440899 85.294256 
L 208.440899 85.279093 
L 209.137625 85.17295 
L 209.137625 85.142623 
L 209.55566 85.051643 
L 209.648557 84.990989 
L 210.020144 84.900009 
L 210.113041 84.839356 
L 210.484628 84.733213 
L 210.554301 84.581579 
L 211.088457 84.475436 
L 211.134906 84.369293 
L 211.529717 84.263149 
L 211.59939 84.202496 
L 211.715511 84.111516 
L 211.808407 84.035699 
L 212.017425 83.929556 
L 212.110322 83.838576 
L 212.458685 83.732432 
L 212.505133 83.686942 
L 212.969617 83.580799 
L 213.03929 83.520146 
L 213.434101 83.414002 
L 213.503774 83.368512 
L 213.945033 83.262369 
L 214.03793 83.125899 
L 214.270172 83.080409 
L 214.270172 83.004592 
L 214.548862 82.913612 
L 214.618535 82.852959 
L 214.897225 82.746815 
L 214.966898 82.670999 
L 215.268812 82.580019 
L 215.361709 82.519365 
L 215.733296 82.413222 
L 215.779745 82.367732 
L 216.499695 82.261589 
L 216.569367 82.231262 
L 216.801609 82.185772 
L 216.871282 82.079628 
L 217.196421 81.988648 
L 217.289317 81.912832 
L 217.614456 81.837015 
L 217.660905 81.776362 
L 218.287958 81.670218 
L 218.287958 81.609565 
L 218.775666 81.503422 
L 218.868563 81.457932 
L 219.309822 81.351788 
L 219.356271 81.291135 
L 219.472392 81.230481 
L 219.51884 81.124338 
L 219.843979 81.018195 
L 219.890427 80.972705 
L 220.517481 80.881725 
L 220.517481 80.851398 
L 220.865844 80.745255 
L 220.935516 80.654275 
L 221.307103 80.563295 
L 221.376776 80.487478 
L 221.887708 80.381335 
L 221.957381 80.290355 
L 222.236071 80.199374 
L 222.259295 80.153884 
L 222.445089 80.047741 
L 222.537986 80.017414 
L 222.863124 79.911271 
L 222.909573 79.850618 
L 223.188263 79.774801 
L 223.28116 79.653494 
L 223.652747 79.547351 
L 223.72242 79.486698 
L 224.047558 79.380554 
L 224.117231 79.274411 
L 224.372697 79.228921 
L 224.44237 79.077287 
L 224.813957 79.016634 
L 224.906853 78.895327 
L 225.255216 78.804347 
L 225.301665 78.713367 
L 225.626804 78.622387 
L 225.650028 78.561734 
L 225.928718 78.455591 
L 225.998391 78.410101 
L 226.277081 78.303957 
L 226.369978 78.22814 
L 226.718341 78.13716 
L 226.788013 78.04618 
L 227.136376 77.940037 
L 227.1596 77.90971 
L 227.554412 77.833894 
L 227.624084 77.742914 
L 227.972447 77.63677 
L 228.065344 77.606444 
L 228.32081 77.515464 
L 228.413707 77.45481 
L 228.901415 77.348667 
L 228.994312 77.288013 
L 229.226554 77.18187 
L 229.319451 77.151543 
L 229.458796 77.09089 
L 229.505244 76.984747 
L 230.016176 76.893767 
L 230.062625 76.848277 
L 230.666454 76.77246 
L 230.712902 76.696643 
L 230.945144 76.5905 
L 230.945144 76.575337 
L 231.316731 76.469193 
L 231.386404 76.40854 
L 231.757991 76.302396 
L 231.757991 76.27207 
L 232.106354 76.165926 
L 232.176027 76.1356 
L 232.431493 76.059783 
L 232.454717 75.99913 
L 232.895977 75.892986 
L 232.965649 75.832333 
L 233.615927 75.72619 
L 233.639151 75.620046 
L 234.103635 75.513903 
L 234.196532 75.45325 
L 234.637791 75.362269 
L 234.707464 75.286453 
L 235.148724 75.180309 
L 235.24162 75.134819 
L 235.450638 75.028676 
L 235.497087 74.968023 
L 235.729329 74.877043 
L 235.822225 74.831553 
L 236.147364 74.725409 
L 236.147364 74.710246 
L 236.913762 74.604103 
L 237.006659 74.528286 
L 237.540816 74.452469 
L 237.587264 74.391816 
L 237.958851 74.285672 
L 238.051748 74.240182 
L 238.307214 74.149202 
L 238.400111 74.073386 
L 238.864595 73.982406 
L 238.864595 73.936916 
L 239.654218 73.830772 
L 239.654218 73.815609 
L 240.025805 73.709466 
L 240.025805 73.679139 
L 240.281271 73.572996 
L 240.374168 73.512342 
L 241.001221 73.406199 
L 241.047669 73.315219 
L 241.721171 73.239402 
L 241.767619 73.148422 
L 242.208879 73.057442 
L 242.301776 72.905809 
L 242.626915 72.799665 
L 242.719811 72.769339 
L 243.04495 72.663195 
L 243.04495 72.648032 
L 243.834573 72.557052 
L 243.927469 72.511562 
L 244.508074 72.420582 
L 244.600971 72.359928 
L 245.158352 72.268948 
L 245.251249 72.193132 
L 245.460266 72.102152 
L 245.529939 71.980845 
L 245.785405 71.874702 
L 245.878302 71.829212 
L 246.133768 71.723068 
L 246.226665 71.692742 
L 246.389234 71.586598 
L 246.458907 71.541108 
L 246.714373 71.434965 
L 246.714373 71.419801 
L 247.062736 71.313658 
L 247.155633 71.222678 
L 247.411099 71.146861 
L 247.503996 71.086208 
L 247.852358 70.980065 
L 247.922031 70.934575 
L 248.827775 70.828431 
L 248.827775 70.813268 
L 249.269034 70.707125 
L 249.269034 70.691961 
L 249.872863 70.585818 
L 249.919312 70.540328 
L 250.314123 70.449348 
L 250.337347 70.403858 
L 251.103746 70.312878 
L 251.103746 70.282551 
L 251.684351 70.176408 
L 251.777248 70.146081 
L 252.148835 70.039938 
L 252.241731 69.948958 
L 252.822336 69.842814 
L 252.915233 69.766998 
L 253.147475 69.691181 
L 253.147475 69.645691 
L 253.681632 69.539547 
L 253.774528 69.463731 
L 254.285461 69.357587 
L 254.308685 69.312097 
L 254.842841 69.221117 
L 254.935738 69.130137 
L 255.260877 69.023994 
L 255.307325 68.963341 
L 255.795033 68.872361 
L 255.841482 68.826871 
L 256.259517 68.735891 
L 256.32919 68.660074 
L 256.840122 68.569094 
L 256.933019 68.432624 
L 257.4904 68.32648 
L 257.536848 68.250664 
L 257.978108 68.14452 
L 257.978108 68.114194 
L 258.349695 68.00805 
L 258.442592 67.947397 
L 258.76773 67.87158 
L 258.860627 67.750274 
L 259.348335 67.659294 
L 259.371559 67.613803 
L 259.789595 67.50766 
L 259.789595 67.492497 
L 260.20763 67.41668 
L 260.300527 67.3257 
L 260.788235 67.219557 
L 260.788235 67.204393 
L 261.066926 67.09825 
L 261.066926 67.083087 
L 261.670755 67.00727 
L 261.740427 66.855637 
L 262.158463 66.749493 
L 262.158463 66.73433 
L 262.762292 66.628186 
L 262.855189 66.537206 
L 263.342897 66.431063 
L 263.366121 66.385573 
L 263.96995 66.27943 
L 264.039623 66.23394 
L 264.480882 66.14296 
L 264.550555 66.067143 
L 265.711765 65.961 
L 265.734989 65.885183 
L 266.431715 65.77904 
L 266.431715 65.763876 
L 266.919423 65.657733 
L 266.989095 65.612243 
L 267.546476 65.521263 
L 267.639373 65.460609 
L 268.521892 65.369629 
L 268.521892 65.339303 
L 269.218618 65.233159 
L 269.265067 65.202833 
L 269.636654 65.111853 
L 269.683102 65.051199 
L 270.101138 64.945056 
L 270.101138 64.929893 
L 270.472725 64.854076 
L 270.519173 64.793423 
L 271.215899 64.702442 
L 271.215899 64.672116 
L 271.842952 64.565972 
L 271.866176 64.505319 
L 272.446781 64.399176 
L 272.539678 64.293032 
L 272.818368 64.186889 
L 272.888041 64.156562 
L 273.538319 64.050419 
L 273.561543 64.020092 
L 273.747336 63.959439 
L 273.747336 63.883622 
L 274.304717 63.777479 
L 274.397614 63.747152 
L 275.024667 63.641009 
L 275.117564 63.550029 
L 275.558824 63.443885 
L 275.65172 63.383232 
L 276.418119 63.277089 
L 276.487791 63.246762 
L 276.743257 63.140619 
L 276.836154 63.095129 
L 277.997364 62.988985 
L 277.997364 62.973822 
L 278.879883 62.867679 
L 278.879883 62.852515 
L 279.832075 62.746372 
L 279.8553 62.670555 
L 280.296559 62.564412 
L 280.343008 62.534085 
L 280.85394 62.427942 
L 280.946837 62.397615 
L 281.620339 62.291472 
L 281.713235 62.230818 
L 282.502858 62.124675 
L 282.595755 62.079185 
L 282.897669 61.973042 
L 282.967342 61.942715 
L 283.478274 61.851735 
L 283.478274 61.821408 
L 283.803413 61.715265 
L 283.89631 61.684938 
L 284.384018 61.578795 
L 284.476915 61.518141 
L 285.057519 61.411998 
L 285.150416 61.366508 
L 285.522003 61.260365 
L 285.6149 61.214875 
L 286.427747 61.108731 
L 286.427747 61.093568 
L 287.031576 60.987425 
L 287.031576 60.972261 
L 287.681853 60.866118 
L 287.751526 60.835791 
L 288.541149 60.729648 
L 288.587597 60.699321 
L 289.609462 60.608341 
L 289.65591 60.471871 
L 290.143618 60.365728 
L 290.236515 60.289911 
L 290.584878 60.183768 
L 290.65455 60.138278 
L 290.863568 60.047298 
L 290.956465 59.956318 
L 291.583518 59.865338 
L 291.583518 59.835011 
L 292.442814 59.728867 
L 292.53571 59.653051 
L 293.000194 59.546907 
L 293.093091 59.501417 
L 293.720144 59.395274 
L 293.813041 59.364947 
L 294.393646 59.258804 
L 294.486543 59.213314 
L 295.020699 59.107171 
L 295.090372 59.076844 
L 295.554856 58.970701 
L 295.554856 58.955537 
L 296.065788 58.849394 
L 296.065788 58.819067 
L 296.483824 58.74325 
L 296.483824 58.667434 
L 297.273446 58.56129 
L 297.273446 58.546127 
L 297.923724 58.439984 
L 297.923724 58.42482 
L 298.550777 58.318677 
L 298.550777 58.303514 
L 299.201054 58.19737 
L 299.224279 58.136717 
L 299.804883 58.030574 
L 299.851332 58.000247 
L 300.246143 57.894103 
L 300.269367 57.863777 
L 301.151887 57.757633 
L 301.151887 57.727307 
L 301.825388 57.621163 
L 301.895061 57.575673 
L 302.313097 57.484693 
L 302.405993 57.439203 
L 303.242064 57.33306 
L 303.334961 57.302733 
L 304.565844 57.211753 
L 304.612292 57.1511 
L 305.123224 57.044957 
L 305.123224 57.029793 
L 306.26121 56.92365 
L 306.354107 56.847833 
L 307.25985 56.74169 
L 307.25985 56.726526 
L 307.770782 56.620383 
L 307.840455 56.574893 
L 308.397836 56.46875 
L 308.42106 56.438423 
L 309.280355 56.33228 
L 309.280355 56.317116 
L 310.209323 56.210973 
L 310.255771 56.135156 
L 311.254412 56.029013 
L 311.254412 56.01385 
L 311.765344 55.907706 
L 311.811792 55.862216 
L 312.46207 55.756073 
L 312.46207 55.740909 
L 313.321365 55.634766 
L 313.367814 55.589276 
L 313.994867 55.483133 
L 314.087764 55.422479 
L 314.714817 55.316336 
L 314.807714 55.255683 
L 315.34187 55.149539 
L 315.411543 55.119213 
L 315.945699 55.013069 
L 315.968923 54.982742 
L 316.94434 54.876599 
L 316.94434 54.861436 
L 317.548169 54.755292 
L 317.594617 54.724966 
L 318.012653 54.618822 
L 318.012653 54.603659 
L 318.895172 54.497516 
L 318.988069 54.452026 
L 319.777691 54.345882 
L 319.847364 54.285229 
L 320.613762 54.179086 
L 320.683435 54.133596 
L 321.403385 54.027452 
L 321.426609 53.997125 
L 322.378801 53.890982 
L 322.42525 53.860655 
L 323.168424 53.754512 
L 323.191648 53.709022 
L 323.772253 53.618042 
L 323.86515 53.572552 
L 324.445755 53.466409 
L 324.445755 53.451245 
L 325.142481 53.345102 
L 325.235377 53.299612 
L 326.257242 53.193469 
L 326.257242 53.178305 
L 327.302331 53.072162 
L 327.395228 53.026672 
L 327.836487 52.920528 
L 327.836487 52.905365 
L 328.695782 52.799222 
L 328.788679 52.693078 
L 329.810544 52.586935 
L 329.903441 52.556608 
L 330.414373 52.450465 
L 330.414373 52.435302 
L 331.250444 52.329158 
L 331.343341 52.283668 
L 332.411654 52.192688 
L 332.481326 52.147198 
L 332.876138 52.041055 
L 332.876138 52.025891 
L 333.38707 51.919748 
L 333.38707 51.904585 
L 334.060572 51.813605 
L 334.153468 51.752951 
L 334.525055 51.677135 
L 334.594728 51.601318 
L 335.152109 51.495175 
L 335.175333 51.464848 
L 335.523696 51.373868 
L 335.54692 51.313215 
L 336.940372 51.207071 
L 336.940372 51.176745 
L 338.124806 51.070601 
L 338.217703 51.025111 
L 338.751859 50.918968 
L 338.751859 50.903804 
L 339.843396 50.797661 
L 339.913069 50.752171 
L 340.656243 50.646028 
L 340.74914 50.585374 
L 341.376193 50.479231 
L 341.376193 50.448904 
L 341.724556 50.373088 
L 341.817453 50.312434 
L 342.351609 50.206291 
L 342.421282 50.175964 
L 343.025111 50.084984 
L 343.025111 50.054657 
L 343.861182 49.963677 
L 343.954079 49.903024 
L 344.952719 49.796881 
L 344.952719 49.781717 
L 345.742342 49.675574 
L 345.742342 49.660411 
L 346.903552 49.554267 
L 346.903552 49.539104 
L 348.877608 49.432961 
L 348.877608 49.417797 
L 349.8298 49.311654 
L 349.922697 49.266164 
L 350.572974 49.190347 
L 350.642647 49.129694 
L 351.409046 49.02355 
L 351.501942 48.993224 
L 352.268341 48.902244 
L 352.268341 48.871917 
L 353.383102 48.765774 
L 353.475999 48.735447 
L 354.219173 48.629304 
L 354.31207 48.583814 
L 355.217814 48.47767 
L 355.217814 48.462507 
L 356.332575 48.356364 
L 356.402248 48.310874 
L 357.726027 48.20473 
L 357.726027 48.174403 
L 358.63177 48.06826 
L 358.63177 48.053097 
L 359.328496 47.946953 
L 359.328496 47.916627 
L 360.443257 47.810483 
L 360.443257 47.79532 
L 361.720588 47.689177 
L 361.790261 47.65885 
L 363.090816 47.552707 
L 363.183713 47.52238 
L 363.694645 47.416237 
L 363.787542 47.38591 
L 365.180993 47.279767 
L 365.180993 47.264603 
L 366.040289 47.15846 
L 366.109961 47.11297 
L 367.851776 47.006826 
L 367.851776 46.991663 
L 369.082658 46.88552 
L 369.152331 46.84003 
L 370.127747 46.733886 
L 370.127747 46.70356 
L 370.870921 46.597416 
L 370.963818 46.56709 
L 371.706992 46.460946 
L 371.776665 46.43062 
L 372.891426 46.324476 
L 372.891426 46.29415 
L 374.168757 46.188006 
L 374.215205 46.142516 
L 375.329967 46.036373 
L 375.353191 46.006046 
L 376.793091 45.899903 
L 376.793091 45.884739 
L 378.534906 45.778596 
L 378.55813 45.733106 
L 379.347752 45.626963 
L 379.417425 45.581473 
L 380.137375 45.475329 
L 380.183824 45.445003 
L 381.577275 45.338859 
L 381.623724 45.308533 
L 384.642869 45.217552 
L 384.642869 45.172062 
L 387.011737 45.065919 
L 387.08141 45.035592 
L 388.544534 44.929449 
L 388.544534 44.914286 
L 388.8 44.914286 
L 388.8 44.914286 
" style="fill:none;stroke:#ff0000;stroke-linecap:square;stroke-width:2;"/>
   </g>
   <g id="line2d_14">
    <path clip-path="url(#p25f295c49f)" d="M 54 252 
L 388.8 44.914286 
" style="fill:none;stroke:#000000;stroke-dasharray:7.4,3.2;stroke-dashoffset:0;stroke-width:2;"/>
   </g>
   <g id="patch_3">
    <path d="M 54 252 
L 54 34.56 
" style="fill:none;stroke:#000000;stroke-linecap:square;stroke-linejoin:miter;stroke-width:0.8;"/>
   </g>
   <g id="patch_4">
    <path d="M 388.8 252 
L 388.8 34.56 
" style="fill:none;stroke:#000000;stroke-linecap:square;stroke-linejoin:miter;stroke-width:0.8;"/>
   </g>
   <g id="patch_5">
    <path d="M 54 252 
L 388.8 252 
" style="fill:none;stroke:#000000;stroke-linecap:square;stroke-linejoin:miter;stroke-width:0.8;"/>
   </g>
   <g id="patch_6">
    <path d="M 54 34.56 
L 388.8 34.56 
" style="fill:none;stroke:#000000;stroke-linecap:square;stroke-linejoin:miter;stroke-width:0.8;"/>
   </g>
   <g id="text_15">
    <!-- Receiver Operating Characteristic Curve -->
    <defs>
     <path d="M 48.78125 52.59375 
L 48.78125 44.1875 
Q 44.96875 46.296875 41.140625 47.34375 
Q 37.3125 48.390625 33.40625 48.390625 
Q 24.65625 48.390625 19.8125 42.84375 
Q 14.984375 37.3125 14.984375 27.296875 
Q 14.984375 17.28125 19.8125 11.734375 
Q 24.65625 6.203125 33.40625 6.203125 
Q 37.3125 6.203125 41.140625 7.25 
Q 44.96875 8.296875 48.78125 10.40625 
L 48.78125 2.09375 
Q 45.015625 0.34375 40.984375 -0.53125 
Q 36.96875 -1.421875 32.421875 -1.421875 
Q 20.0625 -1.421875 12.78125 6.34375 
Q 5.515625 14.109375 5.515625 27.296875 
Q 5.515625 40.671875 12.859375 48.328125 
Q 20.21875 56 33.015625 56 
Q 37.15625 56 41.109375 55.140625 
Q 45.0625 54.296875 48.78125 52.59375 
z
" id="DejaVuSans-63"/>
     <path d="M 39.40625 66.21875 
Q 28.65625 66.21875 22.328125 58.203125 
Q 16.015625 50.203125 16.015625 36.375 
Q 16.015625 22.609375 22.328125 14.59375 
Q 28.65625 6.59375 39.40625 6.59375 
Q 50.140625 6.59375 56.421875 14.59375 
Q 62.703125 22.609375 62.703125 36.375 
Q 62.703125 50.203125 56.421875 58.203125 
Q 50.140625 66.21875 39.40625 66.21875 
z
M 39.40625 74.21875 
Q 54.734375 74.21875 63.90625 63.9375 
Q 73.09375 53.65625 73.09375 36.375 
Q 73.09375 19.140625 63.90625 8.859375 
Q 54.734375 -1.421875 39.40625 -1.421875 
Q 24.03125 -1.421875 14.8125 8.828125 
Q 5.609375 19.09375 5.609375 36.375 
Q 5.609375 53.65625 14.8125 63.9375 
Q 24.03125 74.21875 39.40625 74.21875 
z
" id="DejaVuSans-4f"/>
     <path d="M 18.109375 8.203125 
L 18.109375 -20.796875 
L 9.078125 -20.796875 
L 9.078125 54.6875 
L 18.109375 54.6875 
L 18.109375 46.390625 
Q 20.953125 51.265625 25.265625 53.625 
Q 29.59375 56 35.59375 56 
Q 45.5625 56 51.78125 48.09375 
Q 58.015625 40.1875 58.015625 27.296875 
Q 58.015625 14.40625 51.78125 6.484375 
Q 45.5625 -1.421875 35.59375 -1.421875 
Q 29.59375 -1.421875 25.265625 0.953125 
Q 20.953125 3.328125 18.109375 8.203125 
z
M 48.6875 27.296875 
Q 48.6875 37.203125 44.609375 42.84375 
Q 40.53125 48.484375 33.40625 48.484375 
Q 26.265625 48.484375 22.1875 42.84375 
Q 18.109375 37.203125 18.109375 27.296875 
Q 18.109375 17.390625 22.1875 11.75 
Q 26.265625 6.109375 33.40625 6.109375 
Q 40.53125 6.109375 44.609375 11.75 
Q 48.6875 17.390625 48.6875 27.296875 
z
" id="DejaVuSans-70"/>
     <path d="M 54.890625 33.015625 
L 54.890625 0 
L 45.90625 0 
L 45.90625 32.71875 
Q 45.90625 40.484375 42.875 44.328125 
Q 39.84375 48.1875 33.796875 48.1875 
Q 26.515625 48.1875 22.3125 43.546875 
Q 18.109375 38.921875 18.109375 30.90625 
L 18.109375 0 
L 9.078125 0 
L 9.078125 54.6875 
L 18.109375 54.6875 
L 18.109375 46.1875 
Q 21.34375 51.125 25.703125 53.5625 
Q 30.078125 56 35.796875 56 
Q 45.21875 56 50.046875 50.171875 
Q 54.890625 44.34375 54.890625 33.015625 
z
" id="DejaVuSans-6e"/>
     <path d="M 45.40625 27.984375 
Q 45.40625 37.75 41.375 43.109375 
Q 37.359375 48.484375 30.078125 48.484375 
Q 22.859375 48.484375 18.828125 43.109375 
Q 14.796875 37.75 14.796875 27.984375 
Q 14.796875 18.265625 18.828125 12.890625 
Q 22.859375 7.515625 30.078125 7.515625 
Q 37.359375 7.515625 41.375 12.890625 
Q 45.40625 18.265625 45.40625 27.984375 
z
M 54.390625 6.78125 
Q 54.390625 -7.171875 48.1875 -13.984375 
Q 42 -20.796875 29.203125 -20.796875 
Q 24.46875 -20.796875 20.265625 -20.09375 
Q 16.0625 -19.390625 12.109375 -17.921875 
L 12.109375 -9.1875 
Q 16.0625 -11.328125 19.921875 -12.34375 
Q 23.78125 -13.375 27.78125 -13.375 
Q 36.625 -13.375 41.015625 -8.765625 
Q 45.40625 -4.15625 45.40625 5.171875 
L 45.40625 9.625 
Q 42.625 4.78125 38.28125 2.390625 
Q 33.9375 0 27.875 0 
Q 17.828125 0 11.671875 7.65625 
Q 5.515625 15.328125 5.515625 27.984375 
Q 5.515625 40.671875 11.671875 48.328125 
Q 17.828125 56 27.875 56 
Q 33.9375 56 38.28125 53.609375 
Q 42.625 51.21875 45.40625 46.390625 
L 45.40625 54.6875 
L 54.390625 54.6875 
z
" id="DejaVuSans-67"/>
     <path d="M 64.40625 67.28125 
L 64.40625 56.890625 
Q 59.421875 61.53125 53.78125 63.8125 
Q 48.140625 66.109375 41.796875 66.109375 
Q 29.296875 66.109375 22.65625 58.46875 
Q 16.015625 50.828125 16.015625 36.375 
Q 16.015625 21.96875 22.65625 14.328125 
Q 29.296875 6.6875 41.796875 6.6875 
Q 48.140625 6.6875 53.78125 8.984375 
Q 59.421875 11.28125 64.40625 15.921875 
L 64.40625 5.609375 
Q 59.234375 2.09375 53.4375 0.328125 
Q 47.65625 -1.421875 41.21875 -1.421875 
Q 24.65625 -1.421875 15.125 8.703125 
Q 5.609375 18.84375 5.609375 36.375 
Q 5.609375 53.953125 15.125 64.078125 
Q 24.65625 74.21875 41.21875 74.21875 
Q 47.75 74.21875 53.53125 72.484375 
Q 59.328125 70.75 64.40625 67.28125 
z
" id="DejaVuSans-43"/>
     <path d="M 54.890625 33.015625 
L 54.890625 0 
L 45.90625 0 
L 45.90625 32.71875 
Q 45.90625 40.484375 42.875 44.328125 
Q 39.84375 48.1875 33.796875 48.1875 
Q 26.515625 48.1875 22.3125 43.546875 
Q 18.109375 38.921875 18.109375 30.90625 
L 18.109375 0 
L 9.078125 0 
L 9.078125 75.984375 
L 18.109375 75.984375 
L 18.109375 46.1875 
Q 21.34375 51.125 25.703125 53.5625 
Q 30.078125 56 35.796875 56 
Q 45.21875 56 50.046875 50.171875 
Q 54.890625 44.34375 54.890625 33.015625 
z
" id="DejaVuSans-68"/>
    </defs>
    <g transform="translate(100.021875 28.56)scale(0.12 -0.12)">
     <use xlink:href="#DejaVuSans-52"/>
     <use x="69.419922" xlink:href="#DejaVuSans-65"/>
     <use x="130.943359" xlink:href="#DejaVuSans-63"/>
     <use x="185.923828" xlink:href="#DejaVuSans-65"/>
     <use x="247.447266" xlink:href="#DejaVuSans-69"/>
     <use x="275.230469" xlink:href="#DejaVuSans-76"/>
     <use x="334.410156" xlink:href="#DejaVuSans-65"/>
     <use x="395.933594" xlink:href="#DejaVuSans-72"/>
     <use x="437.046875" xlink:href="#DejaVuSans-20"/>
     <use x="468.833984" xlink:href="#DejaVuSans-4f"/>
     <use x="547.544922" xlink:href="#DejaVuSans-70"/>
     <use x="611.021484" xlink:href="#DejaVuSans-65"/>
     <use x="672.544922" xlink:href="#DejaVuSans-72"/>
     <use x="713.658203" xlink:href="#DejaVuSans-61"/>
     <use x="774.9375" xlink:href="#DejaVuSans-74"/>
     <use x="814.146484" xlink:href="#DejaVuSans-69"/>
     <use x="841.929688" xlink:href="#DejaVuSans-6e"/>
     <use x="905.308594" xlink:href="#DejaVuSans-67"/>
     <use x="968.785156" xlink:href="#DejaVuSans-20"/>
     <use x="1000.572266" xlink:href="#DejaVuSans-43"/>
     <use x="1070.396484" xlink:href="#DejaVuSans-68"/>
     <use x="1133.775391" xlink:href="#DejaVuSans-61"/>
     <use x="1195.054688" xlink:href="#DejaVuSans-72"/>
     <use x="1236.167969" xlink:href="#DejaVuSans-61"/>
     <use x="1297.447266" xlink:href="#DejaVuSans-63"/>
     <use x="1352.427734" xlink:href="#DejaVuSans-74"/>
     <use x="1391.636719" xlink:href="#DejaVuSans-65"/>
     <use x="1453.160156" xlink:href="#DejaVuSans-72"/>
     <use x="1494.273438" xlink:href="#DejaVuSans-69"/>
     <use x="1522.056641" xlink:href="#DejaVuSans-73"/>
     <use x="1574.15625" xlink:href="#DejaVuSans-74"/>
     <use x="1613.365234" xlink:href="#DejaVuSans-69"/>
     <use x="1641.148438" xlink:href="#DejaVuSans-63"/>
     <use x="1696.128906" xlink:href="#DejaVuSans-20"/>
     <use x="1727.916016" xlink:href="#DejaVuSans-43"/>
     <use x="1797.740234" xlink:href="#DejaVuSans-75"/>
     <use x="1861.119141" xlink:href="#DejaVuSans-72"/>
     <use x="1902.232422" xlink:href="#DejaVuSans-76"/>
     <use x="1961.412109" xlink:href="#DejaVuSans-65"/>
    </g>
   </g>
   <g id="legend_1">
    <g id="patch_7">
     <path d="M 146.476562 247 
L 381.8 247 
Q 383.8 247 383.8 245 
L 383.8 231.321875 
Q 383.8 229.321875 381.8 229.321875 
L 146.476562 229.321875 
Q 144.476562 229.321875 144.476562 231.321875 
L 144.476562 245 
Q 144.476562 247 146.476562 247 
z
" style="fill:#ffffff;opacity:0.8;stroke:#cccccc;stroke-linejoin:miter;"/>
    </g>
    <g id="line2d_15">
     <path d="M 148.476562 237.420312 
L 168.476562 237.420312 
" style="fill:none;stroke:#ff0000;stroke-linecap:square;stroke-width:2;"/>
    </g>
    <g id="line2d_16"/>
    <g id="text_16">
     <!-- ROC curve for nn model (area = 0.7547) -->
     <defs>
      <path d="M 37.109375 75.984375 
L 37.109375 68.5 
L 28.515625 68.5 
Q 23.6875 68.5 21.796875 66.546875 
Q 19.921875 64.59375 19.921875 59.515625 
L 19.921875 54.6875 
L 34.71875 54.6875 
L 34.71875 47.703125 
L 19.921875 47.703125 
L 19.921875 0 
L 10.890625 0 
L 10.890625 47.703125 
L 2.296875 47.703125 
L 2.296875 54.6875 
L 10.890625 54.6875 
L 10.890625 58.5 
Q 10.890625 67.625 15.140625 71.796875 
Q 19.390625 75.984375 28.609375 75.984375 
z
" id="DejaVuSans-66"/>
      <path d="M 52 44.1875 
Q 55.375 50.25 60.0625 53.125 
Q 64.75 56 71.09375 56 
Q 79.640625 56 84.28125 50.015625 
Q 88.921875 44.046875 88.921875 33.015625 
L 88.921875 0 
L 79.890625 0 
L 79.890625 32.71875 
Q 79.890625 40.578125 77.09375 44.375 
Q 74.3125 48.1875 68.609375 48.1875 
Q 61.625 48.1875 57.5625 43.546875 
Q 53.515625 38.921875 53.515625 30.90625 
L 53.515625 0 
L 44.484375 0 
L 44.484375 32.71875 
Q 44.484375 40.625 41.703125 44.40625 
Q 38.921875 48.1875 33.109375 48.1875 
Q 26.21875 48.1875 22.15625 43.53125 
Q 18.109375 38.875 18.109375 30.90625 
L 18.109375 0 
L 9.078125 0 
L 9.078125 54.6875 
L 18.109375 54.6875 
L 18.109375 46.1875 
Q 21.1875 51.21875 25.484375 53.609375 
Q 29.78125 56 35.6875 56 
Q 41.65625 56 45.828125 52.96875 
Q 50 49.953125 52 44.1875 
z
" id="DejaVuSans-6d"/>
      <path d="M 45.40625 46.390625 
L 45.40625 75.984375 
L 54.390625 75.984375 
L 54.390625 0 
L 45.40625 0 
L 45.40625 8.203125 
Q 42.578125 3.328125 38.25 0.953125 
Q 33.9375 -1.421875 27.875 -1.421875 
Q 17.96875 -1.421875 11.734375 6.484375 
Q 5.515625 14.40625 5.515625 27.296875 
Q 5.515625 40.1875 11.734375 48.09375 
Q 17.96875 56 27.875 56 
Q 33.9375 56 38.25 53.625 
Q 42.578125 51.265625 45.40625 46.390625 
z
M 14.796875 27.296875 
Q 14.796875 17.390625 18.875 11.75 
Q 22.953125 6.109375 30.078125 6.109375 
Q 37.203125 6.109375 41.296875 11.75 
Q 45.40625 17.390625 45.40625 27.296875 
Q 45.40625 37.203125 41.296875 42.84375 
Q 37.203125 48.484375 30.078125 48.484375 
Q 22.953125 48.484375 18.875 42.84375 
Q 14.796875 37.203125 14.796875 27.296875 
z
" id="DejaVuSans-64"/>
      <path d="M 31 75.875 
Q 24.46875 64.65625 21.28125 53.65625 
Q 18.109375 42.671875 18.109375 31.390625 
Q 18.109375 20.125 21.3125 9.0625 
Q 24.515625 -2 31 -13.1875 
L 23.1875 -13.1875 
Q 15.875 -1.703125 12.234375 9.375 
Q 8.59375 20.453125 8.59375 31.390625 
Q 8.59375 42.28125 12.203125 53.3125 
Q 15.828125 64.359375 23.1875 75.875 
z
" id="DejaVuSans-28"/>
      <path d="M 10.59375 45.40625 
L 73.1875 45.40625 
L 73.1875 37.203125 
L 10.59375 37.203125 
z
M 10.59375 25.484375 
L 73.1875 25.484375 
L 73.1875 17.1875 
L 10.59375 17.1875 
z
" id="DejaVuSans-3d"/>
      <path d="M 8.203125 72.90625 
L 55.078125 72.90625 
L 55.078125 68.703125 
L 28.609375 0 
L 18.3125 0 
L 43.21875 64.59375 
L 8.203125 64.59375 
z
" id="DejaVuSans-37"/>
      <path d="M 10.796875 72.90625 
L 49.515625 72.90625 
L 49.515625 64.59375 
L 19.828125 64.59375 
L 19.828125 46.734375 
Q 21.96875 47.46875 24.109375 47.828125 
Q 26.265625 48.1875 28.421875 48.1875 
Q 40.625 48.1875 47.75 41.5 
Q 54.890625 34.8125 54.890625 23.390625 
Q 54.890625 11.625 47.5625 5.09375 
Q 40.234375 -1.421875 26.90625 -1.421875 
Q 22.3125 -1.421875 17.546875 -0.640625 
Q 12.796875 0.140625 7.71875 1.703125 
L 7.71875 11.625 
Q 12.109375 9.234375 16.796875 8.0625 
Q 21.484375 6.890625 26.703125 6.890625 
Q 35.15625 6.890625 40.078125 11.328125 
Q 45.015625 15.765625 45.015625 23.390625 
Q 45.015625 31 40.078125 35.4375 
Q 35.15625 39.890625 26.703125 39.890625 
Q 22.75 39.890625 18.8125 39.015625 
Q 14.890625 38.140625 10.796875 36.28125 
z
" id="DejaVuSans-35"/>
      <path d="M 8.015625 75.875 
L 15.828125 75.875 
Q 23.140625 64.359375 26.78125 53.3125 
Q 30.421875 42.28125 30.421875 31.390625 
Q 30.421875 20.453125 26.78125 9.375 
Q 23.140625 -1.703125 15.828125 -13.1875 
L 8.015625 -13.1875 
Q 14.5 -2 17.703125 9.0625 
Q 20.90625 20.125 20.90625 31.390625 
Q 20.90625 42.671875 17.703125 53.65625 
Q 14.5 64.65625 8.015625 75.875 
z
" id="DejaVuSans-29"/>
     </defs>
     <g transform="translate(176.476562 240.920312)scale(0.1 -0.1)">
      <use xlink:href="#DejaVuSans-52"/>
      <use x="69.482422" xlink:href="#DejaVuSans-4f"/>
      <use x="148.193359" xlink:href="#DejaVuSans-43"/>
      <use x="218.017578" xlink:href="#DejaVuSans-20"/>
      <use x="249.804688" xlink:href="#DejaVuSans-63"/>
      <use x="304.785156" xlink:href="#DejaVuSans-75"/>
      <use x="368.164062" xlink:href="#DejaVuSans-72"/>
      <use x="409.277344" xlink:href="#DejaVuSans-76"/>
      <use x="468.457031" xlink:href="#DejaVuSans-65"/>
      <use x="529.980469" xlink:href="#DejaVuSans-20"/>
      <use x="561.767578" xlink:href="#DejaVuSans-66"/>
      <use x="596.972656" xlink:href="#DejaVuSans-6f"/>
      <use x="658.154297" xlink:href="#DejaVuSans-72"/>
      <use x="699.267578" xlink:href="#DejaVuSans-20"/>
      <use x="731.054688" xlink:href="#DejaVuSans-6e"/>
      <use x="794.433594" xlink:href="#DejaVuSans-6e"/>
      <use x="857.8125" xlink:href="#DejaVuSans-20"/>
      <use x="889.599609" xlink:href="#DejaVuSans-6d"/>
      <use x="987.011719" xlink:href="#DejaVuSans-6f"/>
      <use x="1048.193359" xlink:href="#DejaVuSans-64"/>
      <use x="1111.669922" xlink:href="#DejaVuSans-65"/>
      <use x="1173.193359" xlink:href="#DejaVuSans-6c"/>
      <use x="1200.976562" xlink:href="#DejaVuSans-20"/>
      <use x="1232.763672" xlink:href="#DejaVuSans-28"/>
      <use x="1271.777344" xlink:href="#DejaVuSans-61"/>
      <use x="1333.056641" xlink:href="#DejaVuSans-72"/>
      <use x="1374.138672" xlink:href="#DejaVuSans-65"/>
      <use x="1435.662109" xlink:href="#DejaVuSans-61"/>
      <use x="1496.941406" xlink:href="#DejaVuSans-20"/>
      <use x="1528.728516" xlink:href="#DejaVuSans-3d"/>
      <use x="1612.517578" xlink:href="#DejaVuSans-20"/>
      <use x="1644.304688" xlink:href="#DejaVuSans-30"/>
      <use x="1707.927734" xlink:href="#DejaVuSans-2e"/>
      <use x="1739.714844" xlink:href="#DejaVuSans-37"/>
      <use x="1803.337891" xlink:href="#DejaVuSans-35"/>
      <use x="1866.960938" xlink:href="#DejaVuSans-34"/>
      <use x="1930.583984" xlink:href="#DejaVuSans-37"/>
      <use x="1994.207031" xlink:href="#DejaVuSans-29"/>
     </g>
    </g>
   </g>
  </g>
 </g>
 <defs>
  <clipPath id="p25f295c49f">
   <rect height="217.44" width="334.8" x="54" y="34.56"/>
  </clipPath>
 </defs>
</svg>
