<?xml version="1.0" encoding="UTF-8" standalone="no"?>
<!DOCTYPE svg PUBLIC "-//W3C//DTD SVG 1.1//EN"
 "http://www.w3.org/Graphics/SVG/1.1/DTD/svg11.dtd">
<!-- Generated by graphviz version 2.38.0 (20140413.2041)
 -->
<!-- Title: G Pages: 1 -->
<svg width="366pt" height="636pt"
 viewBox="0.00 0.00 366.00 636.00" xmlns="http://www.w3.org/2000/svg" xmlns:xlink="http://www.w3.org/1999/xlink">
<g id="graph0" class="graph" transform="scale(1 1) rotate(0) translate(4 632)">
<title>G</title>
<polygon fill="white" stroke="none" points="-4,4 -4,-632 362,-632 362,4 -4,4"/>
<!-- 1315504409568 -->
<g id="node1" class="node"><title>1315504409568</title>
<polygon fill="none" stroke="black" points="42.5,-581.5 42.5,-627.5 315.5,-627.5 315.5,-581.5 42.5,-581.5"/>
<text text-anchor="middle" x="109.5" y="-600.8" font-family="Times New Roman,serif" font-size="14.00">joke_seq: InputLayer</text>
<polyline fill="none" stroke="black" points="176.5,-581.5 176.5,-627.5 "/>
<text text-anchor="middle" x="204.5" y="-612.3" font-family="Times New Roman,serif" font-size="14.00">input:</text>
<polyline fill="none" stroke="black" points="176.5,-604.5 232.5,-604.5 "/>
<text text-anchor="middle" x="204.5" y="-589.3" font-family="Times New Roman,serif" font-size="14.00">output:</text>
<polyline fill="none" stroke="black" points="232.5,-581.5 232.5,-627.5 "/>
<text text-anchor="middle" x="274" y="-612.3" font-family="Times New Roman,serif" font-size="14.00">(None, 300)</text>
<polyline fill="none" stroke="black" points="232.5,-604.5 315.5,-604.5 "/>
<text text-anchor="middle" x="274" y="-589.3" font-family="Times New Roman,serif" font-size="14.00">(None, 300)</text>
</g>
<!-- 1315504409848 -->
<g id="node2" class="node"><title>1315504409848</title>
<polygon fill="none" stroke="black" points="7,-498.5 7,-544.5 351,-544.5 351,-498.5 7,-498.5"/>
<text text-anchor="middle" x="99" y="-517.8" font-family="Times New Roman,serif" font-size="14.00">fixed_embedding: Embedding</text>
<polyline fill="none" stroke="black" points="191,-498.5 191,-544.5 "/>
<text text-anchor="middle" x="219" y="-529.3" font-family="Times New Roman,serif" font-size="14.00">input:</text>
<polyline fill="none" stroke="black" points="191,-521.5 247,-521.5 "/>
<text text-anchor="middle" x="219" y="-506.3" font-family="Times New Roman,serif" font-size="14.00">output:</text>
<polyline fill="none" stroke="black" points="247,-498.5 247,-544.5 "/>
<text text-anchor="middle" x="299" y="-529.3" font-family="Times New Roman,serif" font-size="14.00">(None, 300)</text>
<polyline fill="none" stroke="black" points="247,-521.5 351,-521.5 "/>
<text text-anchor="middle" x="299" y="-506.3" font-family="Times New Roman,serif" font-size="14.00">(None, 300, 50)</text>
</g>
<!-- 1315504409568&#45;&gt;1315504409848 -->
<g id="edge1" class="edge"><title>1315504409568&#45;&gt;1315504409848</title>
<path fill="none" stroke="black" d="M179,-581.366C179,-573.152 179,-563.658 179,-554.725"/>
<polygon fill="black" stroke="black" points="182.5,-554.607 179,-544.607 175.5,-554.607 182.5,-554.607"/>
</g>
<!-- 1315504409456 -->
<g id="node3" class="node"><title>1315504409456</title>
<polygon fill="none" stroke="black" points="2,-415.5 2,-461.5 356,-461.5 356,-415.5 2,-415.5"/>
<text text-anchor="middle" x="99" y="-434.8" font-family="Times New Roman,serif" font-size="14.00">drop_words: SpatialDropout1D</text>
<polyline fill="none" stroke="black" points="196,-415.5 196,-461.5 "/>
<text text-anchor="middle" x="224" y="-446.3" font-family="Times New Roman,serif" font-size="14.00">input:</text>
<polyline fill="none" stroke="black" points="196,-438.5 252,-438.5 "/>
<text text-anchor="middle" x="224" y="-423.3" font-family="Times New Roman,serif" font-size="14.00">output:</text>
<polyline fill="none" stroke="black" points="252,-415.5 252,-461.5 "/>
<text text-anchor="middle" x="304" y="-446.3" font-family="Times New Roman,serif" font-size="14.00">(None, 300, 50)</text>
<polyline fill="none" stroke="black" points="252,-438.5 356,-438.5 "/>
<text text-anchor="middle" x="304" y="-423.3" font-family="Times New Roman,serif" font-size="14.00">(None, 300, 50)</text>
</g>
<!-- 1315504409848&#45;&gt;1315504409456 -->
<g id="edge2" class="edge"><title>1315504409848&#45;&gt;1315504409456</title>
<path fill="none" stroke="black" d="M179,-498.366C179,-490.152 179,-480.658 179,-471.725"/>
<polygon fill="black" stroke="black" points="182.5,-471.607 179,-461.607 175.5,-471.607 182.5,-471.607"/>
</g>
<!-- 1315504410296 -->
<g id="node4" class="node"><title>1315504410296</title>
<polygon fill="none" stroke="black" points="0,-332.5 0,-378.5 358,-378.5 358,-332.5 0,-332.5"/>
<text text-anchor="middle" x="99" y="-351.8" font-family="Times New Roman,serif" font-size="14.00">mask_dropped_words: Masking</text>
<polyline fill="none" stroke="black" points="198,-332.5 198,-378.5 "/>
<text text-anchor="middle" x="226" y="-363.3" font-family="Times New Roman,serif" font-size="14.00">input:</text>
<polyline fill="none" stroke="black" points="198,-355.5 254,-355.5 "/>
<text text-anchor="middle" x="226" y="-340.3" font-family="Times New Roman,serif" font-size="14.00">output:</text>
<polyline fill="none" stroke="black" points="254,-332.5 254,-378.5 "/>
<text text-anchor="middle" x="306" y="-363.3" font-family="Times New Roman,serif" font-size="14.00">(None, 300, 50)</text>
<polyline fill="none" stroke="black" points="254,-355.5 358,-355.5 "/>
<text text-anchor="middle" x="306" y="-340.3" font-family="Times New Roman,serif" font-size="14.00">(None, 300, 50)</text>
</g>
<!-- 1315504409456&#45;&gt;1315504410296 -->
<g id="edge3" class="edge"><title>1315504409456&#45;&gt;1315504410296</title>
<path fill="none" stroke="black" d="M179,-415.366C179,-407.152 179,-397.658 179,-388.725"/>
<polygon fill="black" stroke="black" points="182.5,-388.607 179,-378.607 175.5,-388.607 182.5,-388.607"/>
</g>
<!-- 1315504409512 -->
<g id="node5" class="node"><title>1315504409512</title>
<polygon fill="none" stroke="black" points="59.5,-249.5 59.5,-295.5 298.5,-295.5 298.5,-249.5 59.5,-249.5"/>
<text text-anchor="middle" x="99" y="-268.8" font-family="Times New Roman,serif" font-size="14.00">rnn: LSTM</text>
<polyline fill="none" stroke="black" points="138.5,-249.5 138.5,-295.5 "/>
<text text-anchor="middle" x="166.5" y="-280.3" font-family="Times New Roman,serif" font-size="14.00">input:</text>
<polyline fill="none" stroke="black" points="138.5,-272.5 194.5,-272.5 "/>
<text text-anchor="middle" x="166.5" y="-257.3" font-family="Times New Roman,serif" font-size="14.00">output:</text>
<polyline fill="none" stroke="black" points="194.5,-249.5 194.5,-295.5 "/>
<text text-anchor="middle" x="246.5" y="-280.3" font-family="Times New Roman,serif" font-size="14.00">(None, 300, 50)</text>
<polyline fill="none" stroke="black" points="194.5,-272.5 298.5,-272.5 "/>
<text text-anchor="middle" x="246.5" y="-257.3" font-family="Times New Roman,serif" font-size="14.00">(None, 150)</text>
</g>
<!-- 1315504410296&#45;&gt;1315504409512 -->
<g id="edge4" class="edge"><title>1315504410296&#45;&gt;1315504409512</title>
<path fill="none" stroke="black" d="M179,-332.366C179,-324.152 179,-314.658 179,-305.725"/>
<polygon fill="black" stroke="black" points="182.5,-305.607 179,-295.607 175.5,-305.607 182.5,-305.607"/>
</g>
<!-- 1317554888432 -->
<g id="node6" class="node"><title>1317554888432</title>
<polygon fill="none" stroke="black" points="41,-166.5 41,-212.5 317,-212.5 317,-166.5 41,-166.5"/>
<text text-anchor="middle" x="109.5" y="-185.8" font-family="Times New Roman,serif" font-size="14.00">dense_drop: Dropout</text>
<polyline fill="none" stroke="black" points="178,-166.5 178,-212.5 "/>
<text text-anchor="middle" x="206" y="-197.3" font-family="Times New Roman,serif" font-size="14.00">input:</text>
<polyline fill="none" stroke="black" points="178,-189.5 234,-189.5 "/>
<text text-anchor="middle" x="206" y="-174.3" font-family="Times New Roman,serif" font-size="14.00">output:</text>
<polyline fill="none" stroke="black" points="234,-166.5 234,-212.5 "/>
<text text-anchor="middle" x="275.5" y="-197.3" font-family="Times New Roman,serif" font-size="14.00">(None, 150)</text>
<polyline fill="none" stroke="black" points="234,-189.5 317,-189.5 "/>
<text text-anchor="middle" x="275.5" y="-174.3" font-family="Times New Roman,serif" font-size="14.00">(None, 150)</text>
</g>
<!-- 1315504409512&#45;&gt;1317554888432 -->
<g id="edge5" class="edge"><title>1315504409512&#45;&gt;1317554888432</title>
<path fill="none" stroke="black" d="M179,-249.366C179,-241.152 179,-231.658 179,-222.725"/>
<polygon fill="black" stroke="black" points="182.5,-222.607 179,-212.607 175.5,-222.607 182.5,-222.607"/>
</g>
<!-- 1317554885296 -->
<g id="node7" class="node"><title>1317554885296</title>
<polygon fill="none" stroke="black" points="38.5,-83.5 38.5,-129.5 319.5,-129.5 319.5,-83.5 38.5,-83.5"/>
<text text-anchor="middle" x="109.5" y="-102.8" font-family="Times New Roman,serif" font-size="14.00">dense_sigmoid: Dense</text>
<polyline fill="none" stroke="black" points="180.5,-83.5 180.5,-129.5 "/>
<text text-anchor="middle" x="208.5" y="-114.3" font-family="Times New Roman,serif" font-size="14.00">input:</text>
<polyline fill="none" stroke="black" points="180.5,-106.5 236.5,-106.5 "/>
<text text-anchor="middle" x="208.5" y="-91.3" font-family="Times New Roman,serif" font-size="14.00">output:</text>
<polyline fill="none" stroke="black" points="236.5,-83.5 236.5,-129.5 "/>
<text text-anchor="middle" x="278" y="-114.3" font-family="Times New Roman,serif" font-size="14.00">(None, 150)</text>
<polyline fill="none" stroke="black" points="236.5,-106.5 319.5,-106.5 "/>
<text text-anchor="middle" x="278" y="-91.3" font-family="Times New Roman,serif" font-size="14.00">(None, 75)</text>
</g>
<!-- 1317554888432&#45;&gt;1317554885296 -->
<g id="edge6" class="edge"><title>1317554888432&#45;&gt;1317554885296</title>
<path fill="none" stroke="black" d="M179,-166.366C179,-158.152 179,-148.658 179,-139.725"/>
<polygon fill="black" stroke="black" points="182.5,-139.607 179,-129.607 175.5,-139.607 182.5,-139.607"/>
</g>
<!-- 1317554887088 -->
<g id="node8" class="node"><title>1317554887088</title>
<polygon fill="none" stroke="black" points="33,-0.5 33,-46.5 325,-46.5 325,-0.5 33,-0.5"/>
<text text-anchor="middle" x="112.5" y="-19.8" font-family="Times New Roman,serif" font-size="14.00">avg_pred: GlobalAverage</text>
<polyline fill="none" stroke="black" points="192,-0.5 192,-46.5 "/>
<text text-anchor="middle" x="220" y="-31.3" font-family="Times New Roman,serif" font-size="14.00">input:</text>
<polyline fill="none" stroke="black" points="192,-23.5 248,-23.5 "/>
<text text-anchor="middle" x="220" y="-8.3" font-family="Times New Roman,serif" font-size="14.00">output:</text>
<polyline fill="none" stroke="black" points="248,-0.5 248,-46.5 "/>
<text text-anchor="middle" x="286.5" y="-31.3" font-family="Times New Roman,serif" font-size="14.00">(None, 75)</text>
<polyline fill="none" stroke="black" points="248,-23.5 325,-23.5 "/>
<text text-anchor="middle" x="286.5" y="-8.3" font-family="Times New Roman,serif" font-size="14.00">(None, 1)</text>
</g>
<!-- 1317554885296&#45;&gt;1317554887088 -->
<g id="edge7" class="edge"><title>1317554885296&#45;&gt;1317554887088</title>
<path fill="none" stroke="black" d="M179,-83.3664C179,-75.1516 179,-65.6579 179,-56.7252"/>
<polygon fill="black" stroke="black" points="182.5,-56.6068 179,-46.6068 175.5,-56.6069 182.5,-56.6068"/>
</g>
</g>
</svg>
