<?xml version="1.0" encoding="utf-8" standalone="no"?>
<!DOCTYPE svg PUBLIC "-//W3C//DTD SVG 1.1//EN"
  "http://www.w3.org/Graphics/SVG/1.1/DTD/svg11.dtd">
<!-- Created with matplotlib (http://matplotlib.org/) -->
<svg height="288pt" version="1.1" viewBox="0 0 432 288" width="432pt" xmlns="http://www.w3.org/2000/svg" xmlns:xlink="http://www.w3.org/1999/xlink">
 <defs>
  <style type="text/css">
*{stroke-linecap:butt;stroke-linejoin:round;}
  </style>
 </defs>
 <g id="figure_1">
  <g id="patch_1">
   <path d="M 0 288 
L 432 288 
L 432 0 
L 0 0 
z
" style="fill:#ffffff;"/>
  </g>
  <g id="axes_1">
   <g id="patch_2">
    <path d="M 54 252 
L 388.8 252 
L 388.8 34.56 
L 54 34.56 
z
" style="fill:#ffffff;"/>
   </g>
   <g id="matplotlib.axis_1">
    <g id="xtick_1">
     <g id="line2d_1">
      <defs>
       <path d="M 0 0 
L 0 3.5 
" id="m7bbcb15d17" style="stroke:#000000;stroke-width:0.8;"/>
      </defs>
      <g>
       <use style="stroke:#000000;stroke-width:0.8;" x="69.218182" xlink:href="#m7bbcb15d17" y="252"/>
      </g>
     </g>
     <g id="text_1">
      <!-- 0 -->
      <defs>
       <path d="M 31.78125 66.40625 
Q 24.171875 66.40625 20.328125 58.90625 
Q 16.5 51.421875 16.5 36.375 
Q 16.5 21.390625 20.328125 13.890625 
Q 24.171875 6.390625 31.78125 6.390625 
Q 39.453125 6.390625 43.28125 13.890625 
Q 47.125 21.390625 47.125 36.375 
Q 47.125 51.421875 43.28125 58.90625 
Q 39.453125 66.40625 31.78125 66.40625 
z
M 31.78125 74.21875 
Q 44.046875 74.21875 50.515625 64.515625 
Q 56.984375 54.828125 56.984375 36.375 
Q 56.984375 17.96875 50.515625 8.265625 
Q 44.046875 -1.421875 31.78125 -1.421875 
Q 19.53125 -1.421875 13.0625 8.265625 
Q 6.59375 17.96875 6.59375 36.375 
Q 6.59375 54.828125 13.0625 64.515625 
Q 19.53125 74.21875 31.78125 74.21875 
z
" id="DejaVuSans-30"/>
      </defs>
      <g transform="translate(66.036932 266.598437)scale(0.1 -0.1)">
       <use xlink:href="#DejaVuSans-30"/>
      </g>
     </g>
    </g>
    <g id="xtick_2">
     <g id="line2d_2">
      <g>
       <use style="stroke:#000000;stroke-width:0.8;" x="140.665045" xlink:href="#m7bbcb15d17" y="252"/>
      </g>
     </g>
     <g id="text_2">
      <!-- 100 -->
      <defs>
       <path d="M 12.40625 8.296875 
L 28.515625 8.296875 
L 28.515625 63.921875 
L 10.984375 60.40625 
L 10.984375 69.390625 
L 28.421875 72.90625 
L 38.28125 72.90625 
L 38.28125 8.296875 
L 54.390625 8.296875 
L 54.390625 0 
L 12.40625 0 
z
" id="DejaVuSans-31"/>
      </defs>
      <g transform="translate(131.121295 266.598437)scale(0.1 -0.1)">
       <use xlink:href="#DejaVuSans-31"/>
       <use x="63.623047" xlink:href="#DejaVuSans-30"/>
       <use x="127.246094" xlink:href="#DejaVuSans-30"/>
      </g>
     </g>
    </g>
    <g id="xtick_3">
     <g id="line2d_3">
      <g>
       <use style="stroke:#000000;stroke-width:0.8;" x="212.111908" xlink:href="#m7bbcb15d17" y="252"/>
      </g>
     </g>
     <g id="text_3">
      <!-- 200 -->
      <defs>
       <path d="M 19.1875 8.296875 
L 53.609375 8.296875 
L 53.609375 0 
L 7.328125 0 
L 7.328125 8.296875 
Q 12.9375 14.109375 22.625 23.890625 
Q 32.328125 33.6875 34.8125 36.53125 
Q 39.546875 41.84375 41.421875 45.53125 
Q 43.3125 49.21875 43.3125 52.78125 
Q 43.3125 58.59375 39.234375 62.25 
Q 35.15625 65.921875 28.609375 65.921875 
Q 23.96875 65.921875 18.8125 64.3125 
Q 13.671875 62.703125 7.8125 59.421875 
L 7.8125 69.390625 
Q 13.765625 71.78125 18.9375 73 
Q 24.125 74.21875 28.421875 74.21875 
Q 39.75 74.21875 46.484375 68.546875 
Q 53.21875 62.890625 53.21875 53.421875 
Q 53.21875 48.921875 51.53125 44.890625 
Q 49.859375 40.875 45.40625 35.40625 
Q 44.1875 33.984375 37.640625 27.21875 
Q 31.109375 20.453125 19.1875 8.296875 
z
" id="DejaVuSans-32"/>
      </defs>
      <g transform="translate(202.568158 266.598437)scale(0.1 -0.1)">
       <use xlink:href="#DejaVuSans-32"/>
       <use x="63.623047" xlink:href="#DejaVuSans-30"/>
       <use x="127.246094" xlink:href="#DejaVuSans-30"/>
      </g>
     </g>
    </g>
    <g id="xtick_4">
     <g id="line2d_4">
      <g>
       <use style="stroke:#000000;stroke-width:0.8;" x="283.558771" xlink:href="#m7bbcb15d17" y="252"/>
      </g>
     </g>
     <g id="text_4">
      <!-- 300 -->
      <defs>
       <path d="M 40.578125 39.3125 
Q 47.65625 37.796875 51.625 33 
Q 55.609375 28.21875 55.609375 21.1875 
Q 55.609375 10.40625 48.1875 4.484375 
Q 40.765625 -1.421875 27.09375 -1.421875 
Q 22.515625 -1.421875 17.65625 -0.515625 
Q 12.796875 0.390625 7.625 2.203125 
L 7.625 11.71875 
Q 11.71875 9.328125 16.59375 8.109375 
Q 21.484375 6.890625 26.8125 6.890625 
Q 36.078125 6.890625 40.9375 10.546875 
Q 45.796875 14.203125 45.796875 21.1875 
Q 45.796875 27.640625 41.28125 31.265625 
Q 36.765625 34.90625 28.71875 34.90625 
L 20.21875 34.90625 
L 20.21875 43.015625 
L 29.109375 43.015625 
Q 36.375 43.015625 40.234375 45.921875 
Q 44.09375 48.828125 44.09375 54.296875 
Q 44.09375 59.90625 40.109375 62.90625 
Q 36.140625 65.921875 28.71875 65.921875 
Q 24.65625 65.921875 20.015625 65.03125 
Q 15.375 64.15625 9.8125 62.3125 
L 9.8125 71.09375 
Q 15.4375 72.65625 20.34375 73.4375 
Q 25.25 74.21875 29.59375 74.21875 
Q 40.828125 74.21875 47.359375 69.109375 
Q 53.90625 64.015625 53.90625 55.328125 
Q 53.90625 49.265625 50.4375 45.09375 
Q 46.96875 40.921875 40.578125 39.3125 
z
" id="DejaVuSans-33"/>
      </defs>
      <g transform="translate(274.015021 266.598437)scale(0.1 -0.1)">
       <use xlink:href="#DejaVuSans-33"/>
       <use x="63.623047" xlink:href="#DejaVuSans-30"/>
       <use x="127.246094" xlink:href="#DejaVuSans-30"/>
      </g>
     </g>
    </g>
    <g id="xtick_5">
     <g id="line2d_5">
      <g>
       <use style="stroke:#000000;stroke-width:0.8;" x="355.005634" xlink:href="#m7bbcb15d17" y="252"/>
      </g>
     </g>
     <g id="text_5">
      <!-- 400 -->
      <defs>
       <path d="M 37.796875 64.3125 
L 12.890625 25.390625 
L 37.796875 25.390625 
z
M 35.203125 72.90625 
L 47.609375 72.90625 
L 47.609375 25.390625 
L 58.015625 25.390625 
L 58.015625 17.1875 
L 47.609375 17.1875 
L 47.609375 0 
L 37.796875 0 
L 37.796875 17.1875 
L 4.890625 17.1875 
L 4.890625 26.703125 
z
" id="DejaVuSans-34"/>
      </defs>
      <g transform="translate(345.461884 266.598437)scale(0.1 -0.1)">
       <use xlink:href="#DejaVuSans-34"/>
       <use x="63.623047" xlink:href="#DejaVuSans-30"/>
       <use x="127.246094" xlink:href="#DejaVuSans-30"/>
      </g>
     </g>
    </g>
    <g id="text_6">
     <!-- Epoch -->
     <defs>
      <path d="M 9.8125 72.90625 
L 55.90625 72.90625 
L 55.90625 64.59375 
L 19.671875 64.59375 
L 19.671875 43.015625 
L 54.390625 43.015625 
L 54.390625 34.71875 
L 19.671875 34.71875 
L 19.671875 8.296875 
L 56.78125 8.296875 
L 56.78125 0 
L 9.8125 0 
z
" id="DejaVuSans-45"/>
      <path d="M 18.109375 8.203125 
L 18.109375 -20.796875 
L 9.078125 -20.796875 
L 9.078125 54.6875 
L 18.109375 54.6875 
L 18.109375 46.390625 
Q 20.953125 51.265625 25.265625 53.625 
Q 29.59375 56 35.59375 56 
Q 45.5625 56 51.78125 48.09375 
Q 58.015625 40.1875 58.015625 27.296875 
Q 58.015625 14.40625 51.78125 6.484375 
Q 45.5625 -1.421875 35.59375 -1.421875 
Q 29.59375 -1.421875 25.265625 0.953125 
Q 20.953125 3.328125 18.109375 8.203125 
z
M 48.6875 27.296875 
Q 48.6875 37.203125 44.609375 42.84375 
Q 40.53125 48.484375 33.40625 48.484375 
Q 26.265625 48.484375 22.1875 42.84375 
Q 18.109375 37.203125 18.109375 27.296875 
Q 18.109375 17.390625 22.1875 11.75 
Q 26.265625 6.109375 33.40625 6.109375 
Q 40.53125 6.109375 44.609375 11.75 
Q 48.6875 17.390625 48.6875 27.296875 
z
" id="DejaVuSans-70"/>
      <path d="M 30.609375 48.390625 
Q 23.390625 48.390625 19.1875 42.75 
Q 14.984375 37.109375 14.984375 27.296875 
Q 14.984375 17.484375 19.15625 11.84375 
Q 23.34375 6.203125 30.609375 6.203125 
Q 37.796875 6.203125 41.984375 11.859375 
Q 46.1875 17.53125 46.1875 27.296875 
Q 46.1875 37.015625 41.984375 42.703125 
Q 37.796875 48.390625 30.609375 48.390625 
z
M 30.609375 56 
Q 42.328125 56 49.015625 48.375 
Q 55.71875 40.765625 55.71875 27.296875 
Q 55.71875 13.875 49.015625 6.21875 
Q 42.328125 -1.421875 30.609375 -1.421875 
Q 18.84375 -1.421875 12.171875 6.21875 
Q 5.515625 13.875 5.515625 27.296875 
Q 5.515625 40.765625 12.171875 48.375 
Q 18.84375 56 30.609375 56 
z
" id="DejaVuSans-6f"/>
      <path d="M 48.78125 52.59375 
L 48.78125 44.1875 
Q 44.96875 46.296875 41.140625 47.34375 
Q 37.3125 48.390625 33.40625 48.390625 
Q 24.65625 48.390625 19.8125 42.84375 
Q 14.984375 37.3125 14.984375 27.296875 
Q 14.984375 17.28125 19.8125 11.734375 
Q 24.65625 6.203125 33.40625 6.203125 
Q 37.3125 6.203125 41.140625 7.25 
Q 44.96875 8.296875 48.78125 10.40625 
L 48.78125 2.09375 
Q 45.015625 0.34375 40.984375 -0.53125 
Q 36.96875 -1.421875 32.421875 -1.421875 
Q 20.0625 -1.421875 12.78125 6.34375 
Q 5.515625 14.109375 5.515625 27.296875 
Q 5.515625 40.671875 12.859375 48.328125 
Q 20.21875 56 33.015625 56 
Q 37.15625 56 41.109375 55.140625 
Q 45.0625 54.296875 48.78125 52.59375 
z
" id="DejaVuSans-63"/>
      <path d="M 54.890625 33.015625 
L 54.890625 0 
L 45.90625 0 
L 45.90625 32.71875 
Q 45.90625 40.484375 42.875 44.328125 
Q 39.84375 48.1875 33.796875 48.1875 
Q 26.515625 48.1875 22.3125 43.546875 
Q 18.109375 38.921875 18.109375 30.90625 
L 18.109375 0 
L 9.078125 0 
L 9.078125 75.984375 
L 18.109375 75.984375 
L 18.109375 46.1875 
Q 21.34375 51.125 25.703125 53.5625 
Q 30.078125 56 35.796875 56 
Q 45.21875 56 50.046875 50.171875 
Q 54.890625 44.34375 54.890625 33.015625 
z
" id="DejaVuSans-68"/>
     </defs>
     <g transform="translate(206.089063 280.276563)scale(0.1 -0.1)">
      <use xlink:href="#DejaVuSans-45"/>
      <use x="63.183594" xlink:href="#DejaVuSans-70"/>
      <use x="126.660156" xlink:href="#DejaVuSans-6f"/>
      <use x="187.841797" xlink:href="#DejaVuSans-63"/>
      <use x="242.822266" xlink:href="#DejaVuSans-68"/>
     </g>
    </g>
   </g>
   <g id="matplotlib.axis_2">
    <g id="ytick_1">
     <g id="line2d_6">
      <defs>
       <path d="M 0 0 
L -3.5 0 
" id="mb021e2c15d" style="stroke:#000000;stroke-width:0.8;"/>
      </defs>
      <g>
       <use style="stroke:#000000;stroke-width:0.8;" x="54" xlink:href="#mb021e2c15d" y="230.631514"/>
      </g>
     </g>
     <g id="text_7">
      <!-- 0.50 -->
      <defs>
       <path d="M 10.6875 12.40625 
L 21 12.40625 
L 21 0 
L 10.6875 0 
z
" id="DejaVuSans-2e"/>
       <path d="M 10.796875 72.90625 
L 49.515625 72.90625 
L 49.515625 64.59375 
L 19.828125 64.59375 
L 19.828125 46.734375 
Q 21.96875 47.46875 24.109375 47.828125 
Q 26.265625 48.1875 28.421875 48.1875 
Q 40.625 48.1875 47.75 41.5 
Q 54.890625 34.8125 54.890625 23.390625 
Q 54.890625 11.625 47.5625 5.09375 
Q 40.234375 -1.421875 26.90625 -1.421875 
Q 22.3125 -1.421875 17.546875 -0.640625 
Q 12.796875 0.140625 7.71875 1.703125 
L 7.71875 11.625 
Q 12.109375 9.234375 16.796875 8.0625 
Q 21.484375 6.890625 26.703125 6.890625 
Q 35.15625 6.890625 40.078125 11.328125 
Q 45.015625 15.765625 45.015625 23.390625 
Q 45.015625 31 40.078125 35.4375 
Q 35.15625 39.890625 26.703125 39.890625 
Q 22.75 39.890625 18.8125 39.015625 
Q 14.890625 38.140625 10.796875 36.28125 
z
" id="DejaVuSans-35"/>
      </defs>
      <g transform="translate(24.734375 234.430733)scale(0.1 -0.1)">
       <use xlink:href="#DejaVuSans-30"/>
       <use x="63.623047" xlink:href="#DejaVuSans-2e"/>
       <use x="95.410156" xlink:href="#DejaVuSans-35"/>
       <use x="159.033203" xlink:href="#DejaVuSans-30"/>
      </g>
     </g>
    </g>
    <g id="ytick_2">
     <g id="line2d_7">
      <g>
       <use style="stroke:#000000;stroke-width:0.8;" x="54" xlink:href="#mb021e2c15d" y="201.377855"/>
      </g>
     </g>
     <g id="text_8">
      <!-- 0.52 -->
      <g transform="translate(24.734375 205.177074)scale(0.1 -0.1)">
       <use xlink:href="#DejaVuSans-30"/>
       <use x="63.623047" xlink:href="#DejaVuSans-2e"/>
       <use x="95.410156" xlink:href="#DejaVuSans-35"/>
       <use x="159.033203" xlink:href="#DejaVuSans-32"/>
      </g>
     </g>
    </g>
    <g id="ytick_3">
     <g id="line2d_8">
      <g>
       <use style="stroke:#000000;stroke-width:0.8;" x="54" xlink:href="#mb021e2c15d" y="172.124195"/>
      </g>
     </g>
     <g id="text_9">
      <!-- 0.54 -->
      <g transform="translate(24.734375 175.923414)scale(0.1 -0.1)">
       <use xlink:href="#DejaVuSans-30"/>
       <use x="63.623047" xlink:href="#DejaVuSans-2e"/>
       <use x="95.410156" xlink:href="#DejaVuSans-35"/>
       <use x="159.033203" xlink:href="#DejaVuSans-34"/>
      </g>
     </g>
    </g>
    <g id="ytick_4">
     <g id="line2d_9">
      <g>
       <use style="stroke:#000000;stroke-width:0.8;" x="54" xlink:href="#mb021e2c15d" y="142.870536"/>
      </g>
     </g>
     <g id="text_10">
      <!-- 0.56 -->
      <defs>
       <path d="M 33.015625 40.375 
Q 26.375 40.375 22.484375 35.828125 
Q 18.609375 31.296875 18.609375 23.390625 
Q 18.609375 15.53125 22.484375 10.953125 
Q 26.375 6.390625 33.015625 6.390625 
Q 39.65625 6.390625 43.53125 10.953125 
Q 47.40625 15.53125 47.40625 23.390625 
Q 47.40625 31.296875 43.53125 35.828125 
Q 39.65625 40.375 33.015625 40.375 
z
M 52.59375 71.296875 
L 52.59375 62.3125 
Q 48.875 64.0625 45.09375 64.984375 
Q 41.3125 65.921875 37.59375 65.921875 
Q 27.828125 65.921875 22.671875 59.328125 
Q 17.53125 52.734375 16.796875 39.40625 
Q 19.671875 43.65625 24.015625 45.921875 
Q 28.375 48.1875 33.59375 48.1875 
Q 44.578125 48.1875 50.953125 41.515625 
Q 57.328125 34.859375 57.328125 23.390625 
Q 57.328125 12.15625 50.6875 5.359375 
Q 44.046875 -1.421875 33.015625 -1.421875 
Q 20.359375 -1.421875 13.671875 8.265625 
Q 6.984375 17.96875 6.984375 36.375 
Q 6.984375 53.65625 15.1875 63.9375 
Q 23.390625 74.21875 37.203125 74.21875 
Q 40.921875 74.21875 44.703125 73.484375 
Q 48.484375 72.75 52.59375 71.296875 
z
" id="DejaVuSans-36"/>
      </defs>
      <g transform="translate(24.734375 146.669755)scale(0.1 -0.1)">
       <use xlink:href="#DejaVuSans-30"/>
       <use x="63.623047" xlink:href="#DejaVuSans-2e"/>
       <use x="95.410156" xlink:href="#DejaVuSans-35"/>
       <use x="159.033203" xlink:href="#DejaVuSans-36"/>
      </g>
     </g>
    </g>
    <g id="ytick_5">
     <g id="line2d_10">
      <g>
       <use style="stroke:#000000;stroke-width:0.8;" x="54" xlink:href="#mb021e2c15d" y="113.616877"/>
      </g>
     </g>
     <g id="text_11">
      <!-- 0.58 -->
      <defs>
       <path d="M 31.78125 34.625 
Q 24.75 34.625 20.71875 30.859375 
Q 16.703125 27.09375 16.703125 20.515625 
Q 16.703125 13.921875 20.71875 10.15625 
Q 24.75 6.390625 31.78125 6.390625 
Q 38.8125 6.390625 42.859375 10.171875 
Q 46.921875 13.96875 46.921875 20.515625 
Q 46.921875 27.09375 42.890625 30.859375 
Q 38.875 34.625 31.78125 34.625 
z
M 21.921875 38.8125 
Q 15.578125 40.375 12.03125 44.71875 
Q 8.5 49.078125 8.5 55.328125 
Q 8.5 64.0625 14.71875 69.140625 
Q 20.953125 74.21875 31.78125 74.21875 
Q 42.671875 74.21875 48.875 69.140625 
Q 55.078125 64.0625 55.078125 55.328125 
Q 55.078125 49.078125 51.53125 44.71875 
Q 48 40.375 41.703125 38.8125 
Q 48.828125 37.15625 52.796875 32.3125 
Q 56.78125 27.484375 56.78125 20.515625 
Q 56.78125 9.90625 50.3125 4.234375 
Q 43.84375 -1.421875 31.78125 -1.421875 
Q 19.734375 -1.421875 13.25 4.234375 
Q 6.78125 9.90625 6.78125 20.515625 
Q 6.78125 27.484375 10.78125 32.3125 
Q 14.796875 37.15625 21.921875 38.8125 
z
M 18.3125 54.390625 
Q 18.3125 48.734375 21.84375 45.5625 
Q 25.390625 42.390625 31.78125 42.390625 
Q 38.140625 42.390625 41.71875 45.5625 
Q 45.3125 48.734375 45.3125 54.390625 
Q 45.3125 60.0625 41.71875 63.234375 
Q 38.140625 66.40625 31.78125 66.40625 
Q 25.390625 66.40625 21.84375 63.234375 
Q 18.3125 60.0625 18.3125 54.390625 
z
" id="DejaVuSans-38"/>
      </defs>
      <g transform="translate(24.734375 117.416095)scale(0.1 -0.1)">
       <use xlink:href="#DejaVuSans-30"/>
       <use x="63.623047" xlink:href="#DejaVuSans-2e"/>
       <use x="95.410156" xlink:href="#DejaVuSans-35"/>
       <use x="159.033203" xlink:href="#DejaVuSans-38"/>
      </g>
     </g>
    </g>
    <g id="ytick_6">
     <g id="line2d_11">
      <g>
       <use style="stroke:#000000;stroke-width:0.8;" x="54" xlink:href="#mb021e2c15d" y="84.363217"/>
      </g>
     </g>
     <g id="text_12">
      <!-- 0.60 -->
      <g transform="translate(24.734375 88.162436)scale(0.1 -0.1)">
       <use xlink:href="#DejaVuSans-30"/>
       <use x="63.623047" xlink:href="#DejaVuSans-2e"/>
       <use x="95.410156" xlink:href="#DejaVuSans-36"/>
       <use x="159.033203" xlink:href="#DejaVuSans-30"/>
      </g>
     </g>
    </g>
    <g id="ytick_7">
     <g id="line2d_12">
      <g>
       <use style="stroke:#000000;stroke-width:0.8;" x="54" xlink:href="#mb021e2c15d" y="55.109558"/>
      </g>
     </g>
     <g id="text_13">
      <!-- 0.62 -->
      <g transform="translate(24.734375 58.908777)scale(0.1 -0.1)">
       <use xlink:href="#DejaVuSans-30"/>
       <use x="63.623047" xlink:href="#DejaVuSans-2e"/>
       <use x="95.410156" xlink:href="#DejaVuSans-36"/>
       <use x="159.033203" xlink:href="#DejaVuSans-32"/>
      </g>
     </g>
    </g>
    <g id="text_14">
     <!-- Log loss -->
     <defs>
      <path d="M 9.8125 72.90625 
L 19.671875 72.90625 
L 19.671875 8.296875 
L 55.171875 8.296875 
L 55.171875 0 
L 9.8125 0 
z
" id="DejaVuSans-4c"/>
      <path d="M 45.40625 27.984375 
Q 45.40625 37.75 41.375 43.109375 
Q 37.359375 48.484375 30.078125 48.484375 
Q 22.859375 48.484375 18.828125 43.109375 
Q 14.796875 37.75 14.796875 27.984375 
Q 14.796875 18.265625 18.828125 12.890625 
Q 22.859375 7.515625 30.078125 7.515625 
Q 37.359375 7.515625 41.375 12.890625 
Q 45.40625 18.265625 45.40625 27.984375 
z
M 54.390625 6.78125 
Q 54.390625 -7.171875 48.1875 -13.984375 
Q 42 -20.796875 29.203125 -20.796875 
Q 24.46875 -20.796875 20.265625 -20.09375 
Q 16.0625 -19.390625 12.109375 -17.921875 
L 12.109375 -9.1875 
Q 16.0625 -11.328125 19.921875 -12.34375 
Q 23.78125 -13.375 27.78125 -13.375 
Q 36.625 -13.375 41.015625 -8.765625 
Q 45.40625 -4.15625 45.40625 5.171875 
L 45.40625 9.625 
Q 42.625 4.78125 38.28125 2.390625 
Q 33.9375 0 27.875 0 
Q 17.828125 0 11.671875 7.65625 
Q 5.515625 15.328125 5.515625 27.984375 
Q 5.515625 40.671875 11.671875 48.328125 
Q 17.828125 56 27.875 56 
Q 33.9375 56 38.28125 53.609375 
Q 42.625 51.21875 45.40625 46.390625 
L 45.40625 54.6875 
L 54.390625 54.6875 
z
" id="DejaVuSans-67"/>
      <path id="DejaVuSans-20"/>
      <path d="M 9.421875 75.984375 
L 18.40625 75.984375 
L 18.40625 0 
L 9.421875 0 
z
" id="DejaVuSans-6c"/>
      <path d="M 44.28125 53.078125 
L 44.28125 44.578125 
Q 40.484375 46.53125 36.375 47.5 
Q 32.28125 48.484375 27.875 48.484375 
Q 21.1875 48.484375 17.84375 46.4375 
Q 14.5 44.390625 14.5 40.28125 
Q 14.5 37.15625 16.890625 35.375 
Q 19.28125 33.59375 26.515625 31.984375 
L 29.59375 31.296875 
Q 39.15625 29.25 43.1875 25.515625 
Q 47.21875 21.78125 47.21875 15.09375 
Q 47.21875 7.46875 41.1875 3.015625 
Q 35.15625 -1.421875 24.609375 -1.421875 
Q 20.21875 -1.421875 15.453125 -0.5625 
Q 10.6875 0.296875 5.421875 2 
L 5.421875 11.28125 
Q 10.40625 8.6875 15.234375 7.390625 
Q 20.0625 6.109375 24.8125 6.109375 
Q 31.15625 6.109375 34.5625 8.28125 
Q 37.984375 10.453125 37.984375 14.40625 
Q 37.984375 18.0625 35.515625 20.015625 
Q 33.0625 21.96875 24.703125 23.78125 
L 21.578125 24.515625 
Q 13.234375 26.265625 9.515625 29.90625 
Q 5.8125 33.546875 5.8125 39.890625 
Q 5.8125 47.609375 11.28125 51.796875 
Q 16.75 56 26.8125 56 
Q 31.78125 56 36.171875 55.265625 
Q 40.578125 54.546875 44.28125 53.078125 
z
" id="DejaVuSans-73"/>
     </defs>
     <g transform="translate(18.654687 163.545625)rotate(-90)scale(0.1 -0.1)">
      <use xlink:href="#DejaVuSans-4c"/>
      <use x="55.697266" xlink:href="#DejaVuSans-6f"/>
      <use x="116.878906" xlink:href="#DejaVuSans-67"/>
      <use x="180.355469" xlink:href="#DejaVuSans-20"/>
      <use x="212.142578" xlink:href="#DejaVuSans-6c"/>
      <use x="239.925781" xlink:href="#DejaVuSans-6f"/>
      <use x="301.107422" xlink:href="#DejaVuSans-73"/>
      <use x="353.207031" xlink:href="#DejaVuSans-73"/>
     </g>
    </g>
   </g>
   <g id="line2d_13">
    <path clip-path="url(#pf0fc1fe102)" d="M 69.218182 70.198285 
L 69.93265 71.499671 
L 70.647119 71.062238 
L 71.361588 69.645465 
L 72.790525 69.666582 
L 73.504994 69.045645 
L 74.219462 70.190656 
L 74.933931 68.891678 
L 75.648399 69.569863 
L 76.362868 68.759669 
L 77.077337 69.606543 
L 77.791805 70.250619 
L 78.506274 69.640951 
L 79.220743 68.534627 
L 79.935211 68.211015 
L 80.64968 69.737749 
L 81.364149 67.996689 
L 82.078617 68.467159 
L 82.793086 69.169294 
L 83.507554 69.100544 
L 84.222023 68.768032 
L 84.936492 70.081055 
L 85.65096 70.498757 
L 86.365429 69.578955 
L 87.079898 69.990748 
L 87.794366 67.657107 
L 88.508835 69.942297 
L 89.223303 70.057963 
L 89.937772 69.135403 
L 90.652241 69.834387 
L 91.366709 69.917092 
L 92.081178 70.263391 
L 92.795647 70.249855 
L 93.510115 69.121224 
L 94.224584 70.47868 
L 94.939052 70.39489 
L 95.653521 69.950941 
L 96.36799 70.117707 
L 97.082458 69.678815 
L 97.796927 69.439127 
L 98.511396 70.178735 
L 99.225864 69.908068 
L 99.940333 71.575624 
L 100.654802 70.105011 
L 101.36927 70.936084 
L 102.798207 71.236861 
L 103.512676 71.083859 
L 104.227145 71.488943 
L 104.941613 70.375278 
L 105.656082 70.930545 
L 106.370551 70.988627 
L 107.085019 70.122762 
L 107.799488 70.41026 
L 108.513956 72.367541 
L 109.228425 72.24342 
L 109.942894 70.479379 
L 110.657362 71.018257 
L 111.371831 71.929485 
L 112.0863 71.900949 
L 112.800768 73.067261 
L 113.515237 72.037301 
L 114.229706 72.842908 
L 114.944174 73.954547 
L 115.658643 73.458621 
L 116.373111 74.082454 
L 117.08758 71.575615 
L 117.802049 72.710113 
L 118.516517 73.225105 
L 119.230986 73.429054 
L 119.945455 74.105454 
L 120.659923 74.053948 
L 121.374392 73.51401 
L 122.08886 74.167577 
L 122.803329 74.978958 
L 123.517798 73.385572 
L 124.232266 73.913487 
L 124.946735 73.656332 
L 125.661204 73.016671 
L 126.375672 74.88949 
L 127.090141 76.13425 
L 127.804609 73.892534 
L 128.519078 75.903168 
L 129.233547 73.688304 
L 129.948015 74.26696 
L 130.662484 75.485751 
L 131.376953 74.804894 
L 132.091421 74.666379 
L 132.80589 74.277411 
L 133.520359 75.091373 
L 134.234827 74.875733 
L 134.949296 76.738777 
L 135.663764 76.398858 
L 136.378233 75.57557 
L 137.092702 76.361779 
L 137.80717 75.778311 
L 138.521639 75.525849 
L 139.236108 75.700146 
L 139.950576 76.210385 
L 140.665045 76.503752 
L 141.379513 78.095048 
L 142.093982 76.198725 
L 142.808451 77.137266 
L 144.237388 74.479192 
L 145.666325 77.175189 
L 146.380794 75.196662 
L 147.809731 77.175598 
L 148.5242 75.227836 
L 149.238668 77.334555 
L 149.953137 77.017518 
L 150.667606 77.169109 
L 151.382074 77.904109 
L 152.096543 77.290159 
L 152.811012 76.486899 
L 153.52548 74.705378 
L 154.239949 75.951191 
L 154.954417 78.618587 
L 155.668886 77.598783 
L 156.383355 77.689139 
L 157.097823 78.002581 
L 158.526761 77.646274 
L 159.241229 77.769186 
L 159.955698 79.567558 
L 160.670166 76.132277 
L 161.384635 77.553209 
L 162.813572 79.125929 
L 163.528041 76.012519 
L 164.24251 78.272283 
L 164.956978 78.144123 
L 165.671447 79.000905 
L 166.385915 78.304617 
L 167.100384 76.637643 
L 167.814853 76.491939 
L 168.529321 78.073161 
L 169.24379 79.301235 
L 169.958259 78.263628 
L 170.672727 76.44048 
L 171.387196 77.548702 
L 172.101665 79.07256 
L 172.816133 77.996843 
L 173.530602 79.22121 
L 174.24507 78.40906 
L 174.959539 77.901385 
L 175.674008 79.885659 
L 176.388476 79.256232 
L 177.102945 80.845567 
L 177.817414 77.759448 
L 178.531882 75.721519 
L 179.246351 76.65539 
L 179.960819 77.912388 
L 180.675288 76.712718 
L 181.389757 78.449672 
L 182.104225 79.886217 
L 182.818694 78.184719 
L 183.533163 80.006088 
L 184.247631 78.85033 
L 184.9621 79.651317 
L 185.676569 79.487364 
L 186.391037 77.107106 
L 187.105506 78.129305 
L 187.819974 79.476381 
L 188.534443 79.541555 
L 189.248912 80.006746 
L 189.96338 80.762346 
L 190.677849 79.126169 
L 191.392318 80.621513 
L 192.106786 78.261858 
L 192.821255 78.711998 
L 193.535723 80.594275 
L 194.250192 78.842848 
L 195.679129 79.504262 
L 196.393598 78.592118 
L 197.822535 80.342645 
L 198.537004 80.965427 
L 199.251472 79.54457 
L 199.965941 77.107391 
L 200.68041 77.334241 
L 201.394878 76.030826 
L 202.109347 80.737137 
L 202.823816 79.775946 
L 203.538284 80.824866 
L 204.252753 77.86532 
L 204.967222 79.460018 
L 205.68169 80.317737 
L 206.396159 79.450681 
L 207.110627 80.546948 
L 208.539565 80.673262 
L 209.254033 79.983589 
L 209.968502 78.676365 
L 210.682971 78.382685 
L 211.397439 80.162758 
L 212.111908 77.983119 
L 212.826376 79.41939 
L 213.540845 78.525295 
L 214.255314 78.857387 
L 214.969782 78.144791 
L 215.684251 80.642879 
L 216.39872 79.392087 
L 217.113188 77.674834 
L 217.827657 78.460975 
L 218.542125 76.100907 
L 219.971063 77.597808 
L 220.685531 79.528334 
L 221.4 77.865988 
L 222.114469 79.072444 
L 222.828937 76.948186 
L 223.543406 78.770999 
L 224.257875 76.968088 
L 224.972343 77.861909 
L 225.686812 77.776491 
L 227.115749 78.125623 
L 227.830218 77.713441 
L 228.544686 78.018951 
L 229.259155 76.916152 
L 229.973624 78.582017 
L 230.688092 77.251899 
L 231.402561 77.594289 
L 232.117029 78.331013 
L 232.831498 77.187172 
L 233.545967 79.673135 
L 234.260435 78.465998 
L 234.974904 79.278728 
L 235.689373 78.100916 
L 236.403841 77.760143 
L 237.11831 76.540857 
L 237.832778 77.905816 
L 238.547247 78.796471 
L 239.261716 76.416511 
L 239.976184 78.945492 
L 241.405122 76.211228 
L 242.11959 78.681485 
L 242.834059 75.494082 
L 243.548528 74.623713 
L 244.262996 75.128563 
L 244.977465 77.393978 
L 245.691933 78.744909 
L 246.406402 78.947481 
L 247.120871 77.145032 
L 247.835339 76.175621 
L 248.549808 75.869926 
L 249.264277 76.214332 
L 249.978745 75.511665 
L 250.693214 74.997556 
L 251.407682 75.004233 
L 252.122151 76.416933 
L 252.83662 76.01788 
L 253.551088 76.147508 
L 254.265557 75.941473 
L 254.980026 76.572812 
L 255.694494 76.139527 
L 256.408963 76.058289 
L 257.123431 76.817273 
L 257.8379 76.126203 
L 258.552369 76.063491 
L 259.266837 76.178611 
L 259.981306 75.455337 
L 262.124712 74.566348 
L 262.839181 74.998471 
L 263.553649 76.782499 
L 264.268118 75.703685 
L 264.982586 73.682253 
L 265.697055 74.218785 
L 266.411524 73.356905 
L 267.125992 75.601454 
L 267.840461 75.178527 
L 268.55493 76.097052 
L 269.269398 75.328548 
L 269.983867 75.355287 
L 270.698335 74.993192 
L 271.412804 73.178764 
L 272.127273 75.359423 
L 272.841741 74.616537 
L 273.55621 74.790404 
L 274.270679 72.905647 
L 274.985147 74.874594 
L 275.699616 74.055032 
L 276.414085 73.414701 
L 277.128553 73.448793 
L 277.843022 72.680892 
L 278.55749 72.336502 
L 279.271959 74.459697 
L 279.986428 72.952206 
L 280.700896 72.304097 
L 281.415365 70.99717 
L 282.129834 70.774602 
L 282.844302 73.450283 
L 283.558771 71.276327 
L 284.273239 69.579039 
L 284.987708 71.606306 
L 285.702177 70.934434 
L 286.416645 71.499323 
L 287.131114 73.782233 
L 287.845583 68.713177 
L 288.560051 70.925638 
L 289.27452 69.418485 
L 289.988988 71.720957 
L 292.132394 71.388685 
L 293.561332 69.086864 
L 294.2758 70.940416 
L 294.990269 69.707762 
L 295.704738 71.548759 
L 296.419206 69.025738 
L 297.133675 69.36378 
L 297.848143 68.651151 
L 298.562612 67.370297 
L 299.277081 69.337935 
L 299.991549 67.812045 
L 300.706018 68.436197 
L 302.134955 67.899458 
L 302.849424 68.435591 
L 303.563892 67.802973 
L 304.278361 68.449787 
L 304.99283 68.526452 
L 305.707298 70.689136 
L 306.421767 67.6494 
L 307.136236 66.641582 
L 307.850704 64.001441 
L 308.565173 67.808342 
L 309.279641 65.700907 
L 309.99411 64.748998 
L 310.708579 69.379665 
L 311.423047 65.397525 
L 312.137516 64.547946 
L 312.851985 64.073029 
L 313.566453 66.17286 
L 314.995391 64.926533 
L 315.709859 64.925548 
L 316.424328 65.705076 
L 317.138796 64.483832 
L 317.853265 62.604235 
L 318.567734 66.195506 
L 319.282202 63.383816 
L 319.996671 62.473555 
L 320.71114 65.171221 
L 321.425608 60.720269 
L 322.140077 61.418679 
L 322.854545 64.184402 
L 323.569014 65.151802 
L 324.283483 62.606651 
L 324.997951 62.020931 
L 325.71242 60.866879 
L 326.426889 61.481866 
L 327.141357 60.690383 
L 327.855826 58.895839 
L 328.570294 59.47173 
L 329.284763 58.062073 
L 329.999232 62.739864 
L 330.7137 59.764457 
L 331.428169 58.578135 
L 332.142638 59.689455 
L 332.857106 60.425168 
L 333.571575 60.668374 
L 334.286044 57.555842 
L 335.000512 56.075348 
L 335.714981 58.3847 
L 336.429449 57.967918 
L 337.143918 61.168588 
L 337.858387 61.536671 
L 338.572855 58.309351 
L 339.287324 58.23986 
L 340.001793 57.274466 
L 340.716261 57.428551 
L 341.43073 56.795306 
L 342.145198 57.817283 
L 343.574136 55.194533 
L 344.288604 58.779297 
L 345.003073 57.607163 
L 345.717542 56.722149 
L 346.43201 55.607781 
L 347.146479 56.686974 
L 347.860948 53.473844 
L 348.575416 54.768385 
L 349.289885 57.842039 
L 350.004353 59.012208 
L 350.718822 55.325489 
L 351.433291 55.231763 
L 352.147759 55.745052 
L 352.862228 52.659211 
L 353.576697 53.55964 
L 354.291165 52.550929 
L 355.005634 53.583448 
L 355.720102 55.993198 
L 356.434571 55.811022 
L 357.14904 53.331483 
L 357.863508 53.442895 
L 359.292446 51.344958 
L 360.006914 52.946483 
L 360.721383 52.111525 
L 361.435851 52.610627 
L 362.15032 50.56752 
L 362.864789 51.64842 
L 363.579257 53.063535 
L 364.293726 51.612266 
L 365.008195 49.368372 
L 366.437132 50.75704 
L 367.151601 51.465397 
L 367.866069 50.099178 
L 368.580538 50.668162 
L 369.295006 51.445442 
L 370.009475 49.828336 
L 370.723944 51.592901 
L 371.438412 49.593429 
L 372.152881 45.883611 
L 372.86735 48.216347 
L 373.581818 47.807166 
L 373.581818 47.807166 
" style="fill:none;stroke:#1f77b4;stroke-linecap:square;stroke-width:2;"/>
   </g>
   <g id="line2d_14">
    <path clip-path="url(#pf0fc1fe102)" d="M 69.218182 44.443636 
L 69.93265 47.658784 
L 70.647119 50.599423 
L 71.361588 50.985075 
L 72.076056 52.558418 
L 72.790525 52.038044 
L 73.504994 53.744839 
L 74.219462 54.123655 
L 74.933931 55.248391 
L 75.648399 55.561389 
L 76.362868 56.24282 
L 77.077337 55.767646 
L 77.791805 56.163893 
L 78.506274 56.010946 
L 79.220743 57.445865 
L 79.935211 58.257411 
L 80.64968 58.424292 
L 81.364149 59.245022 
L 82.078617 59.122489 
L 82.793086 59.585417 
L 83.507554 60.792242 
L 84.222023 60.743271 
L 84.936492 61.031005 
L 85.65096 60.370462 
L 86.365429 61.996354 
L 87.079898 61.78092 
L 87.794366 63.470139 
L 88.508835 61.66911 
L 89.223303 62.997797 
L 89.937772 63.614656 
L 90.652241 64.477357 
L 91.366709 63.735733 
L 92.081178 64.156784 
L 92.795647 64.858342 
L 93.510115 65.173512 
L 94.224584 65.868193 
L 94.939052 64.890989 
L 95.653521 67.064245 
L 96.36799 66.816639 
L 97.082458 68.615458 
L 97.796927 67.222474 
L 98.511396 67.964947 
L 99.225864 67.585686 
L 99.940333 68.7023 
L 100.654802 68.924101 
L 101.36927 69.598159 
L 102.083739 71.11722 
L 102.798207 68.752167 
L 103.512676 69.56373 
L 104.941613 72.083485 
L 106.370551 71.68852 
L 107.085019 71.73827 
L 107.799488 73.581917 
L 108.513956 72.156877 
L 109.228425 74.331895 
L 109.942894 75.722353 
L 110.657362 75.357372 
L 111.371831 73.576085 
L 112.0863 76.661012 
L 112.800768 75.15647 
L 114.944174 77.165028 
L 115.658643 77.578739 
L 116.373111 79.030098 
L 117.08758 78.048325 
L 117.802049 79.450957 
L 118.516517 80.417333 
L 119.230986 80.162144 
L 119.945455 80.351209 
L 120.659923 80.777848 
L 121.374392 80.362746 
L 122.08886 81.778314 
L 122.803329 81.431544 
L 123.517798 82.064782 
L 124.232266 83.736861 
L 124.946735 83.985587 
L 125.661204 83.033329 
L 126.375672 84.512745 
L 127.090141 84.009491 
L 127.804609 84.511205 
L 128.519078 85.164003 
L 129.233547 84.763953 
L 129.948015 86.174455 
L 130.662484 86.531914 
L 132.091421 86.874622 
L 132.80589 86.716019 
L 133.520359 90.684789 
L 134.234827 87.65533 
L 134.949296 87.93937 
L 135.663764 87.2444 
L 136.378233 90.441954 
L 137.092702 91.085224 
L 137.80717 91.085861 
L 138.521639 91.466599 
L 139.236108 90.630052 
L 139.950576 91.904808 
L 140.665045 91.70233 
L 141.379513 91.986014 
L 142.093982 93.222807 
L 142.808451 93.043441 
L 143.522919 94.482429 
L 144.237388 94.111903 
L 144.951857 94.222157 
L 145.666325 95.86811 
L 146.380794 95.287817 
L 147.095262 95.630728 
L 147.809731 96.695446 
L 148.5242 96.777177 
L 149.238668 94.560328 
L 149.953137 97.371014 
L 150.667606 97.696789 
L 151.382074 98.687166 
L 152.811012 99.712411 
L 153.52548 100.483487 
L 154.239949 98.843241 
L 154.954417 101.404371 
L 155.668886 100.133469 
L 156.383355 101.652826 
L 157.097823 103.638406 
L 157.812292 102.098024 
L 158.526761 102.987381 
L 159.241229 102.181041 
L 160.670166 104.369744 
L 161.384635 104.119854 
L 162.099104 105.50327 
L 162.813572 106.347291 
L 163.528041 106.296257 
L 164.24251 107.09242 
L 164.956978 108.067144 
L 165.671447 108.251804 
L 167.100384 107.015909 
L 167.814853 108.752804 
L 168.529321 108.203954 
L 169.24379 110.026766 
L 169.958259 110.246465 
L 170.672727 111.92496 
L 171.387196 111.989341 
L 172.101665 111.647005 
L 172.816133 113.043852 
L 173.530602 112.524541 
L 174.24507 113.684955 
L 174.959539 113.849176 
L 175.674008 113.11725 
L 176.388476 115.083957 
L 177.102945 114.506428 
L 177.817414 116.727876 
L 178.531882 115.456808 
L 179.246351 115.88261 
L 179.960819 116.143243 
L 180.675288 117.162174 
L 181.389757 116.969856 
L 182.104225 118.223289 
L 182.818694 118.46733 
L 183.533163 118.242556 
L 184.247631 120.290578 
L 184.9621 119.837875 
L 185.676569 121.515855 
L 186.391037 121.705686 
L 187.105506 119.862111 
L 187.819974 121.530512 
L 188.534443 122.28231 
L 189.248912 122.353697 
L 189.96338 121.349163 
L 190.677849 124.210541 
L 191.392318 124.822044 
L 192.106786 123.885544 
L 192.821255 125.259206 
L 193.535723 124.753778 
L 194.250192 127.230658 
L 194.964661 126.068816 
L 195.679129 126.426131 
L 196.393598 128.317807 
L 197.108067 127.694544 
L 197.822535 127.291598 
L 198.537004 128.064461 
L 199.251472 129.589757 
L 199.965941 130.473227 
L 201.394878 131.895946 
L 202.109347 132.76009 
L 202.823816 130.560306 
L 203.538284 131.630515 
L 204.252753 133.585988 
L 204.967222 132.682743 
L 205.68169 134.623983 
L 206.396159 133.819837 
L 207.110627 134.558884 
L 207.825096 133.806202 
L 208.539565 134.232714 
L 209.254033 136.388662 
L 209.968502 137.222772 
L 210.682971 137.368502 
L 211.397439 137.199858 
L 212.111908 138.642205 
L 212.826376 140.426962 
L 213.540845 137.617013 
L 214.255314 138.817289 
L 214.969782 138.677686 
L 215.684251 139.727716 
L 216.39872 139.5612 
L 217.113188 142.746369 
L 217.827657 142.304197 
L 218.542125 144.634485 
L 219.256594 143.752545 
L 219.971063 143.134148 
L 220.685531 143.172551 
L 221.4 143.046412 
L 222.114469 143.716146 
L 222.828937 145.534771 
L 223.543406 145.272979 
L 224.257875 144.753695 
L 224.972343 147.032896 
L 225.686812 148.697413 
L 226.40128 148.196321 
L 227.115749 147.97357 
L 227.830218 148.374632 
L 228.544686 151.118653 
L 229.259155 149.174837 
L 229.973624 148.868775 
L 230.688092 149.967119 
L 231.402561 149.472467 
L 232.831498 153.374099 
L 233.545967 152.814322 
L 234.260435 151.274702 
L 234.974904 153.709461 
L 235.689373 152.869024 
L 236.403841 153.561899 
L 237.11831 155.344968 
L 237.832778 156.283587 
L 238.547247 154.611423 
L 239.976184 156.638927 
L 240.690653 156.612635 
L 241.405122 158.915406 
L 242.11959 156.725378 
L 242.834059 158.468977 
L 243.548528 158.611442 
L 244.262996 159.07327 
L 244.977465 158.451339 
L 245.691933 159.259993 
L 246.406402 159.438698 
L 247.120871 161.644208 
L 247.835339 161.372166 
L 248.549808 162.339404 
L 249.264277 162.58357 
L 249.978745 162.258471 
L 250.693214 163.270897 
L 251.407682 164.616956 
L 252.83662 163.402566 
L 253.551088 164.221673 
L 254.265557 164.664079 
L 254.980026 163.962894 
L 255.694494 166.952371 
L 256.408963 166.427885 
L 257.123431 167.476445 
L 257.8379 167.542504 
L 258.552369 167.89425 
L 259.266837 168.490197 
L 259.981306 167.831488 
L 260.695775 169.596236 
L 261.410243 170.658672 
L 262.124712 170.378929 
L 262.839181 171.907804 
L 263.553649 170.876361 
L 264.268118 172.326243 
L 264.982586 172.085231 
L 265.697055 173.177913 
L 266.411524 173.979528 
L 267.125992 171.336164 
L 267.840461 175.412186 
L 268.55493 174.592746 
L 269.269398 175.371327 
L 269.983867 174.813143 
L 270.698335 176.070621 
L 271.412804 178.196389 
L 272.127273 174.974156 
L 273.55621 178.706486 
L 274.270679 178.654788 
L 274.985147 178.093083 
L 275.699616 178.243041 
L 276.414085 181.092075 
L 277.128553 179.733624 
L 277.843022 181.253836 
L 278.55749 180.970268 
L 279.271959 183.617645 
L 279.986428 180.584401 
L 280.700896 184.22013 
L 281.415365 181.6963 
L 282.129834 184.50879 
L 282.844302 185.238986 
L 283.558771 184.140641 
L 284.273239 184.726267 
L 284.987708 185.790044 
L 285.702177 186.169935 
L 286.416645 185.562824 
L 287.131114 185.654764 
L 287.845583 187.297412 
L 288.560051 186.890968 
L 289.27452 188.897045 
L 289.988988 190.181376 
L 290.703457 190.249444 
L 291.417926 188.712919 
L 292.132394 188.77736 
L 292.846863 191.18965 
L 293.561332 190.907244 
L 294.2758 190.843485 
L 294.990269 192.242484 
L 295.704738 192.631747 
L 296.419206 191.962525 
L 297.133675 191.967408 
L 297.848143 194.671124 
L 298.562612 194.533371 
L 299.277081 195.097239 
L 299.991549 196.683717 
L 300.706018 194.536311 
L 301.420487 196.334114 
L 302.134955 196.337144 
L 302.849424 197.498617 
L 303.563892 197.481641 
L 304.278361 197.752267 
L 304.99283 200.080969 
L 305.707298 197.952701 
L 306.421767 199.375954 
L 307.136236 201.154778 
L 307.850704 201.003922 
L 308.565173 200.14476 
L 309.279641 202.135609 
L 310.708579 201.26471 
L 311.423047 201.930106 
L 312.137516 201.642496 
L 312.851985 203.923507 
L 313.566453 204.901094 
L 314.280922 205.188787 
L 314.995391 203.897455 
L 315.709859 206.367141 
L 316.424328 207.687695 
L 317.138796 206.515895 
L 317.853265 205.816519 
L 318.567734 207.528483 
L 319.282202 207.080211 
L 319.996671 207.046705 
L 320.71114 209.654779 
L 321.425608 208.948465 
L 322.140077 210.259863 
L 322.854545 211.807318 
L 323.569014 210.129974 
L 324.283483 211.510174 
L 324.997951 212.64023 
L 325.71242 211.034182 
L 326.426889 213.011134 
L 327.855826 214.524743 
L 329.284763 213.657148 
L 329.999232 215.934034 
L 330.7137 214.021448 
L 331.428169 215.171031 
L 332.142638 215.063674 
L 332.857106 216.926673 
L 333.571575 217.105225 
L 334.286044 216.933138 
L 335.000512 219.369228 
L 335.714981 219.673137 
L 336.429449 218.802494 
L 337.143918 218.863209 
L 337.858387 216.961477 
L 338.572855 220.520118 
L 339.287324 220.78583 
L 340.001793 220.909063 
L 340.716261 221.236546 
L 341.43073 222.598378 
L 342.145198 222.450072 
L 343.574136 224.398412 
L 344.288604 222.518857 
L 345.003073 225.048238 
L 345.717542 223.450682 
L 346.43201 226.874954 
L 347.860948 226.236494 
L 348.575416 227.22638 
L 349.289885 225.653567 
L 350.004353 225.666527 
L 350.718822 228.379698 
L 351.433291 225.329366 
L 352.147759 228.841453 
L 352.862228 230.407378 
L 353.576697 229.523158 
L 354.291165 231.846608 
L 355.005634 230.308318 
L 355.720102 230.324819 
L 356.434571 229.683548 
L 357.14904 229.936507 
L 357.863508 231.546674 
L 358.577977 229.315084 
L 359.292446 233.59968 
L 360.006914 231.215834 
L 360.721383 235.091389 
L 361.435851 234.197455 
L 362.15032 235.808314 
L 362.864789 233.815533 
L 363.579257 235.086923 
L 364.293726 237.565282 
L 365.008195 238.033982 
L 365.722663 237.252051 
L 366.437132 237.932518 
L 367.151601 237.976607 
L 367.866069 235.734362 
L 368.580538 238.177779 
L 370.009475 239.894937 
L 370.723944 237.614483 
L 371.438412 240.631068 
L 372.152881 241.567255 
L 372.86735 241.16421 
L 373.581818 242.116364 
L 373.581818 242.116364 
" style="fill:none;stroke:#ff7f0e;stroke-linecap:square;stroke-width:2;"/>
   </g>
   <g id="patch_3">
    <path d="M 54 252 
L 54 34.56 
" style="fill:none;stroke:#000000;stroke-linecap:square;stroke-linejoin:miter;stroke-width:0.8;"/>
   </g>
   <g id="patch_4">
    <path d="M 388.8 252 
L 388.8 34.56 
" style="fill:none;stroke:#000000;stroke-linecap:square;stroke-linejoin:miter;stroke-width:0.8;"/>
   </g>
   <g id="patch_5">
    <path d="M 54 252 
L 388.8 252 
" style="fill:none;stroke:#000000;stroke-linecap:square;stroke-linejoin:miter;stroke-width:0.8;"/>
   </g>
   <g id="patch_6">
    <path d="M 54 34.56 
L 388.8 34.56 
" style="fill:none;stroke:#000000;stroke-linecap:square;stroke-linejoin:miter;stroke-width:0.8;"/>
   </g>
   <g id="text_15">
    <!-- Figure 5 - Neural Network Fit Path -->
    <defs>
     <path d="M 9.8125 72.90625 
L 51.703125 72.90625 
L 51.703125 64.59375 
L 19.671875 64.59375 
L 19.671875 43.109375 
L 48.578125 43.109375 
L 48.578125 34.8125 
L 19.671875 34.8125 
L 19.671875 0 
L 9.8125 0 
z
" id="DejaVuSans-46"/>
     <path d="M 9.421875 54.6875 
L 18.40625 54.6875 
L 18.40625 0 
L 9.421875 0 
z
M 9.421875 75.984375 
L 18.40625 75.984375 
L 18.40625 64.59375 
L 9.421875 64.59375 
z
" id="DejaVuSans-69"/>
     <path d="M 8.5 21.578125 
L 8.5 54.6875 
L 17.484375 54.6875 
L 17.484375 21.921875 
Q 17.484375 14.15625 20.5 10.265625 
Q 23.53125 6.390625 29.59375 6.390625 
Q 36.859375 6.390625 41.078125 11.03125 
Q 45.3125 15.671875 45.3125 23.6875 
L 45.3125 54.6875 
L 54.296875 54.6875 
L 54.296875 0 
L 45.3125 0 
L 45.3125 8.40625 
Q 42.046875 3.421875 37.71875 1 
Q 33.40625 -1.421875 27.6875 -1.421875 
Q 18.265625 -1.421875 13.375 4.4375 
Q 8.5 10.296875 8.5 21.578125 
z
M 31.109375 56 
z
" id="DejaVuSans-75"/>
     <path d="M 41.109375 46.296875 
Q 39.59375 47.171875 37.8125 47.578125 
Q 36.03125 48 33.890625 48 
Q 26.265625 48 22.1875 43.046875 
Q 18.109375 38.09375 18.109375 28.8125 
L 18.109375 0 
L 9.078125 0 
L 9.078125 54.6875 
L 18.109375 54.6875 
L 18.109375 46.1875 
Q 20.953125 51.171875 25.484375 53.578125 
Q 30.03125 56 36.53125 56 
Q 37.453125 56 38.578125 55.875 
Q 39.703125 55.765625 41.0625 55.515625 
z
" id="DejaVuSans-72"/>
     <path d="M 56.203125 29.59375 
L 56.203125 25.203125 
L 14.890625 25.203125 
Q 15.484375 15.921875 20.484375 11.0625 
Q 25.484375 6.203125 34.421875 6.203125 
Q 39.59375 6.203125 44.453125 7.46875 
Q 49.3125 8.734375 54.109375 11.28125 
L 54.109375 2.78125 
Q 49.265625 0.734375 44.1875 -0.34375 
Q 39.109375 -1.421875 33.890625 -1.421875 
Q 20.796875 -1.421875 13.15625 6.1875 
Q 5.515625 13.8125 5.515625 26.8125 
Q 5.515625 40.234375 12.765625 48.109375 
Q 20.015625 56 32.328125 56 
Q 43.359375 56 49.78125 48.890625 
Q 56.203125 41.796875 56.203125 29.59375 
z
M 47.21875 32.234375 
Q 47.125 39.59375 43.09375 43.984375 
Q 39.0625 48.390625 32.421875 48.390625 
Q 24.90625 48.390625 20.390625 44.140625 
Q 15.875 39.890625 15.1875 32.171875 
z
" id="DejaVuSans-65"/>
     <path d="M 4.890625 31.390625 
L 31.203125 31.390625 
L 31.203125 23.390625 
L 4.890625 23.390625 
z
" id="DejaVuSans-2d"/>
     <path d="M 9.8125 72.90625 
L 23.09375 72.90625 
L 55.421875 11.921875 
L 55.421875 72.90625 
L 64.984375 72.90625 
L 64.984375 0 
L 51.703125 0 
L 19.390625 60.984375 
L 19.390625 0 
L 9.8125 0 
z
" id="DejaVuSans-4e"/>
     <path d="M 34.28125 27.484375 
Q 23.390625 27.484375 19.1875 25 
Q 14.984375 22.515625 14.984375 16.5 
Q 14.984375 11.71875 18.140625 8.90625 
Q 21.296875 6.109375 26.703125 6.109375 
Q 34.1875 6.109375 38.703125 11.40625 
Q 43.21875 16.703125 43.21875 25.484375 
L 43.21875 27.484375 
z
M 52.203125 31.203125 
L 52.203125 0 
L 43.21875 0 
L 43.21875 8.296875 
Q 40.140625 3.328125 35.546875 0.953125 
Q 30.953125 -1.421875 24.3125 -1.421875 
Q 15.921875 -1.421875 10.953125 3.296875 
Q 6 8.015625 6 15.921875 
Q 6 25.140625 12.171875 29.828125 
Q 18.359375 34.515625 30.609375 34.515625 
L 43.21875 34.515625 
L 43.21875 35.40625 
Q 43.21875 41.609375 39.140625 45 
Q 35.0625 48.390625 27.6875 48.390625 
Q 23 48.390625 18.546875 47.265625 
Q 14.109375 46.140625 10.015625 43.890625 
L 10.015625 52.203125 
Q 14.9375 54.109375 19.578125 55.046875 
Q 24.21875 56 28.609375 56 
Q 40.484375 56 46.34375 49.84375 
Q 52.203125 43.703125 52.203125 31.203125 
z
" id="DejaVuSans-61"/>
     <path d="M 18.3125 70.21875 
L 18.3125 54.6875 
L 36.8125 54.6875 
L 36.8125 47.703125 
L 18.3125 47.703125 
L 18.3125 18.015625 
Q 18.3125 11.328125 20.140625 9.421875 
Q 21.96875 7.515625 27.59375 7.515625 
L 36.8125 7.515625 
L 36.8125 0 
L 27.59375 0 
Q 17.1875 0 13.234375 3.875 
Q 9.28125 7.765625 9.28125 18.015625 
L 9.28125 47.703125 
L 2.6875 47.703125 
L 2.6875 54.6875 
L 9.28125 54.6875 
L 9.28125 70.21875 
z
" id="DejaVuSans-74"/>
     <path d="M 4.203125 54.6875 
L 13.1875 54.6875 
L 24.421875 12.015625 
L 35.59375 54.6875 
L 46.1875 54.6875 
L 57.421875 12.015625 
L 68.609375 54.6875 
L 77.59375 54.6875 
L 63.28125 0 
L 52.6875 0 
L 40.921875 44.828125 
L 29.109375 0 
L 18.5 0 
z
" id="DejaVuSans-77"/>
     <path d="M 9.078125 75.984375 
L 18.109375 75.984375 
L 18.109375 31.109375 
L 44.921875 54.6875 
L 56.390625 54.6875 
L 27.390625 29.109375 
L 57.625 0 
L 45.90625 0 
L 18.109375 26.703125 
L 18.109375 0 
L 9.078125 0 
z
" id="DejaVuSans-6b"/>
     <path d="M 19.671875 64.796875 
L 19.671875 37.40625 
L 32.078125 37.40625 
Q 38.96875 37.40625 42.71875 40.96875 
Q 46.484375 44.53125 46.484375 51.125 
Q 46.484375 57.671875 42.71875 61.234375 
Q 38.96875 64.796875 32.078125 64.796875 
z
M 9.8125 72.90625 
L 32.078125 72.90625 
Q 44.34375 72.90625 50.609375 67.359375 
Q 56.890625 61.8125 56.890625 51.125 
Q 56.890625 40.328125 50.609375 34.8125 
Q 44.34375 29.296875 32.078125 29.296875 
L 19.671875 29.296875 
L 19.671875 0 
L 9.8125 0 
z
" id="DejaVuSans-50"/>
    </defs>
    <g transform="translate(119.342813 28.56)scale(0.12 -0.12)">
     <use xlink:href="#DejaVuSans-46"/>
     <use x="57.410156" xlink:href="#DejaVuSans-69"/>
     <use x="85.193359" xlink:href="#DejaVuSans-67"/>
     <use x="148.669922" xlink:href="#DejaVuSans-75"/>
     <use x="212.048828" xlink:href="#DejaVuSans-72"/>
     <use x="253.130859" xlink:href="#DejaVuSans-65"/>
     <use x="314.654297" xlink:href="#DejaVuSans-20"/>
     <use x="346.441406" xlink:href="#DejaVuSans-35"/>
     <use x="410.064453" xlink:href="#DejaVuSans-20"/>
     <use x="441.851562" xlink:href="#DejaVuSans-2d"/>
     <use x="477.935547" xlink:href="#DejaVuSans-20"/>
     <use x="509.722656" xlink:href="#DejaVuSans-4e"/>
     <use x="584.527344" xlink:href="#DejaVuSans-65"/>
     <use x="646.050781" xlink:href="#DejaVuSans-75"/>
     <use x="709.429688" xlink:href="#DejaVuSans-72"/>
     <use x="750.542969" xlink:href="#DejaVuSans-61"/>
     <use x="811.822266" xlink:href="#DejaVuSans-6c"/>
     <use x="839.605469" xlink:href="#DejaVuSans-20"/>
     <use x="871.392578" xlink:href="#DejaVuSans-4e"/>
     <use x="946.197266" xlink:href="#DejaVuSans-65"/>
     <use x="1007.720703" xlink:href="#DejaVuSans-74"/>
     <use x="1046.929688" xlink:href="#DejaVuSans-77"/>
     <use x="1128.716797" xlink:href="#DejaVuSans-6f"/>
     <use x="1189.898438" xlink:href="#DejaVuSans-72"/>
     <use x="1231.011719" xlink:href="#DejaVuSans-6b"/>
     <use x="1288.921875" xlink:href="#DejaVuSans-20"/>
     <use x="1320.708984" xlink:href="#DejaVuSans-46"/>
     <use x="1378.119141" xlink:href="#DejaVuSans-69"/>
     <use x="1405.902344" xlink:href="#DejaVuSans-74"/>
     <use x="1445.111328" xlink:href="#DejaVuSans-20"/>
     <use x="1476.898438" xlink:href="#DejaVuSans-50"/>
     <use x="1537.138672" xlink:href="#DejaVuSans-61"/>
     <use x="1598.417969" xlink:href="#DejaVuSans-74"/>
     <use x="1637.626953" xlink:href="#DejaVuSans-68"/>
    </g>
   </g>
  </g>
 </g>
 <defs>
  <clipPath id="pf0fc1fe102">
   <rect height="217.44" width="334.8" x="54" y="34.56"/>
  </clipPath>
 </defs>
</svg>
