<?xml version="1.0" encoding="utf-8" standalone="no"?>
<!DOCTYPE svg PUBLIC "-//W3C//DTD SVG 1.1//EN"
  "http://www.w3.org/Graphics/SVG/1.1/DTD/svg11.dtd">
<!-- Created with matplotlib (http://matplotlib.org/) -->
<svg height="288pt" version="1.1" viewBox="0 0 432 288" width="432pt" xmlns="http://www.w3.org/2000/svg" xmlns:xlink="http://www.w3.org/1999/xlink">
 <defs>
  <style type="text/css">
*{stroke-linecap:butt;stroke-linejoin:round;}
  </style>
 </defs>
 <g id="figure_1">
  <g id="patch_1">
   <path d="M 0 288 
L 432 288 
L 432 0 
L 0 0 
z
" style="fill:#ffffff;"/>
  </g>
  <g id="axes_1">
   <g id="patch_2">
    <path d="M 54 252 
L 388.8 252 
L 388.8 34.56 
L 54 34.56 
z
" style="fill:#ffffff;"/>
   </g>
   <g id="patch_3">
    <path clip-path="url(#p84e566d325)" d="M 69.218182 252 
L 75.305455 252 
L 75.305455 249.845539 
L 69.218182 249.845539 
z
" style="fill:#ff0000;"/>
   </g>
   <g id="patch_4">
    <path clip-path="url(#p84e566d325)" d="M 75.305455 252 
L 81.392727 252 
L 81.392727 249.845539 
L 75.305455 249.845539 
z
" style="fill:#ff1e00;"/>
   </g>
   <g id="patch_5">
    <path clip-path="url(#p84e566d325)" d="M 81.392727 252 
L 87.48 252 
L 87.48 249.845539 
L 81.392727 249.845539 
z
" style="fill:#ff3b00;"/>
   </g>
   <g id="patch_6">
    <path clip-path="url(#p84e566d325)" d="M 87.48 252 
L 93.567273 252 
L 93.567273 249.845539 
L 87.48 249.845539 
z
" style="fill:#ff5900;"/>
   </g>
   <g id="patch_7">
    <path clip-path="url(#p84e566d325)" d="M 93.567273 252 
L 99.654545 252 
L 99.654545 249.208362 
L 93.567273 249.208362 
z
" style="fill:#ff7600;"/>
   </g>
   <g id="patch_8">
    <path clip-path="url(#p84e566d325)" d="M 99.654545 252 
L 105.741818 252 
L 105.741818 249.208362 
L 99.654545 249.208362 
z
" style="fill:#ff9a00;"/>
   </g>
   <g id="patch_9">
    <path clip-path="url(#p84e566d325)" d="M 105.741818 252 
L 111.829091 252 
L 111.829091 249.208362 
L 105.741818 249.208362 
z
" style="fill:#ffb700;"/>
   </g>
   <g id="patch_10">
    <path clip-path="url(#p84e566d325)" d="M 111.829091 252 
L 117.916364 252 
L 117.916364 248.574897 
L 111.829091 248.574897 
z
" style="fill:#ffd500;"/>
   </g>
   <g id="patch_11">
    <path clip-path="url(#p84e566d325)" d="M 117.916364 252 
L 124.003636 252 
L 124.003636 248.574897 
L 117.916364 248.574897 
z
" style="fill:#fef100;"/>
   </g>
   <g id="patch_12">
    <path clip-path="url(#p84e566d325)" d="M 124.003636 252 
L 130.090909 252 
L 130.090909 248.574897 
L 124.003636 248.574897 
z
" style="fill:#e8ff00;"/>
   </g>
   <g id="patch_13">
    <path clip-path="url(#p84e566d325)" d="M 130.090909 252 
L 136.178182 252 
L 136.178182 247.955662 
L 130.090909 247.955662 
z
" style="fill:#cbff00;"/>
   </g>
   <g id="patch_14">
    <path clip-path="url(#p84e566d325)" d="M 136.178182 252 
L 142.265455 252 
L 142.265455 247.955662 
L 136.178182 247.955662 
z
" style="fill:#adff00;"/>
   </g>
   <g id="patch_15">
    <path clip-path="url(#p84e566d325)" d="M 142.265455 252 
L 148.352727 252 
L 148.352727 247.374824 
L 142.265455 247.374824 
z
" style="fill:#90ff00;"/>
   </g>
   <g id="patch_16">
    <path clip-path="url(#p84e566d325)" d="M 148.352727 252 
L 154.44 252 
L 154.44 247.374824 
L 148.352727 247.374824 
z
" style="fill:#72ff00;"/>
   </g>
   <g id="patch_17">
    <path clip-path="url(#p84e566d325)" d="M 154.44 252 
L 160.527273 252 
L 160.527273 246.815917 
L 154.44 246.815917 
z
" style="fill:#4fff00;"/>
   </g>
   <g id="patch_18">
    <path clip-path="url(#p84e566d325)" d="M 160.527273 252 
L 166.614545 252 
L 166.614545 246.815917 
L 160.527273 246.815917 
z
" style="fill:#31ff00;"/>
   </g>
   <g id="patch_19">
    <path clip-path="url(#p84e566d325)" d="M 166.614545 252 
L 172.701818 252 
L 172.701818 246.269286 
L 166.614545 246.269286 
z
" style="fill:#14ff00;"/>
   </g>
   <g id="patch_20">
    <path clip-path="url(#p84e566d325)" d="M 172.701818 252 
L 178.789091 252 
L 178.789091 245.735447 
L 172.701818 245.735447 
z
" style="fill:#02ff0c;"/>
   </g>
   <g id="patch_21">
    <path clip-path="url(#p84e566d325)" d="M 178.789091 252 
L 184.876364 252 
L 184.876364 245.735447 
L 178.789091 245.735447 
z
" style="fill:#00ff2d;"/>
   </g>
   <g id="patch_22">
    <path clip-path="url(#p84e566d325)" d="M 184.876364 252 
L 190.963636 252 
L 190.963636 245.218183 
L 184.876364 245.218183 
z
" style="fill:#00ff4b;"/>
   </g>
   <g id="patch_23">
    <path clip-path="url(#p84e566d325)" d="M 190.963636 252 
L 197.050909 252 
L 197.050909 244.704681 
L 190.963636 244.704681 
z
" style="fill:#00ff68;"/>
   </g>
   <g id="patch_24">
    <path clip-path="url(#p84e566d325)" d="M 197.050909 252 
L 203.138182 252 
L 203.138182 244.196784 
L 197.050909 244.196784 
z
" style="fill:#00ff86;"/>
   </g>
   <g id="patch_25">
    <path clip-path="url(#p84e566d325)" d="M 203.138182 252 
L 209.225455 252 
L 209.225455 243.696803 
L 203.138182 243.696803 
z
" style="fill:#00ffa3;"/>
   </g>
   <g id="patch_26">
    <path clip-path="url(#p84e566d325)" d="M 209.225455 252 
L 215.312727 252 
L 215.312727 242.764452 
L 209.225455 242.764452 
z
" style="fill:#00ffc7;"/>
   </g>
   <g id="patch_27">
    <path clip-path="url(#p84e566d325)" d="M 215.312727 252 
L 221.4 252 
L 221.4 242.325088 
L 215.312727 242.325088 
z
" style="fill:#00ffe4;"/>
   </g>
   <g id="patch_28">
    <path clip-path="url(#p84e566d325)" d="M 221.4 252 
L 227.487273 252 
L 227.487273 241.457042 
L 221.4 241.457042 
z
" style="fill:#00fcff;"/>
   </g>
   <g id="patch_29">
    <path clip-path="url(#p84e566d325)" d="M 227.487273 252 
L 233.574545 252 
L 233.574545 240.651755 
L 227.487273 240.651755 
z
" style="fill:#00dfff;"/>
   </g>
   <g id="patch_30">
    <path clip-path="url(#p84e566d325)" d="M 233.574545 252 
L 239.661818 252 
L 239.661818 239.829557 
L 233.574545 239.829557 
z
" style="fill:#00bbff;"/>
   </g>
   <g id="patch_31">
    <path clip-path="url(#p84e566d325)" d="M 239.661818 252 
L 245.749091 252 
L 245.749091 239.042895 
L 239.661818 239.042895 
z
" style="fill:#009eff;"/>
   </g>
   <g id="patch_32">
    <path clip-path="url(#p84e566d325)" d="M 245.749091 252 
L 251.836364 252 
L 251.836364 237.907629 
L 245.749091 237.907629 
z
" style="fill:#0080ff;"/>
   </g>
   <g id="patch_33">
    <path clip-path="url(#p84e566d325)" d="M 251.836364 252 
L 257.923636 252 
L 257.923636 236.779754 
L 251.836364 236.779754 
z
" style="fill:#0063ff;"/>
   </g>
   <g id="patch_34">
    <path clip-path="url(#p84e566d325)" d="M 257.923636 252 
L 264.010909 252 
L 264.010909 235.328236 
L 257.923636 235.328236 
z
" style="fill:#0045ff;"/>
   </g>
   <g id="patch_35">
    <path clip-path="url(#p84e566d325)" d="M 264.010909 252 
L 270.098182 252 
L 270.098182 233.951538 
L 264.010909 233.951538 
z
" style="fill:#0022ff;"/>
   </g>
   <g id="patch_36">
    <path clip-path="url(#p84e566d325)" d="M 270.098182 252 
L 276.185455 252 
L 276.185455 232.553173 
L 270.098182 232.553173 
z
" style="fill:#0408ff;"/>
   </g>
   <g id="patch_37">
    <path clip-path="url(#p84e566d325)" d="M 276.185455 252 
L 282.272727 252 
L 282.272727 230.58559 
L 276.185455 230.58559 
z
" style="fill:#1900ff;"/>
   </g>
   <g id="patch_38">
    <path clip-path="url(#p84e566d325)" d="M 282.272727 252 
L 288.36 252 
L 288.36 228.688754 
L 282.272727 228.688754 
z
" style="fill:#3700ff;"/>
   </g>
   <g id="patch_39">
    <path clip-path="url(#p84e566d325)" d="M 288.36 252 
L 294.447273 252 
L 294.447273 226.25851 
L 288.36 226.25851 
z
" style="fill:#5a00ff;"/>
   </g>
   <g id="patch_40">
    <path clip-path="url(#p84e566d325)" d="M 294.447273 252 
L 300.534545 252 
L 300.534545 223.606823 
L 294.447273 223.606823 
z
" style="fill:#7800ff;"/>
   </g>
   <g id="patch_41">
    <path clip-path="url(#p84e566d325)" d="M 300.534545 252 
L 306.621818 252 
L 306.621818 220.802201 
L 300.534545 220.802201 
z
" style="fill:#9500ff;"/>
   </g>
   <g id="patch_42">
    <path clip-path="url(#p84e566d325)" d="M 306.621818 252 
L 312.709091 252 
L 312.709091 217.356319 
L 306.621818 217.356319 
z
" style="fill:#b300ff;"/>
   </g>
   <g id="patch_43">
    <path clip-path="url(#p84e566d325)" d="M 312.709091 252 
L 318.796364 252 
L 318.796364 213.340629 
L 312.709091 213.340629 
z
" style="fill:#d000ff;"/>
   </g>
   <g id="patch_44">
    <path clip-path="url(#p84e566d325)" d="M 318.796364 252 
L 324.883636 252 
L 324.883636 208.672947 
L 318.796364 208.672947 
z
" style="fill:#f400ff;"/>
   </g>
   <g id="patch_45">
    <path clip-path="url(#p84e566d325)" d="M 324.883636 252 
L 330.970909 252 
L 330.970909 202.920304 
L 324.883636 202.920304 
z
" style="fill:#ff00ed;"/>
   </g>
   <g id="patch_46">
    <path clip-path="url(#p84e566d325)" d="M 330.970909 252 
L 337.058182 252 
L 337.058182 196.23071 
L 330.970909 196.23071 
z
" style="fill:#ff00cf;"/>
   </g>
   <g id="patch_47">
    <path clip-path="url(#p84e566d325)" d="M 337.058182 252 
L 343.145455 252 
L 343.145455 187.827062 
L 337.058182 187.827062 
z
" style="fill:#ff00b1;"/>
   </g>
   <g id="patch_48">
    <path clip-path="url(#p84e566d325)" d="M 343.145455 252 
L 349.232727 252 
L 349.232727 177.015136 
L 343.145455 177.015136 
z
" style="fill:#ff008e;"/>
   </g>
   <g id="patch_49">
    <path clip-path="url(#p84e566d325)" d="M 349.232727 252 
L 355.32 252 
L 355.32 162.688614 
L 349.232727 162.688614 
z
" style="fill:#ff0071;"/>
   </g>
   <g id="patch_50">
    <path clip-path="url(#p84e566d325)" d="M 355.32 252 
L 361.407273 252 
L 361.407273 142.359525 
L 355.32 142.359525 
z
" style="fill:#ff0053;"/>
   </g>
   <g id="patch_51">
    <path clip-path="url(#p84e566d325)" d="M 361.407273 252 
L 367.494545 252 
L 367.494545 109.613769 
L 361.407273 109.613769 
z
" style="fill:#ff0035;"/>
   </g>
   <g id="patch_52">
    <path clip-path="url(#p84e566d325)" d="M 367.494545 252 
L 373.581818 252 
L 373.581818 44.914286 
L 367.494545 44.914286 
z
" style="fill:#ff0018;"/>
   </g>
   <g id="matplotlib.axis_1">
    <g id="xtick_1">
     <g id="line2d_1">
      <defs>
       <path d="M 0 0 
L 0 3.5 
" id="mb0f0c74661" style="stroke:#000000;stroke-width:0.8;"/>
      </defs>
      <g>
       <use style="stroke:#000000;stroke-width:0.8;" x="72.261818" xlink:href="#mb0f0c74661" y="252"/>
      </g>
     </g>
     <g id="text_1">
      <!-- 50 -->
      <defs>
       <path d="M 10.796875 72.90625 
L 49.515625 72.90625 
L 49.515625 64.59375 
L 19.828125 64.59375 
L 19.828125 46.734375 
Q 21.96875 47.46875 24.109375 47.828125 
Q 26.265625 48.1875 28.421875 48.1875 
Q 40.625 48.1875 47.75 41.5 
Q 54.890625 34.8125 54.890625 23.390625 
Q 54.890625 11.625 47.5625 5.09375 
Q 40.234375 -1.421875 26.90625 -1.421875 
Q 22.3125 -1.421875 17.546875 -0.640625 
Q 12.796875 0.140625 7.71875 1.703125 
L 7.71875 11.625 
Q 12.109375 9.234375 16.796875 8.0625 
Q 21.484375 6.890625 26.703125 6.890625 
Q 35.15625 6.890625 40.078125 11.328125 
Q 45.015625 15.765625 45.015625 23.390625 
Q 45.015625 31 40.078125 35.4375 
Q 35.15625 39.890625 26.703125 39.890625 
Q 22.75 39.890625 18.8125 39.015625 
Q 14.890625 38.140625 10.796875 36.28125 
z
" id="DejaVuSans-35"/>
       <path d="M 31.78125 66.40625 
Q 24.171875 66.40625 20.328125 58.90625 
Q 16.5 51.421875 16.5 36.375 
Q 16.5 21.390625 20.328125 13.890625 
Q 24.171875 6.390625 31.78125 6.390625 
Q 39.453125 6.390625 43.28125 13.890625 
Q 47.125 21.390625 47.125 36.375 
Q 47.125 51.421875 43.28125 58.90625 
Q 39.453125 66.40625 31.78125 66.40625 
z
M 31.78125 74.21875 
Q 44.046875 74.21875 50.515625 64.515625 
Q 56.984375 54.828125 56.984375 36.375 
Q 56.984375 17.96875 50.515625 8.265625 
Q 44.046875 -1.421875 31.78125 -1.421875 
Q 19.53125 -1.421875 13.0625 8.265625 
Q 6.59375 17.96875 6.59375 36.375 
Q 6.59375 54.828125 13.0625 64.515625 
Q 19.53125 74.21875 31.78125 74.21875 
z
" id="DejaVuSans-30"/>
      </defs>
      <g transform="translate(65.899318 266.598437)scale(0.1 -0.1)">
       <use xlink:href="#DejaVuSans-35"/>
       <use x="63.623047" xlink:href="#DejaVuSans-30"/>
      </g>
     </g>
    </g>
    <g id="xtick_2">
     <g id="line2d_2">
      <g>
       <use style="stroke:#000000;stroke-width:0.8;" x="133.134545" xlink:href="#mb0f0c74661" y="252"/>
      </g>
     </g>
     <g id="text_2">
      <!-- 60 -->
      <defs>
       <path d="M 33.015625 40.375 
Q 26.375 40.375 22.484375 35.828125 
Q 18.609375 31.296875 18.609375 23.390625 
Q 18.609375 15.53125 22.484375 10.953125 
Q 26.375 6.390625 33.015625 6.390625 
Q 39.65625 6.390625 43.53125 10.953125 
Q 47.40625 15.53125 47.40625 23.390625 
Q 47.40625 31.296875 43.53125 35.828125 
Q 39.65625 40.375 33.015625 40.375 
z
M 52.59375 71.296875 
L 52.59375 62.3125 
Q 48.875 64.0625 45.09375 64.984375 
Q 41.3125 65.921875 37.59375 65.921875 
Q 27.828125 65.921875 22.671875 59.328125 
Q 17.53125 52.734375 16.796875 39.40625 
Q 19.671875 43.65625 24.015625 45.921875 
Q 28.375 48.1875 33.59375 48.1875 
Q 44.578125 48.1875 50.953125 41.515625 
Q 57.328125 34.859375 57.328125 23.390625 
Q 57.328125 12.15625 50.6875 5.359375 
Q 44.046875 -1.421875 33.015625 -1.421875 
Q 20.359375 -1.421875 13.671875 8.265625 
Q 6.984375 17.96875 6.984375 36.375 
Q 6.984375 53.65625 15.1875 63.9375 
Q 23.390625 74.21875 37.203125 74.21875 
Q 40.921875 74.21875 44.703125 73.484375 
Q 48.484375 72.75 52.59375 71.296875 
z
" id="DejaVuSans-36"/>
      </defs>
      <g transform="translate(126.772045 266.598437)scale(0.1 -0.1)">
       <use xlink:href="#DejaVuSans-36"/>
       <use x="63.623047" xlink:href="#DejaVuSans-30"/>
      </g>
     </g>
    </g>
    <g id="xtick_3">
     <g id="line2d_3">
      <g>
       <use style="stroke:#000000;stroke-width:0.8;" x="194.007273" xlink:href="#mb0f0c74661" y="252"/>
      </g>
     </g>
     <g id="text_3">
      <!-- 70 -->
      <defs>
       <path d="M 8.203125 72.90625 
L 55.078125 72.90625 
L 55.078125 68.703125 
L 28.609375 0 
L 18.3125 0 
L 43.21875 64.59375 
L 8.203125 64.59375 
z
" id="DejaVuSans-37"/>
      </defs>
      <g transform="translate(187.644773 266.598437)scale(0.1 -0.1)">
       <use xlink:href="#DejaVuSans-37"/>
       <use x="63.623047" xlink:href="#DejaVuSans-30"/>
      </g>
     </g>
    </g>
    <g id="xtick_4">
     <g id="line2d_4">
      <g>
       <use style="stroke:#000000;stroke-width:0.8;" x="254.88" xlink:href="#mb0f0c74661" y="252"/>
      </g>
     </g>
     <g id="text_4">
      <!-- 80 -->
      <defs>
       <path d="M 31.78125 34.625 
Q 24.75 34.625 20.71875 30.859375 
Q 16.703125 27.09375 16.703125 20.515625 
Q 16.703125 13.921875 20.71875 10.15625 
Q 24.75 6.390625 31.78125 6.390625 
Q 38.8125 6.390625 42.859375 10.171875 
Q 46.921875 13.96875 46.921875 20.515625 
Q 46.921875 27.09375 42.890625 30.859375 
Q 38.875 34.625 31.78125 34.625 
z
M 21.921875 38.8125 
Q 15.578125 40.375 12.03125 44.71875 
Q 8.5 49.078125 8.5 55.328125 
Q 8.5 64.0625 14.71875 69.140625 
Q 20.953125 74.21875 31.78125 74.21875 
Q 42.671875 74.21875 48.875 69.140625 
Q 55.078125 64.0625 55.078125 55.328125 
Q 55.078125 49.078125 51.53125 44.71875 
Q 48 40.375 41.703125 38.8125 
Q 48.828125 37.15625 52.796875 32.3125 
Q 56.78125 27.484375 56.78125 20.515625 
Q 56.78125 9.90625 50.3125 4.234375 
Q 43.84375 -1.421875 31.78125 -1.421875 
Q 19.734375 -1.421875 13.25 4.234375 
Q 6.78125 9.90625 6.78125 20.515625 
Q 6.78125 27.484375 10.78125 32.3125 
Q 14.796875 37.15625 21.921875 38.8125 
z
M 18.3125 54.390625 
Q 18.3125 48.734375 21.84375 45.5625 
Q 25.390625 42.390625 31.78125 42.390625 
Q 38.140625 42.390625 41.71875 45.5625 
Q 45.3125 48.734375 45.3125 54.390625 
Q 45.3125 60.0625 41.71875 63.234375 
Q 38.140625 66.40625 31.78125 66.40625 
Q 25.390625 66.40625 21.84375 63.234375 
Q 18.3125 60.0625 18.3125 54.390625 
z
" id="DejaVuSans-38"/>
      </defs>
      <g transform="translate(248.5175 266.598437)scale(0.1 -0.1)">
       <use xlink:href="#DejaVuSans-38"/>
       <use x="63.623047" xlink:href="#DejaVuSans-30"/>
      </g>
     </g>
    </g>
    <g id="xtick_5">
     <g id="line2d_5">
      <g>
       <use style="stroke:#000000;stroke-width:0.8;" x="315.752727" xlink:href="#mb0f0c74661" y="252"/>
      </g>
     </g>
     <g id="text_5">
      <!-- 90 -->
      <defs>
       <path d="M 10.984375 1.515625 
L 10.984375 10.5 
Q 14.703125 8.734375 18.5 7.8125 
Q 22.3125 6.890625 25.984375 6.890625 
Q 35.75 6.890625 40.890625 13.453125 
Q 46.046875 20.015625 46.78125 33.40625 
Q 43.953125 29.203125 39.59375 26.953125 
Q 35.25 24.703125 29.984375 24.703125 
Q 19.046875 24.703125 12.671875 31.3125 
Q 6.296875 37.9375 6.296875 49.421875 
Q 6.296875 60.640625 12.9375 67.421875 
Q 19.578125 74.21875 30.609375 74.21875 
Q 43.265625 74.21875 49.921875 64.515625 
Q 56.59375 54.828125 56.59375 36.375 
Q 56.59375 19.140625 48.40625 8.859375 
Q 40.234375 -1.421875 26.421875 -1.421875 
Q 22.703125 -1.421875 18.890625 -0.6875 
Q 15.09375 0.046875 10.984375 1.515625 
z
M 30.609375 32.421875 
Q 37.25 32.421875 41.125 36.953125 
Q 45.015625 41.5 45.015625 49.421875 
Q 45.015625 57.28125 41.125 61.84375 
Q 37.25 66.40625 30.609375 66.40625 
Q 23.96875 66.40625 20.09375 61.84375 
Q 16.21875 57.28125 16.21875 49.421875 
Q 16.21875 41.5 20.09375 36.953125 
Q 23.96875 32.421875 30.609375 32.421875 
z
" id="DejaVuSans-39"/>
      </defs>
      <g transform="translate(309.390227 266.598437)scale(0.1 -0.1)">
       <use xlink:href="#DejaVuSans-39"/>
       <use x="63.623047" xlink:href="#DejaVuSans-30"/>
      </g>
     </g>
    </g>
    <g id="xtick_6">
     <g id="line2d_6">
      <g>
       <use style="stroke:#000000;stroke-width:0.8;" x="376.625455" xlink:href="#mb0f0c74661" y="252"/>
      </g>
     </g>
     <g id="text_6">
      <!-- 100 -->
      <defs>
       <path d="M 12.40625 8.296875 
L 28.515625 8.296875 
L 28.515625 63.921875 
L 10.984375 60.40625 
L 10.984375 69.390625 
L 28.421875 72.90625 
L 38.28125 72.90625 
L 38.28125 8.296875 
L 54.390625 8.296875 
L 54.390625 0 
L 12.40625 0 
z
" id="DejaVuSans-31"/>
      </defs>
      <g transform="translate(367.081705 266.598437)scale(0.1 -0.1)">
       <use xlink:href="#DejaVuSans-31"/>
       <use x="63.623047" xlink:href="#DejaVuSans-30"/>
       <use x="127.246094" xlink:href="#DejaVuSans-30"/>
      </g>
     </g>
    </g>
    <g id="text_7">
     <!-- Percentile -->
     <defs>
      <path d="M 19.671875 64.796875 
L 19.671875 37.40625 
L 32.078125 37.40625 
Q 38.96875 37.40625 42.71875 40.96875 
Q 46.484375 44.53125 46.484375 51.125 
Q 46.484375 57.671875 42.71875 61.234375 
Q 38.96875 64.796875 32.078125 64.796875 
z
M 9.8125 72.90625 
L 32.078125 72.90625 
Q 44.34375 72.90625 50.609375 67.359375 
Q 56.890625 61.8125 56.890625 51.125 
Q 56.890625 40.328125 50.609375 34.8125 
Q 44.34375 29.296875 32.078125 29.296875 
L 19.671875 29.296875 
L 19.671875 0 
L 9.8125 0 
z
" id="DejaVuSans-50"/>
      <path d="M 56.203125 29.59375 
L 56.203125 25.203125 
L 14.890625 25.203125 
Q 15.484375 15.921875 20.484375 11.0625 
Q 25.484375 6.203125 34.421875 6.203125 
Q 39.59375 6.203125 44.453125 7.46875 
Q 49.3125 8.734375 54.109375 11.28125 
L 54.109375 2.78125 
Q 49.265625 0.734375 44.1875 -0.34375 
Q 39.109375 -1.421875 33.890625 -1.421875 
Q 20.796875 -1.421875 13.15625 6.1875 
Q 5.515625 13.8125 5.515625 26.8125 
Q 5.515625 40.234375 12.765625 48.109375 
Q 20.015625 56 32.328125 56 
Q 43.359375 56 49.78125 48.890625 
Q 56.203125 41.796875 56.203125 29.59375 
z
M 47.21875 32.234375 
Q 47.125 39.59375 43.09375 43.984375 
Q 39.0625 48.390625 32.421875 48.390625 
Q 24.90625 48.390625 20.390625 44.140625 
Q 15.875 39.890625 15.1875 32.171875 
z
" id="DejaVuSans-65"/>
      <path d="M 41.109375 46.296875 
Q 39.59375 47.171875 37.8125 47.578125 
Q 36.03125 48 33.890625 48 
Q 26.265625 48 22.1875 43.046875 
Q 18.109375 38.09375 18.109375 28.8125 
L 18.109375 0 
L 9.078125 0 
L 9.078125 54.6875 
L 18.109375 54.6875 
L 18.109375 46.1875 
Q 20.953125 51.171875 25.484375 53.578125 
Q 30.03125 56 36.53125 56 
Q 37.453125 56 38.578125 55.875 
Q 39.703125 55.765625 41.0625 55.515625 
z
" id="DejaVuSans-72"/>
      <path d="M 48.78125 52.59375 
L 48.78125 44.1875 
Q 44.96875 46.296875 41.140625 47.34375 
Q 37.3125 48.390625 33.40625 48.390625 
Q 24.65625 48.390625 19.8125 42.84375 
Q 14.984375 37.3125 14.984375 27.296875 
Q 14.984375 17.28125 19.8125 11.734375 
Q 24.65625 6.203125 33.40625 6.203125 
Q 37.3125 6.203125 41.140625 7.25 
Q 44.96875 8.296875 48.78125 10.40625 
L 48.78125 2.09375 
Q 45.015625 0.34375 40.984375 -0.53125 
Q 36.96875 -1.421875 32.421875 -1.421875 
Q 20.0625 -1.421875 12.78125 6.34375 
Q 5.515625 14.109375 5.515625 27.296875 
Q 5.515625 40.671875 12.859375 48.328125 
Q 20.21875 56 33.015625 56 
Q 37.15625 56 41.109375 55.140625 
Q 45.0625 54.296875 48.78125 52.59375 
z
" id="DejaVuSans-63"/>
      <path d="M 54.890625 33.015625 
L 54.890625 0 
L 45.90625 0 
L 45.90625 32.71875 
Q 45.90625 40.484375 42.875 44.328125 
Q 39.84375 48.1875 33.796875 48.1875 
Q 26.515625 48.1875 22.3125 43.546875 
Q 18.109375 38.921875 18.109375 30.90625 
L 18.109375 0 
L 9.078125 0 
L 9.078125 54.6875 
L 18.109375 54.6875 
L 18.109375 46.1875 
Q 21.34375 51.125 25.703125 53.5625 
Q 30.078125 56 35.796875 56 
Q 45.21875 56 50.046875 50.171875 
Q 54.890625 44.34375 54.890625 33.015625 
z
" id="DejaVuSans-6e"/>
      <path d="M 18.3125 70.21875 
L 18.3125 54.6875 
L 36.8125 54.6875 
L 36.8125 47.703125 
L 18.3125 47.703125 
L 18.3125 18.015625 
Q 18.3125 11.328125 20.140625 9.421875 
Q 21.96875 7.515625 27.59375 7.515625 
L 36.8125 7.515625 
L 36.8125 0 
L 27.59375 0 
Q 17.1875 0 13.234375 3.875 
Q 9.28125 7.765625 9.28125 18.015625 
L 9.28125 47.703125 
L 2.6875 47.703125 
L 2.6875 54.6875 
L 9.28125 54.6875 
L 9.28125 70.21875 
z
" id="DejaVuSans-74"/>
      <path d="M 9.421875 54.6875 
L 18.40625 54.6875 
L 18.40625 0 
L 9.421875 0 
z
M 9.421875 75.984375 
L 18.40625 75.984375 
L 18.40625 64.59375 
L 9.421875 64.59375 
z
" id="DejaVuSans-69"/>
      <path d="M 9.421875 75.984375 
L 18.40625 75.984375 
L 18.40625 0 
L 9.421875 0 
z
" id="DejaVuSans-6c"/>
     </defs>
     <g transform="translate(196.447656 280.276563)scale(0.1 -0.1)">
      <use xlink:href="#DejaVuSans-50"/>
      <use x="60.255859" xlink:href="#DejaVuSans-65"/>
      <use x="121.779297" xlink:href="#DejaVuSans-72"/>
      <use x="162.861328" xlink:href="#DejaVuSans-63"/>
      <use x="217.841797" xlink:href="#DejaVuSans-65"/>
      <use x="279.365234" xlink:href="#DejaVuSans-6e"/>
      <use x="342.744141" xlink:href="#DejaVuSans-74"/>
      <use x="381.953125" xlink:href="#DejaVuSans-69"/>
      <use x="409.736328" xlink:href="#DejaVuSans-6c"/>
      <use x="437.519531" xlink:href="#DejaVuSans-65"/>
     </g>
    </g>
   </g>
   <g id="matplotlib.axis_2">
    <g id="ytick_1">
     <g id="line2d_7">
      <defs>
       <path d="M 0 0 
L -3.5 0 
" id="m3696c68d86" style="stroke:#000000;stroke-width:0.8;"/>
      </defs>
      <g>
       <use style="stroke:#000000;stroke-width:0.8;" x="54" xlink:href="#m3696c68d86" y="252"/>
      </g>
     </g>
     <g id="text_8">
      <!-- 0.00 -->
      <defs>
       <path d="M 10.6875 12.40625 
L 21 12.40625 
L 21 0 
L 10.6875 0 
z
" id="DejaVuSans-2e"/>
      </defs>
      <g transform="translate(24.734375 255.799219)scale(0.1 -0.1)">
       <use xlink:href="#DejaVuSans-30"/>
       <use x="63.623047" xlink:href="#DejaVuSans-2e"/>
       <use x="95.410156" xlink:href="#DejaVuSans-30"/>
       <use x="159.033203" xlink:href="#DejaVuSans-30"/>
      </g>
     </g>
    </g>
    <g id="ytick_2">
     <g id="line2d_8">
      <g>
       <use style="stroke:#000000;stroke-width:0.8;" x="54" xlink:href="#m3696c68d86" y="221.801832"/>
      </g>
     </g>
     <g id="text_9">
      <!-- 0.05 -->
      <g transform="translate(24.734375 225.601051)scale(0.1 -0.1)">
       <use xlink:href="#DejaVuSans-30"/>
       <use x="63.623047" xlink:href="#DejaVuSans-2e"/>
       <use x="95.410156" xlink:href="#DejaVuSans-30"/>
       <use x="159.033203" xlink:href="#DejaVuSans-35"/>
      </g>
     </g>
    </g>
    <g id="ytick_3">
     <g id="line2d_9">
      <g>
       <use style="stroke:#000000;stroke-width:0.8;" x="54" xlink:href="#m3696c68d86" y="191.603665"/>
      </g>
     </g>
     <g id="text_10">
      <!-- 0.10 -->
      <g transform="translate(24.734375 195.402884)scale(0.1 -0.1)">
       <use xlink:href="#DejaVuSans-30"/>
       <use x="63.623047" xlink:href="#DejaVuSans-2e"/>
       <use x="95.410156" xlink:href="#DejaVuSans-31"/>
       <use x="159.033203" xlink:href="#DejaVuSans-30"/>
      </g>
     </g>
    </g>
    <g id="ytick_4">
     <g id="line2d_10">
      <g>
       <use style="stroke:#000000;stroke-width:0.8;" x="54" xlink:href="#m3696c68d86" y="161.405497"/>
      </g>
     </g>
     <g id="text_11">
      <!-- 0.15 -->
      <g transform="translate(24.734375 165.204716)scale(0.1 -0.1)">
       <use xlink:href="#DejaVuSans-30"/>
       <use x="63.623047" xlink:href="#DejaVuSans-2e"/>
       <use x="95.410156" xlink:href="#DejaVuSans-31"/>
       <use x="159.033203" xlink:href="#DejaVuSans-35"/>
      </g>
     </g>
    </g>
    <g id="ytick_5">
     <g id="line2d_11">
      <g>
       <use style="stroke:#000000;stroke-width:0.8;" x="54" xlink:href="#m3696c68d86" y="131.20733"/>
      </g>
     </g>
     <g id="text_12">
      <!-- 0.20 -->
      <defs>
       <path d="M 19.1875 8.296875 
L 53.609375 8.296875 
L 53.609375 0 
L 7.328125 0 
L 7.328125 8.296875 
Q 12.9375 14.109375 22.625 23.890625 
Q 32.328125 33.6875 34.8125 36.53125 
Q 39.546875 41.84375 41.421875 45.53125 
Q 43.3125 49.21875 43.3125 52.78125 
Q 43.3125 58.59375 39.234375 62.25 
Q 35.15625 65.921875 28.609375 65.921875 
Q 23.96875 65.921875 18.8125 64.3125 
Q 13.671875 62.703125 7.8125 59.421875 
L 7.8125 69.390625 
Q 13.765625 71.78125 18.9375 73 
Q 24.125 74.21875 28.421875 74.21875 
Q 39.75 74.21875 46.484375 68.546875 
Q 53.21875 62.890625 53.21875 53.421875 
Q 53.21875 48.921875 51.53125 44.890625 
Q 49.859375 40.875 45.40625 35.40625 
Q 44.1875 33.984375 37.640625 27.21875 
Q 31.109375 20.453125 19.1875 8.296875 
z
" id="DejaVuSans-32"/>
      </defs>
      <g transform="translate(24.734375 135.006548)scale(0.1 -0.1)">
       <use xlink:href="#DejaVuSans-30"/>
       <use x="63.623047" xlink:href="#DejaVuSans-2e"/>
       <use x="95.410156" xlink:href="#DejaVuSans-32"/>
       <use x="159.033203" xlink:href="#DejaVuSans-30"/>
      </g>
     </g>
    </g>
    <g id="ytick_6">
     <g id="line2d_12">
      <g>
       <use style="stroke:#000000;stroke-width:0.8;" x="54" xlink:href="#m3696c68d86" y="101.009162"/>
      </g>
     </g>
     <g id="text_13">
      <!-- 0.25 -->
      <g transform="translate(24.734375 104.808381)scale(0.1 -0.1)">
       <use xlink:href="#DejaVuSans-30"/>
       <use x="63.623047" xlink:href="#DejaVuSans-2e"/>
       <use x="95.410156" xlink:href="#DejaVuSans-32"/>
       <use x="159.033203" xlink:href="#DejaVuSans-35"/>
      </g>
     </g>
    </g>
    <g id="ytick_7">
     <g id="line2d_13">
      <g>
       <use style="stroke:#000000;stroke-width:0.8;" x="54" xlink:href="#m3696c68d86" y="70.810994"/>
      </g>
     </g>
     <g id="text_14">
      <!-- 0.30 -->
      <defs>
       <path d="M 40.578125 39.3125 
Q 47.65625 37.796875 51.625 33 
Q 55.609375 28.21875 55.609375 21.1875 
Q 55.609375 10.40625 48.1875 4.484375 
Q 40.765625 -1.421875 27.09375 -1.421875 
Q 22.515625 -1.421875 17.65625 -0.515625 
Q 12.796875 0.390625 7.625 2.203125 
L 7.625 11.71875 
Q 11.71875 9.328125 16.59375 8.109375 
Q 21.484375 6.890625 26.8125 6.890625 
Q 36.078125 6.890625 40.9375 10.546875 
Q 45.796875 14.203125 45.796875 21.1875 
Q 45.796875 27.640625 41.28125 31.265625 
Q 36.765625 34.90625 28.71875 34.90625 
L 20.21875 34.90625 
L 20.21875 43.015625 
L 29.109375 43.015625 
Q 36.375 43.015625 40.234375 45.921875 
Q 44.09375 48.828125 44.09375 54.296875 
Q 44.09375 59.90625 40.109375 62.90625 
Q 36.140625 65.921875 28.71875 65.921875 
Q 24.65625 65.921875 20.015625 65.03125 
Q 15.375 64.15625 9.8125 62.3125 
L 9.8125 71.09375 
Q 15.4375 72.65625 20.34375 73.4375 
Q 25.25 74.21875 29.59375 74.21875 
Q 40.828125 74.21875 47.359375 69.109375 
Q 53.90625 64.015625 53.90625 55.328125 
Q 53.90625 49.265625 50.4375 45.09375 
Q 46.96875 40.921875 40.578125 39.3125 
z
" id="DejaVuSans-33"/>
      </defs>
      <g transform="translate(24.734375 74.610213)scale(0.1 -0.1)">
       <use xlink:href="#DejaVuSans-30"/>
       <use x="63.623047" xlink:href="#DejaVuSans-2e"/>
       <use x="95.410156" xlink:href="#DejaVuSans-33"/>
       <use x="159.033203" xlink:href="#DejaVuSans-30"/>
      </g>
     </g>
    </g>
    <g id="ytick_8">
     <g id="line2d_14">
      <g>
       <use style="stroke:#000000;stroke-width:0.8;" x="54" xlink:href="#m3696c68d86" y="40.612827"/>
      </g>
     </g>
     <g id="text_15">
      <!-- 0.35 -->
      <g transform="translate(24.734375 44.412045)scale(0.1 -0.1)">
       <use xlink:href="#DejaVuSans-30"/>
       <use x="63.623047" xlink:href="#DejaVuSans-2e"/>
       <use x="95.410156" xlink:href="#DejaVuSans-33"/>
       <use x="159.033203" xlink:href="#DejaVuSans-35"/>
      </g>
     </g>
    </g>
    <g id="text_16">
     <!-- Share of Score -->
     <defs>
      <path d="M 53.515625 70.515625 
L 53.515625 60.890625 
Q 47.90625 63.578125 42.921875 64.890625 
Q 37.9375 66.21875 33.296875 66.21875 
Q 25.25 66.21875 20.875 63.09375 
Q 16.5 59.96875 16.5 54.203125 
Q 16.5 49.359375 19.40625 46.890625 
Q 22.3125 44.4375 30.421875 42.921875 
L 36.375 41.703125 
Q 47.40625 39.59375 52.65625 34.296875 
Q 57.90625 29 57.90625 20.125 
Q 57.90625 9.515625 50.796875 4.046875 
Q 43.703125 -1.421875 29.984375 -1.421875 
Q 24.8125 -1.421875 18.96875 -0.25 
Q 13.140625 0.921875 6.890625 3.21875 
L 6.890625 13.375 
Q 12.890625 10.015625 18.65625 8.296875 
Q 24.421875 6.59375 29.984375 6.59375 
Q 38.421875 6.59375 43.015625 9.90625 
Q 47.609375 13.234375 47.609375 19.390625 
Q 47.609375 24.75 44.3125 27.78125 
Q 41.015625 30.8125 33.5 32.328125 
L 27.484375 33.5 
Q 16.453125 35.6875 11.515625 40.375 
Q 6.59375 45.0625 6.59375 53.421875 
Q 6.59375 63.09375 13.40625 68.65625 
Q 20.21875 74.21875 32.171875 74.21875 
Q 37.3125 74.21875 42.625 73.28125 
Q 47.953125 72.359375 53.515625 70.515625 
z
" id="DejaVuSans-53"/>
      <path d="M 54.890625 33.015625 
L 54.890625 0 
L 45.90625 0 
L 45.90625 32.71875 
Q 45.90625 40.484375 42.875 44.328125 
Q 39.84375 48.1875 33.796875 48.1875 
Q 26.515625 48.1875 22.3125 43.546875 
Q 18.109375 38.921875 18.109375 30.90625 
L 18.109375 0 
L 9.078125 0 
L 9.078125 75.984375 
L 18.109375 75.984375 
L 18.109375 46.1875 
Q 21.34375 51.125 25.703125 53.5625 
Q 30.078125 56 35.796875 56 
Q 45.21875 56 50.046875 50.171875 
Q 54.890625 44.34375 54.890625 33.015625 
z
" id="DejaVuSans-68"/>
      <path d="M 34.28125 27.484375 
Q 23.390625 27.484375 19.1875 25 
Q 14.984375 22.515625 14.984375 16.5 
Q 14.984375 11.71875 18.140625 8.90625 
Q 21.296875 6.109375 26.703125 6.109375 
Q 34.1875 6.109375 38.703125 11.40625 
Q 43.21875 16.703125 43.21875 25.484375 
L 43.21875 27.484375 
z
M 52.203125 31.203125 
L 52.203125 0 
L 43.21875 0 
L 43.21875 8.296875 
Q 40.140625 3.328125 35.546875 0.953125 
Q 30.953125 -1.421875 24.3125 -1.421875 
Q 15.921875 -1.421875 10.953125 3.296875 
Q 6 8.015625 6 15.921875 
Q 6 25.140625 12.171875 29.828125 
Q 18.359375 34.515625 30.609375 34.515625 
L 43.21875 34.515625 
L 43.21875 35.40625 
Q 43.21875 41.609375 39.140625 45 
Q 35.0625 48.390625 27.6875 48.390625 
Q 23 48.390625 18.546875 47.265625 
Q 14.109375 46.140625 10.015625 43.890625 
L 10.015625 52.203125 
Q 14.9375 54.109375 19.578125 55.046875 
Q 24.21875 56 28.609375 56 
Q 40.484375 56 46.34375 49.84375 
Q 52.203125 43.703125 52.203125 31.203125 
z
" id="DejaVuSans-61"/>
      <path id="DejaVuSans-20"/>
      <path d="M 30.609375 48.390625 
Q 23.390625 48.390625 19.1875 42.75 
Q 14.984375 37.109375 14.984375 27.296875 
Q 14.984375 17.484375 19.15625 11.84375 
Q 23.34375 6.203125 30.609375 6.203125 
Q 37.796875 6.203125 41.984375 11.859375 
Q 46.1875 17.53125 46.1875 27.296875 
Q 46.1875 37.015625 41.984375 42.703125 
Q 37.796875 48.390625 30.609375 48.390625 
z
M 30.609375 56 
Q 42.328125 56 49.015625 48.375 
Q 55.71875 40.765625 55.71875 27.296875 
Q 55.71875 13.875 49.015625 6.21875 
Q 42.328125 -1.421875 30.609375 -1.421875 
Q 18.84375 -1.421875 12.171875 6.21875 
Q 5.515625 13.875 5.515625 27.296875 
Q 5.515625 40.765625 12.171875 48.375 
Q 18.84375 56 30.609375 56 
z
" id="DejaVuSans-6f"/>
      <path d="M 37.109375 75.984375 
L 37.109375 68.5 
L 28.515625 68.5 
Q 23.6875 68.5 21.796875 66.546875 
Q 19.921875 64.59375 19.921875 59.515625 
L 19.921875 54.6875 
L 34.71875 54.6875 
L 34.71875 47.703125 
L 19.921875 47.703125 
L 19.921875 0 
L 10.890625 0 
L 10.890625 47.703125 
L 2.296875 47.703125 
L 2.296875 54.6875 
L 10.890625 54.6875 
L 10.890625 58.5 
Q 10.890625 67.625 15.140625 71.796875 
Q 19.390625 75.984375 28.609375 75.984375 
z
" id="DejaVuSans-66"/>
     </defs>
     <g transform="translate(18.654687 179.928438)rotate(-90)scale(0.1 -0.1)">
      <use xlink:href="#DejaVuSans-53"/>
      <use x="63.476562" xlink:href="#DejaVuSans-68"/>
      <use x="126.855469" xlink:href="#DejaVuSans-61"/>
      <use x="188.134766" xlink:href="#DejaVuSans-72"/>
      <use x="229.216797" xlink:href="#DejaVuSans-65"/>
      <use x="290.740234" xlink:href="#DejaVuSans-20"/>
      <use x="322.527344" xlink:href="#DejaVuSans-6f"/>
      <use x="383.708984" xlink:href="#DejaVuSans-66"/>
      <use x="418.914062" xlink:href="#DejaVuSans-20"/>
      <use x="450.701172" xlink:href="#DejaVuSans-53"/>
      <use x="514.177734" xlink:href="#DejaVuSans-63"/>
      <use x="569.158203" xlink:href="#DejaVuSans-6f"/>
      <use x="630.339844" xlink:href="#DejaVuSans-72"/>
      <use x="671.421875" xlink:href="#DejaVuSans-65"/>
     </g>
    </g>
   </g>
   <g id="patch_53">
    <path d="M 54 252 
L 54 34.56 
" style="fill:none;stroke:#000000;stroke-linecap:square;stroke-linejoin:miter;stroke-width:0.8;"/>
   </g>
   <g id="patch_54">
    <path d="M 388.8 252 
L 388.8 34.56 
" style="fill:none;stroke:#000000;stroke-linecap:square;stroke-linejoin:miter;stroke-width:0.8;"/>
   </g>
   <g id="patch_55">
    <path d="M 54 252 
L 388.8 252 
" style="fill:none;stroke:#000000;stroke-linecap:square;stroke-linejoin:miter;stroke-width:0.8;"/>
   </g>
   <g id="patch_56">
    <path d="M 54 34.56 
L 388.8 34.56 
" style="fill:none;stroke:#000000;stroke-linecap:square;stroke-linejoin:miter;stroke-width:0.8;"/>
   </g>
   <g id="text_17">
    <!-- Figure 1 - Share of Upvotes by Percentile -->
    <defs>
     <path d="M 9.8125 72.90625 
L 51.703125 72.90625 
L 51.703125 64.59375 
L 19.671875 64.59375 
L 19.671875 43.109375 
L 48.578125 43.109375 
L 48.578125 34.8125 
L 19.671875 34.8125 
L 19.671875 0 
L 9.8125 0 
z
" id="DejaVuSans-46"/>
     <path d="M 45.40625 27.984375 
Q 45.40625 37.75 41.375 43.109375 
Q 37.359375 48.484375 30.078125 48.484375 
Q 22.859375 48.484375 18.828125 43.109375 
Q 14.796875 37.75 14.796875 27.984375 
Q 14.796875 18.265625 18.828125 12.890625 
Q 22.859375 7.515625 30.078125 7.515625 
Q 37.359375 7.515625 41.375 12.890625 
Q 45.40625 18.265625 45.40625 27.984375 
z
M 54.390625 6.78125 
Q 54.390625 -7.171875 48.1875 -13.984375 
Q 42 -20.796875 29.203125 -20.796875 
Q 24.46875 -20.796875 20.265625 -20.09375 
Q 16.0625 -19.390625 12.109375 -17.921875 
L 12.109375 -9.1875 
Q 16.0625 -11.328125 19.921875 -12.34375 
Q 23.78125 -13.375 27.78125 -13.375 
Q 36.625 -13.375 41.015625 -8.765625 
Q 45.40625 -4.15625 45.40625 5.171875 
L 45.40625 9.625 
Q 42.625 4.78125 38.28125 2.390625 
Q 33.9375 0 27.875 0 
Q 17.828125 0 11.671875 7.65625 
Q 5.515625 15.328125 5.515625 27.984375 
Q 5.515625 40.671875 11.671875 48.328125 
Q 17.828125 56 27.875 56 
Q 33.9375 56 38.28125 53.609375 
Q 42.625 51.21875 45.40625 46.390625 
L 45.40625 54.6875 
L 54.390625 54.6875 
z
" id="DejaVuSans-67"/>
     <path d="M 8.5 21.578125 
L 8.5 54.6875 
L 17.484375 54.6875 
L 17.484375 21.921875 
Q 17.484375 14.15625 20.5 10.265625 
Q 23.53125 6.390625 29.59375 6.390625 
Q 36.859375 6.390625 41.078125 11.03125 
Q 45.3125 15.671875 45.3125 23.6875 
L 45.3125 54.6875 
L 54.296875 54.6875 
L 54.296875 0 
L 45.3125 0 
L 45.3125 8.40625 
Q 42.046875 3.421875 37.71875 1 
Q 33.40625 -1.421875 27.6875 -1.421875 
Q 18.265625 -1.421875 13.375 4.4375 
Q 8.5 10.296875 8.5 21.578125 
z
M 31.109375 56 
z
" id="DejaVuSans-75"/>
     <path d="M 4.890625 31.390625 
L 31.203125 31.390625 
L 31.203125 23.390625 
L 4.890625 23.390625 
z
" id="DejaVuSans-2d"/>
     <path d="M 8.6875 72.90625 
L 18.609375 72.90625 
L 18.609375 28.609375 
Q 18.609375 16.890625 22.84375 11.734375 
Q 27.09375 6.59375 36.625 6.59375 
Q 46.09375 6.59375 50.34375 11.734375 
Q 54.59375 16.890625 54.59375 28.609375 
L 54.59375 72.90625 
L 64.5 72.90625 
L 64.5 27.390625 
Q 64.5 13.140625 57.4375 5.859375 
Q 50.390625 -1.421875 36.625 -1.421875 
Q 22.796875 -1.421875 15.734375 5.859375 
Q 8.6875 13.140625 8.6875 27.390625 
z
" id="DejaVuSans-55"/>
     <path d="M 18.109375 8.203125 
L 18.109375 -20.796875 
L 9.078125 -20.796875 
L 9.078125 54.6875 
L 18.109375 54.6875 
L 18.109375 46.390625 
Q 20.953125 51.265625 25.265625 53.625 
Q 29.59375 56 35.59375 56 
Q 45.5625 56 51.78125 48.09375 
Q 58.015625 40.1875 58.015625 27.296875 
Q 58.015625 14.40625 51.78125 6.484375 
Q 45.5625 -1.421875 35.59375 -1.421875 
Q 29.59375 -1.421875 25.265625 0.953125 
Q 20.953125 3.328125 18.109375 8.203125 
z
M 48.6875 27.296875 
Q 48.6875 37.203125 44.609375 42.84375 
Q 40.53125 48.484375 33.40625 48.484375 
Q 26.265625 48.484375 22.1875 42.84375 
Q 18.109375 37.203125 18.109375 27.296875 
Q 18.109375 17.390625 22.1875 11.75 
Q 26.265625 6.109375 33.40625 6.109375 
Q 40.53125 6.109375 44.609375 11.75 
Q 48.6875 17.390625 48.6875 27.296875 
z
" id="DejaVuSans-70"/>
     <path d="M 2.984375 54.6875 
L 12.5 54.6875 
L 29.59375 8.796875 
L 46.6875 54.6875 
L 56.203125 54.6875 
L 35.6875 0 
L 23.484375 0 
z
" id="DejaVuSans-76"/>
     <path d="M 44.28125 53.078125 
L 44.28125 44.578125 
Q 40.484375 46.53125 36.375 47.5 
Q 32.28125 48.484375 27.875 48.484375 
Q 21.1875 48.484375 17.84375 46.4375 
Q 14.5 44.390625 14.5 40.28125 
Q 14.5 37.15625 16.890625 35.375 
Q 19.28125 33.59375 26.515625 31.984375 
L 29.59375 31.296875 
Q 39.15625 29.25 43.1875 25.515625 
Q 47.21875 21.78125 47.21875 15.09375 
Q 47.21875 7.46875 41.1875 3.015625 
Q 35.15625 -1.421875 24.609375 -1.421875 
Q 20.21875 -1.421875 15.453125 -0.5625 
Q 10.6875 0.296875 5.421875 2 
L 5.421875 11.28125 
Q 10.40625 8.6875 15.234375 7.390625 
Q 20.0625 6.109375 24.8125 6.109375 
Q 31.15625 6.109375 34.5625 8.28125 
Q 37.984375 10.453125 37.984375 14.40625 
Q 37.984375 18.0625 35.515625 20.015625 
Q 33.0625 21.96875 24.703125 23.78125 
L 21.578125 24.515625 
Q 13.234375 26.265625 9.515625 29.90625 
Q 5.8125 33.546875 5.8125 39.890625 
Q 5.8125 47.609375 11.28125 51.796875 
Q 16.75 56 26.8125 56 
Q 31.78125 56 36.171875 55.265625 
Q 40.578125 54.546875 44.28125 53.078125 
z
" id="DejaVuSans-73"/>
     <path d="M 48.6875 27.296875 
Q 48.6875 37.203125 44.609375 42.84375 
Q 40.53125 48.484375 33.40625 48.484375 
Q 26.265625 48.484375 22.1875 42.84375 
Q 18.109375 37.203125 18.109375 27.296875 
Q 18.109375 17.390625 22.1875 11.75 
Q 26.265625 6.109375 33.40625 6.109375 
Q 40.53125 6.109375 44.609375 11.75 
Q 48.6875 17.390625 48.6875 27.296875 
z
M 18.109375 46.390625 
Q 20.953125 51.265625 25.265625 53.625 
Q 29.59375 56 35.59375 56 
Q 45.5625 56 51.78125 48.09375 
Q 58.015625 40.1875 58.015625 27.296875 
Q 58.015625 14.40625 51.78125 6.484375 
Q 45.5625 -1.421875 35.59375 -1.421875 
Q 29.59375 -1.421875 25.265625 0.953125 
Q 20.953125 3.328125 18.109375 8.203125 
L 18.109375 0 
L 9.078125 0 
L 9.078125 75.984375 
L 18.109375 75.984375 
z
" id="DejaVuSans-62"/>
     <path d="M 32.171875 -5.078125 
Q 28.375 -14.84375 24.75 -17.8125 
Q 21.140625 -20.796875 15.09375 -20.796875 
L 7.90625 -20.796875 
L 7.90625 -13.28125 
L 13.1875 -13.28125 
Q 16.890625 -13.28125 18.9375 -11.515625 
Q 21 -9.765625 23.484375 -3.21875 
L 25.09375 0.875 
L 2.984375 54.6875 
L 12.5 54.6875 
L 29.59375 11.921875 
L 46.6875 54.6875 
L 56.203125 54.6875 
z
" id="DejaVuSans-79"/>
    </defs>
    <g transform="translate(98.06625 28.56)scale(0.12 -0.12)">
     <use xlink:href="#DejaVuSans-46"/>
     <use x="57.410156" xlink:href="#DejaVuSans-69"/>
     <use x="85.193359" xlink:href="#DejaVuSans-67"/>
     <use x="148.669922" xlink:href="#DejaVuSans-75"/>
     <use x="212.048828" xlink:href="#DejaVuSans-72"/>
     <use x="253.130859" xlink:href="#DejaVuSans-65"/>
     <use x="314.654297" xlink:href="#DejaVuSans-20"/>
     <use x="346.441406" xlink:href="#DejaVuSans-31"/>
     <use x="410.064453" xlink:href="#DejaVuSans-20"/>
     <use x="441.851562" xlink:href="#DejaVuSans-2d"/>
     <use x="477.935547" xlink:href="#DejaVuSans-20"/>
     <use x="509.722656" xlink:href="#DejaVuSans-53"/>
     <use x="573.199219" xlink:href="#DejaVuSans-68"/>
     <use x="636.578125" xlink:href="#DejaVuSans-61"/>
     <use x="697.857422" xlink:href="#DejaVuSans-72"/>
     <use x="738.939453" xlink:href="#DejaVuSans-65"/>
     <use x="800.462891" xlink:href="#DejaVuSans-20"/>
     <use x="832.25" xlink:href="#DejaVuSans-6f"/>
     <use x="893.431641" xlink:href="#DejaVuSans-66"/>
     <use x="928.636719" xlink:href="#DejaVuSans-20"/>
     <use x="960.423828" xlink:href="#DejaVuSans-55"/>
     <use x="1033.617188" xlink:href="#DejaVuSans-70"/>
     <use x="1097.09375" xlink:href="#DejaVuSans-76"/>
     <use x="1156.273438" xlink:href="#DejaVuSans-6f"/>
     <use x="1217.455078" xlink:href="#DejaVuSans-74"/>
     <use x="1256.664062" xlink:href="#DejaVuSans-65"/>
     <use x="1318.1875" xlink:href="#DejaVuSans-73"/>
     <use x="1370.287109" xlink:href="#DejaVuSans-20"/>
     <use x="1402.074219" xlink:href="#DejaVuSans-62"/>
     <use x="1465.550781" xlink:href="#DejaVuSans-79"/>
     <use x="1524.730469" xlink:href="#DejaVuSans-20"/>
     <use x="1556.517578" xlink:href="#DejaVuSans-50"/>
     <use x="1616.773438" xlink:href="#DejaVuSans-65"/>
     <use x="1678.296875" xlink:href="#DejaVuSans-72"/>
     <use x="1719.378906" xlink:href="#DejaVuSans-63"/>
     <use x="1774.359375" xlink:href="#DejaVuSans-65"/>
     <use x="1835.882812" xlink:href="#DejaVuSans-6e"/>
     <use x="1899.261719" xlink:href="#DejaVuSans-74"/>
     <use x="1938.470703" xlink:href="#DejaVuSans-69"/>
     <use x="1966.253906" xlink:href="#DejaVuSans-6c"/>
     <use x="1994.037109" xlink:href="#DejaVuSans-65"/>
    </g>
   </g>
   <g id="legend_1">
    <g id="patch_57">
     <path d="M 61 171.939688 
L 171.678125 171.939688 
Q 173.678125 171.939688 173.678125 169.939688 
L 173.678125 41.56 
Q 173.678125 39.56 171.678125 39.56 
L 61 39.56 
Q 59 39.56 59 41.56 
L 59 169.939688 
Q 59 171.939688 61 171.939688 
z
" style="fill:#ffffff;opacity:0.8;stroke:#cccccc;stroke-linejoin:miter;"/>
    </g>
    <g id="patch_58">
     <path d="M 63 57.797188 
L 83 57.797188 
L 83 50.797188 
L 63 50.797188 
z
" style="fill:#cbff00;"/>
    </g>
    <g id="text_18">
     <!-- Percentile: 60% -->
     <defs>
      <path d="M 11.71875 12.40625 
L 22.015625 12.40625 
L 22.015625 0 
L 11.71875 0 
z
M 11.71875 51.703125 
L 22.015625 51.703125 
L 22.015625 39.3125 
L 11.71875 39.3125 
z
" id="DejaVuSans-3a"/>
      <path d="M 72.703125 32.078125 
Q 68.453125 32.078125 66.03125 28.46875 
Q 63.625 24.859375 63.625 18.40625 
Q 63.625 12.0625 66.03125 8.421875 
Q 68.453125 4.78125 72.703125 4.78125 
Q 76.859375 4.78125 79.265625 8.421875 
Q 81.6875 12.0625 81.6875 18.40625 
Q 81.6875 24.8125 79.265625 28.4375 
Q 76.859375 32.078125 72.703125 32.078125 
z
M 72.703125 38.28125 
Q 80.421875 38.28125 84.953125 32.90625 
Q 89.5 27.546875 89.5 18.40625 
Q 89.5 9.28125 84.9375 3.921875 
Q 80.375 -1.421875 72.703125 -1.421875 
Q 64.890625 -1.421875 60.34375 3.921875 
Q 55.8125 9.28125 55.8125 18.40625 
Q 55.8125 27.59375 60.375 32.9375 
Q 64.9375 38.28125 72.703125 38.28125 
z
M 22.3125 68.015625 
Q 18.109375 68.015625 15.6875 64.375 
Q 13.28125 60.75 13.28125 54.390625 
Q 13.28125 47.953125 15.671875 44.328125 
Q 18.0625 40.71875 22.3125 40.71875 
Q 26.5625 40.71875 28.96875 44.328125 
Q 31.390625 47.953125 31.390625 54.390625 
Q 31.390625 60.6875 28.953125 64.34375 
Q 26.515625 68.015625 22.3125 68.015625 
z
M 66.40625 74.21875 
L 74.21875 74.21875 
L 28.609375 -1.421875 
L 20.796875 -1.421875 
z
M 22.3125 74.21875 
Q 30.03125 74.21875 34.609375 68.875 
Q 39.203125 63.53125 39.203125 54.390625 
Q 39.203125 45.171875 34.640625 39.84375 
Q 30.078125 34.515625 22.3125 34.515625 
Q 14.546875 34.515625 10.03125 39.859375 
Q 5.515625 45.21875 5.515625 54.390625 
Q 5.515625 63.484375 10.046875 68.84375 
Q 14.59375 74.21875 22.3125 74.21875 
z
" id="DejaVuSans-25"/>
     </defs>
     <g transform="translate(91 51.158438)scale(0.1 -0.1)">
      <use xlink:href="#DejaVuSans-50"/>
      <use x="60.255859" xlink:href="#DejaVuSans-65"/>
      <use x="121.779297" xlink:href="#DejaVuSans-72"/>
      <use x="162.861328" xlink:href="#DejaVuSans-63"/>
      <use x="217.841797" xlink:href="#DejaVuSans-65"/>
      <use x="279.365234" xlink:href="#DejaVuSans-6e"/>
      <use x="342.744141" xlink:href="#DejaVuSans-74"/>
      <use x="381.953125" xlink:href="#DejaVuSans-69"/>
      <use x="409.736328" xlink:href="#DejaVuSans-6c"/>
      <use x="437.519531" xlink:href="#DejaVuSans-65"/>
      <use x="499.042969" xlink:href="#DejaVuSans-3a"/>
      <use x="532.734375" xlink:href="#DejaVuSans-20"/>
      <use x="564.521484" xlink:href="#DejaVuSans-36"/>
      <use x="628.144531" xlink:href="#DejaVuSans-30"/>
      <use x="691.767578" xlink:href="#DejaVuSans-25"/>
     </g>
     <!-- Share: 1% -->
     <g transform="translate(91 62.35625)scale(0.1 -0.1)">
      <use xlink:href="#DejaVuSans-53"/>
      <use x="63.476562" xlink:href="#DejaVuSans-68"/>
      <use x="126.855469" xlink:href="#DejaVuSans-61"/>
      <use x="188.134766" xlink:href="#DejaVuSans-72"/>
      <use x="229.216797" xlink:href="#DejaVuSans-65"/>
      <use x="290.740234" xlink:href="#DejaVuSans-3a"/>
      <use x="324.431641" xlink:href="#DejaVuSans-20"/>
      <use x="356.21875" xlink:href="#DejaVuSans-31"/>
      <use x="419.841797" xlink:href="#DejaVuSans-25"/>
     </g>
    </g>
    <g id="patch_59">
     <path d="M 63 83.673125 
L 83 83.673125 
L 83 76.673125 
L 63 76.673125 
z
" style="fill:#00fcff;"/>
    </g>
    <g id="text_19">
     <!-- Percentile: 75% -->
     <g transform="translate(91 77.034375)scale(0.1 -0.1)">
      <use xlink:href="#DejaVuSans-50"/>
      <use x="60.255859" xlink:href="#DejaVuSans-65"/>
      <use x="121.779297" xlink:href="#DejaVuSans-72"/>
      <use x="162.861328" xlink:href="#DejaVuSans-63"/>
      <use x="217.841797" xlink:href="#DejaVuSans-65"/>
      <use x="279.365234" xlink:href="#DejaVuSans-6e"/>
      <use x="342.744141" xlink:href="#DejaVuSans-74"/>
      <use x="381.953125" xlink:href="#DejaVuSans-69"/>
      <use x="409.736328" xlink:href="#DejaVuSans-6c"/>
      <use x="437.519531" xlink:href="#DejaVuSans-65"/>
      <use x="499.042969" xlink:href="#DejaVuSans-3a"/>
      <use x="532.734375" xlink:href="#DejaVuSans-20"/>
      <use x="564.521484" xlink:href="#DejaVuSans-37"/>
      <use x="628.144531" xlink:href="#DejaVuSans-35"/>
      <use x="691.767578" xlink:href="#DejaVuSans-25"/>
     </g>
     <!-- Share: 2% -->
     <g transform="translate(91 88.232188)scale(0.1 -0.1)">
      <use xlink:href="#DejaVuSans-53"/>
      <use x="63.476562" xlink:href="#DejaVuSans-68"/>
      <use x="126.855469" xlink:href="#DejaVuSans-61"/>
      <use x="188.134766" xlink:href="#DejaVuSans-72"/>
      <use x="229.216797" xlink:href="#DejaVuSans-65"/>
      <use x="290.740234" xlink:href="#DejaVuSans-3a"/>
      <use x="324.431641" xlink:href="#DejaVuSans-20"/>
      <use x="356.21875" xlink:href="#DejaVuSans-32"/>
      <use x="419.841797" xlink:href="#DejaVuSans-25"/>
     </g>
    </g>
    <g id="patch_60">
     <path d="M 63 109.549062 
L 83 109.549062 
L 83 102.549062 
L 63 102.549062 
z
" style="fill:#d000ff;"/>
    </g>
    <g id="text_20">
     <!-- Percentile: 90% -->
     <g transform="translate(91 102.910313)scale(0.1 -0.1)">
      <use xlink:href="#DejaVuSans-50"/>
      <use x="60.255859" xlink:href="#DejaVuSans-65"/>
      <use x="121.779297" xlink:href="#DejaVuSans-72"/>
      <use x="162.861328" xlink:href="#DejaVuSans-63"/>
      <use x="217.841797" xlink:href="#DejaVuSans-65"/>
      <use x="279.365234" xlink:href="#DejaVuSans-6e"/>
      <use x="342.744141" xlink:href="#DejaVuSans-74"/>
      <use x="381.953125" xlink:href="#DejaVuSans-69"/>
      <use x="409.736328" xlink:href="#DejaVuSans-6c"/>
      <use x="437.519531" xlink:href="#DejaVuSans-65"/>
      <use x="499.042969" xlink:href="#DejaVuSans-3a"/>
      <use x="532.734375" xlink:href="#DejaVuSans-20"/>
      <use x="564.521484" xlink:href="#DejaVuSans-39"/>
      <use x="628.144531" xlink:href="#DejaVuSans-30"/>
      <use x="691.767578" xlink:href="#DejaVuSans-25"/>
     </g>
     <!-- Share: 6% -->
     <g transform="translate(91 114.108125)scale(0.1 -0.1)">
      <use xlink:href="#DejaVuSans-53"/>
      <use x="63.476562" xlink:href="#DejaVuSans-68"/>
      <use x="126.855469" xlink:href="#DejaVuSans-61"/>
      <use x="188.134766" xlink:href="#DejaVuSans-72"/>
      <use x="229.216797" xlink:href="#DejaVuSans-65"/>
      <use x="290.740234" xlink:href="#DejaVuSans-3a"/>
      <use x="324.431641" xlink:href="#DejaVuSans-20"/>
      <use x="356.21875" xlink:href="#DejaVuSans-36"/>
      <use x="419.841797" xlink:href="#DejaVuSans-25"/>
     </g>
    </g>
    <g id="patch_61">
     <path d="M 63 135.425 
L 83 135.425 
L 83 128.425 
L 63 128.425 
z
" style="fill:#ff008e;"/>
    </g>
    <g id="text_21">
     <!-- Percentile: 95% -->
     <g transform="translate(91 128.78625)scale(0.1 -0.1)">
      <use xlink:href="#DejaVuSans-50"/>
      <use x="60.255859" xlink:href="#DejaVuSans-65"/>
      <use x="121.779297" xlink:href="#DejaVuSans-72"/>
      <use x="162.861328" xlink:href="#DejaVuSans-63"/>
      <use x="217.841797" xlink:href="#DejaVuSans-65"/>
      <use x="279.365234" xlink:href="#DejaVuSans-6e"/>
      <use x="342.744141" xlink:href="#DejaVuSans-74"/>
      <use x="381.953125" xlink:href="#DejaVuSans-69"/>
      <use x="409.736328" xlink:href="#DejaVuSans-6c"/>
      <use x="437.519531" xlink:href="#DejaVuSans-65"/>
      <use x="499.042969" xlink:href="#DejaVuSans-3a"/>
      <use x="532.734375" xlink:href="#DejaVuSans-20"/>
      <use x="564.521484" xlink:href="#DejaVuSans-39"/>
      <use x="628.144531" xlink:href="#DejaVuSans-35"/>
      <use x="691.767578" xlink:href="#DejaVuSans-25"/>
     </g>
     <!-- Share: 12% -->
     <g transform="translate(91 139.984063)scale(0.1 -0.1)">
      <use xlink:href="#DejaVuSans-53"/>
      <use x="63.476562" xlink:href="#DejaVuSans-68"/>
      <use x="126.855469" xlink:href="#DejaVuSans-61"/>
      <use x="188.134766" xlink:href="#DejaVuSans-72"/>
      <use x="229.216797" xlink:href="#DejaVuSans-65"/>
      <use x="290.740234" xlink:href="#DejaVuSans-3a"/>
      <use x="324.431641" xlink:href="#DejaVuSans-20"/>
      <use x="356.21875" xlink:href="#DejaVuSans-31"/>
      <use x="419.841797" xlink:href="#DejaVuSans-32"/>
      <use x="483.464844" xlink:href="#DejaVuSans-25"/>
     </g>
    </g>
    <g id="patch_62">
     <path d="M 63 161.300938 
L 83 161.300938 
L 83 154.300938 
L 63 154.300938 
z
" style="fill:#ff0018;"/>
    </g>
    <g id="text_22">
     <!-- Percentile: 99% -->
     <g transform="translate(91 154.662188)scale(0.1 -0.1)">
      <use xlink:href="#DejaVuSans-50"/>
      <use x="60.255859" xlink:href="#DejaVuSans-65"/>
      <use x="121.779297" xlink:href="#DejaVuSans-72"/>
      <use x="162.861328" xlink:href="#DejaVuSans-63"/>
      <use x="217.841797" xlink:href="#DejaVuSans-65"/>
      <use x="279.365234" xlink:href="#DejaVuSans-6e"/>
      <use x="342.744141" xlink:href="#DejaVuSans-74"/>
      <use x="381.953125" xlink:href="#DejaVuSans-69"/>
      <use x="409.736328" xlink:href="#DejaVuSans-6c"/>
      <use x="437.519531" xlink:href="#DejaVuSans-65"/>
      <use x="499.042969" xlink:href="#DejaVuSans-3a"/>
      <use x="532.734375" xlink:href="#DejaVuSans-20"/>
      <use x="564.521484" xlink:href="#DejaVuSans-39"/>
      <use x="628.144531" xlink:href="#DejaVuSans-39"/>
      <use x="691.767578" xlink:href="#DejaVuSans-25"/>
     </g>
     <!-- Share: 34% -->
     <defs>
      <path d="M 37.796875 64.3125 
L 12.890625 25.390625 
L 37.796875 25.390625 
z
M 35.203125 72.90625 
L 47.609375 72.90625 
L 47.609375 25.390625 
L 58.015625 25.390625 
L 58.015625 17.1875 
L 47.609375 17.1875 
L 47.609375 0 
L 37.796875 0 
L 37.796875 17.1875 
L 4.890625 17.1875 
L 4.890625 26.703125 
z
" id="DejaVuSans-34"/>
     </defs>
     <g transform="translate(91 165.86)scale(0.1 -0.1)">
      <use xlink:href="#DejaVuSans-53"/>
      <use x="63.476562" xlink:href="#DejaVuSans-68"/>
      <use x="126.855469" xlink:href="#DejaVuSans-61"/>
      <use x="188.134766" xlink:href="#DejaVuSans-72"/>
      <use x="229.216797" xlink:href="#DejaVuSans-65"/>
      <use x="290.740234" xlink:href="#DejaVuSans-3a"/>
      <use x="324.431641" xlink:href="#DejaVuSans-20"/>
      <use x="356.21875" xlink:href="#DejaVuSans-33"/>
      <use x="419.841797" xlink:href="#DejaVuSans-34"/>
      <use x="483.464844" xlink:href="#DejaVuSans-25"/>
     </g>
    </g>
   </g>
  </g>
 </g>
 <defs>
  <clipPath id="p84e566d325">
   <rect height="217.44" width="334.8" x="54" y="34.56"/>
  </clipPath>
 </defs>
</svg>
