<?xml version="1.0" encoding="utf-8" standalone="no"?>
<!DOCTYPE svg PUBLIC "-//W3C//DTD SVG 1.1//EN"
  "http://www.w3.org/Graphics/SVG/1.1/DTD/svg11.dtd">
<!-- Created with matplotlib (http://matplotlib.org/) -->
<svg height="288pt" version="1.1" viewBox="0 0 432 288" width="432pt" xmlns="http://www.w3.org/2000/svg" xmlns:xlink="http://www.w3.org/1999/xlink">
 <defs>
  <style type="text/css">
*{stroke-linecap:butt;stroke-linejoin:round;}
  </style>
 </defs>
 <g id="figure_1">
  <g id="patch_1">
   <path d="M 0 288 
L 432 288 
L 432 0 
L 0 0 
z
" style="fill:#ffffff;"/>
  </g>
  <g id="axes_1">
   <g id="patch_2">
    <path d="M 54 252 
L 388.8 252 
L 388.8 34.56 
L 54 34.56 
z
" style="fill:#ffffff;"/>
   </g>
   <g id="matplotlib.axis_1">
    <g id="xtick_1">
     <g id="line2d_1">
      <defs>
       <path d="M 0 0 
L 0 3.5 
" id="m55e7cb35ee" style="stroke:#000000;stroke-width:0.8;"/>
      </defs>
      <g>
       <use style="stroke:#000000;stroke-width:0.8;" x="54" xlink:href="#m55e7cb35ee" y="252"/>
      </g>
     </g>
     <g id="text_1">
      <!-- 0.0 -->
      <defs>
       <path d="M 31.78125 66.40625 
Q 24.171875 66.40625 20.328125 58.90625 
Q 16.5 51.421875 16.5 36.375 
Q 16.5 21.390625 20.328125 13.890625 
Q 24.171875 6.390625 31.78125 6.390625 
Q 39.453125 6.390625 43.28125 13.890625 
Q 47.125 21.390625 47.125 36.375 
Q 47.125 51.421875 43.28125 58.90625 
Q 39.453125 66.40625 31.78125 66.40625 
z
M 31.78125 74.21875 
Q 44.046875 74.21875 50.515625 64.515625 
Q 56.984375 54.828125 56.984375 36.375 
Q 56.984375 17.96875 50.515625 8.265625 
Q 44.046875 -1.421875 31.78125 -1.421875 
Q 19.53125 -1.421875 13.0625 8.265625 
Q 6.59375 17.96875 6.59375 36.375 
Q 6.59375 54.828125 13.0625 64.515625 
Q 19.53125 74.21875 31.78125 74.21875 
z
" id="DejaVuSans-30"/>
       <path d="M 10.6875 12.40625 
L 21 12.40625 
L 21 0 
L 10.6875 0 
z
" id="DejaVuSans-2e"/>
      </defs>
      <g transform="translate(46.048437 266.598437)scale(0.1 -0.1)">
       <use xlink:href="#DejaVuSans-30"/>
       <use x="63.623047" xlink:href="#DejaVuSans-2e"/>
       <use x="95.410156" xlink:href="#DejaVuSans-30"/>
      </g>
     </g>
    </g>
    <g id="xtick_2">
     <g id="line2d_2">
      <g>
       <use style="stroke:#000000;stroke-width:0.8;" x="120.96" xlink:href="#m55e7cb35ee" y="252"/>
      </g>
     </g>
     <g id="text_2">
      <!-- 0.2 -->
      <defs>
       <path d="M 19.1875 8.296875 
L 53.609375 8.296875 
L 53.609375 0 
L 7.328125 0 
L 7.328125 8.296875 
Q 12.9375 14.109375 22.625 23.890625 
Q 32.328125 33.6875 34.8125 36.53125 
Q 39.546875 41.84375 41.421875 45.53125 
Q 43.3125 49.21875 43.3125 52.78125 
Q 43.3125 58.59375 39.234375 62.25 
Q 35.15625 65.921875 28.609375 65.921875 
Q 23.96875 65.921875 18.8125 64.3125 
Q 13.671875 62.703125 7.8125 59.421875 
L 7.8125 69.390625 
Q 13.765625 71.78125 18.9375 73 
Q 24.125 74.21875 28.421875 74.21875 
Q 39.75 74.21875 46.484375 68.546875 
Q 53.21875 62.890625 53.21875 53.421875 
Q 53.21875 48.921875 51.53125 44.890625 
Q 49.859375 40.875 45.40625 35.40625 
Q 44.1875 33.984375 37.640625 27.21875 
Q 31.109375 20.453125 19.1875 8.296875 
z
" id="DejaVuSans-32"/>
      </defs>
      <g transform="translate(113.008438 266.598437)scale(0.1 -0.1)">
       <use xlink:href="#DejaVuSans-30"/>
       <use x="63.623047" xlink:href="#DejaVuSans-2e"/>
       <use x="95.410156" xlink:href="#DejaVuSans-32"/>
      </g>
     </g>
    </g>
    <g id="xtick_3">
     <g id="line2d_3">
      <g>
       <use style="stroke:#000000;stroke-width:0.8;" x="187.92" xlink:href="#m55e7cb35ee" y="252"/>
      </g>
     </g>
     <g id="text_3">
      <!-- 0.4 -->
      <defs>
       <path d="M 37.796875 64.3125 
L 12.890625 25.390625 
L 37.796875 25.390625 
z
M 35.203125 72.90625 
L 47.609375 72.90625 
L 47.609375 25.390625 
L 58.015625 25.390625 
L 58.015625 17.1875 
L 47.609375 17.1875 
L 47.609375 0 
L 37.796875 0 
L 37.796875 17.1875 
L 4.890625 17.1875 
L 4.890625 26.703125 
z
" id="DejaVuSans-34"/>
      </defs>
      <g transform="translate(179.968438 266.598437)scale(0.1 -0.1)">
       <use xlink:href="#DejaVuSans-30"/>
       <use x="63.623047" xlink:href="#DejaVuSans-2e"/>
       <use x="95.410156" xlink:href="#DejaVuSans-34"/>
      </g>
     </g>
    </g>
    <g id="xtick_4">
     <g id="line2d_4">
      <g>
       <use style="stroke:#000000;stroke-width:0.8;" x="254.88" xlink:href="#m55e7cb35ee" y="252"/>
      </g>
     </g>
     <g id="text_4">
      <!-- 0.6 -->
      <defs>
       <path d="M 33.015625 40.375 
Q 26.375 40.375 22.484375 35.828125 
Q 18.609375 31.296875 18.609375 23.390625 
Q 18.609375 15.53125 22.484375 10.953125 
Q 26.375 6.390625 33.015625 6.390625 
Q 39.65625 6.390625 43.53125 10.953125 
Q 47.40625 15.53125 47.40625 23.390625 
Q 47.40625 31.296875 43.53125 35.828125 
Q 39.65625 40.375 33.015625 40.375 
z
M 52.59375 71.296875 
L 52.59375 62.3125 
Q 48.875 64.0625 45.09375 64.984375 
Q 41.3125 65.921875 37.59375 65.921875 
Q 27.828125 65.921875 22.671875 59.328125 
Q 17.53125 52.734375 16.796875 39.40625 
Q 19.671875 43.65625 24.015625 45.921875 
Q 28.375 48.1875 33.59375 48.1875 
Q 44.578125 48.1875 50.953125 41.515625 
Q 57.328125 34.859375 57.328125 23.390625 
Q 57.328125 12.15625 50.6875 5.359375 
Q 44.046875 -1.421875 33.015625 -1.421875 
Q 20.359375 -1.421875 13.671875 8.265625 
Q 6.984375 17.96875 6.984375 36.375 
Q 6.984375 53.65625 15.1875 63.9375 
Q 23.390625 74.21875 37.203125 74.21875 
Q 40.921875 74.21875 44.703125 73.484375 
Q 48.484375 72.75 52.59375 71.296875 
z
" id="DejaVuSans-36"/>
      </defs>
      <g transform="translate(246.928438 266.598437)scale(0.1 -0.1)">
       <use xlink:href="#DejaVuSans-30"/>
       <use x="63.623047" xlink:href="#DejaVuSans-2e"/>
       <use x="95.410156" xlink:href="#DejaVuSans-36"/>
      </g>
     </g>
    </g>
    <g id="xtick_5">
     <g id="line2d_5">
      <g>
       <use style="stroke:#000000;stroke-width:0.8;" x="321.84" xlink:href="#m55e7cb35ee" y="252"/>
      </g>
     </g>
     <g id="text_5">
      <!-- 0.8 -->
      <defs>
       <path d="M 31.78125 34.625 
Q 24.75 34.625 20.71875 30.859375 
Q 16.703125 27.09375 16.703125 20.515625 
Q 16.703125 13.921875 20.71875 10.15625 
Q 24.75 6.390625 31.78125 6.390625 
Q 38.8125 6.390625 42.859375 10.171875 
Q 46.921875 13.96875 46.921875 20.515625 
Q 46.921875 27.09375 42.890625 30.859375 
Q 38.875 34.625 31.78125 34.625 
z
M 21.921875 38.8125 
Q 15.578125 40.375 12.03125 44.71875 
Q 8.5 49.078125 8.5 55.328125 
Q 8.5 64.0625 14.71875 69.140625 
Q 20.953125 74.21875 31.78125 74.21875 
Q 42.671875 74.21875 48.875 69.140625 
Q 55.078125 64.0625 55.078125 55.328125 
Q 55.078125 49.078125 51.53125 44.71875 
Q 48 40.375 41.703125 38.8125 
Q 48.828125 37.15625 52.796875 32.3125 
Q 56.78125 27.484375 56.78125 20.515625 
Q 56.78125 9.90625 50.3125 4.234375 
Q 43.84375 -1.421875 31.78125 -1.421875 
Q 19.734375 -1.421875 13.25 4.234375 
Q 6.78125 9.90625 6.78125 20.515625 
Q 6.78125 27.484375 10.78125 32.3125 
Q 14.796875 37.15625 21.921875 38.8125 
z
M 18.3125 54.390625 
Q 18.3125 48.734375 21.84375 45.5625 
Q 25.390625 42.390625 31.78125 42.390625 
Q 38.140625 42.390625 41.71875 45.5625 
Q 45.3125 48.734375 45.3125 54.390625 
Q 45.3125 60.0625 41.71875 63.234375 
Q 38.140625 66.40625 31.78125 66.40625 
Q 25.390625 66.40625 21.84375 63.234375 
Q 18.3125 60.0625 18.3125 54.390625 
z
" id="DejaVuSans-38"/>
      </defs>
      <g transform="translate(313.888438 266.598437)scale(0.1 -0.1)">
       <use xlink:href="#DejaVuSans-30"/>
       <use x="63.623047" xlink:href="#DejaVuSans-2e"/>
       <use x="95.410156" xlink:href="#DejaVuSans-38"/>
      </g>
     </g>
    </g>
    <g id="xtick_6">
     <g id="line2d_6">
      <g>
       <use style="stroke:#000000;stroke-width:0.8;" x="388.8" xlink:href="#m55e7cb35ee" y="252"/>
      </g>
     </g>
     <g id="text_6">
      <!-- 1.0 -->
      <defs>
       <path d="M 12.40625 8.296875 
L 28.515625 8.296875 
L 28.515625 63.921875 
L 10.984375 60.40625 
L 10.984375 69.390625 
L 28.421875 72.90625 
L 38.28125 72.90625 
L 38.28125 8.296875 
L 54.390625 8.296875 
L 54.390625 0 
L 12.40625 0 
z
" id="DejaVuSans-31"/>
      </defs>
      <g transform="translate(380.848437 266.598437)scale(0.1 -0.1)">
       <use xlink:href="#DejaVuSans-31"/>
       <use x="63.623047" xlink:href="#DejaVuSans-2e"/>
       <use x="95.410156" xlink:href="#DejaVuSans-30"/>
      </g>
     </g>
    </g>
    <g id="text_7">
     <!-- False Positive Rate -->
     <defs>
      <path d="M 9.8125 72.90625 
L 51.703125 72.90625 
L 51.703125 64.59375 
L 19.671875 64.59375 
L 19.671875 43.109375 
L 48.578125 43.109375 
L 48.578125 34.8125 
L 19.671875 34.8125 
L 19.671875 0 
L 9.8125 0 
z
" id="DejaVuSans-46"/>
      <path d="M 34.28125 27.484375 
Q 23.390625 27.484375 19.1875 25 
Q 14.984375 22.515625 14.984375 16.5 
Q 14.984375 11.71875 18.140625 8.90625 
Q 21.296875 6.109375 26.703125 6.109375 
Q 34.1875 6.109375 38.703125 11.40625 
Q 43.21875 16.703125 43.21875 25.484375 
L 43.21875 27.484375 
z
M 52.203125 31.203125 
L 52.203125 0 
L 43.21875 0 
L 43.21875 8.296875 
Q 40.140625 3.328125 35.546875 0.953125 
Q 30.953125 -1.421875 24.3125 -1.421875 
Q 15.921875 -1.421875 10.953125 3.296875 
Q 6 8.015625 6 15.921875 
Q 6 25.140625 12.171875 29.828125 
Q 18.359375 34.515625 30.609375 34.515625 
L 43.21875 34.515625 
L 43.21875 35.40625 
Q 43.21875 41.609375 39.140625 45 
Q 35.0625 48.390625 27.6875 48.390625 
Q 23 48.390625 18.546875 47.265625 
Q 14.109375 46.140625 10.015625 43.890625 
L 10.015625 52.203125 
Q 14.9375 54.109375 19.578125 55.046875 
Q 24.21875 56 28.609375 56 
Q 40.484375 56 46.34375 49.84375 
Q 52.203125 43.703125 52.203125 31.203125 
z
" id="DejaVuSans-61"/>
      <path d="M 9.421875 75.984375 
L 18.40625 75.984375 
L 18.40625 0 
L 9.421875 0 
z
" id="DejaVuSans-6c"/>
      <path d="M 44.28125 53.078125 
L 44.28125 44.578125 
Q 40.484375 46.53125 36.375 47.5 
Q 32.28125 48.484375 27.875 48.484375 
Q 21.1875 48.484375 17.84375 46.4375 
Q 14.5 44.390625 14.5 40.28125 
Q 14.5 37.15625 16.890625 35.375 
Q 19.28125 33.59375 26.515625 31.984375 
L 29.59375 31.296875 
Q 39.15625 29.25 43.1875 25.515625 
Q 47.21875 21.78125 47.21875 15.09375 
Q 47.21875 7.46875 41.1875 3.015625 
Q 35.15625 -1.421875 24.609375 -1.421875 
Q 20.21875 -1.421875 15.453125 -0.5625 
Q 10.6875 0.296875 5.421875 2 
L 5.421875 11.28125 
Q 10.40625 8.6875 15.234375 7.390625 
Q 20.0625 6.109375 24.8125 6.109375 
Q 31.15625 6.109375 34.5625 8.28125 
Q 37.984375 10.453125 37.984375 14.40625 
Q 37.984375 18.0625 35.515625 20.015625 
Q 33.0625 21.96875 24.703125 23.78125 
L 21.578125 24.515625 
Q 13.234375 26.265625 9.515625 29.90625 
Q 5.8125 33.546875 5.8125 39.890625 
Q 5.8125 47.609375 11.28125 51.796875 
Q 16.75 56 26.8125 56 
Q 31.78125 56 36.171875 55.265625 
Q 40.578125 54.546875 44.28125 53.078125 
z
" id="DejaVuSans-73"/>
      <path d="M 56.203125 29.59375 
L 56.203125 25.203125 
L 14.890625 25.203125 
Q 15.484375 15.921875 20.484375 11.0625 
Q 25.484375 6.203125 34.421875 6.203125 
Q 39.59375 6.203125 44.453125 7.46875 
Q 49.3125 8.734375 54.109375 11.28125 
L 54.109375 2.78125 
Q 49.265625 0.734375 44.1875 -0.34375 
Q 39.109375 -1.421875 33.890625 -1.421875 
Q 20.796875 -1.421875 13.15625 6.1875 
Q 5.515625 13.8125 5.515625 26.8125 
Q 5.515625 40.234375 12.765625 48.109375 
Q 20.015625 56 32.328125 56 
Q 43.359375 56 49.78125 48.890625 
Q 56.203125 41.796875 56.203125 29.59375 
z
M 47.21875 32.234375 
Q 47.125 39.59375 43.09375 43.984375 
Q 39.0625 48.390625 32.421875 48.390625 
Q 24.90625 48.390625 20.390625 44.140625 
Q 15.875 39.890625 15.1875 32.171875 
z
" id="DejaVuSans-65"/>
      <path id="DejaVuSans-20"/>
      <path d="M 19.671875 64.796875 
L 19.671875 37.40625 
L 32.078125 37.40625 
Q 38.96875 37.40625 42.71875 40.96875 
Q 46.484375 44.53125 46.484375 51.125 
Q 46.484375 57.671875 42.71875 61.234375 
Q 38.96875 64.796875 32.078125 64.796875 
z
M 9.8125 72.90625 
L 32.078125 72.90625 
Q 44.34375 72.90625 50.609375 67.359375 
Q 56.890625 61.8125 56.890625 51.125 
Q 56.890625 40.328125 50.609375 34.8125 
Q 44.34375 29.296875 32.078125 29.296875 
L 19.671875 29.296875 
L 19.671875 0 
L 9.8125 0 
z
" id="DejaVuSans-50"/>
      <path d="M 30.609375 48.390625 
Q 23.390625 48.390625 19.1875 42.75 
Q 14.984375 37.109375 14.984375 27.296875 
Q 14.984375 17.484375 19.15625 11.84375 
Q 23.34375 6.203125 30.609375 6.203125 
Q 37.796875 6.203125 41.984375 11.859375 
Q 46.1875 17.53125 46.1875 27.296875 
Q 46.1875 37.015625 41.984375 42.703125 
Q 37.796875 48.390625 30.609375 48.390625 
z
M 30.609375 56 
Q 42.328125 56 49.015625 48.375 
Q 55.71875 40.765625 55.71875 27.296875 
Q 55.71875 13.875 49.015625 6.21875 
Q 42.328125 -1.421875 30.609375 -1.421875 
Q 18.84375 -1.421875 12.171875 6.21875 
Q 5.515625 13.875 5.515625 27.296875 
Q 5.515625 40.765625 12.171875 48.375 
Q 18.84375 56 30.609375 56 
z
" id="DejaVuSans-6f"/>
      <path d="M 9.421875 54.6875 
L 18.40625 54.6875 
L 18.40625 0 
L 9.421875 0 
z
M 9.421875 75.984375 
L 18.40625 75.984375 
L 18.40625 64.59375 
L 9.421875 64.59375 
z
" id="DejaVuSans-69"/>
      <path d="M 18.3125 70.21875 
L 18.3125 54.6875 
L 36.8125 54.6875 
L 36.8125 47.703125 
L 18.3125 47.703125 
L 18.3125 18.015625 
Q 18.3125 11.328125 20.140625 9.421875 
Q 21.96875 7.515625 27.59375 7.515625 
L 36.8125 7.515625 
L 36.8125 0 
L 27.59375 0 
Q 17.1875 0 13.234375 3.875 
Q 9.28125 7.765625 9.28125 18.015625 
L 9.28125 47.703125 
L 2.6875 47.703125 
L 2.6875 54.6875 
L 9.28125 54.6875 
L 9.28125 70.21875 
z
" id="DejaVuSans-74"/>
      <path d="M 2.984375 54.6875 
L 12.5 54.6875 
L 29.59375 8.796875 
L 46.6875 54.6875 
L 56.203125 54.6875 
L 35.6875 0 
L 23.484375 0 
z
" id="DejaVuSans-76"/>
      <path d="M 44.390625 34.1875 
Q 47.5625 33.109375 50.5625 29.59375 
Q 53.5625 26.078125 56.59375 19.921875 
L 66.609375 0 
L 56 0 
L 46.6875 18.703125 
Q 43.0625 26.03125 39.671875 28.421875 
Q 36.28125 30.8125 30.421875 30.8125 
L 19.671875 30.8125 
L 19.671875 0 
L 9.8125 0 
L 9.8125 72.90625 
L 32.078125 72.90625 
Q 44.578125 72.90625 50.734375 67.671875 
Q 56.890625 62.453125 56.890625 51.90625 
Q 56.890625 45.015625 53.6875 40.46875 
Q 50.484375 35.9375 44.390625 34.1875 
z
M 19.671875 64.796875 
L 19.671875 38.921875 
L 32.078125 38.921875 
Q 39.203125 38.921875 42.84375 42.21875 
Q 46.484375 45.515625 46.484375 51.90625 
Q 46.484375 58.296875 42.84375 61.546875 
Q 39.203125 64.796875 32.078125 64.796875 
z
" id="DejaVuSans-52"/>
     </defs>
     <g transform="translate(174.194531 280.276563)scale(0.1 -0.1)">
      <use xlink:href="#DejaVuSans-46"/>
      <use x="57.378906" xlink:href="#DejaVuSans-61"/>
      <use x="118.658203" xlink:href="#DejaVuSans-6c"/>
      <use x="146.441406" xlink:href="#DejaVuSans-73"/>
      <use x="198.541016" xlink:href="#DejaVuSans-65"/>
      <use x="260.064453" xlink:href="#DejaVuSans-20"/>
      <use x="291.851562" xlink:href="#DejaVuSans-50"/>
      <use x="352.107422" xlink:href="#DejaVuSans-6f"/>
      <use x="413.289062" xlink:href="#DejaVuSans-73"/>
      <use x="465.388672" xlink:href="#DejaVuSans-69"/>
      <use x="493.171875" xlink:href="#DejaVuSans-74"/>
      <use x="532.380859" xlink:href="#DejaVuSans-69"/>
      <use x="560.164062" xlink:href="#DejaVuSans-76"/>
      <use x="619.34375" xlink:href="#DejaVuSans-65"/>
      <use x="680.867188" xlink:href="#DejaVuSans-20"/>
      <use x="712.654297" xlink:href="#DejaVuSans-52"/>
      <use x="782.105469" xlink:href="#DejaVuSans-61"/>
      <use x="843.384766" xlink:href="#DejaVuSans-74"/>
      <use x="882.59375" xlink:href="#DejaVuSans-65"/>
     </g>
    </g>
   </g>
   <g id="matplotlib.axis_2">
    <g id="ytick_1">
     <g id="line2d_7">
      <defs>
       <path d="M 0 0 
L -3.5 0 
" id="m48c40c3a4d" style="stroke:#000000;stroke-width:0.8;"/>
      </defs>
      <g>
       <use style="stroke:#000000;stroke-width:0.8;" x="54" xlink:href="#m48c40c3a4d" y="252"/>
      </g>
     </g>
     <g id="text_8">
      <!-- 0.0 -->
      <g transform="translate(31.096875 255.799219)scale(0.1 -0.1)">
       <use xlink:href="#DejaVuSans-30"/>
       <use x="63.623047" xlink:href="#DejaVuSans-2e"/>
       <use x="95.410156" xlink:href="#DejaVuSans-30"/>
      </g>
     </g>
    </g>
    <g id="ytick_2">
     <g id="line2d_8">
      <g>
       <use style="stroke:#000000;stroke-width:0.8;" x="54" xlink:href="#m48c40c3a4d" y="210.582857"/>
      </g>
     </g>
     <g id="text_9">
      <!-- 0.2 -->
      <g transform="translate(31.096875 214.382076)scale(0.1 -0.1)">
       <use xlink:href="#DejaVuSans-30"/>
       <use x="63.623047" xlink:href="#DejaVuSans-2e"/>
       <use x="95.410156" xlink:href="#DejaVuSans-32"/>
      </g>
     </g>
    </g>
    <g id="ytick_3">
     <g id="line2d_9">
      <g>
       <use style="stroke:#000000;stroke-width:0.8;" x="54" xlink:href="#m48c40c3a4d" y="169.165714"/>
      </g>
     </g>
     <g id="text_10">
      <!-- 0.4 -->
      <g transform="translate(31.096875 172.964933)scale(0.1 -0.1)">
       <use xlink:href="#DejaVuSans-30"/>
       <use x="63.623047" xlink:href="#DejaVuSans-2e"/>
       <use x="95.410156" xlink:href="#DejaVuSans-34"/>
      </g>
     </g>
    </g>
    <g id="ytick_4">
     <g id="line2d_10">
      <g>
       <use style="stroke:#000000;stroke-width:0.8;" x="54" xlink:href="#m48c40c3a4d" y="127.748571"/>
      </g>
     </g>
     <g id="text_11">
      <!-- 0.6 -->
      <g transform="translate(31.096875 131.54779)scale(0.1 -0.1)">
       <use xlink:href="#DejaVuSans-30"/>
       <use x="63.623047" xlink:href="#DejaVuSans-2e"/>
       <use x="95.410156" xlink:href="#DejaVuSans-36"/>
      </g>
     </g>
    </g>
    <g id="ytick_5">
     <g id="line2d_11">
      <g>
       <use style="stroke:#000000;stroke-width:0.8;" x="54" xlink:href="#m48c40c3a4d" y="86.331429"/>
      </g>
     </g>
     <g id="text_12">
      <!-- 0.8 -->
      <g transform="translate(31.096875 90.130647)scale(0.1 -0.1)">
       <use xlink:href="#DejaVuSans-30"/>
       <use x="63.623047" xlink:href="#DejaVuSans-2e"/>
       <use x="95.410156" xlink:href="#DejaVuSans-38"/>
      </g>
     </g>
    </g>
    <g id="ytick_6">
     <g id="line2d_12">
      <g>
       <use style="stroke:#000000;stroke-width:0.8;" x="54" xlink:href="#m48c40c3a4d" y="44.914286"/>
      </g>
     </g>
     <g id="text_13">
      <!-- 1.0 -->
      <g transform="translate(31.096875 48.713504)scale(0.1 -0.1)">
       <use xlink:href="#DejaVuSans-31"/>
       <use x="63.623047" xlink:href="#DejaVuSans-2e"/>
       <use x="95.410156" xlink:href="#DejaVuSans-30"/>
      </g>
     </g>
    </g>
    <g id="text_14">
     <!-- True Positive Rate -->
     <defs>
      <path d="M -0.296875 72.90625 
L 61.375 72.90625 
L 61.375 64.59375 
L 35.5 64.59375 
L 35.5 0 
L 25.59375 0 
L 25.59375 64.59375 
L -0.296875 64.59375 
z
" id="DejaVuSans-54"/>
      <path d="M 41.109375 46.296875 
Q 39.59375 47.171875 37.8125 47.578125 
Q 36.03125 48 33.890625 48 
Q 26.265625 48 22.1875 43.046875 
Q 18.109375 38.09375 18.109375 28.8125 
L 18.109375 0 
L 9.078125 0 
L 9.078125 54.6875 
L 18.109375 54.6875 
L 18.109375 46.1875 
Q 20.953125 51.171875 25.484375 53.578125 
Q 30.03125 56 36.53125 56 
Q 37.453125 56 38.578125 55.875 
Q 39.703125 55.765625 41.0625 55.515625 
z
" id="DejaVuSans-72"/>
      <path d="M 8.5 21.578125 
L 8.5 54.6875 
L 17.484375 54.6875 
L 17.484375 21.921875 
Q 17.484375 14.15625 20.5 10.265625 
Q 23.53125 6.390625 29.59375 6.390625 
Q 36.859375 6.390625 41.078125 11.03125 
Q 45.3125 15.671875 45.3125 23.6875 
L 45.3125 54.6875 
L 54.296875 54.6875 
L 54.296875 0 
L 45.3125 0 
L 45.3125 8.40625 
Q 42.046875 3.421875 37.71875 1 
Q 33.40625 -1.421875 27.6875 -1.421875 
Q 18.265625 -1.421875 13.375 4.4375 
Q 8.5 10.296875 8.5 21.578125 
z
M 31.109375 56 
z
" id="DejaVuSans-75"/>
     </defs>
     <g transform="translate(25.017187 188.826094)rotate(-90)scale(0.1 -0.1)">
      <use xlink:href="#DejaVuSans-54"/>
      <use x="60.865234" xlink:href="#DejaVuSans-72"/>
      <use x="101.978516" xlink:href="#DejaVuSans-75"/>
      <use x="165.357422" xlink:href="#DejaVuSans-65"/>
      <use x="226.880859" xlink:href="#DejaVuSans-20"/>
      <use x="258.667969" xlink:href="#DejaVuSans-50"/>
      <use x="318.923828" xlink:href="#DejaVuSans-6f"/>
      <use x="380.105469" xlink:href="#DejaVuSans-73"/>
      <use x="432.205078" xlink:href="#DejaVuSans-69"/>
      <use x="459.988281" xlink:href="#DejaVuSans-74"/>
      <use x="499.197266" xlink:href="#DejaVuSans-69"/>
      <use x="526.980469" xlink:href="#DejaVuSans-76"/>
      <use x="586.160156" xlink:href="#DejaVuSans-65"/>
      <use x="647.683594" xlink:href="#DejaVuSans-20"/>
      <use x="679.470703" xlink:href="#DejaVuSans-52"/>
      <use x="748.921875" xlink:href="#DejaVuSans-61"/>
      <use x="810.201172" xlink:href="#DejaVuSans-74"/>
      <use x="849.410156" xlink:href="#DejaVuSans-65"/>
     </g>
    </g>
   </g>
   <g id="line2d_13">
    <path clip-path="url(#p5bcd58cd9e)" d="M 54 251.984814 
L 54 251.924072 
L 54 251.924072 
L 54 251.924072 
L 54.023265 251.924072 
L 54.116323 247.748038 
L 54.139587 247.748038 
L 54.232645 244.164242 
L 54.279174 244.149057 
L 54.372233 243.329036 
L 54.395497 243.329036 
L 54.395497 243.222736 
L 54.488555 239.046703 
L 54.535084 238.834105 
L 54.628143 236.298113 
L 54.651407 236.298113 
L 54.744465 234.551772 
L 54.76773 234.551772 
L 54.860788 232.547276 
L 54.884053 232.547276 
L 54.977111 231.545028 
L 55.000375 231.545028 
L 55.093433 230.618708 
L 55.139962 230.618708 
L 55.233021 229.145707 
L 55.256285 229.145707 
L 55.256285 229.039407 
L 55.349343 226.002292 
L 55.442402 225.926364 
L 55.53546 224.954487 
L 55.605253 224.924116 
L 55.698311 223.921868 
L 55.744841 223.906682 
L 55.744841 223.84594 
L 55.837899 222.91962 
L 55.861163 222.91962 
L 55.861163 222.843692 
L 55.930957 221.522547 
L 55.954221 221.522547 
L 56.00075 221.446619 
L 56.093809 219.183968 
L 56.117073 219.183968 
L 56.210131 217.52874 
L 56.233396 217.52874 
L 56.326454 214.871264 
L 56.396248 214.825707 
L 56.489306 214.218284 
L 56.535835 214.203099 
L 56.535835 214.111985 
L 56.628893 212.714912 
L 56.675422 212.669355 
L 56.76848 211.910077 
L 56.791745 211.818963 
L 56.884803 210.102993 
L 56.954597 210.027065 
L 57.047655 209.328528 
L 57.070919 209.328528 
L 57.140713 208.554064 
L 57.233771 208.250353 
L 57.326829 207.005135 
L 57.396623 206.974764 
L 57.489681 206.154743 
L 57.53621 206.139557 
L 57.629268 205.000639 
L 57.699062 204.909526 
L 57.79212 203.679494 
L 57.815385 203.679494 
L 57.908443 202.813916 
L 57.954972 202.783545 
L 58.04803 202.176122 
L 58.117824 202.115379 
L 58.117824 202.085008 
L 58.210882 200.687935 
L 58.257411 200.67275 
L 58.30394 200.095698 
L 58.420263 200.004584 
L 58.513321 199.199749 
L 58.55985 199.199749 
L 58.652908 198.531583 
L 58.676173 198.531583 
L 58.676173 198.44047 
L 58.769231 197.210438 
L 58.81576 197.195252 
L 58.908818 195.372983 
L 58.978612 195.28187 
L 59.07167 195.008529 
L 59.141463 194.993344 
L 59.234522 194.309993 
L 59.257786 194.309993 
L 59.350844 193.641827 
L 59.374109 193.641827 
L 59.467167 192.062527 
L 59.513696 191.895486 
L 59.58349 191.561403 
L 59.606754 191.561403 
L 59.653283 191.439919 
L 59.746341 190.54397 
L 59.792871 190.513599 
L 59.885929 190.012474 
L 59.909193 190.012474 
L 60.002251 189.450608 
L 60.04878 189.450608 
L 60.141839 188.812814 
L 60.188368 188.812814 
L 60.258161 188.205391 
L 60.397749 188.144648 
L 60.490807 187.810566 
L 60.5606 187.719452 
L 60.653659 187.1424 
L 60.676923 187.1424 
L 60.769981 186.610905 
L 60.81651 186.550163 
L 60.909568 185.714956 
L 60.956098 185.608657 
L 61.025891 185.15309 
L 61.07242 185.15309 
L 61.07242 185.077162 
L 61.165478 184.560852 
L 61.281801 184.393811 
L 61.374859 183.71046 
L 61.398124 183.71046 
L 61.398124 183.634532 
L 61.491182 183.19415 
L 61.537711 183.133408 
L 61.537711 183.087851 
L 61.630769 182.586727 
L 61.677298 182.556356 
L 61.770356 181.690778 
L 61.793621 181.690778 
L 61.886679 181.144097 
L 61.979737 181.037798 
L 62.072795 180.506303 
L 62.119325 180.460746 
L 62.212383 180.065921 
L 62.258912 179.974808 
L 62.35197 179.686282 
L 62.398499 179.564797 
L 62.491557 178.820704 
L 62.561351 178.805519 
L 62.654409 177.833642 
L 62.677674 177.833642 
L 62.770732 177.195847 
L 62.793996 177.195847 
L 62.793996 177.135105 
L 62.887054 176.406197 
L 62.933583 176.360641 
L 62.933583 176.315084 
L 63.026642 175.738032 
L 63.073171 175.692475 
L 63.142964 175.115423 
L 63.305816 175.009124 
L 63.398874 174.432072 
L 63.445403 174.416887 
L 63.445403 174.325773 
L 63.515197 174.006876 
L 63.561726 174.006876 
L 63.654784 173.596866 
L 63.724578 173.490567 
L 63.817636 173.095742 
L 63.864165 173.034999 
L 63.957223 172.457947 
L 64.027017 172.457947 
L 64.120075 172.123865 
L 64.166604 172.063122 
L 64.259662 171.440514 
L 64.306191 171.334215 
L 64.39925 171.030503 
L 64.445779 170.93939 
L 64.538837 170.240853 
L 64.585366 170.14974 
L 64.678424 169.7701 
L 64.748218 169.678987 
L 64.841276 169.344904 
L 64.86454 169.344904 
L 64.957598 168.752667 
L 65.027392 168.70711 
L 65.12045 168.023759 
L 65.190244 167.978202 
L 65.260038 167.249294 
L 65.306567 167.249294 
L 65.399625 166.535572 
L 65.446154 166.459644 
L 65.539212 165.502953 
L 65.609006 165.396654 
L 65.702064 164.880344 
L 65.771857 164.880344 
L 65.864916 164.62219 
L 65.88818 164.62219 
L 65.981238 164.227365 
L 66.027767 164.196993 
L 66.120826 163.422529 
L 66.167355 163.392158 
L 66.237148 163.088446 
L 66.376735 162.982147 
L 66.469794 162.541766 
L 66.539587 162.465838 
L 66.539587 162.450652 
L 66.632645 162.192497 
L 66.65591 162.192497 
L 66.65591 162.086198 
L 66.748968 161.888786 
L 66.842026 161.797672 
L 66.935084 161.569889 
L 67.051407 161.524332 
L 67.144465 161.205435 
L 67.190994 161.205435 
L 67.260788 160.719496 
L 67.353846 160.719496 
L 67.446904 159.762805 
L 67.493433 159.702063 
L 67.702814 159.36798 
L 67.795872 158.821299 
L 67.865666 158.715 
L 67.958724 158.426474 
L 67.981989 158.426474 
L 68.075047 158.092391 
L 68.168105 158.031649 
L 68.261163 157.636824 
L 68.307692 157.530525 
L 68.40075 157.287556 
L 68.44728 157.27237 
L 68.540338 157.014216 
L 68.586867 156.968659 
L 68.679925 156.528277 
L 68.703189 156.513091 
L 68.796248 156.20938 
L 68.866041 156.163823 
L 68.959099 155.768998 
L 68.982364 155.768998 
L 69.052158 155.495658 
L 69.16848 155.389359 
L 69.261538 155.024905 
L 69.354597 154.948977 
L 69.447655 154.538966 
L 69.517448 154.49341 
L 69.587242 154.022657 
L 69.6803 153.9771 
L 69.750094 153.582275 
L 69.843152 153.521533 
L 69.93621 153.278564 
L 70.006004 153.202636 
L 70.052533 153.096337 
L 70.168856 153.035594 
L 70.168856 153.005223 
L 70.331707 152.580027 
L 70.424765 152.078903 
L 70.494559 152.002975 
L 70.564353 151.866305 
L 70.610882 151.866305 
L 70.70394 151.425923 
L 70.727205 151.425923 
L 70.727205 151.349995 
L 70.820263 150.939985 
L 70.866792 150.848871 
L 70.95985 150.590716 
L 71.006379 150.54516 
L 71.099437 150.16552 
L 71.145966 150.119964 
L 71.239024 149.634025 
L 71.308818 149.573283 
L 71.401876 149.299942 
L 71.518199 149.193643 
L 71.611257 149.041788 
L 71.634522 149.041788 
L 71.72758 148.495107 
L 71.867167 148.44955 
L 71.960225 147.948426 
L 72.053283 147.857313 
L 72.146341 147.690271 
L 72.192871 147.644714 
L 72.285929 147.173962 
L 72.332458 147.067663 
L 72.425516 146.824693 
L 72.49531 146.73358 
L 72.588368 146.323569 
L 72.658161 146.21727 
L 72.75122 145.655404 
L 72.821013 145.625033 
L 72.867542 145.382064 
L 72.914071 145.382064 
L 73.053659 145.29095 
L 73.146717 145.047981 
L 73.193246 145.01761 
L 73.263039 144.668341 
L 73.332833 144.562042 
L 73.356098 144.516486 
L 73.518949 144.470929 
L 73.588743 144.288702 
L 73.658537 144.243145 
L 73.72833 143.878691 
L 73.867917 143.817949 
L 73.960976 143.483866 
L 74.054034 143.483866 
L 74.123827 143.332011 
L 74.263415 143.225712 
L 74.356473 142.952371 
L 74.472795 142.906814 
L 74.472795 142.861258 
L 74.565854 142.618288 
L 74.612383 142.618288 
L 74.682176 142.101979 
L 74.798499 141.99568 
L 74.891557 141.722339 
L 74.961351 141.646412 
L 75.054409 141.327514 
L 75.124203 141.221215 
L 75.193996 141.114916 
L 75.240525 141.114916 
L 75.333583 140.82639 
L 75.449906 140.735277 
L 75.542964 140.568236 
L 75.566229 140.568236 
L 75.659287 140.097483 
L 75.752345 139.991184 
L 75.822139 139.915256 
L 75.938462 139.839328 
L 76.03152 139.565987 
L 76.124578 139.535616 
L 76.217636 139.24709 
L 76.310694 139.171162 
L 76.403752 139.004121 
L 76.54334 138.897822 
L 76.613133 138.685224 
L 76.729456 138.578925 
L 76.822514 138.138543 
L 76.845779 138.138543 
L 76.938837 137.804461 
L 77.031895 137.728533 
L 77.124953 137.409636 
L 77.241276 137.364079 
L 77.241276 137.303337 
L 77.52045 137.029996 
L 77.613508 136.650357 
L 77.729831 136.544058 
L 77.822889 136.513687 
L 77.869418 136.46813 
L 77.962477 135.921449 
L 78.055535 135.875892 
L 78.148593 135.389954 
L 78.218386 135.283655 
L 78.311445 135.055871 
L 78.567355 134.964758 
L 78.660413 134.919201 
L 78.730206 134.812902 
L 78.823265 134.600304 
L 78.962852 134.494005 
L 79.032645 134.463634 
L 79.102439 134.387706 
L 79.195497 134.144736 
L 79.242026 134.038437 
L 79.335084 133.856211 
L 79.404878 133.780283 
L 79.497936 133.385458 
L 79.590994 133.279159 
L 79.684053 132.990633 
L 79.777111 132.960261 
L 79.870169 132.641364 
L 79.893433 132.641364 
L 79.963227 132.443952 
L 80.219137 132.337653 
L 80.265666 132.276911 
L 80.312195 132.276911 
L 80.475047 132.079498 
L 80.544841 131.973199 
L 80.614634 131.8669 
L 80.684428 131.699859 
L 80.893809 131.608745 
L 80.963602 131.016508 
L 81.05666 130.910209 
L 81.103189 130.879837 
L 81.31257 130.773538 
L 81.405629 130.363528 
L 81.545216 130.257229 
L 81.638274 130.181301 
L 81.708068 130.135744 
L 81.801126 129.953517 
L 81.870919 129.90796 
L 81.870919 129.877589 
L 82.312946 129.148682 
L 82.452533 129.087939 
L 82.545591 128.951269 
L 82.615385 128.905712 
L 82.708443 128.465331 
L 82.871295 128.374217 
L 82.964353 128.267918 
L 83.034146 128.161619 
L 83.127205 127.979392 
L 83.243527 127.888279 
L 83.336585 127.690866 
L 83.522702 127.599753 
L 83.522702 127.584567 
L 83.778612 127.129 
L 83.825141 126.946773 
L 83.964728 126.855659 
L 84.057786 126.643061 
L 84.081051 126.643061 
L 84.150844 126.369721 
L 84.313696 126.263422 
L 84.406754 125.868597 
L 84.569606 125.777484 
L 84.662664 125.625628 
L 84.732458 125.5497 
L 84.825516 125.382659 
L 85.034897 125.276359 
L 85.127955 125.17006 
L 85.337336 125.063761 
L 85.430394 124.942277 
L 85.500188 124.866349 
L 85.569981 124.729679 
L 85.663039 124.684122 
L 85.756098 124.441153 
L 85.825891 124.38041 
L 85.918949 124.10707 
L 85.988743 124.000771 
L 86.081801 123.894472 
L 86.244653 123.803359 
L 86.291182 123.727431 
L 86.547092 123.621132 
L 86.64015 123.530018 
L 86.919325 123.438905 
L 86.965854 123.31742 
L 87.012383 123.31742 
L 87.245028 122.968152 
L 87.361351 122.877038 
L 87.454409 122.679626 
L 87.547467 122.588512 
L 87.617261 122.406285 
L 87.803377 122.299986 
L 87.896435 122.178502 
L 87.9197 122.178502 
L 87.989493 121.965904 
L 88.105816 121.87479 
L 88.198874 121.692563 
L 88.315197 121.647007 
L 88.384991 121.46478 
L 88.478049 121.388852 
L 88.571107 120.978841 
L 88.710694 120.902913 
L 88.780488 120.781429 
L 88.896811 120.705501 
L 88.989869 120.568831 
L 89.129456 120.477717 
L 89.222514 119.991779 
L 89.431895 119.88548 
L 89.524953 119.718438 
L 89.618011 119.657696 
L 89.687805 119.384356 
L 89.873921 119.293242 
L 89.966979 119.156572 
L 90.060038 119.065458 
L 90.153096 118.85286 
L 90.315947 118.746561 
L 90.409006 118.640262 
L 90.548593 118.549149 
L 90.641651 118.351736 
L 90.851032 118.245437 
L 90.920826 118.123953 
L 91.013884 118.048025 
L 91.083677 117.92654 
L 91.2 117.850612 
L 91.269794 117.683571 
L 91.502439 117.577272 
L 91.595497 117.51653 
L 91.804878 117.410231 
L 91.874672 117.334303 
L 92.060788 117.243189 
L 92.130582 117.060962 
L 92.22364 117.00022 
L 92.293433 116.878735 
L 92.642402 116.787622 
L 92.73546 116.438354 
L 92.875047 116.34724 
L 92.944841 116.149828 
L 93.061163 116.043529 
L 93.154221 115.922044 
L 93.24728 115.876487 
L 93.340338 115.618332 
L 93.549719 115.542405 
L 93.642777 115.28425 
L 93.689306 115.253879 
L 93.735835 115.071652 
L 95.410882 113.537908 
L 95.50394 113.401238 
L 95.643527 113.294939 
L 95.713321 113.112712 
L 96.085553 113.006413 
L 96.132083 112.884929 
L 96.411257 112.839372 
L 96.504315 112.566031 
L 96.550844 112.474918 
L 96.643902 112.368619 
L 96.760225 112.277506 
L 96.853283 112.156021 
L 96.923077 112.095279 
L 96.992871 111.913052 
L 97.132458 111.837124 
L 97.225516 111.624526 
L 97.527955 111.518227 
L 97.621013 111.366371 
L 97.644278 111.366371 
L 97.737336 111.093031 
L 97.900188 110.986731 
L 97.993246 110.865247 
L 98.179362 110.758948 
L 98.27242 110.637463 
L 98.342214 110.54635 
L 98.342214 110.485607 
L 98.574859 110.40968 
L 98.644653 110.333752 
L 98.877298 110.242638 
L 98.947092 110.105968 
L 99.109944 110.014855 
L 99.203002 109.908556 
L 99.365854 109.817442 
L 99.435647 109.574473 
L 99.598499 109.468174 
L 99.621764 109.392246 
L 99.831144 109.285947 
L 99.900938 109.118905 
L 100.133583 109.012606 
L 100.226642 108.875936 
L 100.342964 108.800008 
L 100.436023 108.572225 
L 100.598874 108.541854 
L 100.691932 108.222956 
L 100.808255 108.147029 
L 100.901313 107.949616 
L 100.947842 107.873688 
L 101.040901 107.66109 
L 101.133959 107.569977 
L 101.203752 107.296636 
L 101.366604 107.190337 
L 101.459662 107.053667 
L 101.55272 106.947368 
L 101.645779 106.841069 
L 101.924953 106.765141 
L 102.018011 106.552543 
L 102.204128 106.446244 
L 102.297186 106.339945 
L 102.692683 106.248831 
L 102.762477 106.066605 
L 102.971857 105.975491 
L 103.064916 105.762893 
L 103.251032 105.656594 
L 103.34409 105.535109 
L 103.437148 105.42881 
L 103.506942 105.352882 
L 103.716323 105.246583 
L 103.786116 105.216212 
L 103.972233 105.109913 
L 104.042026 105.003614 
L 104.251407 104.897315 
L 104.274672 104.851758 
L 104.414259 104.791016 
L 104.484053 104.699903 
L 104.693433 104.593604 
L 104.786492 104.50249 
L 105.112195 104.396191 
L 105.13546 104.335449 
L 105.414634 104.244335 
L 105.484428 104.077294 
L 105.624015 103.970995 
L 105.717073 103.879881 
L 105.926454 103.773582 
L 106.019512 103.682469 
L 106.321951 103.57617 
L 106.391745 103.500242 
L 106.577861 103.393943 
L 106.670919 103.257273 
L 106.763977 103.150974 
L 106.857036 103.05986 
L 107.13621 102.953561 
L 107.159475 102.862448 
L 107.345591 102.756149 
L 107.415385 102.695406 
L 107.624765 102.589107 
L 107.717824 102.513179 
L 108.020263 102.40688 
L 108.113321 102.346138 
L 108.252908 102.27021 
L 108.345966 102.103169 
L 108.741463 102.027241 
L 108.834522 101.951313 
L 108.881051 101.845014 
L 108.974109 101.61723 
L 109.020638 101.526117 
L 109.090432 101.48056 
L 109.369606 101.374261 
L 109.4394 101.313519 
L 109.532458 101.252777 
L 109.625516 100.964251 
L 109.834897 100.873137 
L 109.927955 100.797209 
L 110.41651 100.296085 
L 110.556098 100.189786 
L 110.556098 100.174601 
L 110.998124 100.083487 
L 111.067917 99.946817 
L 111.230769 99.840518 
L 111.323827 99.673477 
L 111.347092 99.673477 
L 111.44015 99.476064 
L 111.579737 99.369765 
L 111.672795 99.263466 
L 111.765854 99.24828 
L 111.858912 99.066053 
L 112.021764 98.97494 
L 112.114822 98.853455 
L 112.347467 98.807899 
L 112.370732 98.671228 
L 112.626642 98.595301 
L 112.696435 98.443445 
L 112.952345 98.337146 
L 113.045403 98.261218 
L 113.184991 98.170104 
L 113.278049 97.987878 
L 113.394371 97.91195 
L 113.417636 97.820836 
L 113.580488 97.744908 
L 113.580488 97.684166 
L 113.813133 97.577867 
L 113.882927 97.517125 
L 114.092308 97.410826 
L 114.185366 97.350083 
L 114.418011 97.25897 
L 114.441276 97.137485 
L 114.72045 97.031186 
L 114.813508 96.970444 
L 114.999625 96.864145 
L 115.069418 96.788217 
L 115.209006 96.712289 
L 115.302064 96.484505 
L 115.511445 96.378206 
L 115.581238 96.317464 
L 115.813884 96.226351 
L 115.813884 96.195979 
L 116.046529 96.08968 
L 116.139587 96.044124 
L 116.325704 95.937825 
L 116.418762 95.861897 
L 116.581614 95.770783 
L 116.674672 95.710041 
L 116.860788 95.603742 
L 116.907317 95.482257 
L 117.093433 95.375958 
L 117.163227 95.30003 
L 117.326079 95.224102 
L 117.326079 95.102618 
L 117.605253 95.02669 
L 117.651782 94.874834 
L 117.884428 94.814092 
L 117.930957 94.707793 
L 118.25666 94.631865 
L 118.349719 94.555937 
L 118.489306 94.464824 
L 118.582364 94.297782 
L 118.745216 94.23704 
L 118.791745 94.145927 
L 119.001126 94.069999 
L 119.047655 93.933328 
L 119.303565 93.827029 
L 119.396623 93.58406 
L 119.815385 93.492947 
L 119.885178 93.432204 
L 120.04803 93.341091 
L 120.141088 93.189235 
L 120.350469 93.082936 
L 120.443527 92.991823 
L 120.606379 92.900709 
L 120.699437 92.824781 
L 120.862289 92.733668 
L 120.955347 92.566627 
L 121.07167 92.490699 
L 121.094934 92.429956 
L 121.281051 92.323657 
L 121.374109 92.202173 
L 121.513696 92.095874 
L 121.606754 91.974389 
L 121.769606 91.928832 
L 121.792871 91.822533 
L 122.234897 91.73142 
L 122.327955 91.655492 
L 122.421013 91.549193 
L 122.514071 91.382151 
L 122.700188 91.275852 
L 122.793246 91.245481 
L 122.932833 91.169553 
L 123.025891 91.017698 
L 123.467917 90.911399 
L 123.560976 90.789914 
L 123.863415 90.698801 
L 123.909944 90.607687 
L 124.09606 90.531759 
L 124.09606 90.501388 
L 124.165854 90.440646 
L 124.35197 90.334347 
L 124.445028 90.258419 
L 124.817261 90.167305 
L 124.817261 90.106563 
L 125.073171 90.000264 
L 125.1197 89.969893 
L 125.398874 89.863594 
L 125.468668 89.787666 
L 125.561726 89.757295 
L 125.608255 89.590253 
L 125.794371 89.49914 
L 125.840901 89.423212 
L 126.213133 89.332099 
L 126.306191 89.180243 
L 126.422514 89.104315 
L 126.422514 89.043573 
L 126.771482 88.937274 
L 126.86454 88.876531 
L 127.213508 88.739861 
L 127.539212 88.633562 
L 127.585741 88.542449 
L 127.88818 88.466521 
L 127.981238 88.329851 
L 128.283677 88.238737 
L 128.353471 88.19318 
L 128.586116 88.102067 
L 128.65591 88.041325 
L 128.935084 87.950211 
L 129.028143 87.843912 
L 129.307317 87.737613 
L 129.400375 87.676871 
L 129.609756 87.570572 
L 129.702814 87.433901 
L 129.842402 87.342788 
L 129.93546 87.26686 
L 130.354221 87.175747 
L 130.40075 87.099819 
L 130.796248 86.99352 
L 130.866041 86.917592 
L 131.121951 86.826478 
L 131.215009 86.75055 
L 131.610507 86.674623 
L 131.6803 86.522767 
L 131.959475 86.416468 
L 132.052533 86.370911 
L 132.354972 86.264612 
L 132.44803 86.082385 
L 132.913321 85.976086 
L 132.983114 85.839416 
L 133.169231 85.763488 
L 133.21576 85.702746 
L 133.681051 85.611632 
L 133.750844 85.474962 
L 134.123077 85.399034 
L 134.123077 85.353477 
L 134.44878 85.247178 
L 134.541839 85.17125 
L 134.867542 85.080137 
L 134.914071 84.943467 
L 135.193246 84.837168 
L 135.286304 84.791611 
L 135.705066 84.700498 
L 135.774859 84.62457 
L 136.030769 84.548642 
L 136.123827 84.275301 
L 136.24015 84.184188 
L 136.286679 84.10826 
L 136.635647 84.032332 
L 136.728705 83.850105 
L 136.961351 83.758992 
L 137.031144 83.683064 
L 137.310319 83.59195 
L 137.403377 83.531208 
L 137.496435 83.424909 
L 137.589493 83.379352 
L 137.845403 83.273053 
L 137.938462 83.227497 
L 138.310694 83.121198 
L 138.403752 82.999713 
L 138.775985 82.9086 
L 138.869043 82.832672 
L 139.194747 82.726373 
L 139.194747 82.711187 
L 139.636773 82.635259 
L 139.729831 82.513775 
L 139.962477 82.407475 
L 140.03227 82.316362 
L 140.427767 82.225249 
L 140.474296 82.134135 
L 140.730206 82.043022 
L 140.8 81.951908 
L 140.916323 81.845609 
L 140.962852 81.800052 
L 141.31182 81.693753 
L 141.404878 81.557083 
L 141.637523 81.450784 
L 141.730582 81.374856 
L 142.102814 81.268557 
L 142.102814 81.238186 
L 142.172608 81.238186 
L 142.730957 81.131887 
L 142.824015 81.040774 
L 143.172983 80.934474 
L 143.219512 80.873732 
L 143.615009 80.782619 
L 143.684803 80.706691 
L 144.033771 80.600392 
L 144.0803 80.554835 
L 144.406004 80.448536 
L 144.406004 80.43335 
L 144.708443 80.342237 
L 144.778236 80.235938 
L 145.057411 80.129639 
L 145.10394 80.099268 
L 145.336585 79.992969 
L 145.429644 79.947412 
L 145.685553 79.841113 
L 145.778612 79.719628 
L 146.150844 79.613329 
L 146.243902 79.567773 
L 146.38349 79.461474 
L 146.476548 79.355174 
L 146.825516 79.248875 
L 146.918574 79.157762 
L 147.221013 79.066649 
L 147.290807 78.960349 
L 147.686304 78.85405 
L 147.779362 78.778123 
L 148.105066 78.671824 
L 148.151595 78.611081 
L 148.430769 78.519968 
L 148.500563 78.459225 
L 148.803002 78.352926 
L 148.803002 78.322555 
L 149.15197 78.231442 
L 149.221764 78.185885 
L 149.547467 78.079586 
L 149.547467 78.0644 
L 149.9197 77.973287 
L 149.989493 77.92773 
L 150.291932 77.821431 
L 150.291932 77.775874 
L 150.68743 77.699947 
L 150.780488 77.593648 
L 150.896811 77.532905 
L 150.896811 77.487348 
L 150.920075 77.456977 
L 151.175985 77.365864 
L 151.175985 77.335493 
L 151.524953 77.244379 
L 151.571482 77.168451 
L 152.106567 77.062152 
L 152.129831 77.016596 
L 152.43227 76.910297 
L 152.502064 76.834369 
L 153.037148 76.72807 
L 153.083677 76.652142 
L 153.246529 76.545843 
L 153.293058 76.4851 
L 153.572233 76.378801 
L 153.618762 76.318059 
L 154.47955 76.21176 
L 154.47955 76.196574 
L 154.781989 76.090275 
L 154.875047 76.044719 
L 155.317073 75.93842 
L 155.340338 75.908048 
L 155.619512 75.832121 
L 155.619512 75.771378 
L 156.503565 75.665079 
L 156.573358 75.619523 
L 157.061914 75.513223 
L 157.061914 75.498038 
L 157.387617 75.391739 
L 157.480675 75.315811 
L 157.783114 75.224698 
L 157.852908 75.179141 
L 158.155347 75.088027 
L 158.248405 75.027285 
L 158.736961 74.936172 
L 158.830019 74.799501 
L 159.085929 74.693202 
L 159.178987 74.602089 
L 159.341839 74.49579 
L 159.434897 74.389491 
L 159.621013 74.328748 
L 159.667542 74.222449 
L 160.132833 74.131336 
L 160.225891 74.070594 
L 160.481801 73.97948 
L 160.52833 73.918738 
L 160.947092 73.812439 
L 161.04015 73.721325 
L 161.272795 73.615026 
L 161.365854 73.493542 
L 161.645028 73.387243 
L 161.738086 73.311315 
L 162.226642 73.205016 
L 162.249906 73.174645 
L 162.552345 73.083531 
L 162.622139 73.037974 
L 163.180488 72.931675 
L 163.250281 72.870933 
L 163.413133 72.77982 
L 163.506191 72.703892 
L 163.80863 72.643149 
L 163.80863 72.582407 
L 164.204128 72.491294 
L 164.250657 72.415366 
L 164.83227 72.324252 
L 164.925328 72.248324 
L 165.669794 72.142025 
L 165.716323 72.096469 
L 166.018762 71.99017 
L 166.018762 71.944613 
L 166.344465 71.853499 
L 166.437523 71.777572 
L 166.949343 71.671272 
L 167.042402 71.564973 
L 167.60075 71.458674 
L 167.64728 71.397932 
L 168.252158 71.291633 
L 168.252158 71.276447 
L 168.8803 71.170148 
L 168.903565 71.139777 
L 169.252533 71.063849 
L 169.322326 70.911994 
L 169.694559 70.851251 
L 169.741088 70.760138 
L 170.322702 70.653839 
L 170.369231 70.562725 
L 170.811257 70.471612 
L 170.857786 70.426055 
L 171.346341 70.319756 
L 171.416135 70.259014 
L 171.788368 70.1679 
L 171.858161 70.107158 
L 172.300188 70.000859 
L 172.300188 69.985673 
L 172.92833 69.909746 
L 173.021388 69.818632 
L 173.323827 69.712333 
L 173.393621 69.681962 
L 173.928705 69.590848 
L 174.021764 69.484549 
L 174.370732 69.37825 
L 174.46379 69.287137 
L 174.649906 69.180838 
L 174.649906 69.150467 
L 175.091932 69.044168 
L 175.091932 69.028982 
L 175.906191 68.922683 
L 175.99925 68.801198 
L 176.697186 68.694899 
L 176.743715 68.634157 
L 177.23227 68.527858 
L 177.23227 68.482301 
L 177.790619 68.391188 
L 177.860413 68.330446 
L 178.348968 68.224146 
L 178.395497 68.117847 
L 178.674672 68.04192 
L 178.744465 67.981177 
L 179.488931 67.874878 
L 179.488931 67.859693 
L 180.117073 67.753394 
L 180.140338 67.723022 
L 180.186867 67.723022 
L 180.698687 67.616723 
L 180.76848 67.571167 
L 181.094184 67.464868 
L 181.094184 67.449682 
L 181.606004 67.343383 
L 181.652533 67.297826 
L 181.978236 67.25227 
L 182.04803 67.145971 
L 182.932083 67.039671 
L 182.955347 66.978929 
L 183.630019 66.87263 
L 183.723077 66.842259 
L 184.118574 66.73596 
L 184.188368 66.690403 
L 184.700188 66.59929 
L 184.746717 66.553733 
L 185.32833 66.447434 
L 185.374859 66.386692 
L 185.979737 66.295578 
L 186.026266 66.234836 
L 186.305441 66.143722 
L 186.305441 66.113351 
L 186.654409 66.022238 
L 186.677674 65.976681 
L 187.282552 65.885568 
L 187.282552 65.840011 
L 188.027017 65.748897 
L 188.073546 65.703341 
L 188.678424 65.597042 
L 188.748218 65.536299 
L 189.88818 65.43 
L 189.957974 65.338887 
L 190.446529 65.232588 
L 190.516323 65.141474 
L 190.981614 65.035175 
L 191.051407 64.974433 
L 191.42364 64.88332 
L 191.446904 64.807392 
L 192.098311 64.701093 
L 192.098311 64.685907 
L 192.703189 64.609979 
L 192.726454 64.549237 
L 192.796248 64.549237 
L 193.028893 64.458123 
L 193.028893 64.427752 
L 193.657036 64.321453 
L 193.703565 64.291082 
L 194.354972 64.184783 
L 194.354972 64.169597 
L 194.913321 64.063298 
L 194.95985 64.017742 
L 195.448405 63.926628 
L 195.541463 63.8507 
L 195.913696 63.744401 
L 195.98349 63.71403 
L 196.49531 63.607731 
L 196.49531 63.592545 
L 197.030394 63.501432 
L 197.100188 63.44069 
L 197.681801 63.349576 
L 197.681801 63.319205 
L 198.286679 63.243277 
L 198.356473 63.136978 
L 199.193996 63.030679 
L 199.193996 63.015494 
L 199.705816 62.92438 
L 199.77561 62.863638 
L 200.54334 62.757339 
L 200.589869 62.681411 
L 201.031895 62.590297 
L 201.101689 62.499184 
L 201.636773 62.392885 
L 201.729831 62.362514 
L 202.404503 62.256215 
L 202.474296 62.180287 
L 203.102439 62.073988 
L 203.172233 62.013245 
L 204.033021 61.906946 
L 204.056285 61.846204 
L 204.777486 61.739905 
L 204.84728 61.709534 
L 205.475422 61.61842 
L 205.56848 61.451379 
L 206.010507 61.34508 
L 206.103565 61.314709 
L 206.33621 61.223595 
L 206.429268 61.178039 
L 207.35985 61.07174 
L 207.452908 61.010997 
L 208.499812 60.904698 
L 208.499812 60.889513 
L 209.383865 60.783214 
L 209.383865 60.768028 
L 210.314447 60.661729 
L 210.38424 60.585801 
L 211.221764 60.479502 
L 211.314822 60.433945 
L 212.036023 60.342832 
L 212.129081 60.266904 
L 212.780488 60.160605 
L 212.780488 60.145419 
L 213.641276 60.03912 
L 213.734334 60.008749 
L 214.43227 59.90245 
L 214.478799 59.841708 
L 214.990619 59.735409 
L 214.990619 59.720223 
L 216.665666 59.613924 
L 216.712195 59.568368 
L 217.45666 59.462069 
L 217.45666 59.431697 
L 218.247655 59.325398 
L 218.294184 59.264656 
L 219.271295 59.158357 
L 219.294559 59.1128 
L 220.294934 59.006501 
L 220.294934 58.97613 
L 220.899812 58.869831 
L 220.923077 58.824274 
L 221.411632 58.733161 
L 221.411632 58.70279 
L 221.993246 58.596491 
L 221.993246 58.581305 
L 222.598124 58.475006 
L 222.598124 58.444635 
L 223.668293 58.338336 
L 223.668293 58.32315 
L 224.505816 58.216851 
L 224.598874 58.156109 
L 225.133959 58.064995 
L 225.133959 58.034624 
L 225.227017 58.034624 
L 225.901689 57.943511 
L 225.994747 57.867583 
L 227.111445 57.761284 
L 227.111445 57.746098 
L 227.879174 57.639799 
L 227.972233 57.594243 
L 228.693433 57.487944 
L 228.693433 57.472758 
L 229.554221 57.366459 
L 229.60075 57.336088 
L 231.345591 57.229789 
L 231.345591 57.214603 
L 232.113321 57.108304 
L 232.183114 57.062747 
L 232.974109 56.956448 
L 232.974109 56.926077 
L 233.532458 56.819778 
L 233.578987 56.789407 
L 234.486304 56.683108 
L 234.486304 56.667922 
L 235.254034 56.576809 
L 235.254034 56.546438 
L 235.95197 56.440139 
L 235.95197 56.424953 
L 236.440525 56.318654 
L 236.46379 56.273097 
L 237.557223 56.166798 
L 237.557223 56.151613 
L 238.766979 56.060499 
L 238.860038 55.969386 
L 239.74409 55.863087 
L 239.790619 55.81753 
L 240.884053 55.726417 
L 240.930582 55.665674 
L 241.395872 55.559375 
L 241.465666 55.513818 
L 242.628893 55.407519 
L 242.698687 55.377148 
L 243.419887 55.270849 
L 243.419887 55.240478 
L 245.001876 55.134179 
L 245.001876 55.118993 
L 246.514071 55.012694 
L 246.514071 54.997509 
L 247.607505 54.89121 
L 247.607505 54.876024 
L 248.700938 54.769725 
L 248.770732 54.739354 
L 250.329456 54.633055 
L 250.35272 54.602684 
L 251.190244 54.496385 
L 251.236773 54.466014 
L 252.120826 54.359715 
L 252.120826 54.344529 
L 253.190994 54.253416 
L 253.190994 54.192673 
L 254.307692 54.086374 
L 254.40075 54.010446 
L 255.308068 53.904147 
L 255.308068 53.888962 
L 256.378236 53.782663 
L 256.378236 53.767477 
L 257.681051 53.661178 
L 257.681051 53.615621 
L 258.588368 53.509322 
L 258.658161 53.478951 
L 259.844653 53.372652 
L 259.914447 53.327095 
L 260.914822 53.235982 
L 260.938086 53.190425 
L 262.636398 53.099312 
L 262.636398 53.068941 
L 263.683302 52.962642 
L 263.706567 52.901899 
L 264.660413 52.7956 
L 264.660413 52.780415 
L 265.521201 52.674116 
L 265.590994 52.598188 
L 267.428893 52.491889 
L 267.428893 52.461518 
L 268.638649 52.355218 
L 268.638649 52.340033 
L 269.592495 52.233734 
L 269.685553 52.172992 
L 270.89531 52.066693 
L 270.918574 52.036321 
L 272.035272 51.930022 
L 272.035272 51.914837 
L 273.221764 51.808538 
L 273.268293 51.778167 
L 274.059287 51.671868 
L 274.082552 51.641496 
L 275.059662 51.535197 
L 275.059662 51.520012 
L 276.315947 51.413713 
L 276.339212 51.368156 
L 277.804878 51.261857 
L 277.897936 51.2163 
L 279.642777 51.110001 
L 279.642777 51.094816 
L 280.806004 50.988517 
L 280.806004 50.973331 
L 281.666792 50.867032 
L 281.736585 50.836661 
L 282.760225 50.730362 
L 282.830019 50.699991 
L 284.202627 50.593692 
L 284.202627 50.578506 
L 286.087054 50.472207 
L 286.087054 50.457021 
L 287.692308 50.350722 
L 287.692308 50.335537 
L 288.413508 50.229238 
L 288.413508 50.214052 
L 289.041651 50.107753 
L 289.041651 50.092567 
L 290.530582 49.986268 
L 290.530582 49.971083 
L 292.019512 49.864784 
L 292.066041 49.819227 
L 293.624765 49.712928 
L 293.694559 49.682557 
L 294.787992 49.576258 
L 294.787992 49.561072 
L 295.509193 49.454773 
L 295.509193 49.439588 
L 297.509944 49.333289 
L 297.509944 49.318103 
L 298.277674 49.211804 
L 298.277674 49.196618 
L 300.766979 49.090319 
L 300.766979 49.075134 
L 302.651407 48.968835 
L 302.884053 48.938464 
L 305.303565 48.84735 
L 305.303565 48.816979 
L 306.55985 48.71068 
L 306.55985 48.695494 
L 308.141839 48.589195 
L 308.141839 48.57401 
L 308.932833 48.467711 
L 308.932833 48.452525 
L 309.909944 48.346226 
L 309.933208 48.315855 
L 311.747842 48.209556 
L 311.747842 48.19437 
L 315.004878 48.088071 
L 315.074672 48.0577 
L 316.051782 47.951401 
L 316.051782 47.936216 
L 317.331332 47.829917 
L 317.331332 47.814731 
L 318.796998 47.708432 
L 318.820263 47.678061 
L 321.518949 47.586947 
L 321.518949 47.556576 
L 323.170732 47.450277 
L 323.170732 47.435092 
L 325.031895 47.328792 
L 325.031895 47.313607 
L 326.683677 47.207308 
L 326.753471 47.176937 
L 328.940338 47.070638 
L 328.940338 47.055452 
L 331.010882 46.949153 
L 331.010882 46.933967 
L 333.779362 46.827668 
L 333.779362 46.812483 
L 336.129081 46.706184 
L 336.129081 46.690998 
L 338.734709 46.584699 
L 338.734709 46.569514 
L 343.876173 46.463215 
L 343.876173 46.448029 
L 348.691932 46.34173 
L 348.691932 46.326544 
L 350.413508 46.220245 
L 350.413508 46.20506 
L 353.437899 46.098761 
L 353.437899 46.083575 
L 355.810882 45.977276 
L 355.810882 45.962091 
L 359.347092 45.855791 
L 359.347092 45.82542 
L 362.022514 45.719121 
L 362.022514 45.703936 
L 364.674672 45.612822 
L 364.674672 45.582451 
L 366.303189 45.476152 
L 366.303189 45.460966 
L 369.58349 45.354667 
L 369.606754 45.309111 
L 372.445028 45.217997 
L 372.538086 45.172441 
L 378.261163 45.066141 
L 378.261163 45.050956 
L 385.077674 44.944657 
L 385.077674 44.929471 
L 388.8 44.914286 
L 388.8 44.914286 
" style="fill:none;stroke:#ff0000;stroke-linecap:square;stroke-width:2;"/>
   </g>
   <g id="line2d_14">
    <path clip-path="url(#p5bcd58cd9e)" d="M 54 252 
L 388.8 44.914286 
" style="fill:none;stroke:#000000;stroke-dasharray:7.4,3.2;stroke-dashoffset:0;stroke-width:2;"/>
   </g>
   <g id="patch_3">
    <path d="M 54 252 
L 54 34.56 
" style="fill:none;stroke:#000000;stroke-linecap:square;stroke-linejoin:miter;stroke-width:0.8;"/>
   </g>
   <g id="patch_4">
    <path d="M 388.8 252 
L 388.8 34.56 
" style="fill:none;stroke:#000000;stroke-linecap:square;stroke-linejoin:miter;stroke-width:0.8;"/>
   </g>
   <g id="patch_5">
    <path d="M 54 252 
L 388.8 252 
" style="fill:none;stroke:#000000;stroke-linecap:square;stroke-linejoin:miter;stroke-width:0.8;"/>
   </g>
   <g id="patch_6">
    <path d="M 54 34.56 
L 388.8 34.56 
" style="fill:none;stroke:#000000;stroke-linecap:square;stroke-linejoin:miter;stroke-width:0.8;"/>
   </g>
   <g id="text_15">
    <!-- Receiver Operating Characteristic Curve -->
    <defs>
     <path d="M 48.78125 52.59375 
L 48.78125 44.1875 
Q 44.96875 46.296875 41.140625 47.34375 
Q 37.3125 48.390625 33.40625 48.390625 
Q 24.65625 48.390625 19.8125 42.84375 
Q 14.984375 37.3125 14.984375 27.296875 
Q 14.984375 17.28125 19.8125 11.734375 
Q 24.65625 6.203125 33.40625 6.203125 
Q 37.3125 6.203125 41.140625 7.25 
Q 44.96875 8.296875 48.78125 10.40625 
L 48.78125 2.09375 
Q 45.015625 0.34375 40.984375 -0.53125 
Q 36.96875 -1.421875 32.421875 -1.421875 
Q 20.0625 -1.421875 12.78125 6.34375 
Q 5.515625 14.109375 5.515625 27.296875 
Q 5.515625 40.671875 12.859375 48.328125 
Q 20.21875 56 33.015625 56 
Q 37.15625 56 41.109375 55.140625 
Q 45.0625 54.296875 48.78125 52.59375 
z
" id="DejaVuSans-63"/>
     <path d="M 39.40625 66.21875 
Q 28.65625 66.21875 22.328125 58.203125 
Q 16.015625 50.203125 16.015625 36.375 
Q 16.015625 22.609375 22.328125 14.59375 
Q 28.65625 6.59375 39.40625 6.59375 
Q 50.140625 6.59375 56.421875 14.59375 
Q 62.703125 22.609375 62.703125 36.375 
Q 62.703125 50.203125 56.421875 58.203125 
Q 50.140625 66.21875 39.40625 66.21875 
z
M 39.40625 74.21875 
Q 54.734375 74.21875 63.90625 63.9375 
Q 73.09375 53.65625 73.09375 36.375 
Q 73.09375 19.140625 63.90625 8.859375 
Q 54.734375 -1.421875 39.40625 -1.421875 
Q 24.03125 -1.421875 14.8125 8.828125 
Q 5.609375 19.09375 5.609375 36.375 
Q 5.609375 53.65625 14.8125 63.9375 
Q 24.03125 74.21875 39.40625 74.21875 
z
" id="DejaVuSans-4f"/>
     <path d="M 18.109375 8.203125 
L 18.109375 -20.796875 
L 9.078125 -20.796875 
L 9.078125 54.6875 
L 18.109375 54.6875 
L 18.109375 46.390625 
Q 20.953125 51.265625 25.265625 53.625 
Q 29.59375 56 35.59375 56 
Q 45.5625 56 51.78125 48.09375 
Q 58.015625 40.1875 58.015625 27.296875 
Q 58.015625 14.40625 51.78125 6.484375 
Q 45.5625 -1.421875 35.59375 -1.421875 
Q 29.59375 -1.421875 25.265625 0.953125 
Q 20.953125 3.328125 18.109375 8.203125 
z
M 48.6875 27.296875 
Q 48.6875 37.203125 44.609375 42.84375 
Q 40.53125 48.484375 33.40625 48.484375 
Q 26.265625 48.484375 22.1875 42.84375 
Q 18.109375 37.203125 18.109375 27.296875 
Q 18.109375 17.390625 22.1875 11.75 
Q 26.265625 6.109375 33.40625 6.109375 
Q 40.53125 6.109375 44.609375 11.75 
Q 48.6875 17.390625 48.6875 27.296875 
z
" id="DejaVuSans-70"/>
     <path d="M 54.890625 33.015625 
L 54.890625 0 
L 45.90625 0 
L 45.90625 32.71875 
Q 45.90625 40.484375 42.875 44.328125 
Q 39.84375 48.1875 33.796875 48.1875 
Q 26.515625 48.1875 22.3125 43.546875 
Q 18.109375 38.921875 18.109375 30.90625 
L 18.109375 0 
L 9.078125 0 
L 9.078125 54.6875 
L 18.109375 54.6875 
L 18.109375 46.1875 
Q 21.34375 51.125 25.703125 53.5625 
Q 30.078125 56 35.796875 56 
Q 45.21875 56 50.046875 50.171875 
Q 54.890625 44.34375 54.890625 33.015625 
z
" id="DejaVuSans-6e"/>
     <path d="M 45.40625 27.984375 
Q 45.40625 37.75 41.375 43.109375 
Q 37.359375 48.484375 30.078125 48.484375 
Q 22.859375 48.484375 18.828125 43.109375 
Q 14.796875 37.75 14.796875 27.984375 
Q 14.796875 18.265625 18.828125 12.890625 
Q 22.859375 7.515625 30.078125 7.515625 
Q 37.359375 7.515625 41.375 12.890625 
Q 45.40625 18.265625 45.40625 27.984375 
z
M 54.390625 6.78125 
Q 54.390625 -7.171875 48.1875 -13.984375 
Q 42 -20.796875 29.203125 -20.796875 
Q 24.46875 -20.796875 20.265625 -20.09375 
Q 16.0625 -19.390625 12.109375 -17.921875 
L 12.109375 -9.1875 
Q 16.0625 -11.328125 19.921875 -12.34375 
Q 23.78125 -13.375 27.78125 -13.375 
Q 36.625 -13.375 41.015625 -8.765625 
Q 45.40625 -4.15625 45.40625 5.171875 
L 45.40625 9.625 
Q 42.625 4.78125 38.28125 2.390625 
Q 33.9375 0 27.875 0 
Q 17.828125 0 11.671875 7.65625 
Q 5.515625 15.328125 5.515625 27.984375 
Q 5.515625 40.671875 11.671875 48.328125 
Q 17.828125 56 27.875 56 
Q 33.9375 56 38.28125 53.609375 
Q 42.625 51.21875 45.40625 46.390625 
L 45.40625 54.6875 
L 54.390625 54.6875 
z
" id="DejaVuSans-67"/>
     <path d="M 64.40625 67.28125 
L 64.40625 56.890625 
Q 59.421875 61.53125 53.78125 63.8125 
Q 48.140625 66.109375 41.796875 66.109375 
Q 29.296875 66.109375 22.65625 58.46875 
Q 16.015625 50.828125 16.015625 36.375 
Q 16.015625 21.96875 22.65625 14.328125 
Q 29.296875 6.6875 41.796875 6.6875 
Q 48.140625 6.6875 53.78125 8.984375 
Q 59.421875 11.28125 64.40625 15.921875 
L 64.40625 5.609375 
Q 59.234375 2.09375 53.4375 0.328125 
Q 47.65625 -1.421875 41.21875 -1.421875 
Q 24.65625 -1.421875 15.125 8.703125 
Q 5.609375 18.84375 5.609375 36.375 
Q 5.609375 53.953125 15.125 64.078125 
Q 24.65625 74.21875 41.21875 74.21875 
Q 47.75 74.21875 53.53125 72.484375 
Q 59.328125 70.75 64.40625 67.28125 
z
" id="DejaVuSans-43"/>
     <path d="M 54.890625 33.015625 
L 54.890625 0 
L 45.90625 0 
L 45.90625 32.71875 
Q 45.90625 40.484375 42.875 44.328125 
Q 39.84375 48.1875 33.796875 48.1875 
Q 26.515625 48.1875 22.3125 43.546875 
Q 18.109375 38.921875 18.109375 30.90625 
L 18.109375 0 
L 9.078125 0 
L 9.078125 75.984375 
L 18.109375 75.984375 
L 18.109375 46.1875 
Q 21.34375 51.125 25.703125 53.5625 
Q 30.078125 56 35.796875 56 
Q 45.21875 56 50.046875 50.171875 
Q 54.890625 44.34375 54.890625 33.015625 
z
" id="DejaVuSans-68"/>
    </defs>
    <g transform="translate(100.021875 28.56)scale(0.12 -0.12)">
     <use xlink:href="#DejaVuSans-52"/>
     <use x="69.419922" xlink:href="#DejaVuSans-65"/>
     <use x="130.943359" xlink:href="#DejaVuSans-63"/>
     <use x="185.923828" xlink:href="#DejaVuSans-65"/>
     <use x="247.447266" xlink:href="#DejaVuSans-69"/>
     <use x="275.230469" xlink:href="#DejaVuSans-76"/>
     <use x="334.410156" xlink:href="#DejaVuSans-65"/>
     <use x="395.933594" xlink:href="#DejaVuSans-72"/>
     <use x="437.046875" xlink:href="#DejaVuSans-20"/>
     <use x="468.833984" xlink:href="#DejaVuSans-4f"/>
     <use x="547.544922" xlink:href="#DejaVuSans-70"/>
     <use x="611.021484" xlink:href="#DejaVuSans-65"/>
     <use x="672.544922" xlink:href="#DejaVuSans-72"/>
     <use x="713.658203" xlink:href="#DejaVuSans-61"/>
     <use x="774.9375" xlink:href="#DejaVuSans-74"/>
     <use x="814.146484" xlink:href="#DejaVuSans-69"/>
     <use x="841.929688" xlink:href="#DejaVuSans-6e"/>
     <use x="905.308594" xlink:href="#DejaVuSans-67"/>
     <use x="968.785156" xlink:href="#DejaVuSans-20"/>
     <use x="1000.572266" xlink:href="#DejaVuSans-43"/>
     <use x="1070.396484" xlink:href="#DejaVuSans-68"/>
     <use x="1133.775391" xlink:href="#DejaVuSans-61"/>
     <use x="1195.054688" xlink:href="#DejaVuSans-72"/>
     <use x="1236.167969" xlink:href="#DejaVuSans-61"/>
     <use x="1297.447266" xlink:href="#DejaVuSans-63"/>
     <use x="1352.427734" xlink:href="#DejaVuSans-74"/>
     <use x="1391.636719" xlink:href="#DejaVuSans-65"/>
     <use x="1453.160156" xlink:href="#DejaVuSans-72"/>
     <use x="1494.273438" xlink:href="#DejaVuSans-69"/>
     <use x="1522.056641" xlink:href="#DejaVuSans-73"/>
     <use x="1574.15625" xlink:href="#DejaVuSans-74"/>
     <use x="1613.365234" xlink:href="#DejaVuSans-69"/>
     <use x="1641.148438" xlink:href="#DejaVuSans-63"/>
     <use x="1696.128906" xlink:href="#DejaVuSans-20"/>
     <use x="1727.916016" xlink:href="#DejaVuSans-43"/>
     <use x="1797.740234" xlink:href="#DejaVuSans-75"/>
     <use x="1861.119141" xlink:href="#DejaVuSans-72"/>
     <use x="1902.232422" xlink:href="#DejaVuSans-76"/>
     <use x="1961.412109" xlink:href="#DejaVuSans-65"/>
    </g>
   </g>
   <g id="legend_1">
    <g id="patch_7">
     <path d="M 102.75 247 
L 381.8 247 
Q 383.8 247 383.8 245 
L 383.8 231.321875 
Q 383.8 229.321875 381.8 229.321875 
L 102.75 229.321875 
Q 100.75 229.321875 100.75 231.321875 
L 100.75 245 
Q 100.75 247 102.75 247 
z
" style="fill:#ffffff;opacity:0.8;stroke:#cccccc;stroke-linejoin:miter;"/>
    </g>
    <g id="line2d_15">
     <path d="M 104.75 237.420312 
L 124.75 237.420312 
" style="fill:none;stroke:#ff0000;stroke-linecap:square;stroke-width:2;"/>
    </g>
    <g id="line2d_16"/>
    <g id="text_16">
     <!-- ROC curve for Best Linear model (area = 0.8640) -->
     <defs>
      <path d="M 37.109375 75.984375 
L 37.109375 68.5 
L 28.515625 68.5 
Q 23.6875 68.5 21.796875 66.546875 
Q 19.921875 64.59375 19.921875 59.515625 
L 19.921875 54.6875 
L 34.71875 54.6875 
L 34.71875 47.703125 
L 19.921875 47.703125 
L 19.921875 0 
L 10.890625 0 
L 10.890625 47.703125 
L 2.296875 47.703125 
L 2.296875 54.6875 
L 10.890625 54.6875 
L 10.890625 58.5 
Q 10.890625 67.625 15.140625 71.796875 
Q 19.390625 75.984375 28.609375 75.984375 
z
" id="DejaVuSans-66"/>
      <path d="M 19.671875 34.8125 
L 19.671875 8.109375 
L 35.5 8.109375 
Q 43.453125 8.109375 47.28125 11.40625 
Q 51.125 14.703125 51.125 21.484375 
Q 51.125 28.328125 47.28125 31.5625 
Q 43.453125 34.8125 35.5 34.8125 
z
M 19.671875 64.796875 
L 19.671875 42.828125 
L 34.28125 42.828125 
Q 41.5 42.828125 45.03125 45.53125 
Q 48.578125 48.25 48.578125 53.8125 
Q 48.578125 59.328125 45.03125 62.0625 
Q 41.5 64.796875 34.28125 64.796875 
z
M 9.8125 72.90625 
L 35.015625 72.90625 
Q 46.296875 72.90625 52.390625 68.21875 
Q 58.5 63.53125 58.5 54.890625 
Q 58.5 48.1875 55.375 44.234375 
Q 52.25 40.28125 46.1875 39.3125 
Q 53.46875 37.75 57.5 32.78125 
Q 61.53125 27.828125 61.53125 20.40625 
Q 61.53125 10.640625 54.890625 5.3125 
Q 48.25 0 35.984375 0 
L 9.8125 0 
z
" id="DejaVuSans-42"/>
      <path d="M 9.8125 72.90625 
L 19.671875 72.90625 
L 19.671875 8.296875 
L 55.171875 8.296875 
L 55.171875 0 
L 9.8125 0 
z
" id="DejaVuSans-4c"/>
      <path d="M 52 44.1875 
Q 55.375 50.25 60.0625 53.125 
Q 64.75 56 71.09375 56 
Q 79.640625 56 84.28125 50.015625 
Q 88.921875 44.046875 88.921875 33.015625 
L 88.921875 0 
L 79.890625 0 
L 79.890625 32.71875 
Q 79.890625 40.578125 77.09375 44.375 
Q 74.3125 48.1875 68.609375 48.1875 
Q 61.625 48.1875 57.5625 43.546875 
Q 53.515625 38.921875 53.515625 30.90625 
L 53.515625 0 
L 44.484375 0 
L 44.484375 32.71875 
Q 44.484375 40.625 41.703125 44.40625 
Q 38.921875 48.1875 33.109375 48.1875 
Q 26.21875 48.1875 22.15625 43.53125 
Q 18.109375 38.875 18.109375 30.90625 
L 18.109375 0 
L 9.078125 0 
L 9.078125 54.6875 
L 18.109375 54.6875 
L 18.109375 46.1875 
Q 21.1875 51.21875 25.484375 53.609375 
Q 29.78125 56 35.6875 56 
Q 41.65625 56 45.828125 52.96875 
Q 50 49.953125 52 44.1875 
z
" id="DejaVuSans-6d"/>
      <path d="M 45.40625 46.390625 
L 45.40625 75.984375 
L 54.390625 75.984375 
L 54.390625 0 
L 45.40625 0 
L 45.40625 8.203125 
Q 42.578125 3.328125 38.25 0.953125 
Q 33.9375 -1.421875 27.875 -1.421875 
Q 17.96875 -1.421875 11.734375 6.484375 
Q 5.515625 14.40625 5.515625 27.296875 
Q 5.515625 40.1875 11.734375 48.09375 
Q 17.96875 56 27.875 56 
Q 33.9375 56 38.25 53.625 
Q 42.578125 51.265625 45.40625 46.390625 
z
M 14.796875 27.296875 
Q 14.796875 17.390625 18.875 11.75 
Q 22.953125 6.109375 30.078125 6.109375 
Q 37.203125 6.109375 41.296875 11.75 
Q 45.40625 17.390625 45.40625 27.296875 
Q 45.40625 37.203125 41.296875 42.84375 
Q 37.203125 48.484375 30.078125 48.484375 
Q 22.953125 48.484375 18.875 42.84375 
Q 14.796875 37.203125 14.796875 27.296875 
z
" id="DejaVuSans-64"/>
      <path d="M 31 75.875 
Q 24.46875 64.65625 21.28125 53.65625 
Q 18.109375 42.671875 18.109375 31.390625 
Q 18.109375 20.125 21.3125 9.0625 
Q 24.515625 -2 31 -13.1875 
L 23.1875 -13.1875 
Q 15.875 -1.703125 12.234375 9.375 
Q 8.59375 20.453125 8.59375 31.390625 
Q 8.59375 42.28125 12.203125 53.3125 
Q 15.828125 64.359375 23.1875 75.875 
z
" id="DejaVuSans-28"/>
      <path d="M 10.59375 45.40625 
L 73.1875 45.40625 
L 73.1875 37.203125 
L 10.59375 37.203125 
z
M 10.59375 25.484375 
L 73.1875 25.484375 
L 73.1875 17.1875 
L 10.59375 17.1875 
z
" id="DejaVuSans-3d"/>
      <path d="M 8.015625 75.875 
L 15.828125 75.875 
Q 23.140625 64.359375 26.78125 53.3125 
Q 30.421875 42.28125 30.421875 31.390625 
Q 30.421875 20.453125 26.78125 9.375 
Q 23.140625 -1.703125 15.828125 -13.1875 
L 8.015625 -13.1875 
Q 14.5 -2 17.703125 9.0625 
Q 20.90625 20.125 20.90625 31.390625 
Q 20.90625 42.671875 17.703125 53.65625 
Q 14.5 64.65625 8.015625 75.875 
z
" id="DejaVuSans-29"/>
     </defs>
     <g transform="translate(132.75 240.920312)scale(0.1 -0.1)">
      <use xlink:href="#DejaVuSans-52"/>
      <use x="69.482422" xlink:href="#DejaVuSans-4f"/>
      <use x="148.193359" xlink:href="#DejaVuSans-43"/>
      <use x="218.017578" xlink:href="#DejaVuSans-20"/>
      <use x="249.804688" xlink:href="#DejaVuSans-63"/>
      <use x="304.785156" xlink:href="#DejaVuSans-75"/>
      <use x="368.164062" xlink:href="#DejaVuSans-72"/>
      <use x="409.277344" xlink:href="#DejaVuSans-76"/>
      <use x="468.457031" xlink:href="#DejaVuSans-65"/>
      <use x="529.980469" xlink:href="#DejaVuSans-20"/>
      <use x="561.767578" xlink:href="#DejaVuSans-66"/>
      <use x="596.972656" xlink:href="#DejaVuSans-6f"/>
      <use x="658.154297" xlink:href="#DejaVuSans-72"/>
      <use x="699.267578" xlink:href="#DejaVuSans-20"/>
      <use x="731.054688" xlink:href="#DejaVuSans-42"/>
      <use x="799.658203" xlink:href="#DejaVuSans-65"/>
      <use x="861.181641" xlink:href="#DejaVuSans-73"/>
      <use x="913.28125" xlink:href="#DejaVuSans-74"/>
      <use x="952.490234" xlink:href="#DejaVuSans-20"/>
      <use x="984.277344" xlink:href="#DejaVuSans-4c"/>
      <use x="1039.990234" xlink:href="#DejaVuSans-69"/>
      <use x="1067.773438" xlink:href="#DejaVuSans-6e"/>
      <use x="1131.152344" xlink:href="#DejaVuSans-65"/>
      <use x="1192.675781" xlink:href="#DejaVuSans-61"/>
      <use x="1253.955078" xlink:href="#DejaVuSans-72"/>
      <use x="1295.068359" xlink:href="#DejaVuSans-20"/>
      <use x="1326.855469" xlink:href="#DejaVuSans-6d"/>
      <use x="1424.267578" xlink:href="#DejaVuSans-6f"/>
      <use x="1485.449219" xlink:href="#DejaVuSans-64"/>
      <use x="1548.925781" xlink:href="#DejaVuSans-65"/>
      <use x="1610.449219" xlink:href="#DejaVuSans-6c"/>
      <use x="1638.232422" xlink:href="#DejaVuSans-20"/>
      <use x="1670.019531" xlink:href="#DejaVuSans-28"/>
      <use x="1709.033203" xlink:href="#DejaVuSans-61"/>
      <use x="1770.3125" xlink:href="#DejaVuSans-72"/>
      <use x="1811.394531" xlink:href="#DejaVuSans-65"/>
      <use x="1872.917969" xlink:href="#DejaVuSans-61"/>
      <use x="1934.197266" xlink:href="#DejaVuSans-20"/>
      <use x="1965.984375" xlink:href="#DejaVuSans-3d"/>
      <use x="2049.773438" xlink:href="#DejaVuSans-20"/>
      <use x="2081.560547" xlink:href="#DejaVuSans-30"/>
      <use x="2145.183594" xlink:href="#DejaVuSans-2e"/>
      <use x="2176.970703" xlink:href="#DejaVuSans-38"/>
      <use x="2240.59375" xlink:href="#DejaVuSans-36"/>
      <use x="2304.216797" xlink:href="#DejaVuSans-34"/>
      <use x="2367.839844" xlink:href="#DejaVuSans-30"/>
      <use x="2431.462891" xlink:href="#DejaVuSans-29"/>
     </g>
    </g>
   </g>
  </g>
 </g>
 <defs>
  <clipPath id="p5bcd58cd9e">
   <rect height="217.44" width="334.8" x="54" y="34.56"/>
  </clipPath>
 </defs>
</svg>
