<?xml version="1.0" encoding="UTF-8" standalone="no"?>
<!DOCTYPE svg PUBLIC "-//W3C//DTD SVG 1.1//EN"
 "http://www.w3.org/Graphics/SVG/1.1/DTD/svg11.dtd">
<!-- Generated by graphviz version 2.38.0 (20140413.2041)
 -->
<!-- Title: Tree Pages: 1 -->
<svg width="1232pt" height="520pt"
 viewBox="0.00 0.00 1232.00 520.00" xmlns="http://www.w3.org/2000/svg" xmlns:xlink="http://www.w3.org/1999/xlink">
<g id="graph0" class="graph" transform="scale(1 1) rotate(0) translate(4 516)">
<title>Tree</title>
<polygon fill="white" stroke="none" points="-4,4 -4,-516 1228,-516 1228,4 -4,4"/>
<!-- 0 -->
<g id="node1" class="node"><title>0</title>
<polygon fill="#e58139" fill-opacity="0.050980" stroke="black" points="641,-512 502,-512 502,-429 641,-429 641,-512"/>
<text text-anchor="middle" x="571.5" y="-496.8" font-family="Times New Roman,serif" font-size="14.00">says &lt;= 0.008</text>
<text text-anchor="middle" x="571.5" y="-481.8" font-family="Times New Roman,serif" font-size="14.00">gini = 0.5</text>
<text text-anchor="middle" x="571.5" y="-466.8" font-family="Times New Roman,serif" font-size="14.00">samples = 100.0%</text>
<text text-anchor="middle" x="571.5" y="-451.8" font-family="Times New Roman,serif" font-size="14.00">value = [0.514, 0.486]</text>
<text text-anchor="middle" x="571.5" y="-436.8" font-family="Times New Roman,serif" font-size="14.00">class = Unfunny</text>
</g>
<!-- 1 -->
<g id="node2" class="node"><title>1</title>
<polygon fill="#e58139" fill-opacity="0.152941" stroke="black" points="526,-393 387,-393 387,-310 526,-310 526,-393"/>
<text text-anchor="middle" x="456.5" y="-377.8" font-family="Times New Roman,serif" font-size="14.00">said &lt;= 0.006</text>
<text text-anchor="middle" x="456.5" y="-362.8" font-family="Times New Roman,serif" font-size="14.00">gini = 0.497</text>
<text text-anchor="middle" x="456.5" y="-347.8" font-family="Times New Roman,serif" font-size="14.00">samples = 87.7%</text>
<text text-anchor="middle" x="456.5" y="-332.8" font-family="Times New Roman,serif" font-size="14.00">value = [0.541, 0.459]</text>
<text text-anchor="middle" x="456.5" y="-317.8" font-family="Times New Roman,serif" font-size="14.00">class = Unfunny</text>
</g>
<!-- 0&#45;&gt;1 -->
<g id="edge1" class="edge"><title>0&#45;&gt;1</title>
<path fill="none" stroke="black" d="M531.601,-428.907C522.503,-419.651 512.754,-409.732 503.393,-400.209"/>
<polygon fill="black" stroke="black" points="505.834,-397.699 496.328,-393.021 500.842,-402.606 505.834,-397.699"/>
<text text-anchor="middle" x="496.113" y="-414.32" font-family="Times New Roman,serif" font-size="14.00">True</text>
</g>
<!-- 74976 -->
<g id="node17" class="node"><title>74976</title>
<polygon fill="#399de5" fill-opacity="0.533333" stroke="black" points="756,-393 617,-393 617,-310 756,-310 756,-393"/>
<text text-anchor="middle" x="686.5" y="-377.8" font-family="Times New Roman,serif" font-size="14.00">asks &lt;= 0.008</text>
<text text-anchor="middle" x="686.5" y="-362.8" font-family="Times New Roman,serif" font-size="14.00">gini = 0.434</text>
<text text-anchor="middle" x="686.5" y="-347.8" font-family="Times New Roman,serif" font-size="14.00">samples = 12.3%</text>
<text text-anchor="middle" x="686.5" y="-332.8" font-family="Times New Roman,serif" font-size="14.00">value = [0.318, 0.682]</text>
<text text-anchor="middle" x="686.5" y="-317.8" font-family="Times New Roman,serif" font-size="14.00">class = Funny</text>
</g>
<!-- 0&#45;&gt;74976 -->
<g id="edge16" class="edge"><title>0&#45;&gt;74976</title>
<path fill="none" stroke="black" d="M611.399,-428.907C620.497,-419.651 630.246,-409.732 639.607,-400.209"/>
<polygon fill="black" stroke="black" points="642.158,-402.606 646.672,-393.021 637.166,-397.699 642.158,-402.606"/>
<text text-anchor="middle" x="646.887" y="-414.32" font-family="Times New Roman,serif" font-size="14.00">False</text>
</g>
<!-- 2 -->
<g id="node3" class="node"><title>2</title>
<polygon fill="#e58139" fill-opacity="0.215686" stroke="black" points="289,-274 164,-274 164,-191 289,-191 289,-274"/>
<text text-anchor="middle" x="226.5" y="-258.8" font-family="Times New Roman,serif" font-size="14.00">wife &lt;= 0.019</text>
<text text-anchor="middle" x="226.5" y="-243.8" font-family="Times New Roman,serif" font-size="14.00">gini = 0.493</text>
<text text-anchor="middle" x="226.5" y="-228.8" font-family="Times New Roman,serif" font-size="14.00">samples = 79.8%</text>
<text text-anchor="middle" x="226.5" y="-213.8" font-family="Times New Roman,serif" font-size="14.00">value = [0.56, 0.44]</text>
<text text-anchor="middle" x="226.5" y="-198.8" font-family="Times New Roman,serif" font-size="14.00">class = Unfunny</text>
</g>
<!-- 1&#45;&gt;2 -->
<g id="edge2" class="edge"><title>1&#45;&gt;2</title>
<path fill="none" stroke="black" d="M386.868,-315.079C358.832,-300.817 326.51,-284.375 298.263,-270.005"/>
<polygon fill="black" stroke="black" points="299.745,-266.833 289.245,-265.418 296.571,-273.072 299.745,-266.833"/>
</g>
<!-- 69891 -->
<g id="node10" class="node"><title>69891</title>
<polygon fill="#399de5" fill-opacity="0.462745" stroke="black" points="526,-274 387,-274 387,-191 526,-191 526,-274"/>
<text text-anchor="middle" x="456.5" y="-258.8" font-family="Times New Roman,serif" font-size="14.00">replied &lt;= 0.005</text>
<text text-anchor="middle" x="456.5" y="-243.8" font-family="Times New Roman,serif" font-size="14.00">gini = 0.455</text>
<text text-anchor="middle" x="456.5" y="-228.8" font-family="Times New Roman,serif" font-size="14.00">samples = 7.9%</text>
<text text-anchor="middle" x="456.5" y="-213.8" font-family="Times New Roman,serif" font-size="14.00">value = [0.349, 0.651]</text>
<text text-anchor="middle" x="456.5" y="-198.8" font-family="Times New Roman,serif" font-size="14.00">class = Funny</text>
</g>
<!-- 1&#45;&gt;69891 -->
<g id="edge9" class="edge"><title>1&#45;&gt;69891</title>
<path fill="none" stroke="black" d="M456.5,-309.907C456.5,-301.649 456.5,-292.864 456.5,-284.302"/>
<polygon fill="black" stroke="black" points="460,-284.021 456.5,-274.021 453,-284.021 460,-284.021"/>
</g>
<!-- 3 -->
<g id="node4" class="node"><title>3</title>
<polygon fill="#e58139" fill-opacity="0.235294" stroke="black" points="139,-155 0,-155 0,-72 139,-72 139,-155"/>
<text text-anchor="middle" x="69.5" y="-139.8" font-family="Times New Roman,serif" font-size="14.00">asks &lt;= 0.011</text>
<text text-anchor="middle" x="69.5" y="-124.8" font-family="Times New Roman,serif" font-size="14.00">gini = 0.491</text>
<text text-anchor="middle" x="69.5" y="-109.8" font-family="Times New Roman,serif" font-size="14.00">samples = 77.1%</text>
<text text-anchor="middle" x="69.5" y="-94.8" font-family="Times New Roman,serif" font-size="14.00">value = [0.566, 0.434]</text>
<text text-anchor="middle" x="69.5" y="-79.8" font-family="Times New Roman,serif" font-size="14.00">class = Unfunny</text>
</g>
<!-- 2&#45;&gt;3 -->
<g id="edge3" class="edge"><title>2&#45;&gt;3</title>
<path fill="none" stroke="black" d="M172.03,-190.907C159.121,-181.288 145.254,-170.953 132.019,-161.09"/>
<polygon fill="black" stroke="black" points="133.984,-158.19 123.874,-155.021 129.801,-163.803 133.984,-158.19"/>
</g>
<!-- 67958 -->
<g id="node7" class="node"><title>67958</title>
<polygon fill="#399de5" fill-opacity="0.384314" stroke="black" points="296,-155 157,-155 157,-72 296,-72 296,-155"/>
<text text-anchor="middle" x="226.5" y="-139.8" font-family="Times New Roman,serif" font-size="14.00">wife &lt;= 0.133</text>
<text text-anchor="middle" x="226.5" y="-124.8" font-family="Times New Roman,serif" font-size="14.00">gini = 0.472</text>
<text text-anchor="middle" x="226.5" y="-109.8" font-family="Times New Roman,serif" font-size="14.00">samples = 2.6%</text>
<text text-anchor="middle" x="226.5" y="-94.8" font-family="Times New Roman,serif" font-size="14.00">value = [0.381, 0.619]</text>
<text text-anchor="middle" x="226.5" y="-79.8" font-family="Times New Roman,serif" font-size="14.00">class = Funny</text>
</g>
<!-- 2&#45;&gt;67958 -->
<g id="edge6" class="edge"><title>2&#45;&gt;67958</title>
<path fill="none" stroke="black" d="M226.5,-190.907C226.5,-182.649 226.5,-173.864 226.5,-165.302"/>
<polygon fill="black" stroke="black" points="230,-165.021 226.5,-155.021 223,-165.021 230,-165.021"/>
</g>
<!-- 4 -->
<g id="node5" class="node"><title>4</title>
<polygon fill="#c0c0c0" stroke="black" points="76.5,-36 22.5,-36 22.5,-0 76.5,-0 76.5,-36"/>
<text text-anchor="middle" x="49.5" y="-14.3" font-family="Times New Roman,serif" font-size="14.00">(...)</text>
</g>
<!-- 3&#45;&gt;4 -->
<g id="edge4" class="edge"><title>3&#45;&gt;4</title>
<path fill="none" stroke="black" d="M60.7859,-71.7615C58.9414,-63.1387 57.0377,-54.2385 55.3311,-46.2606"/>
<polygon fill="black" stroke="black" points="58.7374,-45.4518 53.223,-36.4051 51.8922,-46.916 58.7374,-45.4518"/>
</g>
<!-- 66651 -->
<g id="node6" class="node"><title>66651</title>
<polygon fill="#c0c0c0" stroke="black" points="148.5,-36 94.5,-36 94.5,-0 148.5,-0 148.5,-36"/>
<text text-anchor="middle" x="121.5" y="-14.3" font-family="Times New Roman,serif" font-size="14.00">(...)</text>
</g>
<!-- 3&#45;&gt;66651 -->
<g id="edge5" class="edge"><title>3&#45;&gt;66651</title>
<path fill="none" stroke="black" d="M92.1567,-71.7615C97.1678,-62.7512 102.347,-53.4379 106.934,-45.1906"/>
<polygon fill="black" stroke="black" points="110.018,-46.8456 111.82,-36.4051 103.901,-43.4433 110.018,-46.8456"/>
</g>
<!-- 67959 -->
<g id="node8" class="node"><title>67959</title>
<polygon fill="#c0c0c0" stroke="black" points="221.5,-36 167.5,-36 167.5,-0 221.5,-0 221.5,-36"/>
<text text-anchor="middle" x="194.5" y="-14.3" font-family="Times New Roman,serif" font-size="14.00">(...)</text>
</g>
<!-- 67958&#45;&gt;67959 -->
<g id="edge7" class="edge"><title>67958&#45;&gt;67959</title>
<path fill="none" stroke="black" d="M212.557,-71.7615C209.573,-63.0419 206.492,-54.0385 203.738,-45.9921"/>
<polygon fill="black" stroke="black" points="207.006,-44.733 200.457,-36.4051 200.384,-46.9997 207.006,-44.733"/>
</g>
<!-- 68936 -->
<g id="node9" class="node"><title>68936</title>
<polygon fill="#c0c0c0" stroke="black" points="293.5,-36 239.5,-36 239.5,-0 293.5,-0 293.5,-36"/>
<text text-anchor="middle" x="266.5" y="-14.3" font-family="Times New Roman,serif" font-size="14.00">(...)</text>
</g>
<!-- 67958&#45;&gt;68936 -->
<g id="edge8" class="edge"><title>67958&#45;&gt;68936</title>
<path fill="none" stroke="black" d="M243.928,-71.7615C247.7,-62.945 251.596,-53.8384 255.067,-45.7242"/>
<polygon fill="black" stroke="black" points="258.339,-46.9758 259.054,-36.4051 251.903,-44.2224 258.339,-46.9758"/>
</g>
<!-- 69892 -->
<g id="node11" class="node"><title>69892</title>
<polygon fill="#399de5" fill-opacity="0.380392" stroke="black" points="453,-155 314,-155 314,-72 453,-72 453,-155"/>
<text text-anchor="middle" x="383.5" y="-139.8" font-family="Times New Roman,serif" font-size="14.00">said &lt;= 0.042</text>
<text text-anchor="middle" x="383.5" y="-124.8" font-family="Times New Roman,serif" font-size="14.00">gini = 0.472</text>
<text text-anchor="middle" x="383.5" y="-109.8" font-family="Times New Roman,serif" font-size="14.00">samples = 6.2%</text>
<text text-anchor="middle" x="383.5" y="-94.8" font-family="Times New Roman,serif" font-size="14.00">value = [0.382, 0.618]</text>
<text text-anchor="middle" x="383.5" y="-79.8" font-family="Times New Roman,serif" font-size="14.00">class = Funny</text>
</g>
<!-- 69891&#45;&gt;69892 -->
<g id="edge10" class="edge"><title>69891&#45;&gt;69892</title>
<path fill="none" stroke="black" d="M431.173,-190.907C425.681,-182.105 419.815,-172.703 414.143,-163.612"/>
<polygon fill="black" stroke="black" points="417.045,-161.652 408.782,-155.021 411.106,-165.358 417.045,-161.652"/>
</g>
<!-- 74153 -->
<g id="node14" class="node"><title>74153</title>
<polygon fill="#399de5" fill-opacity="0.701961" stroke="black" points="596,-155 471,-155 471,-72 596,-72 596,-155"/>
<text text-anchor="middle" x="533.5" y="-139.8" font-family="Times New Roman,serif" font-size="14.00">replied &lt;= 0.081</text>
<text text-anchor="middle" x="533.5" y="-124.8" font-family="Times New Roman,serif" font-size="14.00">gini = 0.354</text>
<text text-anchor="middle" x="533.5" y="-109.8" font-family="Times New Roman,serif" font-size="14.00">samples = 1.7%</text>
<text text-anchor="middle" x="533.5" y="-94.8" font-family="Times New Roman,serif" font-size="14.00">value = [0.23, 0.77]</text>
<text text-anchor="middle" x="533.5" y="-79.8" font-family="Times New Roman,serif" font-size="14.00">class = Funny</text>
</g>
<!-- 69891&#45;&gt;74153 -->
<g id="edge13" class="edge"><title>69891&#45;&gt;74153</title>
<path fill="none" stroke="black" d="M483.215,-190.907C489.008,-182.105 495.195,-172.703 501.178,-163.612"/>
<polygon fill="black" stroke="black" points="504.259,-165.298 506.832,-155.021 498.411,-161.45 504.259,-165.298"/>
</g>
<!-- 69893 -->
<g id="node12" class="node"><title>69893</title>
<polygon fill="#c0c0c0" stroke="black" points="366.5,-36 312.5,-36 312.5,-0 366.5,-0 366.5,-36"/>
<text text-anchor="middle" x="339.5" y="-14.3" font-family="Times New Roman,serif" font-size="14.00">(...)</text>
</g>
<!-- 69892&#45;&gt;69893 -->
<g id="edge11" class="edge"><title>69892&#45;&gt;69893</title>
<path fill="none" stroke="black" d="M364.329,-71.7615C360.134,-62.8481 355.8,-53.6382 351.95,-45.4571"/>
<polygon fill="black" stroke="black" points="355.116,-43.963 347.691,-36.4051 348.782,-46.9436 355.116,-43.963"/>
</g>
<!-- 70344 -->
<g id="node13" class="node"><title>70344</title>
<polygon fill="#c0c0c0" stroke="black" points="438.5,-36 384.5,-36 384.5,-0 438.5,-0 438.5,-36"/>
<text text-anchor="middle" x="411.5" y="-14.3" font-family="Times New Roman,serif" font-size="14.00">(...)</text>
</g>
<!-- 69892&#45;&gt;70344 -->
<g id="edge12" class="edge"><title>69892&#45;&gt;70344</title>
<path fill="none" stroke="black" d="M395.7,-71.7615C398.311,-63.0419 401.007,-54.0385 403.417,-45.9921"/>
<polygon fill="black" stroke="black" points="406.772,-46.9889 406.288,-36.4051 400.066,-44.9807 406.772,-46.9889"/>
</g>
<!-- 74154 -->
<g id="node15" class="node"><title>74154</title>
<polygon fill="#c0c0c0" stroke="black" points="513.5,-36 459.5,-36 459.5,-0 513.5,-0 513.5,-36"/>
<text text-anchor="middle" x="486.5" y="-14.3" font-family="Times New Roman,serif" font-size="14.00">(...)</text>
</g>
<!-- 74153&#45;&gt;74154 -->
<g id="edge14" class="edge"><title>74153&#45;&gt;74154</title>
<path fill="none" stroke="black" d="M513.022,-71.7615C508.541,-62.8481 503.912,-53.6382 499.799,-45.4571"/>
<polygon fill="black" stroke="black" points="502.868,-43.7679 495.249,-36.4051 496.613,-46.9118 502.868,-43.7679"/>
</g>
<!-- 74679 -->
<g id="node16" class="node"><title>74679</title>
<polygon fill="#c0c0c0" stroke="black" points="585.5,-36 531.5,-36 531.5,-0 585.5,-0 585.5,-36"/>
<text text-anchor="middle" x="558.5" y="-14.3" font-family="Times New Roman,serif" font-size="14.00">(...)</text>
</g>
<!-- 74153&#45;&gt;74679 -->
<g id="edge15" class="edge"><title>74153&#45;&gt;74679</title>
<path fill="none" stroke="black" d="M544.393,-71.7615C546.698,-63.1387 549.078,-54.2385 551.211,-46.2606"/>
<polygon fill="black" stroke="black" points="554.644,-46.9698 553.846,-36.4051 547.882,-45.1616 554.644,-46.9698"/>
</g>
<!-- 74977 -->
<g id="node18" class="node"><title>74977</title>
<polygon fill="#399de5" fill-opacity="0.458824" stroke="black" points="756,-274 617,-274 617,-191 756,-191 756,-274"/>
<text text-anchor="middle" x="686.5" y="-258.8" font-family="Times New Roman,serif" font-size="14.00">says &lt;= 0.039</text>
<text text-anchor="middle" x="686.5" y="-243.8" font-family="Times New Roman,serif" font-size="14.00">gini = 0.455</text>
<text text-anchor="middle" x="686.5" y="-228.8" font-family="Times New Roman,serif" font-size="14.00">samples = 8.3%</text>
<text text-anchor="middle" x="686.5" y="-213.8" font-family="Times New Roman,serif" font-size="14.00">value = [0.351, 0.649]</text>
<text text-anchor="middle" x="686.5" y="-198.8" font-family="Times New Roman,serif" font-size="14.00">class = Funny</text>
</g>
<!-- 74976&#45;&gt;74977 -->
<g id="edge17" class="edge"><title>74976&#45;&gt;74977</title>
<path fill="none" stroke="black" d="M686.5,-309.907C686.5,-301.649 686.5,-292.864 686.5,-284.302"/>
<polygon fill="black" stroke="black" points="690,-284.021 686.5,-274.021 683,-284.021 690,-284.021"/>
</g>
<!-- 80092 -->
<g id="node25" class="node"><title>80092</title>
<polygon fill="#399de5" fill-opacity="0.662745" stroke="black" points="1067,-274 928,-274 928,-191 1067,-191 1067,-274"/>
<text text-anchor="middle" x="997.5" y="-258.8" font-family="Times New Roman,serif" font-size="14.00">asks &lt;= 0.037</text>
<text text-anchor="middle" x="997.5" y="-243.8" font-family="Times New Roman,serif" font-size="14.00">gini = 0.376</text>
<text text-anchor="middle" x="997.5" y="-228.8" font-family="Times New Roman,serif" font-size="14.00">samples = 4.1%</text>
<text text-anchor="middle" x="997.5" y="-213.8" font-family="Times New Roman,serif" font-size="14.00">value = [0.251, 0.749]</text>
<text text-anchor="middle" x="997.5" y="-198.8" font-family="Times New Roman,serif" font-size="14.00">class = Funny</text>
</g>
<!-- 74976&#45;&gt;80092 -->
<g id="edge24" class="edge"><title>74976&#45;&gt;80092</title>
<path fill="none" stroke="black" d="M756.294,-324.243C804.413,-306.141 868.453,-282.048 918.454,-263.238"/>
<polygon fill="black" stroke="black" points="919.811,-266.466 927.938,-259.669 917.346,-259.915 919.811,-266.466"/>
</g>
<!-- 74978 -->
<g id="node19" class="node"><title>74978</title>
<polygon fill="#399de5" fill-opacity="0.670588" stroke="black" points="753,-155 614,-155 614,-72 753,-72 753,-155"/>
<text text-anchor="middle" x="683.5" y="-139.8" font-family="Times New Roman,serif" font-size="14.00">computer &lt;= 0.047</text>
<text text-anchor="middle" x="683.5" y="-124.8" font-family="Times New Roman,serif" font-size="14.00">gini = 0.372</text>
<text text-anchor="middle" x="683.5" y="-109.8" font-family="Times New Roman,serif" font-size="14.00">samples = 1.4%</text>
<text text-anchor="middle" x="683.5" y="-94.8" font-family="Times New Roman,serif" font-size="14.00">value = [0.247, 0.753]</text>
<text text-anchor="middle" x="683.5" y="-79.8" font-family="Times New Roman,serif" font-size="14.00">class = Funny</text>
</g>
<!-- 74977&#45;&gt;74978 -->
<g id="edge18" class="edge"><title>74977&#45;&gt;74978</title>
<path fill="none" stroke="black" d="M685.459,-190.907C685.245,-182.558 685.017,-173.671 684.795,-165.02"/>
<polygon fill="black" stroke="black" points="688.294,-164.928 684.539,-155.021 681.297,-165.107 688.294,-164.928"/>
</g>
<!-- 75657 -->
<g id="node22" class="node"><title>75657</title>
<polygon fill="#399de5" fill-opacity="0.407843" stroke="black" points="910,-155 771,-155 771,-72 910,-72 910,-155"/>
<text text-anchor="middle" x="840.5" y="-139.8" font-family="Times New Roman,serif" font-size="14.00">bar says &lt;= 0.188</text>
<text text-anchor="middle" x="840.5" y="-124.8" font-family="Times New Roman,serif" font-size="14.00">gini = 0.467</text>
<text text-anchor="middle" x="840.5" y="-109.8" font-family="Times New Roman,serif" font-size="14.00">samples = 6.8%</text>
<text text-anchor="middle" x="840.5" y="-94.8" font-family="Times New Roman,serif" font-size="14.00">value = [0.372, 0.628]</text>
<text text-anchor="middle" x="840.5" y="-79.8" font-family="Times New Roman,serif" font-size="14.00">class = Funny</text>
</g>
<!-- 74977&#45;&gt;75657 -->
<g id="edge21" class="edge"><title>74977&#45;&gt;75657</title>
<path fill="none" stroke="black" d="M739.93,-190.907C752.591,-181.288 766.194,-170.953 779.176,-161.09"/>
<polygon fill="black" stroke="black" points="781.32,-163.857 787.165,-155.021 777.085,-158.283 781.32,-163.857"/>
</g>
<!-- 74979 -->
<g id="node20" class="node"><title>74979</title>
<polygon fill="#c0c0c0" stroke="black" points="662.5,-36 608.5,-36 608.5,-0 662.5,-0 662.5,-36"/>
<text text-anchor="middle" x="635.5" y="-14.3" font-family="Times New Roman,serif" font-size="14.00">(...)</text>
</g>
<!-- 74978&#45;&gt;74979 -->
<g id="edge19" class="edge"><title>74978&#45;&gt;74979</title>
<path fill="none" stroke="black" d="M662.586,-71.7615C658.01,-62.8481 653.282,-53.6382 649.082,-45.4571"/>
<polygon fill="black" stroke="black" points="652.116,-43.7028 644.435,-36.4051 645.889,-46.8998 652.116,-43.7028"/>
</g>
<!-- 75650 -->
<g id="node21" class="node"><title>75650</title>
<polygon fill="#c0c0c0" stroke="black" points="734.5,-36 680.5,-36 680.5,-0 734.5,-0 734.5,-36"/>
<text text-anchor="middle" x="707.5" y="-14.3" font-family="Times New Roman,serif" font-size="14.00">(...)</text>
</g>
<!-- 74978&#45;&gt;75650 -->
<g id="edge20" class="edge"><title>74978&#45;&gt;75650</title>
<path fill="none" stroke="black" d="M693.957,-71.7615C696.17,-63.1387 698.455,-54.2385 700.503,-46.2606"/>
<polygon fill="black" stroke="black" points="703.936,-46.9613 703.032,-36.4051 697.156,-45.2209 703.936,-46.9613"/>
</g>
<!-- 75658 -->
<g id="node23" class="node"><title>75658</title>
<polygon fill="#c0c0c0" stroke="black" points="816.5,-36 762.5,-36 762.5,-0 816.5,-0 816.5,-36"/>
<text text-anchor="middle" x="789.5" y="-14.3" font-family="Times New Roman,serif" font-size="14.00">(...)</text>
</g>
<!-- 75657&#45;&gt;75658 -->
<g id="edge22" class="edge"><title>75657&#45;&gt;75658</title>
<path fill="none" stroke="black" d="M818.279,-71.7615C813.364,-62.7512 808.284,-53.4379 803.786,-45.1906"/>
<polygon fill="black" stroke="black" points="806.855,-43.5081 798.994,-36.4051 800.71,-46.8601 806.855,-43.5081"/>
</g>
<!-- 80051 -->
<g id="node24" class="node"><title>80051</title>
<polygon fill="#c0c0c0" stroke="black" points="888.5,-36 834.5,-36 834.5,-0 888.5,-0 888.5,-36"/>
<text text-anchor="middle" x="861.5" y="-14.3" font-family="Times New Roman,serif" font-size="14.00">(...)</text>
</g>
<!-- 75657&#45;&gt;80051 -->
<g id="edge23" class="edge"><title>75657&#45;&gt;80051</title>
<path fill="none" stroke="black" d="M849.65,-71.7615C851.586,-63.1387 853.585,-54.2385 855.377,-46.2606"/>
<polygon fill="black" stroke="black" points="858.814,-46.9291 857.591,-36.4051 851.984,-45.395 858.814,-46.9291"/>
</g>
<!-- 80093 -->
<g id="node26" class="node"><title>80093</title>
<polygon fill="#399de5" fill-opacity="0.772549" stroke="black" points="1067,-155 928,-155 928,-72 1067,-72 1067,-155"/>
<text text-anchor="middle" x="997.5" y="-139.8" font-family="Times New Roman,serif" font-size="14.00">cave &lt;= 0.012</text>
<text text-anchor="middle" x="997.5" y="-124.8" font-family="Times New Roman,serif" font-size="14.00">gini = 0.303</text>
<text text-anchor="middle" x="997.5" y="-109.8" font-family="Times New Roman,serif" font-size="14.00">samples = 1.2%</text>
<text text-anchor="middle" x="997.5" y="-94.8" font-family="Times New Roman,serif" font-size="14.00">value = [0.186, 0.814]</text>
<text text-anchor="middle" x="997.5" y="-79.8" font-family="Times New Roman,serif" font-size="14.00">class = Funny</text>
</g>
<!-- 80092&#45;&gt;80093 -->
<g id="edge25" class="edge"><title>80092&#45;&gt;80093</title>
<path fill="none" stroke="black" d="M997.5,-190.907C997.5,-182.649 997.5,-173.864 997.5,-165.302"/>
<polygon fill="black" stroke="black" points="1001,-165.021 997.5,-155.021 994,-165.021 1001,-165.021"/>
</g>
<!-- 80542 -->
<g id="node29" class="node"><title>80542</title>
<polygon fill="#399de5" fill-opacity="0.615686" stroke="black" points="1224,-155 1085,-155 1085,-72 1224,-72 1224,-155"/>
<text text-anchor="middle" x="1154.5" y="-139.8" font-family="Times New Roman,serif" font-size="14.00">walk &lt;= 0.065</text>
<text text-anchor="middle" x="1154.5" y="-124.8" font-family="Times New Roman,serif" font-size="14.00">gini = 0.401</text>
<text text-anchor="middle" x="1154.5" y="-109.8" font-family="Times New Roman,serif" font-size="14.00">samples = 2.9%</text>
<text text-anchor="middle" x="1154.5" y="-94.8" font-family="Times New Roman,serif" font-size="14.00">value = [0.278, 0.722]</text>
<text text-anchor="middle" x="1154.5" y="-79.8" font-family="Times New Roman,serif" font-size="14.00">class = Funny</text>
</g>
<!-- 80092&#45;&gt;80542 -->
<g id="edge28" class="edge"><title>80092&#45;&gt;80542</title>
<path fill="none" stroke="black" d="M1051.97,-190.907C1064.88,-181.288 1078.75,-170.953 1091.98,-161.09"/>
<polygon fill="black" stroke="black" points="1094.2,-163.803 1100.13,-155.021 1090.02,-158.19 1094.2,-163.803"/>
</g>
<!-- 80094 -->
<g id="node27" class="node"><title>80094</title>
<polygon fill="#c0c0c0" stroke="black" points="980.5,-36 926.5,-36 926.5,-0 980.5,-0 980.5,-36"/>
<text text-anchor="middle" x="953.5" y="-14.3" font-family="Times New Roman,serif" font-size="14.00">(...)</text>
</g>
<!-- 80093&#45;&gt;80094 -->
<g id="edge26" class="edge"><title>80093&#45;&gt;80094</title>
<path fill="none" stroke="black" d="M978.329,-71.7615C974.134,-62.8481 969.8,-53.6382 965.95,-45.4571"/>
<polygon fill="black" stroke="black" points="969.116,-43.963 961.691,-36.4051 962.782,-46.9436 969.116,-43.963"/>
</g>
<!-- 80539 -->
<g id="node28" class="node"><title>80539</title>
<polygon fill="#c0c0c0" stroke="black" points="1052.5,-36 998.5,-36 998.5,-0 1052.5,-0 1052.5,-36"/>
<text text-anchor="middle" x="1025.5" y="-14.3" font-family="Times New Roman,serif" font-size="14.00">(...)</text>
</g>
<!-- 80093&#45;&gt;80539 -->
<g id="edge27" class="edge"><title>80093&#45;&gt;80539</title>
<path fill="none" stroke="black" d="M1009.7,-71.7615C1012.31,-63.0419 1015.01,-54.0385 1017.42,-45.9921"/>
<polygon fill="black" stroke="black" points="1020.77,-46.9889 1020.29,-36.4051 1014.07,-44.9807 1020.77,-46.9889"/>
</g>
<!-- 80543 -->
<g id="node30" class="node"><title>80543</title>
<polygon fill="#c0c0c0" stroke="black" points="1145.5,-36 1091.5,-36 1091.5,-0 1145.5,-0 1145.5,-36"/>
<text text-anchor="middle" x="1118.5" y="-14.3" font-family="Times New Roman,serif" font-size="14.00">(...)</text>
</g>
<!-- 80542&#45;&gt;80543 -->
<g id="edge29" class="edge"><title>80542&#45;&gt;80543</title>
<path fill="none" stroke="black" d="M1138.81,-71.7615C1135.46,-63.0419 1131.99,-54.0385 1128.89,-45.9921"/>
<polygon fill="black" stroke="black" points="1132.06,-44.4797 1125.2,-36.4051 1125.53,-46.9949 1132.06,-44.4797"/>
</g>
<!-- 82064 -->
<g id="node31" class="node"><title>82064</title>
<polygon fill="#c0c0c0" stroke="black" points="1217.5,-36 1163.5,-36 1163.5,-0 1217.5,-0 1217.5,-36"/>
<text text-anchor="middle" x="1190.5" y="-14.3" font-family="Times New Roman,serif" font-size="14.00">(...)</text>
</g>
<!-- 80542&#45;&gt;82064 -->
<g id="edge30" class="edge"><title>80542&#45;&gt;82064</title>
<path fill="none" stroke="black" d="M1170.19,-71.7615C1173.54,-63.0419 1177.01,-54.0385 1180.11,-45.9921"/>
<polygon fill="black" stroke="black" points="1183.47,-46.9949 1183.8,-36.4051 1176.94,-44.4797 1183.47,-46.9949"/>
</g>
</g>
</svg>
