<?xml version="1.0" encoding="UTF-8" standalone="no"?>
<!DOCTYPE svg PUBLIC "-//W3C//DTD SVG 1.1//EN"
 "http://www.w3.org/Graphics/SVG/1.1/DTD/svg11.dtd">
<!-- Generated by graphviz version 2.38.0 (20140413.2041)
 -->
<!-- Title: Tree Pages: 1 -->
<svg width="1246pt" height="520pt"
 viewBox="0.00 0.00 1246.00 520.00" xmlns="http://www.w3.org/2000/svg" xmlns:xlink="http://www.w3.org/1999/xlink">
<g id="graph0" class="graph" transform="scale(1 1) rotate(0) translate(4 516)">
<title>Tree</title>
<polygon fill="white" stroke="none" points="-4,4 -4,-516 1242,-516 1242,4 -4,4"/>
<!-- 0 -->
<g id="node1" class="node"><title>0</title>
<polygon fill="#399de5" fill-opacity="0.050980" stroke="black" points="649,-512 510,-512 510,-429 649,-429 649,-512"/>
<text text-anchor="middle" x="579.5" y="-496.8" font-family="Times New Roman,serif" font-size="14.00">says &lt;= 0.008</text>
<text text-anchor="middle" x="579.5" y="-481.8" font-family="Times New Roman,serif" font-size="14.00">gini = 0.5</text>
<text text-anchor="middle" x="579.5" y="-466.8" font-family="Times New Roman,serif" font-size="14.00">samples = 100.0%</text>
<text text-anchor="middle" x="579.5" y="-451.8" font-family="Times New Roman,serif" font-size="14.00">value = [0.486, 0.514]</text>
<text text-anchor="middle" x="579.5" y="-436.8" font-family="Times New Roman,serif" font-size="14.00">class = Funny</text>
</g>
<!-- 1 -->
<g id="node2" class="node"><title>1</title>
<polygon fill="#399de5" fill-opacity="0.152941" stroke="black" points="532,-393 393,-393 393,-310 532,-310 532,-393"/>
<text text-anchor="middle" x="462.5" y="-377.8" font-family="Times New Roman,serif" font-size="14.00">said &lt;= 0.005</text>
<text text-anchor="middle" x="462.5" y="-362.8" font-family="Times New Roman,serif" font-size="14.00">gini = 0.497</text>
<text text-anchor="middle" x="462.5" y="-347.8" font-family="Times New Roman,serif" font-size="14.00">samples = 87.7%</text>
<text text-anchor="middle" x="462.5" y="-332.8" font-family="Times New Roman,serif" font-size="14.00">value = [0.459, 0.541]</text>
<text text-anchor="middle" x="462.5" y="-317.8" font-family="Times New Roman,serif" font-size="14.00">class = Funny</text>
</g>
<!-- 0&#45;&gt;1 -->
<g id="edge1" class="edge"><title>0&#45;&gt;1</title>
<path fill="none" stroke="black" d="M538.907,-428.907C529.651,-419.651 519.732,-409.732 510.209,-400.209"/>
<polygon fill="black" stroke="black" points="512.567,-397.617 503.021,-393.021 507.617,-402.567 512.567,-397.617"/>
<text text-anchor="middle" x="503.021" y="-414.321" font-family="Times New Roman,serif" font-size="14.00">True</text>
</g>
<!-- 74964 -->
<g id="node17" class="node"><title>74964</title>
<polygon fill="#e58139" fill-opacity="0.537255" stroke="black" points="767,-393 628,-393 628,-310 767,-310 767,-393"/>
<text text-anchor="middle" x="697.5" y="-377.8" font-family="Times New Roman,serif" font-size="14.00">asks &lt;= 0.01</text>
<text text-anchor="middle" x="697.5" y="-362.8" font-family="Times New Roman,serif" font-size="14.00">gini = 0.433</text>
<text text-anchor="middle" x="697.5" y="-347.8" font-family="Times New Roman,serif" font-size="14.00">samples = 12.3%</text>
<text text-anchor="middle" x="697.5" y="-332.8" font-family="Times New Roman,serif" font-size="14.00">value = [0.684, 0.316]</text>
<text text-anchor="middle" x="697.5" y="-317.8" font-family="Times New Roman,serif" font-size="14.00">class = Unfunny</text>
</g>
<!-- 0&#45;&gt;74964 -->
<g id="edge16" class="edge"><title>0&#45;&gt;74964</title>
<path fill="none" stroke="black" d="M620.44,-428.907C629.775,-419.651 639.779,-409.732 649.383,-400.209"/>
<polygon fill="black" stroke="black" points="651.996,-402.547 656.633,-393.021 647.067,-397.576 651.996,-402.547"/>
<text text-anchor="middle" x="656.526" y="-414.321" font-family="Times New Roman,serif" font-size="14.00">False</text>
</g>
<!-- 2 -->
<g id="node3" class="node"><title>2</title>
<polygon fill="#399de5" fill-opacity="0.215686" stroke="black" points="289,-274 164,-274 164,-191 289,-191 289,-274"/>
<text text-anchor="middle" x="226.5" y="-258.8" font-family="Times New Roman,serif" font-size="14.00">wife &lt;= 0.019</text>
<text text-anchor="middle" x="226.5" y="-243.8" font-family="Times New Roman,serif" font-size="14.00">gini = 0.493</text>
<text text-anchor="middle" x="226.5" y="-228.8" font-family="Times New Roman,serif" font-size="14.00">samples = 79.8%</text>
<text text-anchor="middle" x="226.5" y="-213.8" font-family="Times New Roman,serif" font-size="14.00">value = [0.44, 0.56]</text>
<text text-anchor="middle" x="226.5" y="-198.8" font-family="Times New Roman,serif" font-size="14.00">class = Funny</text>
</g>
<!-- 1&#45;&gt;2 -->
<g id="edge2" class="edge"><title>1&#45;&gt;2</title>
<path fill="none" stroke="black" d="M392.969,-316.029C363.15,-301.246 328.333,-283.985 298.271,-269.081"/>
<polygon fill="black" stroke="black" points="299.619,-265.843 289.105,-264.537 296.51,-272.115 299.619,-265.843"/>
</g>
<!-- 69969 -->
<g id="node10" class="node"><title>69969</title>
<polygon fill="#e58139" fill-opacity="0.470588" stroke="black" points="532,-274 393,-274 393,-191 532,-191 532,-274"/>
<text text-anchor="middle" x="462.5" y="-258.8" font-family="Times New Roman,serif" font-size="14.00">replied &lt;= 0.018</text>
<text text-anchor="middle" x="462.5" y="-243.8" font-family="Times New Roman,serif" font-size="14.00">gini = 0.452</text>
<text text-anchor="middle" x="462.5" y="-228.8" font-family="Times New Roman,serif" font-size="14.00">samples = 7.9%</text>
<text text-anchor="middle" x="462.5" y="-213.8" font-family="Times New Roman,serif" font-size="14.00">value = [0.654, 0.346]</text>
<text text-anchor="middle" x="462.5" y="-198.8" font-family="Times New Roman,serif" font-size="14.00">class = Unfunny</text>
</g>
<!-- 1&#45;&gt;69969 -->
<g id="edge9" class="edge"><title>1&#45;&gt;69969</title>
<path fill="none" stroke="black" d="M462.5,-309.907C462.5,-301.649 462.5,-292.864 462.5,-284.302"/>
<polygon fill="black" stroke="black" points="466,-284.021 462.5,-274.021 459,-284.021 466,-284.021"/>
</g>
<!-- 3 -->
<g id="node4" class="node"><title>3</title>
<polygon fill="#399de5" fill-opacity="0.235294" stroke="black" points="139,-155 0,-155 0,-72 139,-72 139,-155"/>
<text text-anchor="middle" x="69.5" y="-139.8" font-family="Times New Roman,serif" font-size="14.00">asks &lt;= 0.011</text>
<text text-anchor="middle" x="69.5" y="-124.8" font-family="Times New Roman,serif" font-size="14.00">gini = 0.491</text>
<text text-anchor="middle" x="69.5" y="-109.8" font-family="Times New Roman,serif" font-size="14.00">samples = 77.2%</text>
<text text-anchor="middle" x="69.5" y="-94.8" font-family="Times New Roman,serif" font-size="14.00">value = [0.434, 0.566]</text>
<text text-anchor="middle" x="69.5" y="-79.8" font-family="Times New Roman,serif" font-size="14.00">class = Funny</text>
</g>
<!-- 2&#45;&gt;3 -->
<g id="edge3" class="edge"><title>2&#45;&gt;3</title>
<path fill="none" stroke="black" d="M172.03,-190.907C159.121,-181.288 145.254,-170.953 132.019,-161.09"/>
<polygon fill="black" stroke="black" points="133.984,-158.19 123.874,-155.021 129.801,-163.803 133.984,-158.19"/>
</g>
<!-- 68028 -->
<g id="node7" class="node"><title>68028</title>
<polygon fill="#e58139" fill-opacity="0.372549" stroke="black" points="296,-155 157,-155 157,-72 296,-72 296,-155"/>
<text text-anchor="middle" x="226.5" y="-139.8" font-family="Times New Roman,serif" font-size="14.00">wife &lt;= 0.122</text>
<text text-anchor="middle" x="226.5" y="-124.8" font-family="Times New Roman,serif" font-size="14.00">gini = 0.473</text>
<text text-anchor="middle" x="226.5" y="-109.8" font-family="Times New Roman,serif" font-size="14.00">samples = 2.6%</text>
<text text-anchor="middle" x="226.5" y="-94.8" font-family="Times New Roman,serif" font-size="14.00">value = [0.615, 0.385]</text>
<text text-anchor="middle" x="226.5" y="-79.8" font-family="Times New Roman,serif" font-size="14.00">class = Unfunny</text>
</g>
<!-- 2&#45;&gt;68028 -->
<g id="edge6" class="edge"><title>2&#45;&gt;68028</title>
<path fill="none" stroke="black" d="M226.5,-190.907C226.5,-182.649 226.5,-173.864 226.5,-165.302"/>
<polygon fill="black" stroke="black" points="230,-165.021 226.5,-155.021 223,-165.021 230,-165.021"/>
</g>
<!-- 4 -->
<g id="node5" class="node"><title>4</title>
<polygon fill="#c0c0c0" stroke="black" points="90.5,-36 36.5,-36 36.5,-0 90.5,-0 90.5,-36"/>
<text text-anchor="middle" x="63.5" y="-14.3" font-family="Times New Roman,serif" font-size="14.00">(...)</text>
</g>
<!-- 3&#45;&gt;4 -->
<g id="edge4" class="edge"><title>3&#45;&gt;4</title>
<path fill="none" stroke="black" d="M66.8858,-71.7615C66.3386,-63.2356 65.7741,-54.4385 65.2666,-46.5299"/>
<polygon fill="black" stroke="black" points="68.7502,-46.1604 64.6169,-36.4051 61.7646,-46.6087 68.7502,-46.1604"/>
</g>
<!-- 66709 -->
<g id="node6" class="node"><title>66709</title>
<polygon fill="#c0c0c0" stroke="black" points="162.5,-36 108.5,-36 108.5,-0 162.5,-0 162.5,-36"/>
<text text-anchor="middle" x="135.5" y="-14.3" font-family="Times New Roman,serif" font-size="14.00">(...)</text>
</g>
<!-- 3&#45;&gt;66709 -->
<g id="edge5" class="edge"><title>3&#45;&gt;66709</title>
<path fill="none" stroke="black" d="M98.2566,-71.7615C104.754,-62.5574 111.474,-53.0372 117.387,-44.6601"/>
<polygon fill="black" stroke="black" points="120.307,-46.5932 123.214,-36.4051 114.588,-42.5564 120.307,-46.5932"/>
</g>
<!-- 68029 -->
<g id="node8" class="node"><title>68029</title>
<polygon fill="#c0c0c0" stroke="black" points="234.5,-36 180.5,-36 180.5,-0 234.5,-0 234.5,-36"/>
<text text-anchor="middle" x="207.5" y="-14.3" font-family="Times New Roman,serif" font-size="14.00">(...)</text>
</g>
<!-- 68028&#45;&gt;68029 -->
<g id="edge7" class="edge"><title>68028&#45;&gt;68029</title>
<path fill="none" stroke="black" d="M218.222,-71.7615C216.469,-63.1387 214.661,-54.2385 213.04,-46.2606"/>
<polygon fill="black" stroke="black" points="216.458,-45.5078 211.037,-36.4051 209.598,-46.9018 216.458,-45.5078"/>
</g>
<!-- 68830 -->
<g id="node9" class="node"><title>68830</title>
<polygon fill="#c0c0c0" stroke="black" points="306.5,-36 252.5,-36 252.5,-0 306.5,-0 306.5,-36"/>
<text text-anchor="middle" x="279.5" y="-14.3" font-family="Times New Roman,serif" font-size="14.00">(...)</text>
</g>
<!-- 68028&#45;&gt;68830 -->
<g id="edge8" class="edge"><title>68028&#45;&gt;68830</title>
<path fill="none" stroke="black" d="M249.592,-71.7615C254.7,-62.7512 259.979,-53.4379 264.654,-45.1906"/>
<polygon fill="black" stroke="black" points="267.748,-46.8306 269.634,-36.4051 261.658,-43.3787 267.748,-46.8306"/>
</g>
<!-- 69970 -->
<g id="node11" class="node"><title>69970</title>
<polygon fill="#e58139" fill-opacity="0.392157" stroke="black" points="453,-155 314,-155 314,-72 453,-72 453,-155"/>
<text text-anchor="middle" x="383.5" y="-139.8" font-family="Times New Roman,serif" font-size="14.00">said &lt;= 0.042</text>
<text text-anchor="middle" x="383.5" y="-124.8" font-family="Times New Roman,serif" font-size="14.00">gini = 0.47</text>
<text text-anchor="middle" x="383.5" y="-109.8" font-family="Times New Roman,serif" font-size="14.00">samples = 6.2%</text>
<text text-anchor="middle" x="383.5" y="-94.8" font-family="Times New Roman,serif" font-size="14.00">value = [0.622, 0.378]</text>
<text text-anchor="middle" x="383.5" y="-79.8" font-family="Times New Roman,serif" font-size="14.00">class = Unfunny</text>
</g>
<!-- 69969&#45;&gt;69970 -->
<g id="edge10" class="edge"><title>69969&#45;&gt;69970</title>
<path fill="none" stroke="black" d="M435.091,-190.907C429.086,-182.014 422.669,-172.509 416.471,-163.331"/>
<polygon fill="black" stroke="black" points="419.357,-161.35 410.86,-155.021 413.556,-165.267 419.357,-161.35"/>
</g>
<!-- 74151 -->
<g id="node14" class="node"><title>74151</title>
<polygon fill="#e58139" fill-opacity="0.705882" stroke="black" points="610,-155 471,-155 471,-72 610,-72 610,-155"/>
<text text-anchor="middle" x="540.5" y="-139.8" font-family="Times New Roman,serif" font-size="14.00">replied &lt;= 0.083</text>
<text text-anchor="middle" x="540.5" y="-124.8" font-family="Times New Roman,serif" font-size="14.00">gini = 0.352</text>
<text text-anchor="middle" x="540.5" y="-109.8" font-family="Times New Roman,serif" font-size="14.00">samples = 1.7%</text>
<text text-anchor="middle" x="540.5" y="-94.8" font-family="Times New Roman,serif" font-size="14.00">value = [0.772, 0.228]</text>
<text text-anchor="middle" x="540.5" y="-79.8" font-family="Times New Roman,serif" font-size="14.00">class = Unfunny</text>
</g>
<!-- 69969&#45;&gt;74151 -->
<g id="edge13" class="edge"><title>69969&#45;&gt;74151</title>
<path fill="none" stroke="black" d="M489.562,-190.907C495.43,-182.105 501.698,-172.703 507.759,-163.612"/>
<polygon fill="black" stroke="black" points="510.851,-165.283 513.486,-155.021 505.027,-161.4 510.851,-165.283"/>
</g>
<!-- 69971 -->
<g id="node12" class="node"><title>69971</title>
<polygon fill="#c0c0c0" stroke="black" points="378.5,-36 324.5,-36 324.5,-0 378.5,-0 378.5,-36"/>
<text text-anchor="middle" x="351.5" y="-14.3" font-family="Times New Roman,serif" font-size="14.00">(...)</text>
</g>
<!-- 69970&#45;&gt;69971 -->
<g id="edge11" class="edge"><title>69970&#45;&gt;69971</title>
<path fill="none" stroke="black" d="M369.557,-71.7615C366.573,-63.0419 363.492,-54.0385 360.738,-45.9921"/>
<polygon fill="black" stroke="black" points="364.006,-44.733 357.457,-36.4051 357.384,-46.9997 364.006,-44.733"/>
</g>
<!-- 70416 -->
<g id="node13" class="node"><title>70416</title>
<polygon fill="#c0c0c0" stroke="black" points="450.5,-36 396.5,-36 396.5,-0 450.5,-0 450.5,-36"/>
<text text-anchor="middle" x="423.5" y="-14.3" font-family="Times New Roman,serif" font-size="14.00">(...)</text>
</g>
<!-- 69970&#45;&gt;70416 -->
<g id="edge12" class="edge"><title>69970&#45;&gt;70416</title>
<path fill="none" stroke="black" d="M400.928,-71.7615C404.7,-62.945 408.596,-53.8384 412.067,-45.7242"/>
<polygon fill="black" stroke="black" points="415.339,-46.9758 416.054,-36.4051 408.903,-44.2224 415.339,-46.9758"/>
</g>
<!-- 74152 -->
<g id="node15" class="node"><title>74152</title>
<polygon fill="#c0c0c0" stroke="black" points="523.5,-36 469.5,-36 469.5,-0 523.5,-0 523.5,-36"/>
<text text-anchor="middle" x="496.5" y="-14.3" font-family="Times New Roman,serif" font-size="14.00">(...)</text>
</g>
<!-- 74151&#45;&gt;74152 -->
<g id="edge14" class="edge"><title>74151&#45;&gt;74152</title>
<path fill="none" stroke="black" d="M521.329,-71.7615C517.134,-62.8481 512.8,-53.6382 508.95,-45.4571"/>
<polygon fill="black" stroke="black" points="512.116,-43.963 504.691,-36.4051 505.782,-46.9436 512.116,-43.963"/>
</g>
<!-- 74669 -->
<g id="node16" class="node"><title>74669</title>
<polygon fill="#c0c0c0" stroke="black" points="595.5,-36 541.5,-36 541.5,-0 595.5,-0 595.5,-36"/>
<text text-anchor="middle" x="568.5" y="-14.3" font-family="Times New Roman,serif" font-size="14.00">(...)</text>
</g>
<!-- 74151&#45;&gt;74669 -->
<g id="edge15" class="edge"><title>74151&#45;&gt;74669</title>
<path fill="none" stroke="black" d="M552.7,-71.7615C555.311,-63.0419 558.007,-54.0385 560.417,-45.9921"/>
<polygon fill="black" stroke="black" points="563.772,-46.9889 563.288,-36.4051 557.066,-44.9807 563.772,-46.9889"/>
</g>
<!-- 74965 -->
<g id="node18" class="node"><title>74965</title>
<polygon fill="#e58139" fill-opacity="0.462745" stroke="black" points="760,-274 635,-274 635,-191 760,-191 760,-274"/>
<text text-anchor="middle" x="697.5" y="-258.8" font-family="Times New Roman,serif" font-size="14.00">says &lt;= 0.046</text>
<text text-anchor="middle" x="697.5" y="-243.8" font-family="Times New Roman,serif" font-size="14.00">gini = 0.455</text>
<text text-anchor="middle" x="697.5" y="-228.8" font-family="Times New Roman,serif" font-size="14.00">samples = 8.3%</text>
<text text-anchor="middle" x="697.5" y="-213.8" font-family="Times New Roman,serif" font-size="14.00">value = [0.65, 0.35]</text>
<text text-anchor="middle" x="697.5" y="-198.8" font-family="Times New Roman,serif" font-size="14.00">class = Unfunny</text>
</g>
<!-- 74964&#45;&gt;74965 -->
<g id="edge17" class="edge"><title>74964&#45;&gt;74965</title>
<path fill="none" stroke="black" d="M697.5,-309.907C697.5,-301.649 697.5,-292.864 697.5,-284.302"/>
<polygon fill="black" stroke="black" points="701,-284.021 697.5,-274.021 694,-284.021 701,-284.021"/>
</g>
<!-- 80144 -->
<g id="node25" class="node"><title>80144</title>
<polygon fill="#e58139" fill-opacity="0.670588" stroke="black" points="1081,-274 942,-274 942,-191 1081,-191 1081,-274"/>
<text text-anchor="middle" x="1011.5" y="-258.8" font-family="Times New Roman,serif" font-size="14.00">asks &lt;= 0.037</text>
<text text-anchor="middle" x="1011.5" y="-243.8" font-family="Times New Roman,serif" font-size="14.00">gini = 0.374</text>
<text text-anchor="middle" x="1011.5" y="-228.8" font-family="Times New Roman,serif" font-size="14.00">samples = 4.1%</text>
<text text-anchor="middle" x="1011.5" y="-213.8" font-family="Times New Roman,serif" font-size="14.00">value = [0.751, 0.249]</text>
<text text-anchor="middle" x="1011.5" y="-198.8" font-family="Times New Roman,serif" font-size="14.00">class = Unfunny</text>
</g>
<!-- 74964&#45;&gt;80144 -->
<g id="edge24" class="edge"><title>74964&#45;&gt;80144</title>
<path fill="none" stroke="black" d="M767.187,-324.534C815.987,-306.351 881.288,-282.018 932.101,-263.085"/>
<polygon fill="black" stroke="black" points="933.589,-266.266 941.737,-259.494 931.144,-259.706 933.589,-266.266"/>
</g>
<!-- 74966 -->
<g id="node19" class="node"><title>74966</title>
<polygon fill="#e58139" fill-opacity="0.647059" stroke="black" points="767,-155 628,-155 628,-72 767,-72 767,-155"/>
<text text-anchor="middle" x="697.5" y="-139.8" font-family="Times New Roman,serif" font-size="14.00">computer &lt;= 0.047</text>
<text text-anchor="middle" x="697.5" y="-124.8" font-family="Times New Roman,serif" font-size="14.00">gini = 0.387</text>
<text text-anchor="middle" x="697.5" y="-109.8" font-family="Times New Roman,serif" font-size="14.00">samples = 1.9%</text>
<text text-anchor="middle" x="697.5" y="-94.8" font-family="Times New Roman,serif" font-size="14.00">value = [0.738, 0.262]</text>
<text text-anchor="middle" x="697.5" y="-79.8" font-family="Times New Roman,serif" font-size="14.00">class = Unfunny</text>
</g>
<!-- 74965&#45;&gt;74966 -->
<g id="edge18" class="edge"><title>74965&#45;&gt;74966</title>
<path fill="none" stroke="black" d="M697.5,-190.907C697.5,-182.649 697.5,-173.864 697.5,-165.302"/>
<polygon fill="black" stroke="black" points="701,-165.021 697.5,-155.021 694,-165.021 701,-165.021"/>
</g>
<!-- 75947 -->
<g id="node22" class="node"><title>75947</title>
<polygon fill="#e58139" fill-opacity="0.396078" stroke="black" points="924,-155 785,-155 785,-72 924,-72 924,-155"/>
<text text-anchor="middle" x="854.5" y="-139.8" font-family="Times New Roman,serif" font-size="14.00">bar says &lt;= 0.186</text>
<text text-anchor="middle" x="854.5" y="-124.8" font-family="Times New Roman,serif" font-size="14.00">gini = 0.47</text>
<text text-anchor="middle" x="854.5" y="-109.8" font-family="Times New Roman,serif" font-size="14.00">samples = 6.3%</text>
<text text-anchor="middle" x="854.5" y="-94.8" font-family="Times New Roman,serif" font-size="14.00">value = [0.623, 0.377]</text>
<text text-anchor="middle" x="854.5" y="-79.8" font-family="Times New Roman,serif" font-size="14.00">class = Unfunny</text>
</g>
<!-- 74965&#45;&gt;75947 -->
<g id="edge21" class="edge"><title>74965&#45;&gt;75947</title>
<path fill="none" stroke="black" d="M751.97,-190.907C764.879,-181.288 778.746,-170.953 791.981,-161.09"/>
<polygon fill="black" stroke="black" points="794.199,-163.803 800.126,-155.021 790.016,-158.19 794.199,-163.803"/>
</g>
<!-- 74967 -->
<g id="node20" class="node"><title>74967</title>
<polygon fill="#c0c0c0" stroke="black" points="668.5,-36 614.5,-36 614.5,-0 668.5,-0 668.5,-36"/>
<text text-anchor="middle" x="641.5" y="-14.3" font-family="Times New Roman,serif" font-size="14.00">(...)</text>
</g>
<!-- 74966&#45;&gt;74967 -->
<g id="edge19" class="edge"><title>74966&#45;&gt;74967</title>
<path fill="none" stroke="black" d="M673.1,-71.7615C667.704,-62.7512 662.126,-53.4379 657.186,-45.1906"/>
<polygon fill="black" stroke="black" points="660.065,-43.1857 651.924,-36.4051 654.06,-46.7825 660.065,-43.1857"/>
</g>
<!-- 75934 -->
<g id="node21" class="node"><title>75934</title>
<polygon fill="#c0c0c0" stroke="black" points="740.5,-36 686.5,-36 686.5,-0 740.5,-0 740.5,-36"/>
<text text-anchor="middle" x="713.5" y="-14.3" font-family="Times New Roman,serif" font-size="14.00">(...)</text>
</g>
<!-- 74966&#45;&gt;75934 -->
<g id="edge20" class="edge"><title>74966&#45;&gt;75934</title>
<path fill="none" stroke="black" d="M704.471,-71.7615C705.93,-63.2356 707.436,-54.4385 708.789,-46.5299"/>
<polygon fill="black" stroke="black" points="712.285,-46.8522 710.522,-36.4051 705.385,-45.6714 712.285,-46.8522"/>
</g>
<!-- 75948 -->
<g id="node23" class="node"><title>75948</title>
<polygon fill="#c0c0c0" stroke="black" points="815.5,-36 761.5,-36 761.5,-0 815.5,-0 815.5,-36"/>
<text text-anchor="middle" x="788.5" y="-14.3" font-family="Times New Roman,serif" font-size="14.00">(...)</text>
</g>
<!-- 75947&#45;&gt;75948 -->
<g id="edge22" class="edge"><title>75947&#45;&gt;75948</title>
<path fill="none" stroke="black" d="M825.743,-71.7615C819.246,-62.5574 812.526,-53.0372 806.613,-44.6601"/>
<polygon fill="black" stroke="black" points="809.412,-42.5564 800.786,-36.4051 803.693,-46.5932 809.412,-42.5564"/>
</g>
<!-- 80095 -->
<g id="node24" class="node"><title>80095</title>
<polygon fill="#c0c0c0" stroke="black" points="887.5,-36 833.5,-36 833.5,-0 887.5,-0 887.5,-36"/>
<text text-anchor="middle" x="860.5" y="-14.3" font-family="Times New Roman,serif" font-size="14.00">(...)</text>
</g>
<!-- 75947&#45;&gt;80095 -->
<g id="edge23" class="edge"><title>75947&#45;&gt;80095</title>
<path fill="none" stroke="black" d="M857.114,-71.7615C857.661,-63.2356 858.226,-54.4385 858.733,-46.5299"/>
<polygon fill="black" stroke="black" points="862.235,-46.6087 859.383,-36.4051 855.25,-46.1604 862.235,-46.6087"/>
</g>
<!-- 80145 -->
<g id="node26" class="node"><title>80145</title>
<polygon fill="#e58139" fill-opacity="0.768627" stroke="black" points="1081,-155 942,-155 942,-72 1081,-72 1081,-155"/>
<text text-anchor="middle" x="1011.5" y="-139.8" font-family="Times New Roman,serif" font-size="14.00">disaster &lt;= 0.022</text>
<text text-anchor="middle" x="1011.5" y="-124.8" font-family="Times New Roman,serif" font-size="14.00">gini = 0.306</text>
<text text-anchor="middle" x="1011.5" y="-109.8" font-family="Times New Roman,serif" font-size="14.00">samples = 1.2%</text>
<text text-anchor="middle" x="1011.5" y="-94.8" font-family="Times New Roman,serif" font-size="14.00">value = [0.812, 0.188]</text>
<text text-anchor="middle" x="1011.5" y="-79.8" font-family="Times New Roman,serif" font-size="14.00">class = Unfunny</text>
</g>
<!-- 80144&#45;&gt;80145 -->
<g id="edge25" class="edge"><title>80144&#45;&gt;80145</title>
<path fill="none" stroke="black" d="M1011.5,-190.907C1011.5,-182.649 1011.5,-173.864 1011.5,-165.302"/>
<polygon fill="black" stroke="black" points="1015,-165.021 1011.5,-155.021 1008,-165.021 1015,-165.021"/>
</g>
<!-- 80598 -->
<g id="node29" class="node"><title>80598</title>
<polygon fill="#e58139" fill-opacity="0.623529" stroke="black" points="1238,-155 1099,-155 1099,-72 1238,-72 1238,-155"/>
<text text-anchor="middle" x="1168.5" y="-139.8" font-family="Times New Roman,serif" font-size="14.00">wife &lt;= 0.02</text>
<text text-anchor="middle" x="1168.5" y="-124.8" font-family="Times New Roman,serif" font-size="14.00">gini = 0.397</text>
<text text-anchor="middle" x="1168.5" y="-109.8" font-family="Times New Roman,serif" font-size="14.00">samples = 2.9%</text>
<text text-anchor="middle" x="1168.5" y="-94.8" font-family="Times New Roman,serif" font-size="14.00">value = [0.727, 0.273]</text>
<text text-anchor="middle" x="1168.5" y="-79.8" font-family="Times New Roman,serif" font-size="14.00">class = Unfunny</text>
</g>
<!-- 80144&#45;&gt;80598 -->
<g id="edge28" class="edge"><title>80144&#45;&gt;80598</title>
<path fill="none" stroke="black" d="M1065.97,-190.907C1078.88,-181.288 1092.75,-170.953 1105.98,-161.09"/>
<polygon fill="black" stroke="black" points="1108.2,-163.803 1114.13,-155.021 1104.02,-158.19 1108.2,-163.803"/>
</g>
<!-- 80146 -->
<g id="node27" class="node"><title>80146</title>
<polygon fill="#c0c0c0" stroke="black" points="990.5,-36 936.5,-36 936.5,-0 990.5,-0 990.5,-36"/>
<text text-anchor="middle" x="963.5" y="-14.3" font-family="Times New Roman,serif" font-size="14.00">(...)</text>
</g>
<!-- 80145&#45;&gt;80146 -->
<g id="edge26" class="edge"><title>80145&#45;&gt;80146</title>
<path fill="none" stroke="black" d="M990.586,-71.7615C986.01,-62.8481 981.282,-53.6382 977.082,-45.4571"/>
<polygon fill="black" stroke="black" points="980.116,-43.7028 972.435,-36.4051 973.889,-46.8998 980.116,-43.7028"/>
</g>
<!-- 80597 -->
<g id="node28" class="node"><title>80597</title>
<polygon fill="#c0c0c0" stroke="black" points="1062.5,-36 1008.5,-36 1008.5,-0 1062.5,-0 1062.5,-36"/>
<text text-anchor="middle" x="1035.5" y="-14.3" font-family="Times New Roman,serif" font-size="14.00">(...)</text>
</g>
<!-- 80145&#45;&gt;80597 -->
<g id="edge27" class="edge"><title>80145&#45;&gt;80597</title>
<path fill="none" stroke="black" d="M1021.96,-71.7615C1024.17,-63.1387 1026.45,-54.2385 1028.5,-46.2606"/>
<polygon fill="black" stroke="black" points="1031.94,-46.9613 1031.03,-36.4051 1025.16,-45.2209 1031.94,-46.9613"/>
</g>
<!-- 80599 -->
<g id="node30" class="node"><title>80599</title>
<polygon fill="#c0c0c0" stroke="black" points="1159.5,-36 1105.5,-36 1105.5,-0 1159.5,-0 1159.5,-36"/>
<text text-anchor="middle" x="1132.5" y="-14.3" font-family="Times New Roman,serif" font-size="14.00">(...)</text>
</g>
<!-- 80598&#45;&gt;80599 -->
<g id="edge29" class="edge"><title>80598&#45;&gt;80599</title>
<path fill="none" stroke="black" d="M1152.81,-71.7615C1149.46,-63.0419 1145.99,-54.0385 1142.89,-45.9921"/>
<polygon fill="black" stroke="black" points="1146.06,-44.4797 1139.2,-36.4051 1139.53,-46.9949 1146.06,-44.4797"/>
</g>
<!-- 82016 -->
<g id="node31" class="node"><title>82016</title>
<polygon fill="#c0c0c0" stroke="black" points="1231.5,-36 1177.5,-36 1177.5,-0 1231.5,-0 1231.5,-36"/>
<text text-anchor="middle" x="1204.5" y="-14.3" font-family="Times New Roman,serif" font-size="14.00">(...)</text>
</g>
<!-- 80598&#45;&gt;82016 -->
<g id="edge30" class="edge"><title>80598&#45;&gt;82016</title>
<path fill="none" stroke="black" d="M1184.19,-71.7615C1187.54,-63.0419 1191.01,-54.0385 1194.11,-45.9921"/>
<polygon fill="black" stroke="black" points="1197.47,-46.9949 1197.8,-36.4051 1190.94,-44.4797 1197.47,-46.9949"/>
</g>
</g>
</svg>
