<?xml version="1.0" encoding="UTF-8" standalone="no"?>
<!DOCTYPE svg PUBLIC "-//W3C//DTD SVG 1.1//EN"
 "http://www.w3.org/Graphics/SVG/1.1/DTD/svg11.dtd">
<!-- Generated by graphviz version 2.38.0 (20140413.2041)
 -->
<!-- Title: Tree Pages: 1 -->
<svg width="1246pt" height="520pt"
 viewBox="0.00 0.00 1246.00 520.00" xmlns="http://www.w3.org/2000/svg" xmlns:xlink="http://www.w3.org/1999/xlink">
<g id="graph0" class="graph" transform="scale(1 1) rotate(0) translate(4 516)">
<title>Tree</title>
<polygon fill="white" stroke="none" points="-4,4 -4,-516 1242,-516 1242,4 -4,4"/>
<!-- 0 -->
<g id="node1" class="node"><title>0</title>
<polygon fill="#e58139" fill-opacity="0.054902" stroke="black" points="688,-512 549,-512 549,-429 688,-429 688,-512"/>
<text text-anchor="middle" x="618.5" y="-496.8" font-family="Times New Roman,serif" font-size="14.00">says &lt;= 0.007</text>
<text text-anchor="middle" x="618.5" y="-481.8" font-family="Times New Roman,serif" font-size="14.00">gini = 0.5</text>
<text text-anchor="middle" x="618.5" y="-466.8" font-family="Times New Roman,serif" font-size="14.00">samples = 100.0%</text>
<text text-anchor="middle" x="618.5" y="-451.8" font-family="Times New Roman,serif" font-size="14.00">value = [0.514, 0.486]</text>
<text text-anchor="middle" x="618.5" y="-436.8" font-family="Times New Roman,serif" font-size="14.00">class = Unfunny</text>
</g>
<!-- 1 -->
<g id="node2" class="node"><title>1</title>
<polygon fill="#e58139" fill-opacity="0.152941" stroke="black" points="571,-393 432,-393 432,-310 571,-310 571,-393"/>
<text text-anchor="middle" x="501.5" y="-377.8" font-family="Times New Roman,serif" font-size="14.00">said &lt;= 0.006</text>
<text text-anchor="middle" x="501.5" y="-362.8" font-family="Times New Roman,serif" font-size="14.00">gini = 0.497</text>
<text text-anchor="middle" x="501.5" y="-347.8" font-family="Times New Roman,serif" font-size="14.00">samples = 87.7%</text>
<text text-anchor="middle" x="501.5" y="-332.8" font-family="Times New Roman,serif" font-size="14.00">value = [0.542, 0.458]</text>
<text text-anchor="middle" x="501.5" y="-317.8" font-family="Times New Roman,serif" font-size="14.00">class = Unfunny</text>
</g>
<!-- 0&#45;&gt;1 -->
<g id="edge1" class="edge"><title>0&#45;&gt;1</title>
<path fill="none" stroke="black" d="M577.907,-428.907C568.651,-419.651 558.732,-409.732 549.209,-400.209"/>
<polygon fill="black" stroke="black" points="551.567,-397.617 542.021,-393.021 546.617,-402.567 551.567,-397.617"/>
<text text-anchor="middle" x="542.021" y="-414.321" font-family="Times New Roman,serif" font-size="14.00">True</text>
</g>
<!-- 74884 -->
<g id="node17" class="node"><title>74884</title>
<polygon fill="#399de5" fill-opacity="0.537255" stroke="black" points="806,-393 667,-393 667,-310 806,-310 806,-393"/>
<text text-anchor="middle" x="736.5" y="-377.8" font-family="Times New Roman,serif" font-size="14.00">asks &lt;= 0.007</text>
<text text-anchor="middle" x="736.5" y="-362.8" font-family="Times New Roman,serif" font-size="14.00">gini = 0.433</text>
<text text-anchor="middle" x="736.5" y="-347.8" font-family="Times New Roman,serif" font-size="14.00">samples = 12.3%</text>
<text text-anchor="middle" x="736.5" y="-332.8" font-family="Times New Roman,serif" font-size="14.00">value = [0.317, 0.683]</text>
<text text-anchor="middle" x="736.5" y="-317.8" font-family="Times New Roman,serif" font-size="14.00">class = Funny</text>
</g>
<!-- 0&#45;&gt;74884 -->
<g id="edge16" class="edge"><title>0&#45;&gt;74884</title>
<path fill="none" stroke="black" d="M659.44,-428.907C668.775,-419.651 678.779,-409.732 688.383,-400.209"/>
<polygon fill="black" stroke="black" points="690.996,-402.547 695.633,-393.021 686.067,-397.576 690.996,-402.547"/>
<text text-anchor="middle" x="695.526" y="-414.321" font-family="Times New Roman,serif" font-size="14.00">False</text>
</g>
<!-- 2 -->
<g id="node3" class="node"><title>2</title>
<polygon fill="#e58139" fill-opacity="0.215686" stroke="black" points="296,-274 157,-274 157,-191 296,-191 296,-274"/>
<text text-anchor="middle" x="226.5" y="-258.8" font-family="Times New Roman,serif" font-size="14.00">wife &lt;= 0.015</text>
<text text-anchor="middle" x="226.5" y="-243.8" font-family="Times New Roman,serif" font-size="14.00">gini = 0.493</text>
<text text-anchor="middle" x="226.5" y="-228.8" font-family="Times New Roman,serif" font-size="14.00">samples = 79.8%</text>
<text text-anchor="middle" x="226.5" y="-213.8" font-family="Times New Roman,serif" font-size="14.00">value = [0.561, 0.439]</text>
<text text-anchor="middle" x="226.5" y="-198.8" font-family="Times New Roman,serif" font-size="14.00">class = Unfunny</text>
</g>
<!-- 1&#45;&gt;2 -->
<g id="edge2" class="edge"><title>1&#45;&gt;2</title>
<path fill="none" stroke="black" d="M431.75,-320.825C393.301,-304.466 345.43,-284.099 305.592,-267.15"/>
<polygon fill="black" stroke="black" points="306.747,-263.838 296.175,-263.144 304.007,-270.279 306.747,-263.838"/>
</g>
<!-- 69847 -->
<g id="node10" class="node"><title>69847</title>
<polygon fill="#399de5" fill-opacity="0.462745" stroke="black" points="571,-274 432,-274 432,-191 571,-191 571,-274"/>
<text text-anchor="middle" x="501.5" y="-258.8" font-family="Times New Roman,serif" font-size="14.00">said &lt;= 0.045</text>
<text text-anchor="middle" x="501.5" y="-243.8" font-family="Times New Roman,serif" font-size="14.00">gini = 0.455</text>
<text text-anchor="middle" x="501.5" y="-228.8" font-family="Times New Roman,serif" font-size="14.00">samples = 7.9%</text>
<text text-anchor="middle" x="501.5" y="-213.8" font-family="Times New Roman,serif" font-size="14.00">value = [0.349, 0.651]</text>
<text text-anchor="middle" x="501.5" y="-198.8" font-family="Times New Roman,serif" font-size="14.00">class = Funny</text>
</g>
<!-- 1&#45;&gt;69847 -->
<g id="edge9" class="edge"><title>1&#45;&gt;69847</title>
<path fill="none" stroke="black" d="M501.5,-309.907C501.5,-301.649 501.5,-292.864 501.5,-284.302"/>
<polygon fill="black" stroke="black" points="505,-284.021 501.5,-274.021 498,-284.021 505,-284.021"/>
</g>
<!-- 3 -->
<g id="node4" class="node"><title>3</title>
<polygon fill="#e58139" fill-opacity="0.235294" stroke="black" points="139,-155 0,-155 0,-72 139,-72 139,-155"/>
<text text-anchor="middle" x="69.5" y="-139.8" font-family="Times New Roman,serif" font-size="14.00">asks &lt;= 0.011</text>
<text text-anchor="middle" x="69.5" y="-124.8" font-family="Times New Roman,serif" font-size="14.00">gini = 0.491</text>
<text text-anchor="middle" x="69.5" y="-109.8" font-family="Times New Roman,serif" font-size="14.00">samples = 77.2%</text>
<text text-anchor="middle" x="69.5" y="-94.8" font-family="Times New Roman,serif" font-size="14.00">value = [0.567, 0.433]</text>
<text text-anchor="middle" x="69.5" y="-79.8" font-family="Times New Roman,serif" font-size="14.00">class = Unfunny</text>
</g>
<!-- 2&#45;&gt;3 -->
<g id="edge3" class="edge"><title>2&#45;&gt;3</title>
<path fill="none" stroke="black" d="M172.03,-190.907C159.121,-181.288 145.254,-170.953 132.019,-161.09"/>
<polygon fill="black" stroke="black" points="133.984,-158.19 123.874,-155.021 129.801,-163.803 133.984,-158.19"/>
</g>
<!-- 67900 -->
<g id="node7" class="node"><title>67900</title>
<polygon fill="#399de5" fill-opacity="0.380392" stroke="black" points="296,-155 157,-155 157,-72 296,-72 296,-155"/>
<text text-anchor="middle" x="226.5" y="-139.8" font-family="Times New Roman,serif" font-size="14.00">wife &lt;= 0.103</text>
<text text-anchor="middle" x="226.5" y="-124.8" font-family="Times New Roman,serif" font-size="14.00">gini = 0.473</text>
<text text-anchor="middle" x="226.5" y="-109.8" font-family="Times New Roman,serif" font-size="14.00">samples = 2.6%</text>
<text text-anchor="middle" x="226.5" y="-94.8" font-family="Times New Roman,serif" font-size="14.00">value = [0.383, 0.617]</text>
<text text-anchor="middle" x="226.5" y="-79.8" font-family="Times New Roman,serif" font-size="14.00">class = Funny</text>
</g>
<!-- 2&#45;&gt;67900 -->
<g id="edge6" class="edge"><title>2&#45;&gt;67900</title>
<path fill="none" stroke="black" d="M226.5,-190.907C226.5,-182.649 226.5,-173.864 226.5,-165.302"/>
<polygon fill="black" stroke="black" points="230,-165.021 226.5,-155.021 223,-165.021 230,-165.021"/>
</g>
<!-- 4 -->
<g id="node5" class="node"><title>4</title>
<polygon fill="#c0c0c0" stroke="black" points="90.5,-36 36.5,-36 36.5,-0 90.5,-0 90.5,-36"/>
<text text-anchor="middle" x="63.5" y="-14.3" font-family="Times New Roman,serif" font-size="14.00">(...)</text>
</g>
<!-- 3&#45;&gt;4 -->
<g id="edge4" class="edge"><title>3&#45;&gt;4</title>
<path fill="none" stroke="black" d="M66.8858,-71.7615C66.3386,-63.2356 65.7741,-54.4385 65.2666,-46.5299"/>
<polygon fill="black" stroke="black" points="68.7502,-46.1604 64.6169,-36.4051 61.7646,-46.6087 68.7502,-46.1604"/>
</g>
<!-- 66579 -->
<g id="node6" class="node"><title>66579</title>
<polygon fill="#c0c0c0" stroke="black" points="162.5,-36 108.5,-36 108.5,-0 162.5,-0 162.5,-36"/>
<text text-anchor="middle" x="135.5" y="-14.3" font-family="Times New Roman,serif" font-size="14.00">(...)</text>
</g>
<!-- 3&#45;&gt;66579 -->
<g id="edge5" class="edge"><title>3&#45;&gt;66579</title>
<path fill="none" stroke="black" d="M98.2566,-71.7615C104.754,-62.5574 111.474,-53.0372 117.387,-44.6601"/>
<polygon fill="black" stroke="black" points="120.307,-46.5932 123.214,-36.4051 114.588,-42.5564 120.307,-46.5932"/>
</g>
<!-- 67901 -->
<g id="node8" class="node"><title>67901</title>
<polygon fill="#c0c0c0" stroke="black" points="234.5,-36 180.5,-36 180.5,-0 234.5,-0 234.5,-36"/>
<text text-anchor="middle" x="207.5" y="-14.3" font-family="Times New Roman,serif" font-size="14.00">(...)</text>
</g>
<!-- 67900&#45;&gt;67901 -->
<g id="edge7" class="edge"><title>67900&#45;&gt;67901</title>
<path fill="none" stroke="black" d="M218.222,-71.7615C216.469,-63.1387 214.661,-54.2385 213.04,-46.2606"/>
<polygon fill="black" stroke="black" points="216.458,-45.5078 211.037,-36.4051 209.598,-46.9018 216.458,-45.5078"/>
</g>
<!-- 68472 -->
<g id="node9" class="node"><title>68472</title>
<polygon fill="#c0c0c0" stroke="black" points="306.5,-36 252.5,-36 252.5,-0 306.5,-0 306.5,-36"/>
<text text-anchor="middle" x="279.5" y="-14.3" font-family="Times New Roman,serif" font-size="14.00">(...)</text>
</g>
<!-- 67900&#45;&gt;68472 -->
<g id="edge8" class="edge"><title>67900&#45;&gt;68472</title>
<path fill="none" stroke="black" d="M249.592,-71.7615C254.7,-62.7512 259.979,-53.4379 264.654,-45.1906"/>
<polygon fill="black" stroke="black" points="267.748,-46.8306 269.634,-36.4051 261.658,-43.3787 267.748,-46.8306"/>
</g>
<!-- 69848 -->
<g id="node11" class="node"><title>69848</title>
<polygon fill="#399de5" fill-opacity="0.721569" stroke="black" points="453,-155 314,-155 314,-72 453,-72 453,-155"/>
<text text-anchor="middle" x="383.5" y="-139.8" font-family="Times New Roman,serif" font-size="14.00">like &lt;= 0.031</text>
<text text-anchor="middle" x="383.5" y="-124.8" font-family="Times New Roman,serif" font-size="14.00">gini = 0.341</text>
<text text-anchor="middle" x="383.5" y="-109.8" font-family="Times New Roman,serif" font-size="14.00">samples = 1.8%</text>
<text text-anchor="middle" x="383.5" y="-94.8" font-family="Times New Roman,serif" font-size="14.00">value = [0.218, 0.782]</text>
<text text-anchor="middle" x="383.5" y="-79.8" font-family="Times New Roman,serif" font-size="14.00">class = Funny</text>
</g>
<!-- 69847&#45;&gt;69848 -->
<g id="edge10" class="edge"><title>69847&#45;&gt;69848</title>
<path fill="none" stroke="black" d="M460.56,-190.907C451.225,-181.651 441.221,-171.732 431.617,-162.209"/>
<polygon fill="black" stroke="black" points="433.933,-159.576 424.367,-155.021 429.004,-164.547 433.933,-159.576"/>
</g>
<!-- 70615 -->
<g id="node14" class="node"><title>70615</title>
<polygon fill="#399de5" fill-opacity="0.368627" stroke="black" points="610,-155 471,-155 471,-72 610,-72 610,-155"/>
<text text-anchor="middle" x="540.5" y="-139.8" font-family="Times New Roman,serif" font-size="14.00">replied &lt;= 0.005</text>
<text text-anchor="middle" x="540.5" y="-124.8" font-family="Times New Roman,serif" font-size="14.00">gini = 0.475</text>
<text text-anchor="middle" x="540.5" y="-109.8" font-family="Times New Roman,serif" font-size="14.00">samples = 6.1%</text>
<text text-anchor="middle" x="540.5" y="-94.8" font-family="Times New Roman,serif" font-size="14.00">value = [0.387, 0.613]</text>
<text text-anchor="middle" x="540.5" y="-79.8" font-family="Times New Roman,serif" font-size="14.00">class = Funny</text>
</g>
<!-- 69847&#45;&gt;70615 -->
<g id="edge13" class="edge"><title>69847&#45;&gt;70615</title>
<path fill="none" stroke="black" d="M515.031,-190.907C517.844,-182.468 520.841,-173.477 523.754,-164.738"/>
<polygon fill="black" stroke="black" points="527.151,-165.614 526.993,-155.021 520.51,-163.401 527.151,-165.614"/>
</g>
<!-- 69849 -->
<g id="node12" class="node"><title>69849</title>
<polygon fill="#c0c0c0" stroke="black" points="378.5,-36 324.5,-36 324.5,-0 378.5,-0 378.5,-36"/>
<text text-anchor="middle" x="351.5" y="-14.3" font-family="Times New Roman,serif" font-size="14.00">(...)</text>
</g>
<!-- 69848&#45;&gt;69849 -->
<g id="edge11" class="edge"><title>69848&#45;&gt;69849</title>
<path fill="none" stroke="black" d="M369.557,-71.7615C366.573,-63.0419 363.492,-54.0385 360.738,-45.9921"/>
<polygon fill="black" stroke="black" points="364.006,-44.733 357.457,-36.4051 357.384,-46.9997 364.006,-44.733"/>
</g>
<!-- 70528 -->
<g id="node13" class="node"><title>70528</title>
<polygon fill="#c0c0c0" stroke="black" points="450.5,-36 396.5,-36 396.5,-0 450.5,-0 450.5,-36"/>
<text text-anchor="middle" x="423.5" y="-14.3" font-family="Times New Roman,serif" font-size="14.00">(...)</text>
</g>
<!-- 69848&#45;&gt;70528 -->
<g id="edge12" class="edge"><title>69848&#45;&gt;70528</title>
<path fill="none" stroke="black" d="M400.928,-71.7615C404.7,-62.945 408.596,-53.8384 412.067,-45.7242"/>
<polygon fill="black" stroke="black" points="415.339,-46.9758 416.054,-36.4051 408.903,-44.2224 415.339,-46.9758"/>
</g>
<!-- 70616 -->
<g id="node15" class="node"><title>70616</title>
<polygon fill="#c0c0c0" stroke="black" points="523.5,-36 469.5,-36 469.5,-0 523.5,-0 523.5,-36"/>
<text text-anchor="middle" x="496.5" y="-14.3" font-family="Times New Roman,serif" font-size="14.00">(...)</text>
</g>
<!-- 70615&#45;&gt;70616 -->
<g id="edge14" class="edge"><title>70615&#45;&gt;70616</title>
<path fill="none" stroke="black" d="M521.329,-71.7615C517.134,-62.8481 512.8,-53.6382 508.95,-45.4571"/>
<polygon fill="black" stroke="black" points="512.116,-43.963 504.691,-36.4051 505.782,-46.9436 512.116,-43.963"/>
</g>
<!-- 74271 -->
<g id="node16" class="node"><title>74271</title>
<polygon fill="#c0c0c0" stroke="black" points="595.5,-36 541.5,-36 541.5,-0 595.5,-0 595.5,-36"/>
<text text-anchor="middle" x="568.5" y="-14.3" font-family="Times New Roman,serif" font-size="14.00">(...)</text>
</g>
<!-- 70615&#45;&gt;74271 -->
<g id="edge15" class="edge"><title>70615&#45;&gt;74271</title>
<path fill="none" stroke="black" d="M552.7,-71.7615C555.311,-63.0419 558.007,-54.0385 560.417,-45.9921"/>
<polygon fill="black" stroke="black" points="563.772,-46.9889 563.288,-36.4051 557.066,-44.9807 563.772,-46.9889"/>
</g>
<!-- 74885 -->
<g id="node18" class="node"><title>74885</title>
<polygon fill="#399de5" fill-opacity="0.462745" stroke="black" points="806,-274 667,-274 667,-191 806,-191 806,-274"/>
<text text-anchor="middle" x="736.5" y="-258.8" font-family="Times New Roman,serif" font-size="14.00">says &lt;= 0.036</text>
<text text-anchor="middle" x="736.5" y="-243.8" font-family="Times New Roman,serif" font-size="14.00">gini = 0.454</text>
<text text-anchor="middle" x="736.5" y="-228.8" font-family="Times New Roman,serif" font-size="14.00">samples = 8.3%</text>
<text text-anchor="middle" x="736.5" y="-213.8" font-family="Times New Roman,serif" font-size="14.00">value = [0.349, 0.651]</text>
<text text-anchor="middle" x="736.5" y="-198.8" font-family="Times New Roman,serif" font-size="14.00">class = Funny</text>
</g>
<!-- 74884&#45;&gt;74885 -->
<g id="edge17" class="edge"><title>74884&#45;&gt;74885</title>
<path fill="none" stroke="black" d="M736.5,-309.907C736.5,-301.649 736.5,-292.864 736.5,-284.302"/>
<polygon fill="black" stroke="black" points="740,-284.021 736.5,-274.021 733,-284.021 740,-284.021"/>
</g>
<!-- 80042 -->
<g id="node25" class="node"><title>80042</title>
<polygon fill="#399de5" fill-opacity="0.662745" stroke="black" points="1081,-274 942,-274 942,-191 1081,-191 1081,-274"/>
<text text-anchor="middle" x="1011.5" y="-258.8" font-family="Times New Roman,serif" font-size="14.00">asks &lt;= 0.037</text>
<text text-anchor="middle" x="1011.5" y="-243.8" font-family="Times New Roman,serif" font-size="14.00">gini = 0.376</text>
<text text-anchor="middle" x="1011.5" y="-228.8" font-family="Times New Roman,serif" font-size="14.00">samples = 4.0%</text>
<text text-anchor="middle" x="1011.5" y="-213.8" font-family="Times New Roman,serif" font-size="14.00">value = [0.251, 0.749]</text>
<text text-anchor="middle" x="1011.5" y="-198.8" font-family="Times New Roman,serif" font-size="14.00">class = Funny</text>
</g>
<!-- 74884&#45;&gt;80042 -->
<g id="edge24" class="edge"><title>74884&#45;&gt;80042</title>
<path fill="none" stroke="black" d="M806.25,-320.825C844.699,-304.466 892.57,-284.099 932.408,-267.15"/>
<polygon fill="black" stroke="black" points="933.993,-270.279 941.825,-263.144 931.253,-263.838 933.993,-270.279"/>
</g>
<!-- 74886 -->
<g id="node19" class="node"><title>74886</title>
<polygon fill="#399de5" fill-opacity="0.690196" stroke="black" points="767,-155 628,-155 628,-72 767,-72 767,-155"/>
<text text-anchor="middle" x="697.5" y="-139.8" font-family="Times New Roman,serif" font-size="14.00">screen &lt;= 0.02</text>
<text text-anchor="middle" x="697.5" y="-124.8" font-family="Times New Roman,serif" font-size="14.00">gini = 0.362</text>
<text text-anchor="middle" x="697.5" y="-109.8" font-family="Times New Roman,serif" font-size="14.00">samples = 1.2%</text>
<text text-anchor="middle" x="697.5" y="-94.8" font-family="Times New Roman,serif" font-size="14.00">value = [0.237, 0.763]</text>
<text text-anchor="middle" x="697.5" y="-79.8" font-family="Times New Roman,serif" font-size="14.00">class = Funny</text>
</g>
<!-- 74885&#45;&gt;74886 -->
<g id="edge18" class="edge"><title>74885&#45;&gt;74886</title>
<path fill="none" stroke="black" d="M722.969,-190.907C720.156,-182.468 717.159,-173.477 714.246,-164.738"/>
<polygon fill="black" stroke="black" points="717.49,-163.401 711.007,-155.021 710.849,-165.614 717.49,-163.401"/>
</g>
<!-- 75481 -->
<g id="node22" class="node"><title>75481</title>
<polygon fill="#399de5" fill-opacity="0.415686" stroke="black" points="924,-155 785,-155 785,-72 924,-72 924,-155"/>
<text text-anchor="middle" x="854.5" y="-139.8" font-family="Times New Roman,serif" font-size="14.00">bar says &lt;= 0.171</text>
<text text-anchor="middle" x="854.5" y="-124.8" font-family="Times New Roman,serif" font-size="14.00">gini = 0.466</text>
<text text-anchor="middle" x="854.5" y="-109.8" font-family="Times New Roman,serif" font-size="14.00">samples = 7.0%</text>
<text text-anchor="middle" x="854.5" y="-94.8" font-family="Times New Roman,serif" font-size="14.00">value = [0.369, 0.631]</text>
<text text-anchor="middle" x="854.5" y="-79.8" font-family="Times New Roman,serif" font-size="14.00">class = Funny</text>
</g>
<!-- 74885&#45;&gt;75481 -->
<g id="edge21" class="edge"><title>74885&#45;&gt;75481</title>
<path fill="none" stroke="black" d="M777.44,-190.907C786.775,-181.651 796.779,-171.732 806.383,-162.209"/>
<polygon fill="black" stroke="black" points="808.996,-164.547 813.633,-155.021 804.067,-159.576 808.996,-164.547"/>
</g>
<!-- 74887 -->
<g id="node20" class="node"><title>74887</title>
<polygon fill="#c0c0c0" stroke="black" points="668.5,-36 614.5,-36 614.5,-0 668.5,-0 668.5,-36"/>
<text text-anchor="middle" x="641.5" y="-14.3" font-family="Times New Roman,serif" font-size="14.00">(...)</text>
</g>
<!-- 74886&#45;&gt;74887 -->
<g id="edge19" class="edge"><title>74886&#45;&gt;74887</title>
<path fill="none" stroke="black" d="M673.1,-71.7615C667.704,-62.7512 662.126,-53.4379 657.186,-45.1906"/>
<polygon fill="black" stroke="black" points="660.065,-43.1857 651.924,-36.4051 654.06,-46.7825 660.065,-43.1857"/>
</g>
<!-- 75470 -->
<g id="node21" class="node"><title>75470</title>
<polygon fill="#c0c0c0" stroke="black" points="740.5,-36 686.5,-36 686.5,-0 740.5,-0 740.5,-36"/>
<text text-anchor="middle" x="713.5" y="-14.3" font-family="Times New Roman,serif" font-size="14.00">(...)</text>
</g>
<!-- 74886&#45;&gt;75470 -->
<g id="edge20" class="edge"><title>74886&#45;&gt;75470</title>
<path fill="none" stroke="black" d="M704.471,-71.7615C705.93,-63.2356 707.436,-54.4385 708.789,-46.5299"/>
<polygon fill="black" stroke="black" points="712.285,-46.8522 710.522,-36.4051 705.385,-45.6714 712.285,-46.8522"/>
</g>
<!-- 75482 -->
<g id="node23" class="node"><title>75482</title>
<polygon fill="#c0c0c0" stroke="black" points="815.5,-36 761.5,-36 761.5,-0 815.5,-0 815.5,-36"/>
<text text-anchor="middle" x="788.5" y="-14.3" font-family="Times New Roman,serif" font-size="14.00">(...)</text>
</g>
<!-- 75481&#45;&gt;75482 -->
<g id="edge22" class="edge"><title>75481&#45;&gt;75482</title>
<path fill="none" stroke="black" d="M825.743,-71.7615C819.246,-62.5574 812.526,-53.0372 806.613,-44.6601"/>
<polygon fill="black" stroke="black" points="809.412,-42.5564 800.786,-36.4051 803.693,-46.5932 809.412,-42.5564"/>
</g>
<!-- 79989 -->
<g id="node24" class="node"><title>79989</title>
<polygon fill="#c0c0c0" stroke="black" points="887.5,-36 833.5,-36 833.5,-0 887.5,-0 887.5,-36"/>
<text text-anchor="middle" x="860.5" y="-14.3" font-family="Times New Roman,serif" font-size="14.00">(...)</text>
</g>
<!-- 75481&#45;&gt;79989 -->
<g id="edge23" class="edge"><title>75481&#45;&gt;79989</title>
<path fill="none" stroke="black" d="M857.114,-71.7615C857.661,-63.2356 858.226,-54.4385 858.733,-46.5299"/>
<polygon fill="black" stroke="black" points="862.235,-46.6087 859.383,-36.4051 855.25,-46.1604 862.235,-46.6087"/>
</g>
<!-- 80043 -->
<g id="node26" class="node"><title>80043</title>
<polygon fill="#399de5" fill-opacity="0.764706" stroke="black" points="1081,-155 942,-155 942,-72 1081,-72 1081,-155"/>
<text text-anchor="middle" x="1011.5" y="-139.8" font-family="Times New Roman,serif" font-size="14.00">know wrong &lt;= 0.02</text>
<text text-anchor="middle" x="1011.5" y="-124.8" font-family="Times New Roman,serif" font-size="14.00">gini = 0.31</text>
<text text-anchor="middle" x="1011.5" y="-109.8" font-family="Times New Roman,serif" font-size="14.00">samples = 1.3%</text>
<text text-anchor="middle" x="1011.5" y="-94.8" font-family="Times New Roman,serif" font-size="14.00">value = [0.191, 0.809]</text>
<text text-anchor="middle" x="1011.5" y="-79.8" font-family="Times New Roman,serif" font-size="14.00">class = Funny</text>
</g>
<!-- 80042&#45;&gt;80043 -->
<g id="edge25" class="edge"><title>80042&#45;&gt;80043</title>
<path fill="none" stroke="black" d="M1011.5,-190.907C1011.5,-182.649 1011.5,-173.864 1011.5,-165.302"/>
<polygon fill="black" stroke="black" points="1015,-165.021 1011.5,-155.021 1008,-165.021 1015,-165.021"/>
</g>
<!-- 80550 -->
<g id="node29" class="node"><title>80550</title>
<polygon fill="#399de5" fill-opacity="0.611765" stroke="black" points="1238,-155 1099,-155 1099,-72 1238,-72 1238,-155"/>
<text text-anchor="middle" x="1168.5" y="-139.8" font-family="Times New Roman,serif" font-size="14.00">friend says &lt;= 0.15</text>
<text text-anchor="middle" x="1168.5" y="-124.8" font-family="Times New Roman,serif" font-size="14.00">gini = 0.402</text>
<text text-anchor="middle" x="1168.5" y="-109.8" font-family="Times New Roman,serif" font-size="14.00">samples = 2.8%</text>
<text text-anchor="middle" x="1168.5" y="-94.8" font-family="Times New Roman,serif" font-size="14.00">value = [0.279, 0.721]</text>
<text text-anchor="middle" x="1168.5" y="-79.8" font-family="Times New Roman,serif" font-size="14.00">class = Funny</text>
</g>
<!-- 80042&#45;&gt;80550 -->
<g id="edge28" class="edge"><title>80042&#45;&gt;80550</title>
<path fill="none" stroke="black" d="M1065.97,-190.907C1078.88,-181.288 1092.75,-170.953 1105.98,-161.09"/>
<polygon fill="black" stroke="black" points="1108.2,-163.803 1114.13,-155.021 1104.02,-158.19 1108.2,-163.803"/>
</g>
<!-- 80044 -->
<g id="node27" class="node"><title>80044</title>
<polygon fill="#c0c0c0" stroke="black" points="990.5,-36 936.5,-36 936.5,-0 990.5,-0 990.5,-36"/>
<text text-anchor="middle" x="963.5" y="-14.3" font-family="Times New Roman,serif" font-size="14.00">(...)</text>
</g>
<!-- 80043&#45;&gt;80044 -->
<g id="edge26" class="edge"><title>80043&#45;&gt;80044</title>
<path fill="none" stroke="black" d="M990.586,-71.7615C986.01,-62.8481 981.282,-53.6382 977.082,-45.4571"/>
<polygon fill="black" stroke="black" points="980.116,-43.7028 972.435,-36.4051 973.889,-46.8998 980.116,-43.7028"/>
</g>
<!-- 80547 -->
<g id="node28" class="node"><title>80547</title>
<polygon fill="#c0c0c0" stroke="black" points="1062.5,-36 1008.5,-36 1008.5,-0 1062.5,-0 1062.5,-36"/>
<text text-anchor="middle" x="1035.5" y="-14.3" font-family="Times New Roman,serif" font-size="14.00">(...)</text>
</g>
<!-- 80043&#45;&gt;80547 -->
<g id="edge27" class="edge"><title>80043&#45;&gt;80547</title>
<path fill="none" stroke="black" d="M1021.96,-71.7615C1024.17,-63.1387 1026.45,-54.2385 1028.5,-46.2606"/>
<polygon fill="black" stroke="black" points="1031.94,-46.9613 1031.03,-36.4051 1025.16,-45.2209 1031.94,-46.9613"/>
</g>
<!-- 80551 -->
<g id="node30" class="node"><title>80551</title>
<polygon fill="#c0c0c0" stroke="black" points="1159.5,-36 1105.5,-36 1105.5,-0 1159.5,-0 1159.5,-36"/>
<text text-anchor="middle" x="1132.5" y="-14.3" font-family="Times New Roman,serif" font-size="14.00">(...)</text>
</g>
<!-- 80550&#45;&gt;80551 -->
<g id="edge29" class="edge"><title>80550&#45;&gt;80551</title>
<path fill="none" stroke="black" d="M1152.81,-71.7615C1149.46,-63.0419 1145.99,-54.0385 1142.89,-45.9921"/>
<polygon fill="black" stroke="black" points="1146.06,-44.4797 1139.2,-36.4051 1139.53,-46.9949 1146.06,-44.4797"/>
</g>
<!-- 82048 -->
<g id="node31" class="node"><title>82048</title>
<polygon fill="#c0c0c0" stroke="black" points="1231.5,-36 1177.5,-36 1177.5,-0 1231.5,-0 1231.5,-36"/>
<text text-anchor="middle" x="1204.5" y="-14.3" font-family="Times New Roman,serif" font-size="14.00">(...)</text>
</g>
<!-- 80550&#45;&gt;82048 -->
<g id="edge30" class="edge"><title>80550&#45;&gt;82048</title>
<path fill="none" stroke="black" d="M1184.19,-71.7615C1187.54,-63.0419 1191.01,-54.0385 1194.11,-45.9921"/>
<polygon fill="black" stroke="black" points="1197.47,-46.9949 1197.8,-36.4051 1190.94,-44.4797 1197.47,-46.9949"/>
</g>
</g>
</svg>
